<svg id="Layer_1" data-name="Layer 1" xmlns="http://www.w3.org/2000/svg" xmlns:xlink="http://www.w3.org/1999/xlink" viewBox="0 0 185 185"><defs><style>.cls-1,.cls-22{fill:#f2f2f2;}.cls-1{opacity:0.25;}.cls-1,.cls-16{isolation:isolate;}.cls-2,.cls-4{fill:#fff;}.cls-3{fill:#4d4d4d;}.cls-10,.cls-11,.cls-12,.cls-13,.cls-14,.cls-15,.cls-4,.cls-8{stroke:#4d4d4d;stroke-linejoin:round;}.cls-4{stroke-width:3px;}.cls-11,.cls-12,.cls-13,.cls-14,.cls-15,.cls-16,.cls-17,.cls-18,.cls-19,.cls-20,.cls-21,.cls-5,.cls-7,.cls-8,.cls-9{fill-opacity:0.25;}.cls-5{fill:url(#linear-gradient);}.cls-10,.cls-6{fill:#e4e9ca;}.cls-7{fill:url(#linear-gradient-2);}.cls-8{fill:url(#linear-gradient-3);}.cls-9{fill:url(#linear-gradient-4);}.cls-10{stroke-width:1.22px;}.cls-11{fill:url(#linear-gradient-5);}.cls-12{fill:url(#linear-gradient-6);}.cls-13{fill:url(#linear-gradient-7);}.cls-14{fill:url(#linear-gradient-8);}.cls-15{fill:url(#linear-gradient-9);}.cls-16{opacity:0.5;fill:url(#linear-gradient-10);}.cls-17{fill:url(#linear-gradient-11);}.cls-18{fill:url(#linear-gradient-12);}.cls-19{fill:url(#linear-gradient-13);}.cls-20{fill:url(#linear-gradient-14);}.cls-21{fill:url(#linear-gradient-15);}</style><linearGradient id="linear-gradient" x1="66.67" y1="523.64" x2="89.49" y2="523.64" gradientTransform="translate(33.82 -446.5)" gradientUnits="userSpaceOnUse"><stop offset="0" stop-color="#98ad2e"/><stop offset="1" stop-color="#8ea325"/></linearGradient><linearGradient id="linear-gradient-2" x1="10.39" y1="547.17" x2="22.85" y2="547.17" xlink:href="#linear-gradient"/><linearGradient id="linear-gradient-3" x1="74.21" y1="524.87" x2="86.53" y2="524.87" xlink:href="#linear-gradient"/><linearGradient id="linear-gradient-4" x1="-28.72" y1="539" x2="3.35" y2="539" xlink:href="#linear-gradient"/><linearGradient id="linear-gradient-5" x1="85.44" y1="571.1" x2="94.84" y2="571.1" xlink:href="#linear-gradient"/><linearGradient id="linear-gradient-6" x1="73.91" y1="580.17" x2="82.12" y2="580.17" xlink:href="#linear-gradient"/><linearGradient id="linear-gradient-7" x1="66.73" y1="588.81" x2="73.3" y2="588.81" xlink:href="#linear-gradient"/><linearGradient id="linear-gradient-8" x1="102.66" y1="565.24" x2="110.44" y2="565.24" xlink:href="#linear-gradient"/><linearGradient id="linear-gradient-9" x1="80.6" y1="518.74" x2="81.7" y2="518.74" xlink:href="#linear-gradient"/><linearGradient id="linear-gradient-10" x1="74.21" y1="525.27" x2="86.53" y2="525.27" xlink:href="#linear-gradient"/><linearGradient id="linear-gradient-11" x1="123" y1="105.74" x2="185" y2="105.74" gradientTransform="matrix(1, 0, 0, 1, 0, 0)" xlink:href="#linear-gradient"/><linearGradient id="linear-gradient-12" x1="1.47" y1="116.07" x2="33.09" y2="116.07" gradientTransform="matrix(1, 0, 0, 1, 0, 0)" xlink:href="#linear-gradient"/><linearGradient id="linear-gradient-13" x1="48.84" y1="563.82" x2="60.4" y2="563.82" xlink:href="#linear-gradient"/><linearGradient id="linear-gradient-14" x1="58.68" y1="574.81" x2="68.3" y2="574.81" xlink:href="#linear-gradient"/><linearGradient id="linear-gradient-15" x1="38.44" y1="547.75" x2="49.97" y2="547.75" xlink:href="#linear-gradient"/></defs><title>Agree Icon</title><circle class="cls-1" cx="92.5" cy="92.5" r="91.5"/><path class="cls-2" d="M185,90.48a91.66,91.66,0,0,0-7-33.39c-.11-.28-.23-.56-.35-.84s-.15-.38-.24-.57l-2,.39c-18.83,3.67-38.56,7.47-41.06,7.83a18.78,18.78,0,0,1-10.73-1.14A39.06,39.06,0,0,0,117.11,61c-2.26-.17-8.06-.61-14.26-1.62s-12.34-1.26-16.28-.59a77.88,77.88,0,0,1-13.81,1c-2.9-.22-5.81,1.08-6.53,2s-3.52,6.83-3.52,6.83l-.35.19a108.91,108.91,0,0,0-10.55,6.27l-1.7-.17L7.75,60.71l-1.9-.64s0,0,0,0l-.21.57c-.1.27-.2.54-.29.82A92.1,92.1,0,0,0,0,92.5a94,94,0,0,0,1.47,16.55c.5,2.75,1.12,5.47,1.87,8.13.08.3.17.6.26.89s.12.43.18.65h0v0l2.2.35,25.35,4.06s0-.6.1-1.29c-.27,3.55,4.18,7.67,5.35,7.87a41.21,41.21,0,0,0,6.08-.3c1.2-.13,3-2,3.92-2.51a10.31,10.31,0,0,1,2.16-.71c-5.87,7.56-.25,13.29,2.3,13.91s9.43,2.55,9.43,2.55c-.16,2,4.68,3.82,7.67,5.78a10,10,0,0,0,6.5,1.35c.69,5.14,6,5.76,6,5.76s6.4-.38,9-1.37,6.78-5.33,6.78-5.33l36-29.39s7.37-5.45,10.89-7.45c1.9-1.08,21.31-5.21,38.84-8.81l2.06-.42h0c0-.21.05-.42.06-.64s.07-.61.09-.92A87,87,0,0,0,185,92.5C185,91.83,185,91.15,185,90.48Z"/><path class="cls-3" d="M182.53,101.67c-17.94,3.67-37.65,7.88-39.75,9.08-3.56,2-10.74,7.32-11.1,7.59l-36,29.39-.13.12c-1.53,1.58-4.57,4.33-6.23,5-1.9.72-6.57,1.15-8.4,1.26-.7-.12-4.1-.88-4.58-4.45a1.51,1.51,0,0,0-1.49-1.3h-.2a8.54,8.54,0,0,1-5.48-1.11c-.9-.59-1.93-1.16-2.93-1.71-1.35-.73-3.86-2.1-4.07-2.7a1.48,1.48,0,0,0-1.08-1.56c-.29-.08-6.94-1.95-9.49-2.57A6.19,6.19,0,0,1,48.22,135c-.83-2.41-.17-5.1,1.91-7.79a1.47,1.47,0,0,0,.09-1.71,1.5,1.5,0,0,0-1.58-.68,11.37,11.37,0,0,0-2.47.82l-.11,0a10.51,10.51,0,0,0-1.4,1,8.48,8.48,0,0,1-2,1.31,39.33,39.33,0,0,1-5.64.29c-1-.51-4.3-3.76-4.12-6.23l.06-.62a2.35,2.35,0,0,0,0-.26c0-.22.07-.43.11-.62a1.5,1.5,0,0,0-2.91-.73,6.75,6.75,0,0,0-.22,1.27,1.61,1.61,0,0,0,0,.31.13.13,0,0,1,0,.06L5.52,117.53l-2.18-.35c.08.3.17.6.26.89s.12.43.18.65h0v0l.18.6c.1.33.2.67.31,1l2.22.35,23.86,3.82c1.21,3.39,4.58,6.43,6.18,6.7l.21,0A42.22,42.22,0,0,0,43,131a5.1,5.1,0,0,0,2.26-1,9.65,9.65,0,0,0,.1,6c1.08,3.07,3.64,5.21,5.51,5.67s6.56,1.75,8.5,2.29c.7,1.69,3,2.94,5.4,4.26,1,.51,1.93,1.05,2.77,1.6a11.42,11.42,0,0,0,6.1,1.66,8.51,8.51,0,0,0,7,5.66h.26c.68,0,6.71-.43,9.44-1.47S97,150.7,97.65,150l35.87-29.29c.07-.06,7.34-5.42,10.74-7.35,1.75-.94,19-4.67,37.9-8.55l2.06-.42.12-.94a2.7,2.7,0,0,0,0-.28c0-.12,0-.23,0-.35h0c0-.21.05-.42.06-.64s.07-.61.09-.92C183.89,101.4,183.21,101.53,182.53,101.67ZM49.63,76.33a1.3,1.3,0,0,0,.33.07l1.7.17a1.45,1.45,0,0,0,1-.25,108.84,108.84,0,0,1,10.43-6.19l.35-.19a1.51,1.51,0,0,0,.64-.68c1.3-2.76,3-6.05,3.34-6.54a8.09,8.09,0,0,1,5.33-1.43,80.05,80.05,0,0,0,14.08-1c3.73-.64,9.63-.41,15.79.59s12,1.46,14.31,1.63A38,38,0,0,1,123,64.14a20.17,20.17,0,0,0,11.56,1.24c2.68-.39,22.55-4.23,41.41-7.89l2-.4c-.11-.28-.23-.56-.35-.84s-.15-.38-.24-.57-.15-.38-.24-.57-.25-.56-.38-.83l-2,.39c-18.7,3.64-38.19,7.4-40.63,7.75H134a17.3,17.3,0,0,1-9.93-1.08,41.39,41.39,0,0,0-6.71-1.83l-.16,0c-2.17-.16-8-.59-14.13-1.6-6.47-1-12.74-1.27-16.76-.59a76.51,76.51,0,0,1-13.46,1c-3.24-.25-6.72,1.16-7.82,2.58a66,66,0,0,0-3.48,6.66,111.27,111.27,0,0,0-10.15,6l-1-.1L8.29,59.31l-1.91-.64c-.11.28-.22.56-.32.85l-.21.55s0,0,0,0l-.21.57c-.1.27-.2.54-.29.82l1.89.64Z"/><path id="_Path_" data-name=" Path " class="cls-4" d="M143.5,112a7.09,7.09,0,0,1,3,5.82c-.12,3.8-3.39,8.34-6.14,8.37s-6.84-3-7.39-5.26,2-5,4-6.51,4.84-3.26,6.33-2.27"/><path id="_Path_2" data-name=" Path 2" class="cls-4" d="M136.79,131.61s.43-4.24-2.24-6.82-5.1-6.17-7.15-7-6-1.8-9.17,2.06-2.39,7.83-.46,9.54,5.66,6.54,7.11,7.4,6.94,2.69,9,.69A9,9,0,0,0,136.79,131.61Z"/><path id="_Path_3" data-name=" Path 3" class="cls-4" d="M121.5,134.67s-5-5.4-6.16-6.47-3.11-4-6.22-2.9-6.43,6.43-5.15,9.45,6.38,9.35,6.74,9.59,4.1,3.67,6.37,3,4.8-4.17,5.28-6.14S123,136.29,121.5,134.67Z"/><path id="_Path_4" data-name=" Path 4" class="cls-4" d="M106,138.34a4,4,0,0,0-3.29-1.14A5.63,5.63,0,0,0,98,140.57a12.09,12.09,0,0,0-.82,7.57l-2.93,2.91s4.87,3.56,8.47,3.18,7.87-2.54,8.16-5C111.17,147,109.89,142.23,106,138.34Z"/><path class="cls-2" d="M185,92.5a88.15,88.15,0,0,1-.52,9.67c0,.22,0,.43-.06.64l-2.06.43c-17.54,3.58-37,7.7-38.86,8.75-3.5,2-10.94,7.51-10.94,7.51l-36,29.39s-4.22,4.33-6.78,5.33-9,1.37-9,1.37-5.36-.62-6-5.76a10,10,0,0,1-6.5-1.35c-3-2-7.83-3.73-7.67-5.78,0,0-6.88-1.92-9.43-2.55s-8.17-6.35-2.3-13.91a10.31,10.31,0,0,0-2.16.71c-1,.46-2.72,2.38-3.92,2.51a41.21,41.21,0,0,1-6.08.3c-1.17-.2-5.62-4.32-5.35-7.87a8.35,8.35,0,0,1,2-5.2L63.9,95.08l-3-24.53,1.45-1.77.36-.19s2.8-5.91,3.52-6.83,3.63-2.21,6.53-2a77.88,77.88,0,0,0,13.81-1c3.94-.67,10.09-.42,16.28.59s12,1.45,14.26,1.62a39.15,39.15,0,0,1,6.46,1.79A18.78,18.78,0,0,0,134.3,63.9c2.5-.36,22.23-4.16,41.06-7.83l2-.39q.13.28.24.57A91.89,91.89,0,0,1,185,90.48C185,91.15,185,91.83,185,92.5Z"/><path class="cls-3" d="M63.26,68.85l-1.1-.52c.29-.61,2.85-6,3.59-6.95s4-2.45,7-2.23a77.38,77.38,0,0,0,13.67-1c3.94-.67,10.1-.45,16.48.59,6.18,1,12,1.45,14.21,1.61a40.16,40.16,0,0,1,6.62,1.83,18.12,18.12,0,0,0,10.41,1.11c2.48-.36,22.13-4.14,40.92-7.8l2-.39q.13.28.24.57t.24.57l-2,.4c-18.87,3.67-38.69,7.49-41.22,7.85a19.33,19.33,0,0,1-11.06-1.18A38.72,38.72,0,0,0,117,61.57c-2.14-.16-8-.6-14.25-1.62s-12.26-1.24-16.08-.59a78.18,78.18,0,0,1-13.92,1c-2.74-.2-5.46,1-6,1.77S64.38,66.5,63.26,68.85Z"/><path class="cls-3" d="M184.48,102.17c0,.22,0,.43-.06.64s0,.24,0,.36a2.7,2.7,0,0,1,0,.28l-2.05.42c-18.61,3.8-36.76,7.69-38.49,8.65-3.43,1.91-10.8,7.41-10.88,7.47L97,149.36c-.13.14-4.3,4.39-7,5.43s-8.92,1.39-9.18,1.41h-.11c-.06,0-5.43-.69-6.44-5.7A10.76,10.76,0,0,1,68,149c-.88-.58-1.92-1.15-2.92-1.69-2.41-1.31-4.7-2.55-5-4.14-1.52-.42-6.84-1.9-9-2.43-1.64-.4-3.91-2.34-4.87-5.12a9.43,9.43,0,0,1,1.22-8.29l-.41.17a8.4,8.4,0,0,0-1.3.94,6.46,6.46,0,0,1-2.8,1.63,42.3,42.3,0,0,1-6.17.3c-1.56-.26-6.24-4.62-5.94-8.53a9,9,0,0,1,2.15-5.55l.11-.1,30.23-21.4-3-24.17a.6.6,0,0,1,.14-.46l1.45-1.77.94.78-1.28,1.56,3,24.28a.62.62,0,0,1-.26.57L33.79,117.14A7.81,7.81,0,0,0,32,121.91c-.25,3.31,4.09,7.12,4.84,7.25a40.6,40.6,0,0,0,5.9-.31,6.1,6.1,0,0,0,2.19-1.36,9,9,0,0,1,1.55-1.09,11.19,11.19,0,0,1,2.29-.76.62.62,0,0,1,.65.28.6.6,0,0,1,0,.69c-2.88,3.71-2.7,6.73-2,8.61a7,7,0,0,0,4,4.34c2.53.62,9.38,2.53,9.44,2.55a.63.63,0,0,1,.45.64c-.08,1.05,2.3,2.34,4.4,3.48,1,.56,2.09,1.14,3,1.74a9.41,9.41,0,0,0,6.08,1.26.57.57,0,0,1,.45.12.64.64,0,0,1,.24.4c.54,4.37,4.91,5.15,5.41,5.23.65,0,6.44-.42,8.76-1.33s6.52-5.14,6.56-5.19l36-29.43c.33-.25,7.54-5.62,11-7.57,2-1.09,21.6-5.26,39.24-8.87Z"/><path id="_Compound_Path_" data-name=" Compound Path " class="cls-5" d="M122.35,80.15c-.38-3.28.37-7.13-1.5-10.12-2.13-3.43-7.35-3.53-10.93-4.53-2.26-.66-8.54-2.72-9.37.77a3.83,3.83,0,0,0,.45,2.32c1.93,4.51,3.69,9.56,6.83,13.51,2.34,3.41,5.18,8.53,10.35,7.82,2.13-.29,4.21-1.35,4.9-3.33S122.6,82.25,122.35,80.15Z"/><path id="_Path_6" data-name=" Path 6" class="cls-3" d="M47.84,126.5l21.93-13s4.35-3.13,4.83-6.71c0,0,.56,4.09-4.81,7.9S46.5,129.5,46.5,131.3a10.77,10.77,0,0,1,1.63-4c.19-.28.82-1.16.82-1.16Z"/><path id="_Path_7" data-name=" Path 7" class="cls-3" d="M60.64,142.65a9.42,9.42,0,0,0,3.75-1c2-1.06,14.67-11.62,15.6-12.19a7.3,7.3,0,0,1,3.9-1.17A6,6,0,0,0,80.11,130L66.25,142.4a6,6,0,0,1-5,1.65,3.94,3.94,0,0,1-.36-.45,3,3,0,0,1-.24-.56v-.39Z"/><path id="_Path_8" data-name=" Path 8" class="cls-3" d="M73.91,149.57a14.73,14.73,0,0,0,2.47-.37,8.43,8.43,0,0,0,1.82-.66c1.7-.74,10.7-9.49,13.34-11.16S95,136,97.31,136.12c0,0-4-.1-6.32,2.51-1.6,1.8-9.58,10.51-12.92,11.77a10.61,10.61,0,0,1-2.88.63s-.18-.54-.23-.74-.14-.75-.14-.75Z"/><path class="cls-6" d="M119.17,89.08c-2.44,2.19-13.09,3-19.49-9.58,0,0-8-1.26-10.65-2.11,0,0-12,6.12-14.9,8.17s-6.59,7.83-11,10.41S47.31,107.25,43.9,109.5c-2.66,1.78-11.08,7.82-11.08,7.82a18.37,18.37,0,0,0-1.17,2.87,19.36,19.36,0,0,0-.35,2.93L6,119.07l-2.19-.35c-.15-.51-.3-1-.44-1.54-.75-2.66-1.37-5.38-1.87-8.13A94,94,0,0,1,0,92.5a92.1,92.1,0,0,1,5.34-31c.16-.47.33-.94.5-1.39l1.9.64,42.37,14.2,1.7.12s13.13-9.17,27.5-13.27,16.61-.79,20.65,0,9.14,2.1,11,3,3.58,2.65,4.35,6.82,3.38,7.35,4.61,9.64C120.82,82.93,121.61,86.89,119.17,89.08Z"/><path class="cls-3" d="M120.46,81c-.32-.59-.73-1.24-1.16-1.92a21.94,21.94,0,0,1-3.39-7.54c-.69-3.74-2.18-6-4.68-7.26-2-1-7.21-2.28-11.15-3.05a16.09,16.09,0,0,1-2.37-.72c-3.14-1.14-7.06-2.55-18.57.73C65.75,65,53.28,73.31,51.64,74.43l-1.41-.1L8,60.16l-1.9-.64-.21.55s0,0,0,0l-.21.57,1.9.64L49.92,75.51a.66.66,0,0,0,.15,0l1.7.12a.6.6,0,0,0,.39-.11c.13-.09,13.21-9.16,27.32-13.18,11.13-3.18,14.84-1.84,17.81-.76a18.31,18.31,0,0,0,2.55.77c3.92.77,9,2.08,10.85,2.95,1.34.65,3.21,2,4,6.38a22.83,22.83,0,0,0,3.56,8c.42.66.81,1.29,1.11,1.85.74,1.38,1.61,5.1-.62,7.1-1,.87-3.49,1.46-6.41.92S104.17,87,100.22,79.22a.6.6,0,0,0-.45-.32c-.07,0-8-1.26-10.55-2.09a.59.59,0,0,0-.47,0c-.49.25-12.07,6.16-15,8.21a29.08,29.08,0,0,0-4.13,4.09c-2,2.26-4.33,4.83-6.83,6.29-2.77,1.62-8.32,5.67-12.78,8.92-2.79,2-5.2,3.79-6.48,4.63-2.64,1.77-11,7.77-11.1,7.83a.58.58,0,0,0-.18.23,19.86,19.86,0,0,0-1.23,3,20.56,20.56,0,0,0-.32,2.34l-24.95-4-2.18-.35c0,.22.12.43.18.65h0v0l.18.6,2.21.35,25,4h.1a.61.61,0,0,0,.61-.58,18.6,18.6,0,0,1,.32-2.77,19.06,19.06,0,0,1,1.07-2.65c1.05-.75,8.49-6.09,10.94-7.72,1.3-.86,3.72-2.62,6.52-4.66,4.44-3.24,10-7.27,12.68-8.85s5-4.21,7.12-6.54a28.44,28.44,0,0,1,3.92-3.9c2.62-1.85,13-7.17,14.61-8,2.57.76,8.72,1.77,10.19,2,4.17,8,9.82,10.13,12.84,10.7,3.48.64,6.3-.18,7.46-1.22C122.36,87,121.37,82.67,120.46,81Z"/><path id="_Path_10" data-name=" Path 10" class="cls-7" d="M44.44,94.82c-.69,2.31.35,5.62,1.12,7.5a15.94,15.94,0,0,0,2.53,4.23c2.56-1.85,5.7-4.14,8.58-6.18C52.25,99.67,49,97,45,94.89A.69.69,0,0,0,44.44,94.82Z"/><path id="_Path_11" data-name=" Path 11" class="cls-8" d="M115.39,71.94c-.73.32-1.55,1.09-2,1.3a11.47,11.47,0,0,1-4.24.46c-2.3.72-.36,5.25.33,6.7,1,2.19,2.85,4.25,5.44,4.38,2.9.15,5.18-.69,5.46-2.85C119.11,80,116.09,75.43,115.39,71.94Z"/><path id="_Path_12" data-name=" Path 12" class="cls-9" d="M7.25,88.56c5.67,1.89,11.4,3.58,17.07,5.49,2.23.76,4.46,1.52,6.69,2.31l4.29.82c.56-1.39,1.18-2.76,1.87-4.08C26.51,91.24,15.78,89.56,5.1,87.82Z"/><path id="_Path_13" data-name=" Path 13" class="cls-10" d="M143.5,112a7.09,7.09,0,0,1,3,5.82c-.12,3.8-3.39,8.34-6.14,8.37s-6.84-3-7.39-5.26,2-5,4-6.51,4.84-3.26,6.33-2.27"/><path id="_Path_14" data-name=" Path 14" class="cls-10" d="M136.79,131.61s.43-4.24-2.24-6.82-5.1-6.17-7.15-7-6-1.8-9.17,2.06-2.39,7.83-.46,9.54,5.66,6.54,7.11,7.4,6.94,2.69,9,.69A9,9,0,0,0,136.79,131.61Z"/><path id="_Path_15" data-name=" Path 15" class="cls-10" d="M121.5,134.67s-5-5.4-6.16-6.47-3.11-4-6.22-2.9-6.43,6.43-5.15,9.45,6.38,9.35,6.74,9.59,4.1,3.67,6.37,3,4.8-4.17,5.28-6.14S123,136.29,121.5,134.67Z"/><path id="_Path_16" data-name=" Path 16" class="cls-10" d="M106,138.34a4,4,0,0,0-3.29-1.14A5.63,5.63,0,0,0,98,140.57a12.09,12.09,0,0,0-.82,7.57l-2.93,2.91s4.87,3.56,8.47,3.18,7.87-2.54,8.16-5C111.17,147,109.89,142.23,106,138.34Z"/><path id="_Path_17" data-name=" Path 17" class="cls-11" d="M123.08,120.7a6.25,6.25,0,0,0-3.82,4.86,3.36,3.36,0,0,0,1.62,2.88,3.75,3.75,0,0,0,2.39.42,7.45,7.45,0,0,0,2.91-1.61c1.48-1,2.61-2.58,2.47-4.1a2.7,2.7,0,0,0-.46-1.7A4.86,4.86,0,0,0,123.08,120.7Z"/><path id="_Path_18" data-name=" Path 18" class="cls-12" d="M109.72,137.88c1.58-.08,2.83-1.32,3.84-2.41.62-.67,2.9-2.7,2.25-3.82a4.14,4.14,0,0,0-4-2.18,4.36,4.36,0,0,0-3.26,2.42C107.17,134.13,107.5,136.43,109.72,137.88Z"/><path id="_Path_19" data-name=" Path 19" class="cls-13" d="M104.88,144.7a4,4,0,0,0,2-.81,2.08,2.08,0,0,0,.2-.95,3.28,3.28,0,0,0-2.57-3,3.32,3.32,0,0,0-3.45,1.22,3,3,0,0,0-.26,3A7.42,7.42,0,0,0,104.88,144.7Z"/><path id="_Path_20" data-name=" Path 20" class="cls-14" d="M143.88,115.6a1.17,1.17,0,0,0-.87-.5,14.81,14.81,0,0,1-1.18,1.44,16,16,0,0,1-4.57,3.81h0c-.63.2-1.1,1-.46,1.51,1.49,1.25,3.89,0,5.22-1S145,117.43,143.88,115.6Z"/><path class="cls-15" d="M115.5,72.5a2.59,2.59,0,0,0-.13-.55,5.59,5.59,0,0,0-1,.59l1-.22Z"/><path class="cls-16" d="M115.6,72.77a2.67,2.67,0,0,1-1.51,3.36c-2,.83-4.74-1.19-5.66-2-1.12,1.39.42,5,1,6.24,1,2.19,2.85,4.25,5.44,4.38,2.9.15,5.18-.69,5.46-2.85C119.2,80.15,116.55,76.12,115.6,72.77Z"/><path class="cls-17" d="M185,92.5a91.68,91.68,0,0,1-.62,10.67l-2.06.44-38.49,8.2-2.9.14-3.83,2.22-2.37,2.24-1.53,2.29-2.09,2.3L128,118l-1.83-.72L123,117s16.56-11.65,22.16-12.15,7.9-9.22,7.9-9.22L183,90.8l2-.32C185,91.15,185,91.83,185,92.5Z"/><path class="cls-18" d="M33.09,117.09l-.27.19a18.37,18.37,0,0,0-1.17,2.87,19.36,19.36,0,0,0-.35,2.93L6,119.07l-2.19-.34a91.54,91.54,0,0,1-2.31-9.68l.82.23,1.34.38C13.4,112.46,23.24,114.8,33.09,117.09Z"/><path class="cls-19" d="M82.66,118.08a64.16,64.16,0,0,0,6.25-2.58c1.81-1,5.11-2,5.27,0s0,4.44-2.63,4.77S82.66,118.08,82.66,118.08Z"/><path class="cls-20" d="M92.5,128.84s3.7-1.13,5.2-1.83,4.25-1.4,4.38,0,0,3.14-2.19,3.38S92.5,128.84,92.5,128.84Z"/><path class="cls-21" d="M72.26,101.86s4.43-1.3,6.23-2.09,5.08-1.6,5.25,0,0,3.59-2.63,3.85S72.26,101.86,72.26,101.86Z"/><path class="cls-22" d="M2,92.5A90.19,90.19,0,0,1,7.23,62.12l-1.89-.64A92.1,92.1,0,0,0,0,92.5a94,94,0,0,0,1.47,16.55c.5,2.75,1.12,5.47,1.87,8.13l2.18.35c-.76-2.58-1.38-5.2-1.89-7.87A90.61,90.61,0,0,1,2,92.5Zm183-2a91.66,91.66,0,0,0-7-33.39c-.11-.28-.23-.56-.35-.84s-.15-.38-.24-.57-.15-.38-.24-.57-.25-.56-.38-.83A92.53,92.53,0,0,0,6.38,58.67c-.11.28-.22.56-.32.85l-.21.55s0,0,0,0l-.21.57c-.1.27-.2.54-.29.82A92.1,92.1,0,0,0,0,92.5a94,94,0,0,0,1.47,16.55c.5,2.75,1.12,5.47,1.87,8.13.08.3.17.6.26.89s.12.43.18.65h0v0l.18.6c.1.33.2.67.31,1a92.5,92.5,0,0,0,179.94-16l.12-.94a2.7,2.7,0,0,0,0-.28c0-.12,0-.23,0-.35h0c0-.21.05-.42.06-.64s.07-.61.09-.92A87,87,0,0,0,185,92.5C185,91.83,185,91.15,185,90.48Zm-2.65,13.13,0,.26c0,.32-.08.63-.13.94A90.51,90.51,0,0,1,6.5,120.72c-.11-.33-.22-.67-.32-1s-.13-.4-.19-.6l0-.05c-.07-.22-.13-.43-.19-.65s-.18-.59-.26-.89c-.76-2.58-1.38-5.2-1.89-7.87a91,91,0,0,1,3.6-47.54c.09-.27.19-.55.3-.82s.14-.38.21-.57v0L8,60.16c.1-.29.21-.57.33-.85a90.52,90.52,0,0,1,166.43-4.64c.14.27.27.55.39.83l.25.57c.09.19.17.38.25.58s.24.56.35.84a89.66,89.66,0,0,1,7,33.31c0,.57,0,1.13,0,1.7a89.5,89.5,0,0,1-.47,9.17c0,.31-.06.61-.09.92s-.05.43-.08.65S182.33,103.49,182.32,103.61ZM2,92.5A90.19,90.19,0,0,1,7.23,62.12l-1.89-.64A92.1,92.1,0,0,0,0,92.5a94,94,0,0,0,1.47,16.55c.5,2.75,1.12,5.47,1.87,8.13l2.18.35c-.76-2.58-1.38-5.2-1.89-7.87A90.61,90.61,0,0,1,2,92.5Z"/></svg>