<svg id="Layer_1" data-name="Layer 1" xmlns="http://www.w3.org/2000/svg" xmlns:xlink="http://www.w3.org/1999/xlink" viewBox="0 0 245.68 185"><defs><style>.cls-1{fill:none;}.cls-2,.cls-3,.cls-5,.cls-6{fill:#fff;}.cls-2{opacity:0.25;}.cls-4{clip-path:url(#clip-path);}.cls-11,.cls-13,.cls-14,.cls-15,.cls-16,.cls-17,.cls-5,.cls-6,.cls-9{stroke:#4d4d4d;stroke-linejoin:round;}.cls-5{stroke-width:3px;}.cls-6,.cls-9{stroke-width:1.22px;}.cls-10,.cls-11,.cls-12,.cls-13,.cls-14,.cls-15,.cls-16,.cls-17,.cls-18,.cls-19,.cls-20,.cls-21,.cls-22,.cls-23,.cls-7{fill-opacity:0.25;}.cls-7{fill:url(#linear-gradient);}.cls-8{fill:#4d4d4d;}.cls-9{fill:#e4e9ca;}.cls-10{fill:url(#linear-gradient-2);}.cls-11{fill:url(#linear-gradient-3);}.cls-12{fill:url(#linear-gradient-4);}.cls-13{fill:url(#linear-gradient-5);}.cls-14{fill:url(#linear-gradient-6);}.cls-15{fill:url(#linear-gradient-7);}.cls-16{fill:url(#linear-gradient-8);}.cls-17{fill:url(#linear-gradient-9);}.cls-18{opacity:0.5;fill:url(#linear-gradient-10);}.cls-19{fill:url(#linear-gradient-11);}.cls-20{fill:url(#linear-gradient-12);}.cls-21{fill:url(#linear-gradient-13);}.cls-22{fill:url(#linear-gradient-14);}.cls-23{fill:url(#linear-gradient-15);}</style><clipPath id="clip-path" transform="translate(33.16)"><circle class="cls-1" cx="92.5" cy="92.5" r="91.02"/></clipPath><linearGradient id="linear-gradient" x1="100.49" y1="77.13" x2="123.31" y2="77.13" gradientUnits="userSpaceOnUse"><stop offset="0" stop-color="#98ad2e"/><stop offset="1" stop-color="#8ea325"/></linearGradient><linearGradient id="linear-gradient-2" x1="44.22" y1="100.68" x2="56.67" y2="100.68" xlink:href="#linear-gradient"/><linearGradient id="linear-gradient-3" x1="108.03" y1="78.37" x2="120.35" y2="78.37" xlink:href="#linear-gradient"/><linearGradient id="linear-gradient-4" x1="5.1" y1="92.5" x2="37.17" y2="92.5" xlink:href="#linear-gradient"/><linearGradient id="linear-gradient-5" x1="119.26" y1="124.6" x2="128.66" y2="124.6" xlink:href="#linear-gradient"/><linearGradient id="linear-gradient-6" x1="107.71" y1="133.67" x2="115.92" y2="133.67" xlink:href="#linear-gradient"/><linearGradient id="linear-gradient-7" x1="100.55" y1="142.3" x2="107.11" y2="142.3" xlink:href="#linear-gradient"/><linearGradient id="linear-gradient-8" x1="136.48" y1="118.76" x2="144.26" y2="118.76" xlink:href="#linear-gradient"/><linearGradient id="linear-gradient-9" x1="114.42" y1="72.23" x2="115.52" y2="72.23" xlink:href="#linear-gradient"/><linearGradient id="linear-gradient-10" x1="108.03" y1="78.78" x2="120.35" y2="78.78" xlink:href="#linear-gradient"/><linearGradient id="linear-gradient-11" x1="122.99" y1="103.67" x2="211.02" y2="103.67" xlink:href="#linear-gradient"/><linearGradient id="linear-gradient-12" x1="-32.15" y1="111.81" x2="33.09" y2="111.81" xlink:href="#linear-gradient"/><linearGradient id="linear-gradient-13" x1="82.66" y1="117.33" x2="94.23" y2="117.33" xlink:href="#linear-gradient"/><linearGradient id="linear-gradient-14" x1="92.5" y1="128.3" x2="102.12" y2="128.3" xlink:href="#linear-gradient"/><linearGradient id="linear-gradient-15" x1="72.26" y1="101.25" x2="83.78" y2="101.25" xlink:href="#linear-gradient"/></defs><title>Agree Icon</title><circle class="cls-2" cx="125.66" cy="92.5" r="91.5"/><path class="cls-3" d="M92.5,2A90.5,90.5,0,1,1,2,92.5,90.6,90.6,0,0,1,92.5,2m0-2A92.5,92.5,0,1,0,185,92.5,92.5,92.5,0,0,0,92.5,0Z" transform="translate(33.16)"/><g class="cls-4"><path class="cls-5" d="M134.3,63.9a18.78,18.78,0,0,1-10.73-1.14A39.67,39.67,0,0,0,117.11,61c-2.26-.17-8.06-.61-14.26-1.62s-12.34-1.26-16.28-.59a77.65,77.65,0,0,1-13.81,1c-2.9-.22-5.81,1.08-6.53,2s-3.52,6.83-3.52,6.83l-.35.19h0a109.24,109.24,0,0,0-10.55,6.27l-1.7-.17L-31.66,47.45v65.6l63,10.08s.06-1,.16-1.91l-.06.62c-.27,3.55,4.18,7.67,5.35,7.87a40.08,40.08,0,0,0,6.08-.3c1.2-.13,3-2,3.92-2.51a10.35,10.35,0,0,1,2.16-.71c-5.87,7.56-.25,13.29,2.3,13.91s9.43,2.55,9.43,2.55c-.16,2,4.68,3.82,7.67,5.78a10,10,0,0,0,6.5,1.35c.69,5.14,6,5.76,6,5.76s6.4-.38,9-1.37,6.78-5.33,6.78-5.33l36-29.39S140,114,143.52,112,211,97.52,211,97.52V49.12S139.22,63.19,134.3,63.9ZM32.82,117.33Zm-1.17,2.87v0c-.07.31-.13.65-.18,1A6.41,6.41,0,0,1,31.65,120.2Z" transform="translate(33.16)"/><path id="_Path_" data-name="&lt;Path&gt;" class="cls-5" d="M143.52,112a7.06,7.06,0,0,1,3,5.82c-.12,3.8-3.39,8.34-6.14,8.37s-6.84-3-7.39-5.26,2-5,4-6.51,4.84-3.26,6.33-2.27" transform="translate(33.16)"/><path id="_Path_2" data-name="&lt;Path&gt;" class="cls-5" d="M136.79,131.61s.43-4.24-2.24-6.82-5.1-6.17-7.15-7-6-1.8-9.17,2.06-2.39,7.83-.46,9.54,5.66,6.54,7.11,7.4,6.94,2.69,9,.69A9,9,0,0,0,136.79,131.61Z" transform="translate(33.16)"/><path id="_Path_3" data-name="&lt;Path&gt;" class="cls-5" d="M121.53,134.67s-5-5.4-6.16-6.47-3.11-4-6.22-2.9-6.43,6.43-5.15,9.45,6.38,9.35,6.74,9.59,4.1,3.67,6.37,3,4.8-4.17,5.28-6.14S123,136.29,121.53,134.67Z" transform="translate(33.16)"/><path id="_Path_4" data-name="&lt;Path&gt;" class="cls-5" d="M106,138.34a4,4,0,0,0-3.29-1.14A5.63,5.63,0,0,0,98,140.57a12.05,12.05,0,0,0-.82,7.57l-2.93,2.91s4.87,3.56,8.47,3.18,7.87-2.54,8.16-5C111.17,147,109.89,142.23,106,138.34Z" transform="translate(33.16)"/><path id="_Path_5" data-name="&lt;Path&gt;" class="cls-6" d="M62.71,68.59s2.8-5.91,3.52-6.83,3.63-2.21,6.53-2a77.65,77.65,0,0,0,13.81-1c3.94-.67,10.09-.42,16.28.59s12,1.45,14.26,1.62a39.67,39.67,0,0,1,6.46,1.79A18.78,18.78,0,0,0,134.3,63.9C139.22,63.19,211,49.12,211,49.12v48.4s-64,12.54-67.5,14.49-10.94,7.44-10.94,7.44l-36,29.39s-4.22,4.33-6.78,5.33-9,1.37-9,1.37-5.36-.62-6-5.76a10,10,0,0,1-6.5-1.35c-3-2-7.83-3.73-7.67-5.78,0,0-6.88-1.92-9.43-2.55s-8.17-6.35-2.3-13.91a10.35,10.35,0,0,0-2.16.71c-1,.46-2.72,2.38-3.92,2.51a40.08,40.08,0,0,1-6.08.3c-1.17-.2-5.62-4.32-5.35-7.87a8.39,8.39,0,0,1,2-5.2L63.9,95.08l-3-24.53,1.45-1.77" transform="translate(33.16)"/><path id="_Compound_Path_" data-name="&lt;Compound Path&gt;" class="cls-7" d="M122.35,80.15c-.38-3.28.37-7.13-1.5-10.12-2.13-3.43-7.35-3.49-10.93-4.54-2.26-.66-8.54-2.72-9.37.77a3.83,3.83,0,0,0,.45,2.32c1.93,4.51,3.69,9.56,6.83,13.51,2.34,3.41,5.18,8.53,10.35,7.82,2.13-.29,4.21-1.35,4.9-3.33S122.6,82.25,122.35,80.15Z" transform="translate(33.16)"/><path id="_Path_6" data-name="&lt;Path&gt;" class="cls-8" d="M47.84,126.47l21.93-13s4.35-3.13,4.83-6.71c0,0,.56,4.09-4.81,7.9s-23.3,14.88-23.33,16.64a10.71,10.71,0,0,1,1.63-4c.19-.28.82-1.16.82-1.16Z" transform="translate(33.16)"/><path id="_Path_7" data-name="&lt;Path&gt;" class="cls-8" d="M60.64,142.65a9.37,9.37,0,0,0,3.75-1c2-1.06,14.67-11.62,15.6-12.19a7.32,7.32,0,0,1,3.9-1.17,6,6,0,0,0-3.78,1.74L66.25,142.4s-2.21,2.24-5,1.65a2.93,2.93,0,0,1-.36-.45,2.45,2.45,0,0,1-.24-.56c0-.1,0-.39,0-.39Z" transform="translate(33.16)"/><path id="_Path_8" data-name="&lt;Path&gt;" class="cls-8" d="M73.91,149.57a14.9,14.9,0,0,0,2.47-.37,8.14,8.14,0,0,0,1.82-.66c1.7-.74,10.7-9.49,13.34-11.16S95,136,97.31,136.12c0,0-4-.1-6.32,2.51-1.6,1.8-9.58,10.51-12.92,11.77a10.55,10.55,0,0,1-2.88.63s-.18-.54-.23-.74-.14-.75-.14-.75Z" transform="translate(33.16)"/><path id="_Path_9" data-name="&lt;Path&gt;" class="cls-9" d="M51.81,75.05s13.13-9.17,27.5-13.27,16.61-.79,20.65,0,9.14,2.1,11,3,3.58,2.65,4.35,6.82,3.38,7.35,4.61,9.64c.9,1.69,1.69,5.65-.75,7.84s-13.09,3-19.49-9.58c0,0-8-1.26-10.65-2.11,0,0-12,6.12-14.9,8.17s-6.59,7.83-11,10.41S47.31,107.25,43.9,109.51c-2.66,1.78-11.08,7.82-11.08,7.82a19.89,19.89,0,0,0-1.17,2.87,19.33,19.33,0,0,0-.35,2.93l-63-10.08V47.45L50.11,74.88Z" transform="translate(33.16)"/><path id="_Path_10" data-name="&lt;Path&gt;" class="cls-10" d="M44.44,94.82c-.69,2.31.35,5.62,1.12,7.5a16.1,16.1,0,0,0,2.53,4.23c2.56-1.85,5.7-4.14,8.58-6.18C52.25,99.67,49,97,45,94.89A.7.7,0,0,0,44.44,94.82Z" transform="translate(33.16)"/><path id="_Path_11" data-name="&lt;Path&gt;" class="cls-11" d="M115.39,71.94c-.73.32-1.55,1.09-2,1.3a11.42,11.42,0,0,1-4.24.46c-2.3.72-.36,5.25.33,6.7,1,2.19,2.85,4.25,5.44,4.38,2.9.15,5.18-.69,5.46-2.85C119.11,80,116.09,75.43,115.39,71.94Z" transform="translate(33.16)"/><path id="_Path_12" data-name="&lt;Path&gt;" class="cls-12" d="M7.25,88.56c5.67,1.89,11.4,3.58,17.07,5.49,2.23.76,4.46,1.52,6.69,2.31l4.29.82c.56-1.39,1.18-2.76,1.87-4.08C26.51,91.24,15.78,89.56,5.1,87.82Z" transform="translate(33.16)"/><path id="_Path_13" data-name="&lt;Path&gt;" class="cls-9" d="M143.52,112a7.06,7.06,0,0,1,3,5.82c-.12,3.8-3.39,8.34-6.14,8.37s-6.84-3-7.39-5.26,2-5,4-6.51,4.84-3.26,6.33-2.27" transform="translate(33.16)"/><path id="_Path_14" data-name="&lt;Path&gt;" class="cls-9" d="M136.79,131.61s.43-4.24-2.24-6.82-5.1-6.17-7.15-7-6-1.8-9.17,2.06-2.39,7.83-.46,9.54,5.66,6.54,7.11,7.4,6.94,2.69,9,.69A9,9,0,0,0,136.79,131.61Z" transform="translate(33.16)"/><path id="_Path_15" data-name="&lt;Path&gt;" class="cls-9" d="M121.53,134.67s-5-5.4-6.16-6.47-3.11-4-6.22-2.9-6.43,6.43-5.15,9.45,6.38,9.35,6.74,9.59,4.1,3.67,6.37,3,4.8-4.17,5.28-6.14S123,136.29,121.53,134.67Z" transform="translate(33.16)"/><path id="_Path_16" data-name="&lt;Path&gt;" class="cls-9" d="M106,138.34a4,4,0,0,0-3.29-1.14A5.63,5.63,0,0,0,98,140.57a12.05,12.05,0,0,0-.82,7.57l-2.93,2.91s4.87,3.56,8.47,3.18,7.87-2.54,8.16-5C111.17,147,109.89,142.23,106,138.34Z" transform="translate(33.16)"/><path id="_Path_17" data-name="&lt;Path&gt;" class="cls-13" d="M123.08,120.7a6.23,6.23,0,0,0-3.82,4.86,3.35,3.35,0,0,0,1.62,2.88,3.73,3.73,0,0,0,2.39.42,7.41,7.41,0,0,0,2.91-1.61c1.48-1,2.61-2.58,2.47-4.1a2.73,2.73,0,0,0-.46-1.7A4.87,4.87,0,0,0,123.08,120.7Z" transform="translate(33.16)"/><path id="_Path_18" data-name="&lt;Path&gt;" class="cls-14" d="M109.72,137.88c1.58-.08,2.83-1.32,3.84-2.41.62-.67,2.9-2.7,2.25-3.82a4.12,4.12,0,0,0-4-2.18,4.36,4.36,0,0,0-3.26,2.42C107.17,134.13,107.47,136.43,109.72,137.88Z" transform="translate(33.16)"/><path id="_Path_19" data-name="&lt;Path&gt;" class="cls-15" d="M104.88,144.7a4.05,4.05,0,0,0,2-.81,2.15,2.15,0,0,0,.2-.95,3.27,3.27,0,0,0-2.57-3,3.31,3.31,0,0,0-3.45,1.22,3,3,0,0,0-.26,3A7.37,7.37,0,0,0,104.88,144.7Z" transform="translate(33.16)"/><path id="_Path_20" data-name="&lt;Path&gt;" class="cls-16" d="M143.88,115.6a1.17,1.17,0,0,0-.87-.5,14.92,14.92,0,0,1-1.18,1.44,16.06,16.06,0,0,1-4.57,3.81l0,0c-.63.2-1.1,1-.46,1.51,1.49,1.25,3.89,0,5.22-1.05S145,117.43,143.88,115.6Z" transform="translate(33.16)"/><path class="cls-17" d="M115.52,72.49c0-.18-.09-.37-.13-.55a5,5,0,0,0-1,.59l1-.22Z" transform="translate(33.16)"/><path class="cls-18" d="M115.6,72.77a2.67,2.67,0,0,1-1.51,3.36c-2,.83-4.74-1.19-5.66-2-1.12,1.39.42,5,1,6.24,1,2.19,2.85,4.25,5.44,4.38,2.9.15,5.18-.69,5.46-2.85C119.2,80.15,116.55,76.12,115.6,72.77Z" transform="translate(33.16)"/><path class="cls-19" d="M211,86.28l-57.94,9.35s-2.3,8.72-7.9,9.22S123,117,123,117l3.17.28L128,118l3.11,3,2.09-2.3,1.53-2.29,2.37-2.24,3.83-2.22,2.9-.14L211,97.52Z" transform="translate(33.16)"/><path id="_Path_21" data-name="&lt;Path&gt;" class="cls-20" d="M2.29,109.28c-6.79-2-27.72-6.58-34.44-8.78v12.58c1,.13,63.45,10,63.45,10a19.33,19.33,0,0,1,.35-2.93,19.89,19.89,0,0,1,1.17-2.87l.27-.19C22.79,114.7,12.49,112.25,2.29,109.28Z" transform="translate(33.16)"/><path class="cls-21" d="M82.66,118.08a64.43,64.43,0,0,0,6.25-2.58c1.81-1,5.11-2,5.27,0s0,4.44-2.63,4.77S82.66,118.08,82.66,118.08Z" transform="translate(33.16)"/><path class="cls-22" d="M92.5,128.84s3.7-1.13,5.2-1.83,4.25-1.4,4.38,0,0,3.14-2.19,3.38S92.5,128.84,92.5,128.84Z" transform="translate(33.16)"/><path class="cls-23" d="M72.26,101.86s4.43-1.3,6.23-2.09,5.08-1.6,5.25,0,0,3.59-2.63,3.85S72.26,101.86,72.26,101.86Z" transform="translate(33.16)"/></g><path class="cls-3" d="M92.5,2A90.5,90.5,0,1,1,2,92.5,90.6,90.6,0,0,1,92.5,2m0-2A92.5,92.5,0,1,0,185,92.5,92.5,92.5,0,0,0,92.5,0Z" transform="translate(33.16)"/></svg>