<svg id="Layer_1" data-name="Layer 1" xmlns="http://www.w3.org/2000/svg" xmlns:xlink="http://www.w3.org/1999/xlink" viewBox="0 0 185.48 185.48"><defs><style>.cls-1,.cls-3,.cls-4{fill:#fff;}.cls-1,.cls-8{opacity:0.25;isolation:isolate;}.cls-2{opacity:0.75;}.cls-4,.cls-5,.cls-6,.cls-7,.cls-9{stroke:#4d4d4d;stroke-miterlimit:10;}.cls-4{stroke-width:2px;}.cls-5,.cls-6,.cls-7,.cls-9{fill:none;}.cls-5{stroke-width:1.22px;}.cls-6,.cls-7{stroke-width:0.73px;}.cls-6{stroke-dasharray:1.22;}.cls-8{fill:url(#linear-gradient);}.cls-9{stroke-width:0.57px;}.cls-10{fill:#4d4d4d;}</style><linearGradient id="linear-gradient" x1="75.05" y1="89.78" x2="135.83" y2="89.78" gradientTransform="matrix(0.84, 0.53, 0.53, -0.84, -31.24, 108.84)" gradientUnits="userSpaceOnUse"><stop offset="0" stop-color="#98ad2e"/><stop offset="1" stop-color="#8ea325"/></linearGradient></defs><title>Consult Icon</title><g id="Layer_1-2" data-name="Layer 1"><circle class="cls-1" cx="92.74" cy="92.74" r="92.74"/><g class="cls-2"><path class="cls-3" d="M125.9,1.76A90.74,90.74,0,1,1,35.16,92.5,90.75,90.75,0,0,1,125.9,1.76m0-2A92.74,92.74,0,1,0,218.64,92.5,92.74,92.74,0,0,0,125.9-.24Z" transform="translate(-33.16 0.24)"/></g><path class="cls-4" d="M173.27,95.85s-13.11,15.42-22.73,25.57-24.38,23.81-27.74,25.34-8.38,1.9-19.21-3.52-40.73-18.71-41.67-19.38-2.79-1-3.22-6-.44-12.31,1.19-15S79.1,73.39,87.22,64.76l-1.76-7.2s-1.36-8.12,2.37-12.72,6.83-6.23,10.62-7.17,21,.27,25.3.67,20,2.44,33.83,9.2a164.58,164.58,0,0,1,23.58,14.22c1,.54,5.55,1.49,9.34,7A15.73,15.73,0,0,1,192,84.32a33.31,33.31,0,0,0-2.58,6.76S186,99.09,173.27,95.85Z" transform="translate(-33.16 0.24)"/><path class="cls-5" d="M87.22,64.76s6.09-7.17,7-7.78,6.7-1.83,7.81-2.95,2.64-4,3.25-4.26,5.48-2,5.48-2a5.21,5.21,0,0,1,4.16.61c1.93,1.32,4.57,2.74,4.57,2.74s29.33,8.73,30.24,8.83a9.24,9.24,0,0,0,3-.91s1.93.4,2.34,1.32,1,1.72,1.72,1.72a8.1,8.1,0,0,1,4.31,2.68c1.21,1.55,0,5.31,0,5.31s-3,6.19-3.35,7.2-.73,9.88,6.08,14.1c5.86,3.63,9.44,4.51,9.44,4.51" transform="translate(-33.16 0.24)"/><path class="cls-6" d="M104.77,48.63s-6.08-6.19-8.32-6.9c0,0,23.58.47,39.38,5.27,15.45,4.7,34.3,15.93,34.3,15.93A19.4,19.4,0,0,0,163,67" transform="translate(-33.16 0.24)"/><path class="cls-7" d="M60.16,104.51s-1.9,3.79,2.43,6,20.3,8.8,21.65,9.47,27.33,11.59,29.5,12.78,5.68,1.89,7.17-.55,12.85-20.7,15.29-26.92,14.61-30.72,14.61-31.66-3.24-4.33-3.24-6.09,1.48-3.65.94-4.33a4.6,4.6,0,0,0-1.35-1.05,51.87,51.87,0,0,1-27.47-2.57c-14.75-5.55-13-9.34-13-9.34" transform="translate(-33.16 0.24)"/><polygon class="cls-7" points="84.84 57.46 87.48 56.04 100.74 60.16 98.24 61.58 84.84 57.46"/><path class="cls-7" d="M192,84.35c-.79,2-2.64,2.63-3.66,3.11s-6.36,1.83-16.84-2.37-11-12-11-12a30.73,30.73,0,0,1,1-4.74" transform="translate(-33.16 0.24)"/><path class="cls-7" d="M86.16,57.76s-.07.77,1.55,1,5.64-1,5.64-1" transform="translate(-33.16 0.24)"/><ellipse class="cls-8" cx="105.69" cy="89.46" rx="31.91" ry="26.03" transform="translate(-64.75 71.6) rotate(-32.74)"/><ellipse class="cls-7" cx="105.69" cy="89.46" rx="31.91" ry="26.03" transform="translate(-64.75 71.6) rotate(-32.74)"/><ellipse class="cls-9" cx="104.38" cy="88.33" rx="24.07" ry="20.49" transform="translate(-64.23 69.83) rotate(-32.36)"/><ellipse class="cls-7" cx="102.36" cy="85.13" rx="11.97" ry="9.27" transform="translate(-62.83 68.25) rotate(-32.36)"/><path class="cls-10" d="M123.43,74.5c-5.42-8.65-19.12-10.26-30.21-3.39l.12-.06a2.32,2.32,0,0,1,3.19.78l0,.07A2.55,2.55,0,0,1,95.09,75a2.31,2.31,0,0,1-3.18-.76l0-.09a2.43,2.43,0,0,1,1-2.85h0c-11.16,7.15-15.28,20.3-9.81,29s19,10,30.12,2.88S128.9,83.24,123.43,74.5ZM109.16,69a2.86,2.86,0,0,1,3.53-.83,2,2,0,0,1,.59,2.84,2.42,2.42,0,0,1-.25.31,2.85,2.85,0,0,1-3.54.83,2,2,0,0,1-.65-2.75A2.08,2.08,0,0,1,109.16,69Zm-8.85.72a3,3,0,0,1,2.85-2.29,1.94,1.94,0,0,1,2,1.84,1.83,1.83,0,0,1,0,.47A3,3,0,0,1,102.27,72a2,2,0,0,1-2-2,1.62,1.62,0,0,1,0-.31ZM86.16,77.81A2.84,2.84,0,0,1,89.69,77a2,2,0,0,1,.65,2.75,2.31,2.31,0,0,1-.31.39,2.85,2.85,0,0,1-3.54.83,2,2,0,0,1-.33-3.14Zm-4,8.67a3,3,0,0,1,3-2.29,1.94,1.94,0,0,1,2,1.84,1.83,1.83,0,0,1,0,.47,3,3,0,0,1-2.87,2.26,2,2,0,0,1-2.08-1.92,2.17,2.17,0,0,1,0-.36Zm4.32,9.43a2.32,2.32,0,0,1-3.19-.78l0-.07a2.54,2.54,0,0,1,1.47-3.14,2.31,2.31,0,0,1,3.18.76l0,.09a2.52,2.52,0,0,1-1.4,3.14Zm6,4.2a2.85,2.85,0,0,1-3.54.83,2,2,0,0,1-.6-2.76,1.82,1.82,0,0,1,.36-.42,2.84,2.84,0,0,1,3.53-.83,2,2,0,0,1,.69,2.74,1.83,1.83,0,0,1-.35.44Zm9,.61A3,3,0,0,1,98.59,103a1.94,1.94,0,0,1-2.09-1.78,2.36,2.36,0,0,1,0-.53,3,3,0,0,1,2.89-2.29,2,2,0,0,1,2.14,1.85,2.07,2.07,0,0,1,0,.5Zm-9.13-8.89c-2.74-4.37-.44-10.82,5.14-14.39s12.33-2.94,15.07,1.44.44,10.82-5.14,14.4-12.26,2.93-15-1.45Zm19.85,6.59a2.32,2.32,0,0,1-3.19-.78l0-.07a2.55,2.55,0,0,1,1.48-3.14,2.32,2.32,0,0,1,3.19.78l0,.07a2.55,2.55,0,0,1-1.43,3.14Zm4.3-25.87a2.31,2.31,0,0,1,3.18.77.41.41,0,0,0,0,.09,2.55,2.55,0,0,1-1.48,3.14,2.33,2.33,0,0,1-3.19-.78l0-.08a2.55,2.55,0,0,1,1.53-3.14Zm3,18.07A2.86,2.86,0,0,1,116.16,92a2,2,0,0,1-1.06-2.62,2.13,2.13,0,0,1,.26-.44,2.86,2.86,0,0,1,3.37-1.35,2,2,0,0,1,1,2.63,1.67,1.67,0,0,1-.25.43Zm2.36-9.13A3,3,0,0,1,119,83.76,1.94,1.94,0,0,1,116.89,82a2.36,2.36,0,0,1,0-.53,3,3,0,0,1,2.89-2.29,2,2,0,0,1,2.09,1.91,3,3,0,0,1,0,.42Z" transform="translate(-33.16 0.24)"/></g></svg>