<svg id="Layer_1" data-name="Layer 1" xmlns="http://www.w3.org/2000/svg" xmlns:xlink="http://www.w3.org/1999/xlink" viewBox="0 0 185.48 185.48"><defs><style>.cls-1,.cls-3,.cls-4{fill:#fff;}.cls-1,.cls-10,.cls-11,.cls-12,.cls-13,.cls-14,.cls-5{opacity:0.25;isolation:isolate;}.cls-2{opacity:0.75;}.cls-15,.cls-4,.cls-8{stroke:#666;}.cls-15,.cls-4,.cls-7,.cls-8{stroke-miterlimit:10;}.cls-15,.cls-4,.cls-7{stroke-width:2px;}.cls-5{fill:url(#linear-gradient);}.cls-6{fill:#666;}.cls-15,.cls-7,.cls-8{fill:none;}.cls-7{stroke:#4d4d4d;stroke-linecap:round;}.cls-9{fill:#e9f2d7;}.cls-10{fill:url(#linear-gradient-2);}.cls-11{fill:url(#linear-gradient-3);}.cls-12{fill:url(#linear-gradient-4);}.cls-13{fill:url(#linear-gradient-5);}.cls-14{fill:url(#linear-gradient-7);}</style><linearGradient id="linear-gradient" x1="80.08" y1="103.67" x2="125.41" y2="103.67" gradientTransform="matrix(1, 0, 0, -1, -33.16, 186.24)" gradientUnits="userSpaceOnUse"><stop offset="0" stop-color="#98ad2e"/><stop offset="1" stop-color="#8ea325"/></linearGradient><linearGradient id="linear-gradient-2" x1="60.39" y1="100.45" x2="93.16" y2="100.45" gradientTransform="matrix(1, 0, 0, -1, 0, 186)" xlink:href="#linear-gradient"/><linearGradient id="linear-gradient-3" x1="75.35" y1="97.68" x2="100.27" y2="97.68" gradientTransform="matrix(1, 0, 0, -1, 0, 186)" xlink:href="#linear-gradient"/><linearGradient id="linear-gradient-4" x1="93.99" y1="104.2" x2="107.1" y2="104.2" gradientTransform="matrix(1, 0, 0, -1, 0, 186)" xlink:href="#linear-gradient"/><linearGradient id="linear-gradient-5" x1="80.08" y1="64.64" x2="189.75" y2="64.64" xlink:href="#linear-gradient"/><linearGradient id="linear-gradient-7" x1="106.93" y1="95.37" x2="168.88" y2="95.37" xlink:href="#linear-gradient"/></defs><title>Deliver Icon</title><g id="Layer_1-2" data-name="Layer 1"><circle class="cls-1" cx="92.74" cy="92.74" r="92.74"/><g class="cls-2"><path class="cls-3" d="M125.9,1.76A90.74,90.74,0,1,1,35.16,92.5,90.75,90.75,0,0,1,125.9,1.76m0-2A92.74,92.74,0,1,0,218.64,92.5,92.74,92.74,0,0,0,125.9-.24Z" transform="translate(-33.16 0.24)"/></g><path class="cls-4" d="M189.68,58.22l-64-18.78a1.34,1.34,0,0,0-1,.12L104.83,50.49c-2.1-1.84-5.21-2.06-9.41-1-8.82,2.17-49.8,30.68-49.8,30.68S48.83,87.5,60.39,86c0,0,3.32,7.32,14.88,5.15a13.15,13.15,0,0,0,4.81,2.73l-.22,29.87a1.36,1.36,0,0,0,1.07,1.35l55.79,12.5a1.5,1.5,0,0,0,.73,0l52.27-17a1.37,1.37,0,0,0,.95-1.31V59.54A1.39,1.39,0,0,0,189.68,58.22Z" transform="translate(-33.16 0.24)"/><path class="cls-4" d="M190.67,65.3s10.18,8.1.1,25.56Z" transform="translate(-33.16 0.24)"/><polygon class="cls-5" points="92.25 39.75 46.92 64.48 46.92 125.38 92.25 105.23 92.25 39.75"/><path class="cls-3" d="M97.08,93.86c-3.21,0-3.44-4-3.45-4.12v-.82l-.71.41a69.38,69.38,0,0,1-7.94,4,6.8,6.8,0,0,1-2.4.44h0c-3.74,0-6.89-2.93-6.93-3l-.18-.18h-.25a22.4,22.4,0,0,1-4,.39C63.38,91,61,86,60.87,85.72l-.15-.33h-.37a21.93,21.93,0,0,1-2.92.2c-7.49,0-10.41-4.11-11.13-5.38,4.06-2.81,41.08-28.33,49.27-30.36a18.52,18.52,0,0,1,4.32-.6c5.52,0,7.88,4.07,7.88,13.63,0,12.36-6.66,30.56-10.3,30.87Z" transform="translate(-33.16 0.24)"/><path class="cls-6" d="M99.86,49.85c3.83,0,7.38,1.59,7.38,13.13a66,66,0,0,1-3.78,19.86c-2.63,7.56-5.07,10.43-6.06,10.51h-.32c-2.73,0-2.94-3.49-3-3.64L94,88.06l-1.42.83a68.8,68.8,0,0,1-7.87,3.94,6.46,6.46,0,0,1-2.22.4c-3.53,0-6.55-2.8-6.58-2.83l-.37-.35-.5.1a22.21,22.21,0,0,1-3.9.38c-7.49,0-9.8-4.77-9.89-5l-.31-.68-.73.1a24.82,24.82,0,0,1-2.86.19c-6.57,0-9.48-3.26-10.46-4.74,5.61-3.87,40.83-28.06,48.72-30a17.51,17.51,0,0,1,4.2-.59h0m0-1a18.5,18.5,0,0,0-4.44.62c-8.82,2.17-49.8,30.68-49.8,30.68s2.64,6,11.78,6a23.14,23.14,0,0,0,3-.2s2.52,5.55,10.8,5.55a22.3,22.3,0,0,0,4.08-.4s3.28,3.1,7.27,3.1a7.29,7.29,0,0,0,2.66-.4,70.22,70.22,0,0,0,8-4s.21,4.59,4,4.59a2.67,2.67,0,0,0,.4,0c4.12-.34,10.76-19,10.76-31.36,0-10.06-2.65-14.13-8.38-14.13Z" transform="translate(-33.16 0.24)"/><path class="cls-6" d="M60.39,85.53l19.5-11.12L61.26,86.86A6.92,6.92,0,0,1,60.39,85.53Z" transform="translate(-33.16 0.24)"/><polygon class="cls-6" points="41.61 91.26 54.69 83.43 42.39 91.9 41.61 91.26"/><path class="cls-3" d="M93.16,89.22A21.85,21.85,0,0,0,97.55,86a11.15,11.15,0,0,1-4.26,4.17Z" transform="translate(-33.16 0.24)"/><path class="cls-6" d="M97.52,86a22,22,0,0,1-4.36,3.26l.13.91A11.15,11.15,0,0,0,97.55,86Z" transform="translate(-33.16 0.24)"/><line class="cls-7" x1="96.77" y1="93.73" x2="100.65" y2="94.62"/><line class="cls-7" x1="102.65" y1="95.07" x2="105" y2="95.61"/><line class="cls-7" x1="106.76" y1="96.01" x2="115.34" y2="97.97"/><line class="cls-7" x1="117.12" y1="98.37" x2="117.93" y2="98.56"/><line class="cls-7" x1="96.68" y1="96.3" x2="104.02" y2="97.97"/><line class="cls-7" x1="105.85" y1="98.38" x2="107.07" y2="98.66"/><line class="cls-7" x1="109.88" y1="99.3" x2="117.84" y2="101.12"/><line class="cls-7" x1="96.59" y1="98.86" x2="101.97" y2="100.08"/><line class="cls-7" x1="105.15" y1="100.81" x2="107.96" y2="101.45"/><line class="cls-7" x1="109.79" y1="101.87" x2="110.65" y2="102.06"/><line class="cls-7" x1="112.48" y1="102.48" x2="117.75" y2="103.68"/><line class="cls-7" x1="96.5" y1="101.42" x2="112.39" y2="105.04"/><line class="cls-7" x1="113.68" y1="105.34" x2="117.66" y2="106.24"/><polygon class="cls-6" points="144.17 59.63 141.9 62.72 143.27 63.1 143.27 67.98 145.07 68.48 145.07 63.6 146.44 63.98 144.17 59.63"/><polygon class="cls-6" points="149.79 61.18 147.51 64.27 148.89 64.65 148.89 69.53 150.69 70.03 150.69 65.15 152.06 65.53 149.79 61.18"/><polygon class="cls-6" points="150.69 71.7 143.22 69.64 143.22 68.46 150.69 70.53 150.69 71.7"/><polygon class="cls-8" points="153.61 74.01 140.34 70.34 140.34 57.07 153.61 60.74 153.61 74.01"/><path class="cls-9" d="M80.42,73.11,59.73,86.44s-9.82,1.62-14.11-5.82l6.59-4.86S51,81,56.31,82.14,80.42,73.11,80.42,73.11Z" transform="translate(-33.16 0.24)"/><path class="cls-10" d="M60.39,86.83s6.77,6.59,16.08,3.68L93.16,79.85S76.31,91.13,65.74,83.22Z" transform="translate(-33.16 0.24)"/><path class="cls-11" d="M75.35,92s3.73,3.33,7.65,2,12.25-6.4,17.27-11.74c0,0-12.54,9.49-19.69,5.46Z" transform="translate(-33.16 0.24)"/><path class="cls-12" d="M98.16,87.08S95.9,90.17,94,90.86c0,0,.6,3.14,3.53,2.68S106.29,78.6,107.15,70c0,0-4.41,16.37-7.62,18.89S98.16,87.08,98.16,87.08Z" transform="translate(-33.16 0.24)"/><path class="cls-9" d="M191.5,72V87.21s2.74-5.12,2.68-10C194.16,77.21,192.16,77.06,191.5,72Z" transform="translate(-33.16 0.24)"/><path class="cls-9" d="M192,78.32V85a33.07,33.07,0,0,0,1.49-4.44A3.6,3.6,0,0,1,192,78.32Z" transform="translate(-33.16 0.24)"/><polygon class="cls-13" points="156.59 121.03 104.39 137.97 46.92 125.38 92.25 105.23 156.59 121.03"/><polygon class="cls-13" points="156.59 121.03 104.39 137.97 46.92 125.38 92.25 105.23 156.59 121.03"/><polygon class="cls-14" points="120.71 48.11 120.71 112 73.77 130.72 86.54 133.63 135.72 115.56 135.72 52.52 120.71 48.11"/><path class="cls-15" d="M189.68,58.22l-64-18.78a1.34,1.34,0,0,0-1,.12L104.83,50.49c-2.1-1.84-5.21-2.06-9.41-1-8.82,2.17-49.8,30.68-49.8,30.68S48.83,87.5,60.39,86c0,0,3.32,7.32,14.88,5.15a13.15,13.15,0,0,0,4.81,2.73l-.22,29.87a1.36,1.36,0,0,0,1.07,1.35l55.79,12.5a1.5,1.5,0,0,0,.73,0l52.27-17a1.37,1.37,0,0,0,.95-1.31V59.54A1.39,1.39,0,0,0,189.68,58.22Z" transform="translate(-33.16 0.24)"/></g></svg>