<svg id="Layer_1" data-name="Layer 1" xmlns="http://www.w3.org/2000/svg" xmlns:xlink="http://www.w3.org/1999/xlink" viewBox="0 0 1920.01 1080"><defs><style>.cls-1{fill:url(#linear-gradient);}.cls-2{fill:none;}.cls-3{opacity:0.2;}.cls-4{opacity:0.5;}.cls-4,.cls-8,.cls-9{isolation:isolate;}.cls-5{fill:#e8eaea;}.cls-6,.cls-9{fill:#fff;}.cls-7{fill:#dbdbdb;}.cls-8,.cls-9{opacity:0.6;}</style><linearGradient id="linear-gradient" x1="548.39" y1="132.39" x2="1507.08" y2="1091.08" gradientTransform="matrix(1, 0, 0, -1, 0, 1084)" gradientUnits="userSpaceOnUse"><stop offset="0" stop-color="#8cc63f"/><stop offset="0.06" stop-color="#83bc41"/><stop offset="0.21" stop-color="#71a844"/><stop offset="0.37" stop-color="#679c45"/><stop offset="0.52" stop-color="#639846"/><stop offset="0.61" stop-color="#589344"/><stop offset="0.75" stop-color="#3c8540"/><stop offset="0.94" stop-color="#0e6f39"/><stop offset="1" stop-color="#006837"/></linearGradient></defs><title>MAIN - Third Section BG</title><rect class="cls-1" width="1920" height="1080"/><rect class="cls-2" width="1920" height="1080"/><g class="cls-3"><g class="cls-4"><polygon class="cls-5" points="1920.01 119.4 1920.01 155.18 1900.83 175.56 1896.59 180.06 1805.68 276.65 1803.56 278.91 1801.44 281.16 1761.52 323.57 1667.99 224.2 1586.19 137.3 1703.18 13.02 1712.52 3.09 1810.51 3.09 1813.41 6.17 1819.85 13.02 1843.32 37.93 1903.45 101.82 1905.57 104.07 1907.68 106.31 1920.01 119.4"/><path class="cls-6" d="M1909.81,104.06l-2.12-2.25-2.11-2.25-60-63.74L1817.66,6.17l-2.9-3.08L1811.85,0H1711.19L1582,137.3l179.56,190.78,42-44.67,4.24-4.5,90.92-96.59,2.11-2.25,2.12-2.25L1920,159.7V114.89Zm-148.29,215-91.28-97-79.81-84.79,115-122.17,8.43-9h95.32l92.16,97.89,2.12,2.25,2.11,2.25,14.31,15.2v27.07l-21.16,22.48-2.12,2.26-2.12,2.25-90.92,96.58-2.12,2.26-2.12,2.25Z"/></g><g class="cls-4"><polygon class="cls-7" points="1920.01 299.2 1920.01 354.85 1893.82 327.02 1920.01 299.2"/><path class="cls-6" d="M1889.59,327,1920,359.35V294.71Zm8.47,0,21.82-23.16V350.2Z"/></g><g class="cls-4"><polygon class="cls-5" points="1736.12 594.57 1812.38 513.55 1888.64 594.57 1812.38 675.58 1736.12 594.57"/><path class="cls-6" d="M1812.38,680.08l-80.5-85.51,80.5-85.53,80.5,85.53Zm-72-85.51,72,76.5,72-76.5-72-76.52Z"/></g><g class="cls-4"><polygon class="cls-7" points="1920.01 649.57 1920.01 655.34 1917.29 652.45 1920.01 649.57"/><polygon class="cls-6" points="1920.01 645.07 1920.01 659.83 1913.05 652.45 1920.01 645.07"/></g><g class="cls-4"><polygon class="cls-7" points="1693.62 663.09 1782.18 569.01 1870.76 663.09 1782.18 757.19 1693.62 663.09"/><path class="cls-6" d="M1782.18,761.7l-92.8-98.61,92.8-98.59L1875,663.09Zm-84.33-98.61,84.33,89.6,84.34-89.6-84.34-89.58Z"/></g><g class="cls-8"><polygon class="cls-6" points="1740.92 384.9 1829.49 290.81 1918.07 384.9 1829.49 478.99 1740.92 384.9"/><path class="cls-6" d="M1833.74,290.81l-4.24-4.5-7.37,7.82-2.12,2.26-2.12,2.25-81.2,86.26,92.81,98.59L1920,387.33v-4.86Zm-4.24,183.67-84.34-89.58,77-81.76,7.37-7.82,84.33,89.58Z"/></g><g class="cls-4"><polygon class="cls-7" points="1920.01 3.09 1920.01 88.72 1907.69 101.81 1905.57 104.07 1903.46 106.31 1889.26 121.38 1827.02 55.26 1803.56 30.33 1781.72 7.13 1782.63 6.17 1785.53 3.09 1920.01 3.09"/><path class="cls-6" d="M1784.2,0l-2.91,3.09-2.91,3.08-.9,1,111.78,118.75,16.31-17.32,2.11-2.25,2.13-2.25L1920,93.22V0Zm135.68,84.37-14.3,15.19-2.13,2.26-2.11,2.24-12.07,12.82L1786,7.13l.91-1h133Z"/></g><g class="cls-8"><polygon class="cls-6" points="1829.2 3.09 1819.86 13.02 1803.57 30.33 1761.53 74.99 1703.18 13.02 1693.84 3.09 1829.2 3.09"/><path class="cls-6" d="M1761.52,79.5,1686.69,0h149.66ZM1701,6.17l60.54,64.32,60.54-64.32Z"/></g><g class="cls-8"><polygon class="cls-6" points="1726.98 197.55 1822.13 96.47 1917.3 197.55 1822.13 298.64 1726.98 197.55"/><path class="cls-6" d="M1903,177.82l-2.12-2.26-2.11-2.25L1822.13,92l-99.38,105.59,76.57,81.36,4.24,4.5,14.33,15.23,2.12,2.24,2.12,2.26,7.37-7.82,2.11-2.25,2.13-2.26L1920,199.16v-3.22Zm-80.82,116.31-14.33-15.22-2.12-2.26-2.12-2.25-72.34-76.85L1822.13,101l72.35,76.85,2.11,2.24,2.13,2.26,14.34,15.23-83.56,88.76Z"/></g><g class="cls-4"><polygon class="cls-7" points="1920.01 254.21 1920.01 275.21 1910.13 264.71 1920.01 254.21"/><path class="cls-6" d="M1905.9,264.71l14.11,15v-30Zm8.47,0,5.51-5.84v11.69Z"/></g><g class="cls-8"><polygon class="cls-6" points="1787.59 373.8 1842.34 315.64 1897.09 373.8 1842.34 431.97 1787.59 373.8"/><path class="cls-6" d="M1842.33,436.48l-59-62.68,59-62.66,59,62.66Zm-50.51-62.68,50.51,53.67,50.52-53.67-50.52-53.65Z"/></g><polygon class="cls-9" points="1920.01 3.09 1920.01 40.3 1919.88 40.44 1893.56 68.41 1854.11 26.48 1838.81 10.23 1842.63 6.17 1845.53 3.09 1920.01 3.09"/><g class="cls-4"><polygon class="cls-7" points="1776.2 197.15 1830.95 138.99 1885.71 197.15 1830.95 255.31 1776.2 197.15"/><path class="cls-6" d="M1831,259.81l-59-62.66,59-62.67,59,62.67Zm-50.52-62.66L1831,250.81l50.51-53.66L1831,143.49Z"/></g><g class="cls-4"><polygon class="cls-7" points="1920.01 732.77 1920.01 816.99 1904.25 833.73 1848.86 774.87 1904.25 716.02 1920.01 732.77"/><path class="cls-6" d="M1904.25,711.52l-59.62,63.35,59.62,63.37L1920,821.5V728.26Zm0,9,15.63,16.59v75.52l-15.63,16.59-51.15-54.36Z"/></g><g class="cls-4"><polygon class="cls-5" points="1876.13 3.09 1854.12 26.48 1843.33 37.93 1827.03 55.26 1667.99 224.2 1612.99 282.62 1482.65 144.15 1438.94 97.72 1394.09 50.07 1350.38 3.64 1349.87 3.09 1876.13 3.09"/><path class="cls-6" d="M1613,287.12,1342.71,0h540.56ZM1357,6.17l256,271.94,52.75-56L1841.08,35.82,1869,6.17Z"/></g><g class="cls-4"><polygon class="cls-7" points="1270.13 442.54 1485.87 213.36 1701.61 442.54 1485.87 671.72 1270.13 442.54"/><path class="cls-6" d="M1485.87,676.23l-220-233.69,220-233.69,220,233.69Zm-211.5-233.69,211.5,224.68,211.5-224.68-211.5-224.68Z"/></g><g class="cls-4"><polygon class="cls-7" points="1153.27 3.09 1131.96 25.73 1110.64 3.09 1153.27 3.09"/><path class="cls-6" d="M1132,30.23,1103.5,0h56.91ZM1117.79,6.17,1132,21.22l14.16-15Z"/></g><g class="cls-4"><polygon class="cls-5" points="897.99 212.24 974.25 131.22 1050.52 212.24 974.25 293.26 897.99 212.24"/><path class="cls-6" d="M974.25,297.76l-80.5-85.52,80.5-85.53,80.5,85.53Zm-72-85.52,72,76.51,72-76.51-72-76.52Z"/></g><g class="cls-4"><polygon class="cls-7" points="1079.16 270.13 1152.16 192.59 1225.16 270.13 1152.16 347.68 1079.16 270.13"/><path class="cls-6" d="M1152.17,352.19l-77.24-82.06,77.24-82,77.23,82Zm-68.77-82.06,68.77,73.05,68.76-73.05-68.76-73Z"/></g><g class="cls-4"><polygon class="cls-7" points="1578.86 3.09 1552.83 30.74 1492.38 94.95 1422.12 20.3 1405.91 3.09 1578.86 3.09"/><path class="cls-6" d="M1492.38,99.45,1398.77,0H1586ZM1413.06,6.17l79.32,84.28,79.33-84.28Z"/></g><g class="cls-8"><polygon class="cls-6" points="1460.56 74.77 1438.94 97.72 1438.86 97.84 1371.98 168.87 1283.41 74.77 1350.38 3.64 1350.89 3.09 1393.08 3.09 1415.68 27.11 1460.56 74.77"/><path class="cls-6" d="M1372,173.37l-92.8-98.6L1349.54,0h44.87l70.38,74.77Zm-84.33-98.6L1372,164.36l64.52-68.52.2-.23,19.61-20.84-64.57-68.6h-39.5Z"/></g><g class="cls-8"><polygon class="cls-6" points="1571.12 50.17 1482.65 144.15 1482.56 144.26 1438.86 97.84 1393.98 50.17 1394.09 50.07 1415.68 27.11 1422.12 20.3 1438.31 3.09 1526.8 3.09 1552.83 30.74 1571.12 50.17"/><path class="cls-6" d="M1482.54,148.75l-92.8-98.59,2.11-2.22L1437,0h91.16l47.22,50.17Zm-84.32-98.58,84.33,89.59,84.33-89.59-41.42-44h-85.82Z"/></g><g class="cls-8"><polygon class="cls-6" points="1103.43 209.24 1191.99 115.14 1266.19 193.94 1177.63 288.04 1103.43 209.24"/><path class="cls-6" d="M1177.64,292.54l-78.44-83.3,92.79-98.6,78.44,83.3Zm-70-83.3,70,74.29L1262,193.94l-70-74.29Z"/></g><g class="cls-4"><polygon class="cls-7" points="855.49 280.77 944.05 186.68 1032.63 280.77 944.05 374.86 855.49 280.77"/><path class="cls-6" d="M944.05,379.37l-92.8-98.6,92.8-98.6,92.81,98.6Zm-84.33-98.6,84.33,89.59,84.34-89.59-84.34-89.59Z"/></g><g class="cls-8"><polygon class="cls-6" points="1079.45 3.09 991.38 96.67 903.27 3.09 1079.45 3.09"/><path class="cls-6" d="M991.38,101.17,896.13,0H1086.6Zm-81-95,81,86,80.93-86Z"/></g><g class="cls-4"><polygon class="cls-7" points="1179.22 378.57 1267.8 284.48 1356.37 378.57 1267.8 472.67 1179.22 378.57"/><path class="cls-6" d="M1267.79,477.17l-92.8-98.6,92.8-98.59,92.81,98.59Zm-84.33-98.6,84.33,89.59,84.34-89.59L1267.79,289Z"/></g><g class="cls-4"><polygon class="cls-5" points="1537.36 385.76 1689.22 224.42 1841.09 385.76 1689.22 547.09 1537.36 385.76"/><path class="cls-6" d="M1689.22,551.59l-156.1-165.83,156.1-165.84,156.1,165.84ZM1541.59,385.76l147.63,156.83,147.63-156.83L1689.22,228.93Z"/></g><g class="cls-4"><polygon class="cls-7" points="1204.47 243.68 1353.09 85.82 1501.68 243.68 1353.09 401.55 1204.47 243.68"/><path class="cls-6" d="M1353.08,406.06,1200.24,243.68l2-2.11L1353.08,81.32l152.84,162.36ZM1208.71,243.68l144.37,153.37,144.37-153.37L1353.08,90.33Z"/></g><g class="cls-8"><polygon class="cls-6" points="1264.52 243.68 1353.09 149.6 1441.64 243.68 1353.09 337.78 1264.52 243.68"/><path class="cls-6" d="M1353.08,342.29l-92.8-98.61,92.8-98.59,92.8,98.59Zm-84.33-98.61,84.33,89.6,84.33-89.6-84.33-89.58Z"/></g><g class="cls-8"><polygon class="cls-6" points="1225.34 351.7 1302.24 270 1379.15 351.7 1302.24 433.4 1225.34 351.7"/><path class="cls-6" d="M1302.25,437.91,1221.1,351.7l81.15-86.21,81.14,86.21Zm-72.68-86.21,72.68,77.2,72.67-77.2-72.67-77.2Z"/></g><g class="cls-4"><polygon class="cls-7" points="1008.16 16.76 1001.48 23.86 974.25 52.78 940.35 16.76 953.21 3.09 995.3 3.09 1005.87 14.31 1008.16 16.76"/><path class="cls-6" d="M974.25,57.28,936.11,16.76,951.87,0h44.77l15.76,16.76ZM944.58,16.76l29.67,31.51,29.68-31.52L994,6.17H954.54Z"/></g><g class="cls-8"><polygon class="cls-6" points="1026.47 3.09 1004.21 26.76 1001.48 23.86 981.92 3.09 1026.47 3.09"/><path class="cls-6" d="M1004.21,31.27,974.78,0h58.84ZM989.07,6.17l15.13,16.09,15.13-16.09Z"/></g><g class="cls-8"><polygon class="cls-6" points="1192.88 82.87 1225.33 48.39 1257.78 82.87 1225.33 117.34 1192.88 82.87"/><path class="cls-6" d="M1225.33,121.85l-36.69-39,36.69-39,36.68,39Zm-28.22-39,28.22,30,28.21-30-28.21-30Z"/></g><g class="cls-4"><polygon class="cls-7" points="1010.73 392.55 1066.13 333.7 1121.54 392.55 1066.13 451.41 1010.73 392.55"/><path class="cls-6" d="M1066.13,455.92l-59.64-63.37,59.64-63.35,59.65,63.35ZM1015,392.55l51.17,54.36,51.16-54.36-51.16-54.34Z"/></g><g class="cls-4"><polygon class="cls-7" points="430.63 3.09 394.35 41.71 358.06 3.09 430.63 3.09"/><path class="cls-6" d="M394.34,46.22,350.93,0h86.84Zm-29.14-40,29.15,31,29.15-31Z"/></g><g class="cls-4"><polygon class="cls-5" points="645.89 209.44 569.72 128.32 645.89 47.22 722.08 128.32 645.89 209.44"/><path class="cls-6" d="M645.9,214l-80.42-85.63L645.9,42.71l80.41,85.61ZM574,128.32l71.95,76.61,71.94-76.61L645.9,51.73Z"/></g><g class="cls-4"><polygon class="cls-7" points="713.15 3.09 700.33 16.76 687.5 3.09 713.15 3.09"/><path class="cls-6" d="M700.32,21.27,680.36,0h39.93Zm-5.69-15.1,5.69,6.08L706,6.17Z"/></g><g class="cls-8"><polygon class="cls-6" points="631.64 3.09 628.7 6.22 625.75 3.09 631.64 3.09"/><polygon class="cls-6" points="628.7 10.72 618.6 0 638.79 0 628.7 10.72"/></g><g class="cls-4"><polygon class="cls-7" points="710.34 254.65 621.87 160.45 710.34 66.26 798.79 160.45 710.34 254.65"/><path class="cls-6" d="M710.33,259.16l-92.7-98.71,92.7-98.7,92.7,98.7ZM626.1,160.45l84.23,89.69,84.23-89.69L710.33,70.77Z"/></g><g class="cls-8"><polygon class="cls-6" points="448.76 204.33 360.3 110.12 448.76 15.93 537.24 110.12 448.76 204.33"/><path class="cls-6" d="M448.76,208.84l-92.7-98.72,92.7-98.7,92.71,98.7Zm-84.23-98.72,84.23,89.7L533,110.12,448.76,20.44Z"/></g><g class="cls-8"><polygon class="cls-6" points="325.87 3.09 325.69 3.27 325.52 3.09 325.87 3.09"/><polygon class="cls-6" points="325.69 7.77 318.37 0 333.02 0 325.69 7.77"/></g><g class="cls-8"><polygon class="cls-6" points="147.47 57.2 75.84 133.45 4.24 57.2 55.05 3.09 96.64 3.09 147.47 57.2"/><path class="cls-6" d="M75.84,138,0,57.2,53.72,0H98L151.7,57.2ZM8.47,57.2l67.37,71.74L143.23,57.2l-47.92-51H56.39Z"/></g><g class="cls-8"><polygon class="cls-6" points="312.44 3.09 253.88 65.44 195.31 3.09 312.44 3.09"/><path class="cls-6" d="M253.88,70,188.18,0h131.4ZM202.45,6.17l51.43,54.76L305.31,6.17Z"/></g><g class="cls-4"><polygon class="cls-7" points="355.75 3.09 335.76 24.38 315.76 3.09 355.75 3.09"/><path class="cls-6" d="M335.77,28.89,308.63,0h54.24ZM322.9,6.17l12.86,13.7,12.85-13.7Z"/></g><g class="cls-8"><polygon class="cls-6" points="438.33 154.71 383.64 96.47 438.33 38.24 493.01 96.47 438.33 154.71"/><path class="cls-6" d="M438.33,159.22,379.41,96.48l58.92-62.75,58.92,62.75ZM387.88,96.48l50.45,53.72,50.45-53.72L438.33,42.75Z"/></g><g class="cls-4"><polygon class="cls-7" points="870.77 30.62 815.43 89.53 760.1 30.62 785.95 3.09 844.91 3.09 870.77 30.62"/><path class="cls-6" d="M815.44,94,755.86,30.62,784.61,0h61.64L875,30.62ZM764.33,30.62,815.44,85l51.1-54.4-23-24.45h-56.3Z"/></g><g class="cls-8"><polygon class="cls-6" points="1016.42 3.09 1005.87 14.31 1004.21 16.08 991.98 3.09 1016.42 3.09"/><path class="cls-6" d="M1004.21,20.59,984.83,0h38.74ZM999.12,6.17l5.08,5.4,5.08-5.4Z"/></g><path d="M317,3.6h-5.69l2.84-3Zm-3.32-1h.95l-.48-.5Z"/><polygon points="359.25 3.6 354.55 3.6 356.92 1.1 359.25 3.6"/></g></svg>