<svg xmlns="http://www.w3.org/2000/svg" xmlns:xlink="http://www.w3.org/1999/xlink" viewBox="0 0 1920 900"><defs><style>.cls-1{isolation:isolate;}.cls-2,.cls-58{fill:#ccc;}.cls-2,.cls-70{opacity:0.33;}.cls-10,.cls-11,.cls-12,.cls-13,.cls-14,.cls-15,.cls-16,.cls-17,.cls-18,.cls-19,.cls-2,.cls-20,.cls-21,.cls-22,.cls-23,.cls-24,.cls-25,.cls-26,.cls-27,.cls-28,.cls-29,.cls-3,.cls-30,.cls-31,.cls-32,.cls-33,.cls-34,.cls-35,.cls-36,.cls-37,.cls-38,.cls-39,.cls-4,.cls-40,.cls-41,.cls-42,.cls-43,.cls-44,.cls-45,.cls-46,.cls-47,.cls-48,.cls-49,.cls-5,.cls-50,.cls-51,.cls-52,.cls-53,.cls-54,.cls-55,.cls-56,.cls-57,.cls-58,.cls-59,.cls-6,.cls-60,.cls-7,.cls-8,.cls-9{mix-blend-mode:overlay;}.cls-3,.cls-62,.cls-64,.cls-7{fill:#bcbcbc;}.cls-3,.cls-72{opacity:0.23;}.cls-4{fill:#363636;}.cls-4,.cls-73{opacity:0.28;}.cls-5{fill:#545454;}.cls-5,.cls-74{opacity:0.39;}.cls-6,.cls-93{fill:#acacac;}.cls-6,.cls-75{opacity:0.23;}.cls-7,.cls-76{opacity:0.36;}.cls-8,.cls-82{fill:#b6b6b6;}.cls-77,.cls-8{opacity:0.74;}.cls-34,.cls-9{fill:#636363;}.cls-78,.cls-9{opacity:0.72;}.cls-10{fill:#c9c9c9;}.cls-10,.cls-79{opacity:0.76;}.cls-11{fill:#3d3d3d;}.cls-11,.cls-83{opacity:0.72;}.cls-12{fill:#7d7d7d;}.cls-12,.cls-85{opacity:0.59;}.cls-13,.cls-33{fill:#6c6c6c;}.cls-13,.cls-86{opacity:0.56;}.cls-14,.cls-87{fill:#0f1713;opacity:0.61;}.cls-15{fill:#464646;}.cls-15,.cls-88{opacity:0.71;}.cls-16,.cls-47,.cls-96{fill:#919191;}.cls-16,.cls-89{opacity:0.69;}.cls-17,.cls-90{fill:#fff;opacity:0.48;}.cls-18{fill:#686868;}.cls-18,.cls-91{opacity:0.65;}.cls-19,.cls-81{fill:#d1d1d1;}.cls-19,.cls-92{opacity:0.49;}.cls-20{fill:#5d5d5d;opacity:0.75;}.cls-21{fill:#606060;}.cls-21,.cls-93{opacity:0.78;}.cls-22,.cls-36{fill:#565656;}.cls-22{opacity:0.34;}.cls-23,.cls-38{fill:#c3c3c3;}.cls-23{opacity:0.23;}.cls-24{fill:#5f5f5f;opacity:0.26;}.cls-100,.cls-25{fill:#bfbfbf;}.cls-25,.cls-95{opacity:0.53;}.cls-26{fill:#2c2c2c;}.cls-26,.cls-96{opacity:0.3;}.cls-27{fill:#616161;}.cls-27,.cls-97{opacity:0.21;}.cls-28{fill:#515151;}.cls-28,.cls-98{opacity:0.36;}.cls-29{fill:#dfdfdf;}.cls-29,.cls-99{opacity:0.37;}.cls-30{fill:#838383;}.cls-100,.cls-30{opacity:0.77;}.cls-31{fill:#c7c7c7;}.cls-101,.cls-31{opacity:0.66;}.cls-32{fill:#4b4b4b;}.cls-102,.cls-32{opacity:0.65;}.cls-33{opacity:0.71;}.cls-34{opacity:0.67;}.cls-35{fill:#f5f5f5;opacity:0.37;}.cls-36{opacity:0.67;}.cls-37,.cls-49,.cls-57{fill:#535353;}.cls-103,.cls-37{opacity:0.62;}.cls-38{opacity:0.74;}.cls-39,.cls-40,.cls-88{fill:#9e9e9e;}.cls-104,.cls-39{opacity:0.4;}.cls-40{opacity:0.33;}.cls-41{fill:#676767;}.cls-105,.cls-41{opacity:0.78;}.cls-42{fill:#525252;opacity:0.5;}.cls-43{fill:#656565;opacity:0.66;}.cls-44,.cls-86{fill:#b3b3b3;}.cls-44{opacity:0.22;}.cls-45,.cls-78{fill:#aeaeae;}.cls-45{opacity:0.26;}.cls-46{fill:#313131;opacity:0.39;}.cls-47{opacity:0.52;}.cls-48{fill:#f3f3f3;opacity:0.45;}.cls-49{opacity:0.22;}.cls-50{fill:#9c9c9c;opacity:0.67;}.cls-51{fill:#7a7a7a;opacity:0.49;}.cls-102,.cls-52{fill:#a1a1a1;}.cls-52{opacity:0.57;}.cls-53{fill:#484848;opacity:0.45;}.cls-54{fill:#6e6e6e;opacity:0.3;}.cls-55,.cls-75{fill:#d4d4d4;}.cls-55{opacity:0.53;}.cls-56{fill:#e5e5e5;opacity:0.24;}.cls-57{opacity:0.56;}.cls-58{opacity:0.5;}.cls-59{fill:#858585;opacity:0.43;}.cls-60{fill:#f6f6f6;opacity:0.56;}.cls-61{opacity:0.41;}.cls-62{opacity:0.3;}.cls-100,.cls-101,.cls-102,.cls-103,.cls-104,.cls-105,.cls-62,.cls-63,.cls-64,.cls-65,.cls-66,.cls-67,.cls-68,.cls-69,.cls-70,.cls-71,.cls-72,.cls-73,.cls-74,.cls-75,.cls-76,.cls-77,.cls-78,.cls-79,.cls-80,.cls-81,.cls-82,.cls-83,.cls-84,.cls-85,.cls-86,.cls-87,.cls-88,.cls-89,.cls-90,.cls-91,.cls-92,.cls-93,.cls-94,.cls-95,.cls-96,.cls-97,.cls-98,.cls-99{mix-blend-mode:screen;}.cls-63{fill:#fcfcfc;opacity:0.69;}.cls-64{opacity:0.4;}.cls-65,.cls-84{fill:#c4c4c4;}.cls-65{opacity:0.66;}.cls-66{fill:#ececec;opacity:0.48;}.cls-67,.cls-97{fill:#adadad;}.cls-67{opacity:0.46;}.cls-68{fill:#d7d7d7;opacity:0.31;}.cls-104,.cls-69{fill:#cdcdcd;}.cls-69{opacity:0.71;}.cls-70{fill:#e4e4e4;}.cls-71{fill:#8f8f8f;opacity:0.56;}.cls-72,.cls-76{fill:#dcdcdc;}.cls-73{fill:#969696;}.cls-103,.cls-74{fill:#a6a6a6;}.cls-77{fill:#d9d9d9;}.cls-79{fill:#e3e3e3;}.cls-80{fill:#fbfbfb;opacity:0.28;}.cls-81{opacity:0.25;}.cls-82{opacity:0.57;}.cls-83{fill:#9a9a9a;}.cls-84{opacity:0.71;}.cls-85{fill:#bbb;}.cls-89{fill:#c5c5c5;}.cls-105,.cls-91{fill:#b0b0b0;}.cls-92{fill:#e7e7e7;}.cls-94{fill:#d0d0d0;opacity:0.24;}.cls-95{fill:#dedede;}.cls-98{fill:#a5a5a5;}.cls-99{fill:#eee;}.cls-101{fill:#e2e2e2;}.cls-106{fill:url(#linear-gradient);}</style><linearGradient id="linear-gradient" x1="26.46" y1="-29.93" x2="1846.89" y2="905.95" gradientUnits="userSpaceOnUse"><stop offset="0" stop-color="#fff"/><stop offset="0.32" stop-color="#fff" stop-opacity="0.99"/><stop offset="0.54" stop-color="#fff" stop-opacity="0.95"/><stop offset="0.73" stop-color="#fff" stop-opacity="0.89"/><stop offset="0.91" stop-color="#fff" stop-opacity="0.81"/><stop offset="1" stop-color="#fff" stop-opacity="0.75"/></linearGradient></defs><title>MAIN - What We Do BG</title><g class="cls-1"><g id="Layer_1" data-name="Layer 1"><polygon class="cls-2" points="280.74 0 328.21 17.24 320.08 0 280.74 0"/><polygon class="cls-3" points="211.55 0 571.17 130.58 509.63 0 211.55 0"/><polygon class="cls-4" points="320.08 0 332.2 25.73 342.94 0 320.08 0"/><polygon class="cls-5" points="489.45 0 469.53 47.73 773.73 158.18 699.17 0 489.45 0"/><polygon class="cls-6" points="509.63 0 573.16 134.79 629.42 0 509.63 0"/><polygon class="cls-7" points="960 151.26 888.72 0 763.98 0 711.7 125.23 960 215.38 960 151.26"/><polygon class="cls-8" points="699.17 0 766.12 142.05 825.41 0 699.17 0"/><polygon class="cls-9" points="960 51.48 885.09 230.93 960 258.13 960 51.48"/><polygon class="cls-10" points="960 0 888.72 0 960 151.26 960 0"/><polygon class="cls-11" points="0 0 0 90.38 37.73 0 0 0"/><polygon class="cls-12" points="154.74 0 0 63.44 0 128.09 230.32 211.72 318.7 0 154.74 0"/><polygon class="cls-13" points="0 0 0 63.44 154.74 0 0 0"/><path class="cls-14" d="M560,10.66,166.31,172,449.65,274.92Z"/><polygon class="cls-15" points="245.08 0 174.71 168.59 551.56 14.1 512.74 0 245.08 0"/><path class="cls-16" d="M805.63,86.73,378,262,685.8,373.79Z"/><polygon class="cls-17" points="468.65 0 355.4 271.3 828.23 77.46 614.9 0 468.65 0"/><polygon class="cls-18" points="960 200.22 568.38 360.77 931.3 492.55 960 423.81 960 200.22"/><polygon class="cls-19" points="960 113.39 709.79 22.53 568.65 360.66 960 200.22 960 113.39"/><polygon class="cls-20" points="960 377 808.17 439.24 960 494.37 960 377"/><polygon class="cls-21" points="960 111.99 937.67 103.88 795.52 444.43 960 377 960 111.99"/><polygon class="cls-22" points="0 125.19 0 389.97 150.55 444.64 0 125.19"/><polygon class="cls-23" points="0 62.77 0 65.17 0.88 63.08 0 62.77"/><path class="cls-24" d="M173.33,90.79,44.83,398.62,374.89,518.47Z"/><polygon class="cls-25" points="36.41 0 0 0 0 125.19 169.56 484.97 327.83 105.82 36.41 0"/><path class="cls-26" d="M402.88,175.69,275.51,480.83l327.18,118.8Z"/><path class="cls-27" d="M491.06,215.69,369.47,507,178.74,102.28Z"/><path class="cls-28" d="M654.43,307.24l-98.22,235.3,252.28,91.6Z"/><path class="cls-29" d="M707.88,303.58,592.94,578.94,412.63,196.37Z"/><polygon class="cls-30" points="960 553.43 852.05 324.39 714.25 654.53 960 743.76 960 553.43"/><path class="cls-31" d="M924.44,391.58,816.29,650.68l-169.66-360Z"/><polygon class="cls-32" points="960 348.78 843.64 306.53 960 553.43 960 348.78"/><polygon class="cls-33" points="0 240.22 0 257.58 8.75 236.64 0 240.22"/><polygon class="cls-34" points="0 417 0 679.13 86.29 710.46 251.89 313.74 0 417"/><polygon class="cls-35" points="0 253.24 0 417 211.83 330.15 0 253.24"/><polygon class="cls-36" points="0 593.78 0 609.93 275.62 710.01 391.06 433.46 0 593.78"/><polygon class="cls-37" points="0 593.78 421.6 420.94 81.12 297.32 0 491.65 0 593.78"/><path class="cls-38" d="M641.74,507.47l-456,186.93L514,813.57Z"/><path class="cls-39" d="M633.48,510.86,194,691,317.18,396Z"/><polygon class="cls-40" points="773.21 900 909 574.69 375.87 793.26 669.86 900 773.21 900"/><path class="cls-41" d="M874.13,589,410.75,779,540.59,467.88Z"/><polygon class="cls-42" points="960 900 960 730.56 610.2 873.97 681.9 900 960 900"/><polygon class="cls-43" points="960 608.09 762.41 536.35 623.81 868.39 960 730.56 960 608.09"/><polygon class="cls-44" points="960 900 960 827.61 929.78 900 960 900"/><polygon class="cls-45" points="175.62 900 0 527.38 0 900 175.62 900"/><polygon class="cls-46" points="0 557.13 0 687.93 47.42 574.34 0 557.13"/><polygon class="cls-47" points="365.17 900 208.72 568.05 70.15 900 365.17 900"/><polygon class="cls-48" points="230.78 900 343.6 629.7 0 504.94 0 527.38 175.62 900 230.78 900"/><polygon class="cls-49" points="554.7 900 448.41 674.45 354.26 900 554.7 900"/><polygon class="cls-50" points="508.41 900 589.52 705.66 208.34 567.25 365.17 900 508.41 900"/><polygon class="cls-51" points="744.25 900 670.38 743.28 604.97 900 744.25 900"/><polygon class="cls-52" points="757.91 900 801.52 795.53 444.35 665.85 554.7 900 757.91 900"/><polygon class="cls-53" points="933.8 900 927.35 886.33 921.65 900 933.8 900"/><polygon class="cls-54" points="960 900 960 885.04 691.2 787.43 744.25 900 960 900"/><polygon class="cls-55" points="960 900 960 850.86 900.45 829.24 933.8 900 960 900"/><polygon class="cls-56" points="0 770.56 0 786.12 7.84 767.34 0 770.56"/><polygon class="cls-57" points="0 709.42 0 770.56 79.1 738.13 0 709.42"/><polygon class="cls-58" points="229.06 900 252.51 843.82 115.48 900 229.06 900"/><polygon class="cls-59" points="115.48 900 215.42 859.03 0 780.81 0 900 115.48 900"/><polygon class="cls-60" points="336.89 900 142.32 829.36 112.84 900 336.89 900"/><polygon class="cls-2" points="1639.27 0 1591.79 17.24 1599.92 0 1639.27 0"/><polygon class="cls-3" points="1708.45 0 1348.83 130.58 1410.38 0 1708.45 0"/><polygon class="cls-4" points="1599.92 0 1587.8 25.73 1577.06 0 1599.92 0"/><polygon class="cls-5" points="1430.55 0 1450.47 47.73 1146.27 158.18 1220.83 0 1430.55 0"/><polygon class="cls-6" points="1410.38 0 1346.85 134.79 1290.58 0 1410.38 0"/><polygon class="cls-7" points="960 151.26 1031.28 0 1156.02 0 1208.3 125.23 960 215.38 960 151.26"/><polygon class="cls-8" points="1220.83 0 1153.88 142.05 1094.59 0 1220.83 0"/><polygon class="cls-9" points="960 51.48 1034.91 230.93 960 258.13 960 51.48"/><polygon class="cls-10" points="960 0 1031.28 0 960 151.26 960 0"/><polygon class="cls-11" points="1920 0 1920 90.38 1882.27 0 1920 0"/><polygon class="cls-12" points="1765.27 0 1920 63.44 1920 128.09 1689.68 211.72 1601.3 0 1765.27 0"/><polygon class="cls-13" points="1920 0 1920 63.44 1765.26 0 1920 0"/><path class="cls-14" d="M1360,10.66,1753.69,172,1470.35,274.92Z"/><polygon class="cls-15" points="1674.92 0 1745.29 168.59 1368.44 14.1 1407.27 0 1674.92 0"/><path class="cls-16" d="M1114.38,86.73,1542,262,1234.2,373.79Z"/><polygon class="cls-17" points="1451.36 0 1564.6 271.3 1091.77 77.46 1305.1 0 1451.36 0"/><polygon class="cls-18" points="960 200.22 1351.63 360.77 988.7 492.55 960 423.81 960 200.22"/><polygon class="cls-19" points="960 113.39 1210.21 22.53 1351.35 360.66 960 200.22 960 113.39"/><polygon class="cls-20" points="960 377 1111.83 439.24 960 494.37 960 377"/><polygon class="cls-21" points="960 111.99 982.33 103.88 1124.48 444.43 960 377 960 111.99"/><polygon class="cls-22" points="1920 125.19 1920 389.97 1769.45 444.64 1920 125.19"/><polygon class="cls-23" points="1920 62.77 1920 65.17 1919.13 63.08 1920 62.77"/><path class="cls-24" d="M1746.68,90.79l128.49,307.83L1545.11,518.47Z"/><polygon class="cls-25" points="1883.59 0 1920 0 1920 125.19 1750.44 484.97 1592.17 105.82 1883.59 0"/><path class="cls-26" d="M1517.12,175.69l127.37,305.14-327.18,118.8Z"/><path class="cls-27" d="M1428.94,215.69,1550.53,507l190.73-404.69Z"/><path class="cls-28" d="M1265.57,307.24l98.22,235.3-252.28,91.6Z"/><path class="cls-29" d="M1212.12,303.58l114.94,275.36,180.31-382.57Z"/><polygon class="cls-30" points="960 553.43 1067.95 324.39 1205.75 654.53 960 743.76 960 553.43"/><path class="cls-31" d="M995.56,391.58l108.15,259.1,169.66-360Z"/><polygon class="cls-32" points="960 348.78 1076.36 306.53 960 553.43 960 348.78"/><polygon class="cls-33" points="1920 240.22 1920 257.58 1911.25 236.64 1920 240.22"/><polygon class="cls-34" points="1920 417 1920 679.13 1833.71 710.46 1668.11 313.74 1920 417"/><polygon class="cls-35" points="1920 253.24 1920 417 1708.17 330.15 1920 253.24"/><polygon class="cls-36" points="1920 593.78 1920 609.93 1644.38 710.01 1528.94 433.46 1920 593.78"/><polygon class="cls-37" points="1920 593.78 1498.41 420.94 1838.88 297.32 1920 491.65 1920 593.78"/><path class="cls-38" d="M1278.26,507.47l456,186.93L1406,813.57Z"/><path class="cls-39" d="M1286.52,510.86,1726,691,1602.82,396Z"/><polygon class="cls-40" points="1146.79 900 1011 574.69 1544.13 793.26 1250.14 900 1146.79 900"/><path class="cls-41" d="M1045.88,589l463.37,190L1379.41,467.88Z"/><polygon class="cls-42" points="960 900 960 730.56 1309.8 873.97 1238.1 900 960 900"/><polygon class="cls-43" points="960 608.09 1157.59 536.35 1296.2 868.39 960 730.56 960 608.09"/><polygon class="cls-44" points="960 900 960 827.61 990.22 900 960 900"/><polygon class="cls-45" points="1744.38 900 1920 527.38 1920 900 1744.38 900"/><polygon class="cls-46" points="1920 557.13 1920 687.93 1872.59 574.34 1920 557.13"/><polygon class="cls-47" points="1554.84 900 1711.29 568.05 1849.85 900 1554.84 900"/><polygon class="cls-48" points="1689.23 900 1576.4 629.7 1920 504.94 1920 527.38 1744.38 900 1689.23 900"/><polygon class="cls-49" points="1365.3 900 1471.59 674.45 1565.74 900 1365.3 900"/><polygon class="cls-50" points="1411.59 900 1330.48 705.66 1711.66 567.25 1554.84 900 1411.59 900"/><polygon class="cls-51" points="1175.75 900 1249.62 743.28 1315.03 900 1175.75 900"/><polygon class="cls-52" points="1162.09 900 1118.48 795.53 1475.65 665.85 1365.3 900 1162.09 900"/><polygon class="cls-53" points="986.2 900 992.65 886.33 998.35 900 986.2 900"/><polygon class="cls-54" points="960 900 960 885.04 1228.81 787.43 1175.75 900 960 900"/><polygon class="cls-55" points="960 900 960 850.86 1019.55 829.24 986.2 900 960 900"/><polygon class="cls-56" points="1920 770.56 1920 786.12 1912.16 767.34 1920 770.56"/><polygon class="cls-57" points="1920 709.42 1920 770.56 1840.9 738.13 1920 709.42"/><polygon class="cls-58" points="1690.94 900 1667.49 843.82 1804.52 900 1690.94 900"/><polygon class="cls-59" points="1804.52 900 1704.58 859.03 1920 780.81 1920 900 1804.52 900"/><polygon class="cls-60" points="1583.11 900 1777.68 829.36 1807.16 900 1583.11 900"/><g class="cls-61"><polygon class="cls-62" points="960 83.12 1072.96 166.83 960 299.44 960 83.12"/><polygon class="cls-63" points="960 159.33 1175.21 318.8 964.94 565.64 960 525.4 960 159.33"/><path class="cls-64" d="M1162,748.4l-64.31-523.72,312.91,231.87Z"/><path class="cls-65" d="M1351.52,869.09l-59-480.37,287,212.68Z"/><polygon class="cls-66" points="1529.96 900 1485.61 538.82 1763.39 744.65 1631.06 900 1529.96 900"/><polygon class="cls-67" points="1704.62 900 1681.6 712.55 1920 889.2 1920 892.87 1913.92 900 1704.62 900"/><polygon class="cls-68" points="1879.27 900 1869.57 820.98 1920 858.35 1920 900 1879.27 900"/><polygon class="cls-69" points="960 0 1109.75 0 960 16 960 0"/><polygon class="cls-70" points="960 42.13 995.89 0 1163.59 0 1348.95 137.34 960 178.9 960 42.13"/><polygon class="cls-71" points="960 16 1109.76 0 1114.28 0 960 181.12 960 16"/><path class="cls-72" d="M988.7,338.72,1248.88,33.29,1576.35,276Z"/><polygon class="cls-73" points="960 178.9 1358.82 136.29 1121.13 415.32 960 295.92 960 178.9"/><path class="cls-74" d="M1245.34,474.2,1448.4,235.82,1704,425.21Z"/><path class="cls-75" d="M1316.74,586l264.51-310.53L983.81,339.24Z"/><path class="cls-76" d="M1452.13,615l190.09-223.15,239.26,177.28Z"/><path class="cls-77" d="M1498.78,646.08l186.44-218.86-421.1,45Z"/><polygon class="cls-78" points="1920 727.92 1584.27 763.78 1827.48 478.27 1920 546.82 1920 727.92"/><path class="cls-79" d="M1691.68,794.6,1884,568.88l-434.29,46.39Z"/><polygon class="cls-80" points="1818.19 900 1920 780.48 1920 890.82 1834.06 900 1818.19 900"/><polygon class="cls-81" points="1732.02 900 1552.74 767.16 1920 727.92 1920 900 1732.02 900"/><polygon class="cls-82" points="1834.06 900 1920 890.82 1920 900 1834.06 900"/><polygon class="cls-83" points="1111.66 0 1075.37 42.6 1070.14 0 1111.66 0"/><polygon class="cls-84" points="1070.14 0 1076.27 49.91 1008.92 0 1070.14 0"/><polygon class="cls-85" points="1446.06 0 1270.15 206.51 1244.79 0 1446.06 0"/><polygon class="cls-86" points="1244.79 0 1270.06 205.76 1007.16 10.96 1016.5 0 1244.79 0"/><polygon class="cls-87" points="1506.65 0 1648.78 105.32 1459.64 327.35 1419.45 0 1506.65 0"/><polygon class="cls-88" points="1419.45 0 1458.6 318.86 1230.69 149.98 1358.44 0 1419.45 0"/><path class="cls-89" d="M1653.89,486.92,1600.74,54.09l258.61,191.63Z"/><path class="cls-90" d="M1656.7,509.8,1597.93,31.21l-227.18,266.7Z"/><polygon class="cls-91" points="1920 255.41 1920 586.82 1850.79 668.07 1788.12 157.69 1920 255.41"/><path class="cls-92" d="M1850.76,667.79,1788.15,158l-242,284.1Z"/><polygon class="cls-93" points="1920 369.03 1920 720.75 1736.32 584.65 1920 369.03"/><polygon class="cls-94" points="1920 706.43 1920 745 1899.85 730.08 1920 706.43"/><polygon class="cls-95" points="1509.5 0 1430.79 92.4 1306.09 0 1509.5 0"/><polygon class="cls-96" points="1920 76.35 1533.32 117.65 1633.54 0 1920 0 1920 76.35"/><polygon class="cls-97" points="1758.35 0 1614.79 168.53 1387.36 0 1758.35 0"/><polygon class="cls-98" points="1920 91.89 1920 239.24 1781.91 253.99 1920 91.89"/><polygon class="cls-99" points="1920 76.35 1920 164.44 1805.46 298.9 1557.38 115.08 1920 76.35"/><polygon class="cls-100" points="1920 378.01 1920 402.14 1897.39 404.55 1920 378.01"/><polygon class="cls-101" points="1920 239.24 1920 372.62 1762.67 256.05 1920 239.24"/><polygon class="cls-102" points="1920 402.14 1920 438.92 1876.61 406.77 1920 402.14"/><polygon class="cls-103" points="1768.75 0 1769.87 9.13 1757.56 0 1768.75 0"/><polygon class="cls-104" points="1920 0 1920 104.91 1778.41 0 1920 0"/><polygon class="cls-105" points="1920 26.53 1920 115.93 1873.31 81.34 1920 26.53"/></g><rect class="cls-106" width="1920" height="900"/></g></g></svg>