<svg id="Layer_1" data-name="Layer 1" xmlns="http://www.w3.org/2000/svg" xmlns:xlink="http://www.w3.org/1999/xlink" viewBox="0 0 1925.96 1083.13"><defs><style>.cls-1,.cls-9{fill:none;}.cls-2{fill:url(#linear-gradient);}.cls-3,.cls-6,.cls-7{opacity:0.5;}.cls-4{clip-path:url(#clip-path);}.cls-5{opacity:0.2;}.cls-6{fill:#e8eaea;}.cls-6,.cls-7,.cls-8{stroke:#fff;stroke-width:6px;}.cls-6,.cls-7,.cls-8,.cls-9{stroke-miterlimit:10;fill-rule:evenodd;}.cls-7{fill:#dbdbdb;}.cls-8{fill:#fff;opacity:0.6;}.cls-9{stroke:#000;}</style><linearGradient id="linear-gradient" x1="550.71" y1="954.87" x2="1509.72" y2="-4.14" gradientUnits="userSpaceOnUse"><stop offset="0" stop-color="#8cc63f"/><stop offset="0.06" stop-color="#83bc41"/><stop offset="0.21" stop-color="#71a844"/><stop offset="0.37" stop-color="#679c45"/><stop offset="0.52" stop-color="#639846"/><stop offset="0.61" stop-color="#589344"/><stop offset="0.75" stop-color="#3c8540"/><stop offset="0.94" stop-color="#0e6f39"/><stop offset="1" stop-color="#006837"/></linearGradient><clipPath id="clip-path" transform="translate(1.96 1.33)"><rect class="cls-1" x="1" width="1920" height="1020"/></clipPath></defs><title>MAIN - Third Section BG</title><rect class="cls-2" x="1.96" y="3.13" width="1921" height="1080"/><g class="cls-3"><g class="cls-4"><g class="cls-5"><polygon class="cls-6" points="1922.96 115.81 1922.96 143.69 1761.52 305.68 1667.99 211.83 1586.19 129.76 1703.18 12.38 1712.52 3 1810.51 3 1819.85 12.38 1843.32 35.91 1905.57 98.37 1922.96 115.81"/><polygon class="cls-7" points="1922.96 279.71 1922.96 338.18 1893.82 308.94 1922.96 279.71"/><polygon class="cls-6" points="1736.11 561.62 1812.38 485.1 1888.64 561.62 1812.38 638.13 1736.11 561.62"/><polygon class="cls-7" points="1922.96 610.61 1922.96 621.97 1917.29 616.29 1922.96 610.61"/><polygon class="cls-7" points="1693.61 626.34 1782.18 537.48 1870.75 626.34 1782.18 715.21 1693.61 626.34"/><polygon class="cls-8" points="1740.92 363.6 1829.49 274.74 1918.06 363.6 1829.49 452.46 1740.92 363.6"/><polygon class="cls-7" points="1922.96 3 1922.96 80.92 1905.57 98.37 1889.26 114.72 1827.02 52.27 1803.56 28.73 1781.72 6.82 1785.53 3 1922.96 3"/><polygon class="cls-8" points="1829.2 3 1819.85 12.38 1803.56 28.73 1761.52 70.91 1703.18 12.38 1693.83 3 1829.2 3"/><polygon class="cls-8" points="1726.98 186.66 1822.13 91.19 1917.29 186.66 1822.13 282.13 1726.98 186.66"/><polygon class="cls-7" points="1922.96 237.22 1922.96 262.97 1910.13 250.09 1922.96 237.22"/><polygon class="cls-8" points="1787.58 353.12 1842.33 298.19 1897.08 353.12 1842.33 408.06 1787.58 353.12"/><polygon class="cls-8" points="1922.96 3 1922.96 35.19 1893.56 64.69 1854.11 25.09 1838.81 9.75 1845.53 3 1922.96 3"/><polygon class="cls-7" points="1776.2 186.28 1830.95 131.35 1885.71 186.28 1830.95 241.21 1776.2 186.28"/><polygon class="cls-7" points="1922.96 695.1 1922.96 768.73 1904.25 787.5 1848.86 731.91 1904.25 676.33 1922.96 695.1"/><polygon class="cls-6" points="1876.12 3 1854.11 25.09 1843.32 35.91 1827.02 52.27 1667.99 211.83 1612.99 267 1482.65 136.23 1438.94 92.38 1394.08 47.37 1350.38 3.52 1349.86 3 1876.12 3"/><polygon class="cls-7" points="1270.13 418.04 1485.86 201.59 1701.6 418.04 1485.86 634.49 1270.13 418.04"/><polygon class="cls-7" points="1153.26 3 1131.96 24.38 1110.64 3 1153.26 3"/><polygon class="cls-6" points="897.98 200.53 974.25 124.01 1050.51 200.53 974.25 277.05 897.98 200.53"/><polygon class="cls-7" points="1079.16 255.21 1152.16 181.97 1225.16 255.21 1152.16 328.45 1079.16 255.21"/><polygon class="cls-7" points="1578.85 3 1552.82 29.12 1492.38 89.76 1422.11 19.26 1405.91 3 1578.85 3"/><polygon class="cls-8" points="1460.55 70.7 1438.94 92.38 1438.85 92.49 1371.98 159.57 1283.41 70.7 1350.38 3.52 1350.89 3 1393.07 3 1415.68 25.69 1460.55 70.7"/><polygon class="cls-8" points="1571.11 47.47 1482.65 136.23 1482.55 136.33 1438.85 92.49 1393.98 47.47 1394.08 47.37 1415.68 25.69 1422.11 19.26 1438.3 3 1526.79 3 1552.82 29.12 1571.11 47.47"/><polygon class="cls-8" points="1103.43 197.7 1191.99 108.83 1266.19 183.25 1177.63 272.12 1103.43 197.7"/><polygon class="cls-7" points="855.48 265.26 944.05 176.39 1032.62 265.26 944.05 354.12 855.48 265.26"/><polygon class="cls-8" points="1079.45 3 991.37 91.38 903.27 3 1079.45 3"/><polygon class="cls-7" points="1179.22 357.62 1267.79 268.76 1356.36 357.62 1267.79 446.49 1179.22 357.62"/><polygon class="cls-6" points="1537.35 364.41 1689.22 212.04 1841.08 364.41 1689.22 516.78 1537.35 364.41"/><polygon class="cls-7" points="1204.47 230.23 1353.08 81.14 1501.68 230.23 1353.08 379.33 1204.47 230.23"/><polygon class="cls-8" points="1264.51 230.23 1353.08 141.37 1441.64 230.23 1353.08 319.1 1264.51 230.23"/><polygon class="cls-8" points="1225.33 332.25 1302.24 255.08 1379.15 332.25 1302.24 409.41 1225.33 332.25"/><polygon class="cls-7" points="1008.16 15.91 1001.47 22.62 974.25 49.93 940.34 15.91 953.2 3 995.3 3 1005.86 13.6 1008.16 15.91"/><polygon class="cls-8" points="1026.47 3 1004.2 25.36 1001.47 22.62 981.92 3 1026.47 3"/><polygon class="cls-8" points="1192.87 78.35 1225.32 45.79 1257.77 78.35 1225.32 110.91 1192.87 78.35"/><polygon class="cls-7" points="1010.72 370.83 1066.12 315.25 1121.53 370.83 1066.12 426.42 1010.72 370.83"/><polygon class="cls-7" points="430.63 3 394.34 39.48 358.06 3 430.63 3"/><polygon class="cls-6" points="645.89 197.89 569.71 121.28 645.89 44.68 722.07 121.28 645.89 197.89"/><polygon class="cls-7" points="713.15 3 700.32 15.91 687.49 3 713.15 3"/><polygon class="cls-8" points="631.64 3 628.69 5.96 625.74 3 631.64 3"/><polygon class="cls-7" points="710.33 240.59 621.86 151.62 710.33 62.66 798.79 151.62 710.33 240.59"/><polygon class="cls-8" points="448.76 193.06 360.29 104.09 448.76 15.13 537.23 104.09 448.76 193.06"/><polygon class="cls-8" points="325.86 3 325.69 3.17 325.52 3 325.86 3"/><polygon class="cls-8" points="147.46 54.11 75.84 126.12 4.23 54.11 55.05 3 96.64 3 147.46 54.11"/><polygon class="cls-8" points="312.44 3 253.88 61.89 195.31 3 312.44 3"/><polygon class="cls-7" points="355.74 3 335.76 23.11 315.76 3 355.74 3"/><polygon class="cls-8" points="438.33 146.2 383.64 91.2 438.33 36.2 493.01 91.2 438.33 146.2"/><polygon class="cls-7" points="870.77 29 815.43 84.64 760.09 29 785.94 3 844.91 3 870.77 29"/><polygon class="cls-8" points="1016.42 3 1005.86 13.6 1004.2 15.27 991.97 3 1016.42 3"/><polygon class="cls-9" points="315.76 3 312.44 3 314.1 1.33 315.76 3"/><polygon class="cls-9" points="358.06 3 355.74 3 356.91 1.83 358.06 3"/></g></g></g></svg>