<svg id="Layer_1" data-name="Layer 1" xmlns="http://www.w3.org/2000/svg" viewBox="0 0 40 39.98"><defs><style>.cls-1{fill:#c1272d;}.cls-2{fill:#fbb03b;}.cls-3{fill:#7ac943;}.cls-4{fill:#3fa9f5;}</style></defs><title>Colour Icon</title><path class="cls-1" d="M0,40H3.87A36.48,36.48,0,0,1,40,3.87V0A40.35,40.35,0,0,0,0,40Z"/><path class="cls-2" d="M6.62,40h3.87A29.86,29.86,0,0,1,40,10.47V6.6A33.73,33.73,0,0,0,6.62,40Z"/><path class="cls-3" d="M12.91,40H16.8A23.49,23.49,0,0,1,40,16.8V12.91A27.43,27.43,0,0,0,12.91,40Z"/><path class="cls-4" d="M19.49,40h3.87A17,17,0,0,1,40,23.34V19.47A20.85,20.85,0,0,0,19.49,40Z"/></svg>