<svg id="Layer_1" data-name="Layer 1" xmlns="http://www.w3.org/2000/svg" xmlns:xlink="http://www.w3.org/1999/xlink" viewBox="0 0 498.17 362.74"><defs><style>.cls-1{opacity:0.5;}.cls-2,.cls-3,.cls-4,.cls-5,.cls-6,.cls-7,.cls-8{opacity:0.4;}.cls-2{fill:url(#linear-gradient);}.cls-3{fill:url(#linear-gradient-2);}.cls-4{fill:url(#linear-gradient-3);}.cls-5{fill:url(#linear-gradient-4);}.cls-6{fill:url(#linear-gradient-5);}.cls-7{fill:url(#linear-gradient-6);}.cls-8{fill:url(#linear-gradient-7);}.cls-10,.cls-11,.cls-9{fill:#e6e6e6;}.cls-10,.cls-11,.cls-17,.cls-18,.cls-19,.cls-20,.cls-22,.cls-9{stroke:#666;stroke-miterlimit:10;}.cls-9{stroke-width:1.41px;}.cls-10{stroke-width:1.39px;}.cls-11{stroke-width:1.41px;}.cls-12{font-size:17.89px;}.cls-12,.cls-16{fill:#666;font-family:Calibri-Bold, Calibri;font-weight:700;}.cls-13{letter-spacing:-0.01em;}.cls-14{letter-spacing:0em;}.cls-15{letter-spacing:0em;}.cls-16{font-size:17.93px;}.cls-17{fill:#f2f2f2;stroke-width:2px;}.cls-18,.cls-19,.cls-20,.cls-22{fill:none;}.cls-19{stroke-width:0.94px;stroke-dasharray:4.71;}.cls-20{stroke-width:1.02px;stroke-dasharray:5.12;}.cls-21{opacity:0.25;}.cls-22{stroke-width:1.03px;}.cls-23{opacity:0.15;}</style><linearGradient id="linear-gradient" y1="17.95" x2="39.56" y2="17.95" gradientUnits="userSpaceOnUse"><stop offset="0" stop-color="#98ad2e"/><stop offset="1" stop-color="#8ea325"/></linearGradient><linearGradient id="linear-gradient-2" x1="97.89" y1="181.37" x2="498.17" y2="181.37" xlink:href="#linear-gradient"/><linearGradient id="linear-gradient-3" y1="181.37" x2="449.72" y2="181.37" xlink:href="#linear-gradient"/><linearGradient id="linear-gradient-4" y1="142" x2="312.99" y2="142" xlink:href="#linear-gradient"/><linearGradient id="linear-gradient-5" y1="79.98" x2="176.28" y2="79.98" xlink:href="#linear-gradient"/><linearGradient id="linear-gradient-6" x1="234.6" y1="243.15" x2="498.17" y2="243.15" xlink:href="#linear-gradient"/><linearGradient id="linear-gradient-7" x1="371.67" y1="305.35" x2="498.17" y2="305.35" xlink:href="#linear-gradient"/></defs><title>Product Page - Scale</title><g class="cls-1"><polygon class="cls-2" points="39.56 0 0 35.91 0 0 39.56 0"/><polygon class="cls-3" points="498.17 0 498.17 80.08 186.67 362.74 97.89 362.74 497.64 0 498.17 0"/><polygon class="cls-4" points="449.71 0 49.97 362.74 0 362.74 0 327.51 360.92 0 449.71 0"/><polygon class="cls-5" points="312.99 0 0 284.01 0 203.45 224.22 0 312.99 0"/><polygon class="cls-6" points="176.28 0 0 159.96 0 79.39 87.5 0 176.28 0"/><polygon class="cls-7" points="498.17 123.57 498.17 204.15 323.39 362.74 234.6 362.74 498.17 123.57"/><polygon class="cls-8" points="498.17 247.95 498.17 328.51 460.46 362.74 371.67 362.74 498.17 247.95"/></g><line class="cls-9" x1="319.37" y1="319.84" x2="410.29" y2="319.84"/><line class="cls-10" x1="319.37" y1="327.79" x2="319.37" y2="312.96"/><line class="cls-10" x1="411" y1="327.79" x2="411" y2="312.96"/><line class="cls-11" x1="116.34" y1="320.37" x2="228.91" y2="320.37"/><line class="cls-10" x1="116.34" y1="327.79" x2="116.34" y2="312.96"/><line class="cls-10" x1="228.91" y1="327.79" x2="228.91" y2="312.96"/><text class="cls-12" transform="translate(338.54 346.15)">WI<tspan class="cls-13" x="20.98" y="0">D</tspan><tspan x="32" y="0">TH</tspan></text><text class="cls-12" transform="translate(142.79 346.15)">LEN<tspan class="cls-14" x="28.07" y="0">G</tspan><tspan class="cls-15" x="39.38" y="0">TH</tspan></text><line class="cls-11" x1="49.49" y1="294.39" x2="49.49" y2="30.02"/><line class="cls-10" x1="57.28" y1="295.09" x2="42.41" y2="295.09"/><line class="cls-10" x1="56.57" y1="30.02" x2="41.7" y2="30.02"/><text class="cls-16" transform="translate(22.94 130.3) rotate(90)">HEIGHT</text><path class="cls-17" d="M405.23,295c-3.07,0-8.77-1.63-13.82-2s-13.82,1-18,1a73.92,73.92,0,0,1-8.91-.78,74.29,74.29,0,0,1-8.92.78c-4.17,0-12.94-1.43-18-1s-10.75,2-13.82,2-4.83-2.85-3.07-5.7a93.22,93.22,0,0,0,8.58-20.94c2.28-8.84,1.29-57.69,1.51-60.13s.22-32,2.63-46.78,4.39-34.29,7.68-50.59c2.62-13,13.8-52.24,19.92-72.64,1.32-4.41,2.41-7.94,3.13-10.13.13-.4.24-.75.35-1.06l.35,1.08c.1.28.2.59.31.93h0c.71,2.22,1.69,5.42,2.85,9.28,6.12,20.43,17.26,59.59,19.88,72.54,3.29,16.3,5.26,35.85,7.68,50.59s4.29,69.25,2.41,85.48a57.59,57.59,0,0,0,1.1,19.76s7.46,19.75,9.21,22.61S408.3,295,405.23,295Z"/><path class="cls-18" d="M365.17,29l-.62,2.16,0,.14-2,6.91-8,28c-13.82,40.94-19.89,102.11-19.89,110s.29,35.31-.14,51.06,1.61,49.15,1,54.45-6.82,12.61-11.26,12.35-2.63-3.25-2.63-3.25"/><path class="cls-18" d="M407.3,291s.29,4.21-5.56,2.45-9.95-4.35-9.22-13.85c0,0,4.32-34.29,4.32-45.29s-2.22-64.57-4.4-76.79-5.26-40.74-11.62-66.81-16.31-59.36-16.31-59.36"/><line class="cls-19" x1="364.51" y1="28.09" x2="364.87" y2="55.97"/><path class="cls-19" d="M329.92,292.52c8.67-4.78,10.75-14.25,11.41-21.79s-4.83-66.2-4.39-87.18a303.27,303.27,0,0,1,3.21-38S349.7,70.35,364.51,56c14.8,14.38,24.36,89.59,24.36,89.59s3.65,30.52,3.65,51.16-3.95,61.38-4.53,65.73-3.22,21.18,5.56,28.11"/><path class="cls-19" d="M332.41,292.52s6.43-4.82,9.95-4.95,15.94-10.59,20.47-9.51a35.22,35.22,0,0,1,14,8.15c2.78,3,13.46,4.35,13.46,4.35"/><path class="cls-17" d="M229.15,51.13s-.51-17.64-.71-18.66-.61-5-3.67-4.69-21.72.1-29.67.71c-3.52.27-13.06.46-22.85.54-9.8-.08-19.34-.27-22.85-.54-8-.61-26.62-.41-29.67-.71s-3.47,3.67-3.67,4.69-.71,18.66-.71,18.66c3.34,1.32,0,3.53,0,3.53s.64,14.41.09,26.92,1.36,100.6,1.36,113.92,3.27,84.84,3.13,86.74-1.36,7.07-1.36,9,4.62,2.79,4.62,2.79H221.3s4.62-.88,4.62-2.79-1.22-7.07-1.36-9,3.13-73.41,3.13-86.74,1.9-101.41,1.36-113.92.1-26.92.1-26.92S226,52.18,229.15,51.13Z"/><path class="cls-20" d="M117.34,29.09s28.39.18,34.49.81,36.94.27,39.51,0a145.81,145.81,0,0,1,17.24-.81C214.15,29.36,226,29,226,29"/><path class="cls-20" d="M116,30.81s29.76.18,35.86.81,36.94.27,39.51,0a145.81,145.81,0,0,1,17.24-.81c5.57.27,19.59,0,19.59,0"/><path class="cls-20" d="M116,32.54s29.76.17,35.86.8,36.94.27,39.51,0a144,144,0,0,1,17.24-.8c5.57.26,19.59-.06,19.59-.06"/><path class="cls-21" d="M228.54,34.84c-2,0-4.56,0-7.11.06-3.73,0-7.5,0-9.87-.08-6.07-.21-16,.44-18.79.65s-36.43.5-43.08,0c-3.86-.29-16.41-.46-26.27-.56l-7.82-.06c.11-2,.21-3.53.28-3.77.2-.72.61-3.52,3.67-3.31s21.72.07,29.67.5c3.51.19,13.05.33,22.85.38s19.33-.19,22.85-.38c8-.43,26.61-.28,29.67-.5s3.47,2.59,3.67,3.31C228.33,31.32,228.43,32.88,228.54,34.84Z"/><path class="cls-22" d="M221.73,248.15c-1.26,28.7-1.75,36.65-1.22,39.48s.1,2.63-.74,2.73c-.08,0-1,0-2.69.05-2.64.27-23.57.29-44.83.24s-42.19,0-44.83-.24c-1.66,0-2.61,0-2.7-.05-.84-.1-1.26.11-.73-2.73s0-10.78-1.23-39.48-1-85.54-1-105.7V34.19c10.15.14,23.07.39,27.05.82,6.85.73,41.48.31,44.37,0s13.1-1.26,19.35-.95c2.44.13,6.33.14,10.16.12V142.45C222.71,162.61,223,219.45,221.73,248.15Z"/><path class="cls-23" d="M172.25,68.92A12.78,12.78,0,1,0,185,81.7,12.78,12.78,0,0,0,172.25,68.92Zm0,22.16a9.38,9.38,0,1,1,9.38-9.38A9.38,9.38,0,0,1,172.25,91.08Z"/><circle cx="172.25" cy="86.06" r="0.58"/><circle cx="168.16" cy="78.98" r="0.58"/><circle cx="176.33" cy="79.07" r="0.58"/></svg>