<svg id="Layer_1" data-name="Layer 1" xmlns="http://www.w3.org/2000/svg" viewBox="0 0 261.03 260.72"><defs><style>.cls-1{fill:#bae4e1;}.cls-2{fill:#00a99d;opacity:0.25;}.cls-3,.cls-8{fill:none;}.cls-4{fill:#b3b3b3;}.cls-4,.cls-5,.cls-8{stroke:#000;stroke-miterlimit:10;}.cls-4,.cls-8{stroke-width:1.27px;}.cls-5{fill:#e6e6e6;stroke-width:0.64px;}.cls-5,.cls-6{opacity:0.66;}.cls-7{fill:#666;}.cls-9{font-size:21px;fill:#4d4d4d;font-family:MontserratAlternates-SemiBold, Montserrat Alternates;font-weight:700;}.cls-10{letter-spacing:-0.01em;}</style></defs><title>Scoops</title><rect class="cls-1" width="261.03" height="260.72" rx="3" ry="3"/><path class="cls-2" d="M243.6,60.22c-.8-3.78-7.71-5.52-15.43-3.88a25.12,25.12,0,0,0-8.32,3.3h0l-15.61,9.14-46.7,27.33-7.81,5-.22.13a3.29,3.29,0,0,1-1.75.45h-.27l-2.62-.25a107,107,0,0,0-35.71,1.84C77,110.12,53.56,128.28,56.41,144c.13.62.28,1.24.45,1.84a1.09,1.09,0,0,0,0,.17c7.45,26.8,37.67,42.92,69,36.26s52.41-33.66,48.3-61.18a1,1,0,0,0,0-.17c-.1-.62-.2-1.23-.33-1.85-.05-.28-.1-.54-.16-.82-.28-1.3-.63-2.58-1-3.84L239.65,74q.73-.41,1.38-.84h0a11,11,0,0,0,3.22-3.1,4.44,4.44,0,0,0,.75-3.28l-1.37-6.41h0A.63.63,0,0,0,243.6,60.22Z"/><path class="cls-3" d="M237.44,55c-.8-3.78-7.71-5.52-15.43-3.88a24.7,24.7,0,0,0-8.32,3.31h0L143.37,95.52a3.33,3.33,0,0,1-2,.44l-3.15-.29,2.61,12.27,22.74-1.48-1-1a.89.89,0,0,1,.14-1.42l69.42-41.9c.49-.27,1-.55,1.4-.84h0C236.32,59.42,237.9,57.09,237.44,55Z"/><rect class="cls-3" x="151.28" y="57.44" width="91.66" height="56.35" transform="translate(-13.48 42.8) rotate(-11.99)"/><path class="cls-4" d="M236,48.36c-.81-3.78-7.72-5.52-15.43-3.88a25.27,25.27,0,0,0-8.33,3.3h0l-15.61,9.14L150,84.25l-7.81,5-.23.14a3.33,3.33,0,0,1-1.74.45h-.28l-2.62-.25a106.79,106.79,0,0,0-35.71,1.84c-32.15,6.83-55.57,25-52.73,40.73.13.62.29,1.23.46,1.83a.53.53,0,0,0,.05.18c7.44,26.8,37.66,42.92,69,36.26s52.42-33.67,48.31-61.18a1,1,0,0,0,0-.17q-.14-.93-.33-1.86c0-.27-.1-.53-.16-.81-.28-1.31-.62-2.58-1-3.84l66.91-40.39c.49-.28.95-.56,1.39-.84h0a11.42,11.42,0,0,0,3.22-3.1,4.39,4.39,0,0,0,.74-3.28l-1.36-6.41h0A1.11,1.11,0,0,0,236,48.36Z"/><path class="cls-5" d="M236,48.36a4.4,4.4,0,0,1-.75,3.28,11.08,11.08,0,0,1-3.21,3.09h0q-.65.42-1.38.84L162.87,96.5l-1.62,1a.9.9,0,0,0-.21,1.33c.37.33.73.67,1.06,1l0,0a16.19,16.19,0,0,1,4.19,7.36,3.54,3.54,0,0,1,.11.44,13.13,13.13,0,0,1,.22,1.42,1,1,0,0,1,0,.17c1.54,15.49-21.53,32.92-52.9,39.58s-59.55.1-64.44-14.66a.53.53,0,0,1-.05-.18,13.44,13.44,0,0,1-.38-1.38c0-.15-.06-.3-.08-.45C46,116.42,69.42,98.26,101.57,91.43a106.7,106.7,0,0,1,35.83-1.82l2.51.23a3.37,3.37,0,0,0,2-.45l11.3-6.69,59.05-34.92h0a24.7,24.7,0,0,1,8.32-3.3C228.32,42.84,235.24,44.58,236,48.36Z"/><g class="cls-6"><ellipse class="cls-7" cx="107.21" cy="119.76" rx="54.8" ry="25.52" transform="translate(-22.52 24.86) rotate(-11.98)"/><path d="M124.59,92.32h-.23l-2,0,0,.63,2.22,0v-.62Zm-4.47.1-.3,0h-1l-1,.06,0,.62q1.11-.08,2.22-.12l0-.63Zm-4.46.3-1.59.15h-.64l.07.62,2.21-.22,0-.62Zm-4.45.49h-.5l-.11,0h-.13l-1.48.21.1.62c.73-.11,1.47-.21,2.2-.3l-.08-.62Zm-4.42.66-.19,0h-.55l-.82.15H105l-.45.08.12.61q1.1-.21,2.19-.39l-.1-.61Zm-4.4.82-.12,0-.38.08h-.17l-1.52.34.14.61,1.68-.37.5-.11-.13-.61Zm-4.36,1-.45.11h-.76l-.06,0h-.07l-.54.15H96l-.13,0,.16.61,2.16-.56-.15-.6Zm-4.32,1.15-2.15.64.19.6,2.13-.64-.17-.6Zm-4.27,1.33-1,.32H88l-.06,0h0l-.56.2.21.58,2.1-.72-.19-.59Zm-4.22,1.5-.28.1h-.31l0,0h0l-.1,0h0l0,0h0l-.1,0h0l-.07,0h0l0,0h-.48l-.09,0h0l-.53.21.23.58,2.07-.81-.22-.58Zm-4.14,1.68c-.7.3-1.38.6-2,.91l.26.57,2-.91-.24-.57ZM77,103.22l-.56.28-1.17.6h-.06l-.2.1.29.56c.65-.34,1.31-.68,2-1l-.28-.56Zm-4,2.08-1.48.85h0l-.43.26.32.53,1.92-1.11-.31-.54Zm-3.83,2.3-.41.27h-.09l-1.36.92.36.52c.59-.42,1.21-.83,1.84-1.24l-.34-.52Zm-3.67,2.55h0l-1.47,1.14H63.9l-.11.08.4.49c.55-.46,1.14-.92,1.73-1.37l-.37-.5ZM62.09,113l-.09.08h-.1c-.37.34-.73.68-1.08,1h0l0,0h0v0h-.1l0,0h0l-.1.1.44.44c.51-.5,1.05-1,1.6-1.51l-.42-.47Zm-3.15,3.17c-.5.57-1,1.15-1.42,1.73l.5.38c.43-.56.89-1.13,1.39-1.69l-.47-.42Zm-2.7,3.56-.07.1H56.1l0,0h0c-.27.44-.52.89-.76,1.33h0v0h0c0,.09-.09.17-.13.26l.55.28c.32-.62.68-1.26,1.08-1.88l-.52-.34Zm-2,4v0h0v0h-.06v0h0v0h0a16.08,16.08,0,0,0-.51,1.86l.61.13a15,15,0,0,1,.59-2.07l-.58-.21Zm-.9,4.36c0,.36,0,.72,0,1.07h0v.05h0v0h0v0h0v0h0v0h0q0,.42.09.81l.62-.08a11.55,11.55,0,0,1-.1-2.12l-.63,0Zm1.21,4.21-.59.2a.76.76,0,0,1,0,.11h0v0h0v0h0v0h0v0h0l0,0h0l.06.14h0l0,.05h0l0,.05h0l0,0h0v.05h0v0h0v0h.1v0h0v0h0v0h0v0h0l.07.14h0l0,.06h0l0,0h0l0,0h0v0h0v0h.08l.09.16.55-.3a11.94,11.94,0,0,1-.86-1.94Zm2,3.72-.49.39c.21.27.43.53.66.79h0l0,0h.11q.33.38.69.72l.44-.45a15.3,15.3,0,0,1-1.44-1.6Zm3.08,3-.39.49.09.07h.1c.41.31.83.61,1.28.9h.13l.24.15.33-.53A20,20,0,0,1,59.66,139Zm3.68,2.33-.29.56.77.39h0l0,0h0l0,0h0l.05,0h.1l0,0h.1l.06,0h0l.75.34.25-.57c-.68-.3-1.34-.62-2-1Zm4,1.77-.21.59c.68.25,1.39.49,2.11.72l.19-.59c-.71-.23-1.41-.47-2.09-.72Zm4.21,1.33-.16.6c.71.19,1.44.36,2.18.53l.13-.61c-.73-.17-1.45-.34-2.15-.52Zm4.32,1-.11.62c.72.13,1.46.25,2.21.36l.09-.62c-.74-.11-1.48-.23-2.19-.36Zm4.38.65-.07.62c.74.08,1.48.16,2.23.22l0-.62c-.74-.06-1.48-.14-2.21-.22Zm4.43.38,0,.62c.74,0,1.48.08,2.23.1l0-.62-2.21-.1Zm6.66.13-1.53,0h-.7v.63h2.24v-.63Zm4.44-.17c-.75.05-1.49.08-2.22.11l0,.63h0l2.22-.11,0-.63Zm4.43-.36c-.74.08-1.48.14-2.21.2l0,.63h.3l1.52-.14H100l.28,0-.06-.62Zm4.41-.54-2.2.29.08.62.67-.08h.26l1.28-.17-.09-.62Zm4.4-.72c-.74.14-1.47.26-2.2.38l.1.62,2.21-.38h0l-.11-.62Zm4.36-.88-1,.22-1.18.24.12.62h.49l.66-.14h.15l.28-.06h0l.06,0h.15l.4-.09-.13-.61Zm4.32-1c-.71.19-1.43.37-2.15.54l.14.61,2.17-.55-.16-.6Zm4.28-1.21c-.7.22-1.41.42-2.13.63l.17.6.44-.13h.16l.05,0h0l1.5-.44-.19-.6Zm4.23-1.37-2.1.71.19.59h.12l.06,0h0l1.9-.64-.21-.59Zm4.17-1.55c-.68.27-1.38.53-2.07.79l.21.59,1.12-.42h0l.06,0h.91l-.23-.58Zm4.09-1.74-2,.89.24.58c.69-.3,1.37-.59,2.05-.9l-.26-.57Zm4-1.92c-.65.33-1.31.66-2,1l.28.57,1.16-.57H138l.78-.4-.29-.55Zm3.89-2.14c-.63.37-1.27.73-1.93,1.09l.3.55c.66-.36,1.31-.73,1.95-1.1l-.32-.54Zm3.75-2.36c-.6.4-1.22.81-1.85,1.21l.33.53c.64-.41,1.26-.81,1.87-1.23l-.35-.51Zm3.57-2.62c-.57.45-1.16.9-1.76,1.34l.37.5c.51-.37,1-.74,1.48-1.12h.08a1.84,1.84,0,0,1,.22-.17l-.39-.49ZM153,125c-.52.5-1.06,1-1.63,1.49l.41.47c.39-.33.77-.67,1.13-1h0l0,0h.11l.05,0h0l.32-.31L153,125Zm3-3.24c-.44.56-.92,1.12-1.43,1.67l.46.42.35-.39h0l0,0h.06l0,0h0l0,0h0a6.4,6.4,0,0,0,.42-.49h0l0,0h0l0,0h.1l.35-.44-.49-.39Zm2.44-3.61c-.34.61-.72,1.24-1.14,1.86l.52.35c.15-.22.29-.43.42-.65h0l0,0h0l0,0h0l0,0h.13v0h.06v0h0l0,0h0l0,0h0v0h0l0,0h0l0,0h0l0,0h0l0,0h0l0,0h0l0,0h0v0h0l0,0h0v0h0v0h0l0,0h.09v0h0l0,0h0l0-.07-.55-.3Zm1.62-4a18.76,18.76,0,0,1-.68,2l.57.24c.07-.17.14-.34.2-.51h0a14.75,14.75,0,0,0,.46-1.48l-.6-.16Zm1-4.28-.62,0a11.68,11.68,0,0,1,0,2.13l.62.06h0v0h0c0-.36.05-.72.05-1.07h0v0h0v0h0v0h0v0h0v0h0v0h0c0-.2,0-.4,0-.61Zm-1.17-4.29-.56.27a11.09,11.09,0,0,1,.74,2l.61-.17h0v0h0a11.7,11.7,0,0,0-.77-2ZM157.32,102l-.45.43a15,15,0,0,1,1.36,1.66l.51-.36a14.32,14.32,0,0,0-1.42-1.73Zm-3.42-2.86-.35.52a19.69,19.69,0,0,1,1.74,1.3l.4-.49c-.56-.46-1.16-.9-1.79-1.33ZM150,96.94l-.26.56q1,.48,2,1L152,98c-.64-.36-1.31-.69-2-1Zm-4.16-1.64-.2.6c.71.23,1.41.48,2.08.74l.22-.58c-.67-.27-1.38-.52-2.1-.76Zm-4.31-1.2-.14.61c.73.17,1.45.35,2.14.54l.17-.6c-.7-.19-1.43-.38-2.17-.55Zm-4.39-.85-.09.61,2.18.38.12-.61c-.72-.14-1.46-.27-2.21-.38Zm-4.43-.56-.06.62c.74.07,1.48.15,2.2.24l.08-.62q-1.09-.14-2.22-.24Zm-4.47-.3,0,.62q1.13,0,2.22.12l0-.62c-.74-.05-1.48-.09-2.24-.12Zm-3.64-.07h0v.62H126v-.62h-1.41Z"/></g><path class="cls-8" d="M236,48.36c-.81-3.78-7.72-5.52-15.43-3.88a25.27,25.27,0,0,0-8.33,3.3h0l-15.61,9.14L150,84.25l-7.81,5-.23.14a3.33,3.33,0,0,1-1.74.45h-.28l-2.62-.25a106.79,106.79,0,0,0-35.71,1.84c-32.15,6.83-55.57,25-52.73,40.73.13.62.29,1.23.46,1.83a.53.53,0,0,0,.05.18c7.44,26.8,37.66,42.92,69,36.26s52.42-33.67,48.31-61.18a1,1,0,0,0,0-.17q-.14-.93-.33-1.86c0-.27-.1-.53-.16-.81-.28-1.31-.62-2.58-1-3.84l66.91-40.39c.49-.28.95-.56,1.39-.84h0a11.42,11.42,0,0,0,3.22-3.1,4.39,4.39,0,0,0,.74-3.28l-1.36-6.41h0A1.11,1.11,0,0,0,236,48.36Z"/><g class="cls-6"><path d="M124.59,92.32h-.23l-2,0,0,.63,2.22,0v-.62Zm-4.47.1-.3,0h-1l-1,.06,0,.62q1.11-.08,2.22-.12l0-.63Zm-4.46.3-1.59.15h-.64l.07.62,2.21-.22,0-.62Zm-4.45.49h-.5l-.11,0h-.13l-1.48.21.1.62c.73-.11,1.47-.21,2.2-.3l-.08-.62Zm-4.42.66-.19,0h-.55l-.82.15H105l-.45.08.12.61q1.1-.21,2.19-.39l-.1-.61Zm-4.4.82-.12,0-.38.08h-.17l-1.52.34.14.61,1.68-.37.5-.11-.13-.61Zm-4.36,1-.45.11h-.76l-.06,0h-.07l-.54.15H96l-.13,0,.16.61,2.16-.56-.15-.6Zm-4.32,1.15-2.15.64.19.6,2.13-.64-.17-.6Zm-4.27,1.33-1,.32H88l-.06,0h0l-.56.2.21.58,2.1-.72-.19-.59Zm-4.22,1.5-.28.1h-.31l0,0h0l-.1,0h0l0,0h0l-.1,0h0l-.07,0h0l0,0h-.48l-.09,0h0l-.53.21.23.58,2.07-.81-.22-.58Zm-4.14,1.68c-.7.3-1.38.6-2,.91l.26.57,2-.91-.24-.57ZM77,103.22l-.56.28-1.17.6h-.06l-.2.1.29.56c.65-.34,1.31-.68,2-1l-.28-.56Zm-4,2.08-1.48.85h0l-.43.26.32.53,1.92-1.11-.31-.54Zm-3.83,2.3-.41.27h-.09l-1.36.92.36.52c.59-.42,1.21-.83,1.84-1.24l-.34-.52Zm-3.67,2.55h0l-1.47,1.14H63.9l-.11.08.4.49c.55-.46,1.14-.92,1.73-1.37l-.37-.5ZM62.09,113l-.09.08h-.1c-.37.34-.73.68-1.08,1h0l0,0h0v0h-.1l0,0h0l-.1.1.44.44c.51-.5,1.05-1,1.6-1.51l-.42-.47Zm-3.15,3.17c-.5.57-1,1.15-1.42,1.73l.5.38c.43-.56.89-1.13,1.39-1.69l-.47-.42Zm-2.7,3.56-.07.1H56.1l0,0h0c-.27.44-.52.89-.76,1.33h0v0h0c0,.09-.09.17-.13.26l.55.28c.32-.62.68-1.26,1.08-1.88l-.52-.34Zm-2,4v0h0v0h-.06v0h0v0h0a16.08,16.08,0,0,0-.51,1.86l.61.13a15,15,0,0,1,.59-2.07l-.58-.21Zm-.9,4.36c0,.36,0,.72,0,1.07h0v.05h0v0h0v0h0v0h0v0h0q0,.42.09.81l.62-.08a11.55,11.55,0,0,1-.1-2.12l-.63,0Zm1.21,4.21-.59.2a.76.76,0,0,1,0,.11h0v0h0v0h0v0h0v0h0l0,0h0l.06.14h0l0,.05h0l0,.05h0l0,0h0v.05h0v0h0v0h.1v0h0v0h0v0h0v0h0l.07.14h0l0,.06h0l0,0h0l0,0h0v0h0v0h.08l.09.16.55-.3a11.94,11.94,0,0,1-.86-1.94Zm2,3.72-.49.39c.21.27.43.53.66.79h0l0,0h.11q.33.38.69.72l.44-.45a15.3,15.3,0,0,1-1.44-1.6Zm3.08,3-.39.49.09.07h.1c.41.31.83.61,1.28.9h.13l.24.15.33-.53A20,20,0,0,1,59.66,139Zm3.68,2.33-.29.56.77.39h0l0,0h0l0,0h0l.05,0h.1l0,0h.1l.06,0h0l.75.34.25-.57c-.68-.3-1.34-.62-2-1Zm4,1.77-.21.59c.68.25,1.39.49,2.11.72l.19-.59c-.71-.23-1.41-.47-2.09-.72Zm4.21,1.33-.16.6c.71.19,1.44.36,2.18.53l.13-.61c-.73-.17-1.45-.34-2.15-.52Zm4.32,1-.11.62c.72.13,1.46.25,2.21.36l.09-.62c-.74-.11-1.48-.23-2.19-.36Zm4.38.65-.07.62c.74.08,1.48.16,2.23.22l0-.62c-.74-.06-1.48-.14-2.21-.22Zm4.43.38,0,.62c.74,0,1.48.08,2.23.1l0-.62-2.21-.1Zm6.66.13-1.53,0h-.7v.63h2.24v-.63Zm4.44-.17c-.75.05-1.49.08-2.22.11l0,.63h0l2.22-.11,0-.63Zm4.43-.36c-.74.08-1.48.14-2.21.2l0,.63h.3l1.52-.14H100l.28,0-.06-.62Zm4.41-.54-2.2.29.08.62.67-.08h.26l1.28-.17-.09-.62Zm4.4-.72c-.74.14-1.47.26-2.2.38l.1.62,2.21-.38h0l-.11-.62Zm4.36-.88-1,.22-1.18.24.12.62h.49l.66-.14h.15l.28-.06h0l.06,0h.15l.4-.09-.13-.61Zm4.32-1c-.71.19-1.43.37-2.15.54l.14.61,2.17-.55-.16-.6Zm4.28-1.21c-.7.22-1.41.42-2.13.63l.17.6.44-.13h.16l.05,0h0l1.5-.44-.19-.6Zm4.23-1.37-2.1.71.19.59h.12l.06,0h0l1.9-.64-.21-.59Zm4.17-1.55c-.68.27-1.38.53-2.07.79l.21.59,1.12-.42h0l.06,0h.91l-.23-.58Zm4.09-1.74-2,.89.24.58c.69-.3,1.37-.59,2.05-.9l-.26-.57Zm4-1.92c-.65.33-1.31.66-2,1l.28.57,1.16-.57H138l.78-.4-.29-.55Zm3.89-2.14c-.63.37-1.27.73-1.93,1.09l.3.55c.66-.36,1.31-.73,1.95-1.1l-.32-.54Zm3.75-2.36c-.6.4-1.22.81-1.85,1.21l.33.53c.64-.41,1.26-.81,1.87-1.23l-.35-.51Zm3.57-2.62c-.57.45-1.16.9-1.76,1.34l.37.5c.51-.37,1-.74,1.48-1.12h.08a1.84,1.84,0,0,1,.22-.17l-.39-.49ZM153,125c-.52.5-1.06,1-1.63,1.49l.41.47c.39-.33.77-.67,1.13-1h0l0,0h.11l.05,0h0l.32-.31L153,125Zm3-3.24c-.44.56-.92,1.12-1.43,1.67l.46.42.35-.39h0l0,0h.06l0,0h0l0,0h0a6.4,6.4,0,0,0,.42-.49h0l0,0h0l0,0h.1l.35-.44-.49-.39Zm2.44-3.61c-.34.61-.72,1.24-1.14,1.86l.52.35c.15-.22.29-.43.42-.65h0l0,0h0l0,0h0l0,0h.13v0h.06v0h0l0,0h0l0,0h0v0h0l0,0h0l0,0h0l0,0h0l0,0h0l0,0h0l0,0h0v0h0l0,0h0v0h0v0h0l0,0h.09v0h0l0,0h0l0-.07-.55-.3Zm1.62-4a18.76,18.76,0,0,1-.68,2l.57.24c.07-.17.14-.34.2-.51h0a14.75,14.75,0,0,0,.46-1.48l-.6-.16Zm1-4.28-.62,0a11.68,11.68,0,0,1,0,2.13l.62.06h0v0h0c0-.36.05-.72.05-1.07h0v0h0v0h0v0h0v0h0v0h0v0h0c0-.2,0-.4,0-.61Zm-1.17-4.29-.56.27a11.09,11.09,0,0,1,.74,2l.61-.17h0v0h0a11.7,11.7,0,0,0-.77-2ZM157.32,102l-.45.43a15,15,0,0,1,1.36,1.66l.51-.36a14.32,14.32,0,0,0-1.42-1.73Zm-3.42-2.86-.35.52a19.69,19.69,0,0,1,1.74,1.3l.4-.49c-.56-.46-1.16-.9-1.79-1.33ZM150,96.94l-.26.56q1,.48,2,1L152,98c-.64-.36-1.31-.69-2-1Zm-4.16-1.64-.2.6c.71.23,1.41.48,2.08.74l.22-.58c-.67-.27-1.38-.52-2.1-.76Zm-4.31-1.2-.14.61c.73.17,1.45.35,2.14.54l.17-.6c-.7-.19-1.43-.38-2.17-.55Zm-4.39-.85-.09.61,2.18.38.12-.61c-.72-.14-1.46-.27-2.21-.38Zm-4.43-.56-.06.62c.74.07,1.48.15,2.2.24l.08-.62q-1.09-.14-2.22-.24Zm-4.47-.3,0,.62q1.13,0,2.22.12l0-.62c-.74-.05-1.48-.09-2.24-.12Zm-3.64-.07h0v.62H126v-.62h-1.41Z"/></g><text class="cls-9" transform="translate(91.74 242.39)">S<tspan class="cls-10" x="13.21" y="0">c</tspan><tspan x="25.24" y="0">oops</tspan></text></svg>