<svg id="Layer_1" data-name="Layer 1" xmlns="http://www.w3.org/2000/svg" viewBox="0 0 261.03 260.72"><defs><style>.cls-1{fill:#af92c4;}.cls-2{fill:#662d91;}.cls-12,.cls-2,.cls-5,.cls-8{opacity:0.5;}.cls-3{fill:#fff;stroke-width:0.62px;}.cls-10,.cls-3{stroke:#666;}.cls-10,.cls-13,.cls-14,.cls-3,.cls-6,.cls-7,.cls-9{stroke-miterlimit:10;}.cls-4{fill:#f2f2f2;}.cls-5{fill:#b3b3b3;}.cls-13,.cls-14,.cls-6,.cls-7,.cls-9{fill:none;}.cls-13,.cls-6,.cls-9{stroke:#333;}.cls-6{stroke-width:0.46px;}.cls-14,.cls-7{stroke:#000;opacity:0.66;}.cls-7{stroke-width:0.26px;stroke-dasharray:2.58;}.cls-8{fill:#666;}.cls-9{stroke-width:1.85px;}.cls-10{fill:#e6e6e6;stroke-width:0.52px;}.cls-11{fill:#ccc;}.cls-12{fill:#999;}.cls-13{stroke-width:0.39px;}.cls-14{stroke-width:0.22px;stroke-dasharray:2.15;}.cls-15{font-size:21px;fill:#4d4d4d;font-family:MontserratAlternates-SemiBold, Montserrat Alternates;font-weight:700;}</style></defs><title>Side Gusset</title><rect class="cls-1" width="261.03" height="260.72" rx="3" ry="3"/><path class="cls-2" d="M182.06,197l0-.06c-.09-.3-.24-.66-.39-1.1,0,0,0,0,0-.07a8.45,8.45,0,0,1-.46-2.15c-.14-1.66-.83-55.58-.83-57.31s.55-40.48.55-42.68c0-1.11.17-4.71.33-8.14s.33-6.71.33-7.14c0-.23,0-.51,0-.81s0-.5,0-.76a.28.28,0,0,1,0-.09v0c0-.09,0-.18,0-.27v-.1l0-.26s0-.07,0-.1a.38.38,0,0,1,0-.1v0s0,0,0,0a3.54,3.54,0,0,0-.1-.49s0-.11,0-.16h0c0-.08-.1-.32-.2-.68L181,74c-1.22-4.46-5.64-21.3-5.64-21.3s1.55-.09,1.6-.41a2.57,2.57,0,0,0,0-.69c-.14-.34-3.38-8-3.87-8.41a2.4,2.4,0,0,0-1.88-1,6.13,6.13,0,0,0-1.57.16l-2.07.38c-8.71,1.53-40.37,6.81-40.74,6.93a3,3,0,0,0-2.48,1.65c-.69,1.52-9.32,23.66-9.74,25a20.45,20.45,0,0,0-.64,3.95h0v.07a18.66,18.66,0,0,0,0,2v0a1.44,1.44,0,0,0,0,.18c0,.78-.08,3.74,0,9.09-7.39,1.3-32.73,6.26-33.68,6.48h0a2.52,2.52,0,0,0-2.07,1.39c-.58,1.27-7.79,19.75-8.13,20.91a16.53,16.53,0,0,0-.54,3.3h0v0a15.33,15.33,0,0,0,0,1.65h0c0,.35.06,3.3.13,7.77,0,.61,0,1.25,0,1.91v.24c.28,18.32.82,55.6.82,56.48s.09,2.93.19,3.77v0h0c0,.12,0,.21,0,.27a1.7,1.7,0,0,1-.13.69.42.42,0,0,0,0,.06l0,.07c0,.13-.09.26-.14.41a.3.3,0,0,0,0,.1c-.12.31-.26.63-.38.94-.21.5-.38.92-.45,1.14v0s0,.11,0,.13c.07.23,1.05.52,2.49.87s34.2,9.1,34.95,9.33l.33.09a2.54,2.54,0,0,0,1.12,0h0l.23,0h0l.44-.07.07,0c1.59-.36,13.88-5.86,13.88-5.86l-.23-.39,2.33-.62h0l0,0h0a1.24,1.24,0,0,0,.45-.17s0,0,0,0l0-.06h0l.06-.08a2.06,2.06,0,0,0,1-2.47,6.06,6.06,0,0,1-.34-1.5c12.17,3.23,31.7,8.46,32.33,8.66l.37.1a3.07,3.07,0,0,0,1.44,0h0l.12,0,.2,0,.48-.08c1.58-.28,13.26-4.64,13.26-4.64l4-1.63S183.49,199.13,182.06,197Z"/><path class="cls-3" d="M177.74,192.88a19.3,19.3,0,0,1-3.59.76l.42.69s-15.12,6.76-16.71,7a4.18,4.18,0,0,1-2.62,0c-.9-.28-40.12-10.76-41.84-11.18s-2.9-.75-3-1,1.6-3.65,1.46-4.27a43.3,43.3,0,0,1-.28-4.9c0-1.38-1.1-101.3-1.17-103.37a21.85,21.85,0,0,1,.69-6c.41-1.38,9-23.52,9.74-25a3,3,0,0,1,2.48-1.65c.37-.12,32-5.4,40.74-6.93l2.07-.38c2.62-.55,3,.41,3.45.83s3.72,8.07,3.86,8.41a2.37,2.37,0,0,1,0,.69c-.06.32-1.6.41-1.6.41s4.41,16.84,5.64,21.3c.15.58.26.95.29,1a5,5,0,0,1,.22,1.2c.05.74,0,1.53,0,2.07,0,.87-.66,13.07-.66,15.28,0,1.68-.32,24.55-.48,36.13,0,3.63-.07,6.14-.07,6.55,0,1.73.69,55.66.82,57.31a12.8,12.8,0,0,0,.9,3.38C178.78,191.92,178,192.61,177.74,192.88Z"/><path class="cls-4" d="M157.86,201.37c1.59-.28,16.71-7,16.71-7l-.42-.69a19.3,19.3,0,0,0,3.59-.76c.21-.27,1-1,.83-1.65a12.5,12.5,0,0,1-.89-3.38c-.14-1.65-.83-55.58-.83-57.31s.55-40.48.55-42.68.66-14.41.66-15.28a11.74,11.74,0,0,0-.25-3.27c-.05-.16-.27-1-.59-2.14,0,0-2.75,8.55-7.6,8.51S158.28,60.07,155,66.41s-35.21,10.14-41.22,9.1a14.4,14.4,0,0,1-3.3-.94,20.39,20.39,0,0,0,0,2.05c.07,2.07,1.17,102,1.17,103.37a43.45,43.45,0,0,0,.28,4.9c.14.62-1.54,4-1.46,4.27s1.25.62,3,1,40.94,10.89,41.84,11.17A4.18,4.18,0,0,0,157.86,201.37Z"/><path class="cls-4" d="M157.86,201.37c1.59-.28,16.71-7,16.71-7l-.42-.69a19.3,19.3,0,0,0,3.59-.76c.21-.27,1-1,.83-1.65a12.5,12.5,0,0,1-.89-3.38c-.14-1.65-.83-55.58-.83-57.31s.55-40.48.55-42.68.66-14.41.66-15.28a11.74,11.74,0,0,0-.25-3.27c-.05-.16-.27-1-.59-2.14,0,0-2.75,8.55-7.6,8.51S158.28,60.07,155,66.41s-35.21,10.14-41.22,9.1a14.4,14.4,0,0,1-3.3-.94,20.39,20.39,0,0,0,0,2.05c.07,2.07,1.17,102,1.17,103.37a43.45,43.45,0,0,0,.28,4.9c.14.62-1.54,4-1.46,4.27s1.25.62,3,1,40.94,10.89,41.84,11.17A4.18,4.18,0,0,0,157.86,201.37Z"/><path class="cls-5" d="M176.18,67.08c-3.51-3.11-9.79-8.57-11.65-9.5a1.07,1.07,0,0,0-.95,0c-2.68,1.24-6.44,10.93-6.44,10.93v0c0-1.26,0-2.1,0-2.45a1,1,0,0,0,0-.15,21.93,21.93,0,0,1,1.11-5.86c.17-.5,1.15-3.22,2.38-6.59,2.2-6,5.18-14.18,5.62-15.2a2,2,0,0,1,.67-.92l.22.16c.35.33,3.53,9.44,3.53,9.44l.31.55c.29,1.14,1,3.93,1.88,7.15C174,59,175.4,64.19,176.18,67.08Z"/><path class="cls-5" d="M178.57,191.23a12.8,12.8,0,0,1-.9-3.38c-.13-1.65-.82-55.58-.82-57.31,0-.41,0-2.92.07-6.55,0-.29,0-.59,0-.9s0-.5,0-.76c0-.64,0-1.31,0-2v-.49c0-.25,0-.51,0-.77s0-.57,0-.87,0-.88,0-1.33c0-.3,0-.6,0-.9q0-1.14,0-2.31c0-.46,0-.92,0-1.39v-.14c0-.19,0-.39,0-.58,0-.4,0-.8,0-1.2v-1.91c0-.32,0-.64,0-1,0-2.52.07-5,.1-7.31v-.5a.86.86,0,0,1,0-.16v-.65c0-.86,0-1.7,0-2.5v-.58c0-.19,0-.38,0-.56a2.81,2.81,0,0,1,0-.29v-.44c0-.12,0-.24,0-.36,0-.9,0-1.73,0-2.47v-.37a2.17,2.17,0,0,1,0-.26v-.78c0-.15,0-.31,0-.45,0-1,0-1.7,0-1.94,0-2.21.66-14.41.66-15.28,0-.45,0-1.08,0-1.7,0-.09,0-.18,0-.27v-.1a42.72,42.72,0,0,1-6.16,7.28c-3.43,2.9-12.11-7.86-14.73-9.26S146.51,79,143,83.38c-3.4,4.19,3.62,4.33,10.63,3.41a6.24,6.24,0,0,1,.35.93c1.24,4.34-1.1,57.93-9.46,74.48S116.68,181.85,115,183.09s-3.73,4.55-1.87,5.38,39.67,11.07,41.12,11.07a21.76,21.76,0,0,0,2.64.05,2,2,0,0,0,.08.64c.17.31.48.59,1.31.38s11.32-6.17,12.5-6.55,6.45-.83,7-1.26h0l0,0C178.15,192.43,178.75,191.83,178.57,191.23Z"/><path class="cls-6" d="M177.85,192.76c-.24.45-5.87.92-7,1.3s-11.67,6.34-12.5,6.55-1.14-.07-1.31-.38a35.14,35.14,0,0,1,0-5.48c.1-1.31,0-126.41.17-128.82a21.93,21.93,0,0,1,1.11-5.86c.48-1.38,7.31-20.21,8-21.79s1.63-1,1.9-.76S171.71,47,171.71,47"/><path class="cls-7" d="M159.66,57.58s9.18,15.66,9.66,17.31,1.18,1,1.66,10.21.62,101.72.72,103.47.31,2,0,2.9a15,15,0,0,1-2.24,3"/><path class="cls-5" d="M172.89,54.66a65.24,65.24,0,0,0-7.65-6,1.06,1.06,0,0,0-1,0c-1.14.53-2.47,2.59-3.63,4.78,2.2-6,5.18-14.18,5.62-15.2a2,2,0,0,1,.67-.92l.22.16c.35.33,3.53,9.44,3.53,9.44l.31.55C171.3,48.65,172,51.44,172.89,54.66Z"/><polygon class="cls-8" points="159.19 200.24 174.58 194.75 175.37 193.49 170.7 194.2 159.19 200.24"/><path class="cls-9" d="M177.74,192.88c-.2.28-3.32,2.18-3.32,2.18l-3.21,1.15s-11.76,4.88-13.35,5.16a4.18,4.18,0,0,1-2.62,0c-.9-.28-40.12-10.76-41.84-11.18s-2.9-.75-3-1,1.6-3.65,1.46-4.27a43.3,43.3,0,0,1-.28-4.9c0-1.38-1.1-101.3-1.17-103.37a21.85,21.85,0,0,1,.69-6c.41-1.38,9-23.52,9.74-25a3,3,0,0,1,2.48-1.65c.37-.12,32-5.4,40.74-6.93l2.07-.38c2.62-.55,3,.41,3.45.83s3.72,8.07,3.86,8.41a2.37,2.37,0,0,1,0,.69c-.06.32-1.6.41-1.6.41s4.41,16.84,5.64,21.3c.15.58.26.95.29,1a5,5,0,0,1,.22,1.2c.05.74,0,1.53,0,2.07,0,.87-.66,13.07-.66,15.28,0,1.68-.32,24.55-.48,36.13,0,3.63-.07,6.14-.07,6.55,0,1.73.69,55.66.82,57.31a12.8,12.8,0,0,0,.9,3.38C178.78,191.92,178,192.61,177.74,192.88Z"/><path class="cls-10" d="M122.14,196.86a16.72,16.72,0,0,1-3,.64l.34.57s-12.63,5.65-14,5.88a3.43,3.43,0,0,1-2.19,0c-.75-.23-33.51-9-34.95-9.33S66,194,65.9,193.75s1.34-3.05,1.22-3.57a38.05,38.05,0,0,1-.23-4.09c0-1.15-.92-64.67-1-66.4a17.87,17.87,0,0,1,.58-5C66.83,113.53,74,95,74.62,93.77a2.48,2.48,0,0,1,2.07-1.38c.31-.11,26.75-4.51,34-5.79l1.73-.32c2.19-.46,2.48.35,2.88.69s3.11,6.74,3.23,7a2.13,2.13,0,0,1,0,.57c0,.27-1.34.35-1.34.35S120.92,109,122,112.71c.13.48.21.79.24.87a4.14,4.14,0,0,1,.18,1c0,.61,0,1.28,0,1.73,0,.72-.55,10.91-.55,12.76,0,1.4-.27.57-.4,10.24,0,3-.06,5.13-.06,5.47,0,1.44.57,46.49.69,47.87a10.05,10.05,0,0,0,.75,2.82C123,196.06,122.31,196.63,122.14,196.86Z"/><path class="cls-4" d="M105.53,204c1.32-.23,14-5.88,14-5.88l-.34-.57a16.72,16.72,0,0,0,3-.64c.17-.23.86-.8.69-1.38a10.05,10.05,0,0,1-.75-2.82c-.12-1.38-.69-46.43-.69-47.87s.46-13.87.46-15.71.55-12,.55-12.76a9.84,9.84,0,0,0-.21-2.74c0-.13-.22-.79-.49-1.78,0,0-2.3,7.14-6.35,7.11s-9.48-13-12.21-7.75-29.41,8.47-34.43,7.61A12.07,12.07,0,0,1,66,118a16.46,16.46,0,0,0,0,1.71c.06,1.73,1,65.25,1,66.4a38.05,38.05,0,0,0,.23,4.09c.12.52-1.28,3.34-1.22,3.57s1,.52,2.49.87,34.2,9.1,35,9.33A3.43,3.43,0,0,0,105.53,204Z"/><path class="cls-11" d="M105.53,204c1.32-.23,14-5.88,14-5.88l-.34-.57a16.72,16.72,0,0,0,3-.64c.17-.23.86-.8.69-1.38a10.05,10.05,0,0,1-.75-2.82c-.12-1.38-.69-46.43-.69-47.87s.46-13.87.46-15.71.55-12,.55-12.76a9.84,9.84,0,0,0-.21-2.74c0-.13-.22-.79-.49-1.78,0,0-2.3,7.14-6.35,7.11s-9.48-13-12.21-7.75-29.41,8.47-34.43,7.61A12.07,12.07,0,0,1,66,118a16.46,16.46,0,0,0,0,1.71c.06,1.73,1,65.25,1,66.4a38.05,38.05,0,0,0,.23,4.09c.12.52-1.28,3.34-1.22,3.57s1,.52,2.49.87,34.2,9.1,35,9.33A3.43,3.43,0,0,0,105.53,204Z"/><path class="cls-5" d="M120.83,111.72c-2.93-2.6-8.18-7.15-9.73-7.93a.9.9,0,0,0-.8,0c-2.23,1-5.37,9.13-5.37,9.13v0c0-1.05,0-1.75,0-2v-.13a18.91,18.91,0,0,1,.92-4.9l2-5.5c1.84-5,4.33-11.85,4.7-12.7a1.75,1.75,0,0,1,.56-.76.7.7,0,0,1,.18.14c.29.27,3,7.88,3,7.88l.26.46,1.57,6C119,105,120.18,109.3,120.83,111.72Z"/><path class="cls-12" d="M122.83,195.48a10.05,10.05,0,0,1-.75-2.82c-.12-1.38-.69-46.43-.69-47.87,0-.34,0-2.44.06-5.47,0-.25,0-.5,0-.75s0-.42,0-.64c0-.54,0-1.1,0-1.67v-.42c0-.21,0-.42,0-.64s0-.48,0-.72,0-.74,0-1.11v-.76c0-.63,0-1.28,0-1.93,0-.38,0-.77,0-1.16v-.12c0-.16,0-.32,0-.48,0-.33,0-.67,0-1v-.39l0-1.2c0-.27,0-.53,0-.8,0-2.09,0,15.77.08,13.84,0-.14,0-.28,0-.42v-.67c0-.73,0-1.42,0-2.09,0-.11,0-.22,0-.32v-.64a1.93,1.93,0,0,0,0-.24v-.37a2.71,2.71,0,0,1,0-.29c0-.76,0-1.45,0-2.07v-.18a.53.53,0,0,0,0-.13v-.55c0-.11,0-.21,0-.31v-.38c0-.86,0-1.42,0-1.62,0-1.85.55-12,.55-12.76,0-.38,0-.9,0-1.43,0-.07,0-.15,0-.22v-.08a35.58,35.58,0,0,1-5.14,6.08c-2.87,2.42-10.11-6.57-12.3-7.74s-8.88,8.77-11.82,12.4,3,3.63,8.87,2.85a4.71,4.71,0,0,1,.29.78c1,3.63-.91,28.45-7.89,42.27s-23.25,16.42-24.63,17.45-3.11,3.81-1.56,4.5,33.13,9.24,34.34,9.24a19.1,19.1,0,0,0,2.21,0,1.88,1.88,0,0,0,.07.54c.14.26.4.49,1.09.31s9.46-5.15,10.44-5.47,5.39-.69,5.85-1.05h0l0,0C122.47,196.48,123,196,122.83,195.48Z"/><path class="cls-13" d="M122.23,196.76c-.21.37-4.91.77-5.89,1.08s-9.75,5.3-10.44,5.47-1-.05-1.09-.31a28.64,28.64,0,0,1,0-4.58c.08-1.1,0-85.64.14-87.66a18.91,18.91,0,0,1,.92-4.9c.41-1.15,6.12-16.87,6.69-18.2s1.36-.84,1.59-.63,2.94,7.89,2.94,7.89"/><path class="cls-14" d="M107,103.79s7.67,13.08,8.07,14.46,1,.86,1.38,8.52.52,65,.61,66.49.26,1.64,0,2.42a12.43,12.43,0,0,1-1.87,2.52"/><path class="cls-5" d="M118.08,101.35a54.84,54.84,0,0,0-6.39-5,.88.88,0,0,0-.79,0c-1,.44-2.07,2.16-3,4,1.84-5,4.33-11.85,4.7-12.7a1.75,1.75,0,0,1,.56-.76.7.7,0,0,1,.18.14c.29.27,3,7.88,3,7.88l.26.46Z"/><polygon class="cls-8" points="106.64 203 118.99 197.56 119.26 197.37 116.34 197.84 106.64 203"/><path class="cls-6" d="M122.14,196.86a16.72,16.72,0,0,1-3,.64l.34.57s-12.63,5.65-14,5.88a3.43,3.43,0,0,1-2.19,0c-.75-.23-33.51-9-34.95-9.33S66,194,65.9,193.75s1.34-3.05,1.22-3.57a38.05,38.05,0,0,1-.23-4.09c0-1.15-.92-64.67-1-66.4a17.87,17.87,0,0,1,.58-5C66.83,113.53,74,95,74.62,93.77a2.48,2.48,0,0,1,2.07-1.38c.31-.11,26.75-4.51,34-5.79l1.73-.32c2.19-.46,2.48.35,2.88.69s3.11,6.74,3.23,7a2.13,2.13,0,0,1,0,.57c0,.27-1.34.35-1.34.35S120.92,109,122,112.71c.13.48.21.79.24.87a4.14,4.14,0,0,1,.18,1c0,.61,0,1.28,0,1.73,0,.72-.55,10.91-.55,12.76,0,1.4-.27.57-.4,10.24,0,3-.06,5.13-.06,5.47,0,1.44.57,46.49.69,47.87a10.05,10.05,0,0,0,.75,2.82C123,196.06,122.31,196.63,122.14,196.86Z"/><path class="cls-9" d="M178.58,191.23a6.06,6.06,0,0,1-.44-1.23,8.36,8.36,0,0,1-.46-2.15c-.14-1.65-.83-55.58-.83-57.31s.55-40.48.55-42.68c0-1.11.17-4.71.33-8.14s.33-6.71.33-7.14c0-.23,0-.51,0-.81s0-.5,0-.76a.28.28,0,0,1,0-.09v0c0-.09,0-.18,0-.27v-.1l0-.26,0-.24a3.35,3.35,0,0,0-.15-.69h0c0-.08-.1-.32-.2-.68l-.1-.37C176.3,63.8,171.88,47,171.88,47s1.55-.09,1.6-.41a2.57,2.57,0,0,0,0-.69c-.14-.34-3.38-8-3.87-8.41s-.83-1.38-3.45-.83l-2.06.38c-8.72,1.53-40.38,6.81-40.75,6.93a3,3,0,0,0-2.48,1.65c-.69,1.52-9.32,23.66-9.74,25a19.79,19.79,0,0,0-.63,3.95h0v.07a16.36,16.36,0,0,0,0,2,0,0,0,0,0,0,0c0,.38-.08,3.41,0,9.27-7.49,1.32-33.42,6.39-33.72,6.5a2.5,2.5,0,0,0-2.08,1.38c-.57,1.27-7.78,19.76-8.13,20.91A16.6,16.6,0,0,0,66,118h0s0,0,0,0c0,.56,0,1.12,0,1.65h0c0,.35.06,3.3.12,7.77.27,17.36.85,57.72.85,58.63s.09,2.93.19,3.77v0h0a2.24,2.24,0,0,0,0,.27,2,2,0,0,1-.14.69.11.11,0,0,0,0,.06l0,.07c-.15.44-.37,1-.57,1.45a6.16,6.16,0,0,0-.47,1.3c.06.23,1,.52,2.49.87s34.19,9.1,34.94,9.33l.35.1a2.55,2.55,0,0,0,1.12,0l.72-.12c1.33-.23,10.86-5.51,10.86-5.51l5.29-1.4c.24-.07,2.24-1.13,1.57-2.83a6.45,6.45,0,0,1-.39-1.8v-.17c12.08,3.21,31.74,8.93,32.38,9.13l.38.1a3,3,0,0,0,1.45,0l.8-.13c1.58-.28,13.26-4.64,13.26-4.64l4-1.63S180,193.38,178.58,191.23Z"/><text class="cls-15" transform="translate(67.42 241.06)">Side Gusset</text></svg>