<svg id="Layer_1" data-name="Layer 1" xmlns="http://www.w3.org/2000/svg" viewBox="0 0 261.03 260.72"><defs><style>.cls-1{fill:#f5aa8f;}.cls-2{fill:#f15a24;}.cls-2,.cls-3{opacity:0.5;}.cls-3{fill:#b3b3b3;}.cls-4{fill:#fff;}.cls-5,.cls-6{fill:gray;}.cls-5{stroke:gray;stroke-width:1.3px;}.cls-10,.cls-11,.cls-12,.cls-5,.cls-7,.cls-8,.cls-9{stroke-miterlimit:10;}.cls-7{fill:#f2f2f2;stroke-width:0.52px;}.cls-11,.cls-12,.cls-7,.cls-8{stroke:#333;}.cls-10,.cls-12,.cls-8,.cls-9{fill:none;}.cls-11,.cls-8,.cls-9{stroke-width:0.65px;}.cls-10,.cls-9{stroke:#000;stroke-dasharray:2.49;opacity:0.66;}.cls-10{stroke-width:0.25px;}.cls-11{fill:#999;}.cls-12{stroke-width:1.85px;}.cls-13{font-size:21px;fill:#4d4d4d;font-family:MontserratAlternates-SemiBold, Montserrat Alternates;font-weight:700;}.cls-14{letter-spacing:-0.01em;}</style></defs><title>Tin Tie</title><rect class="cls-1" width="261.03" height="260.72" rx="3" ry="3"/><path class="cls-2" d="M179.15,190.23a3.73,3.73,0,0,0,.41-.65c.05-.1.09-.19.13-.29a3.93,3.93,0,0,0,.19-.58,1.63,1.63,0,0,0,.07-.3,4,4,0,0,0,.06-.91L170.41,42l5.87.13-1-4.61-7.37-.27-66.78-2.41v0l-.82,0,1.21,4.75,3.58.4S98.5,161.44,99.54,190.29c0,.4,0,.78,0,1.14a3.48,3.48,0,0,0,2.8,3.25l53.74,10.65a4,4,0,0,0,2.19-.18,3.37,3.37,0,0,0,1-.5l19-13.65a4.08,4.08,0,0,0,.69-.62.21.21,0,0,0,0-.06Z"/><path class="cls-3" d="M173.92,182.14a4,4,0,0,1-1,2.88,3.74,3.74,0,0,1-.69.63l-19,13.65a3.11,3.11,0,0,1-1,.49c-.12-5,.13-14.09.6-25.48,1.68-40.55,6.25-111,8.06-138.4l3.38.1Z"/><path class="cls-4" d="M173,185a3.74,3.74,0,0,1-.69.63l-19,13.65a3.11,3.11,0,0,1-1,.49c-.12-5,.13-14.09.6-25.48C157.16,177.29,166.37,183.3,173,185Z"/><path class="cls-5" d="M169.14,32.19,95,29.5,96,34l25,.86,2.13.05v0c0,.06,0,.12,0,.17a7,7,0,1,0,14.09.31.34.34,0,0,0,0-.1l23.65.63,3.38.1,0,.3,5.17.17Z"/><polygon class="cls-6" points="121.02 34.83 123.15 34.88 123.15 34.9 121.02 34.83"/><path class="cls-6" d="M164.27,36l0,.3-27.06-.93a.34.34,0,0,0,0-.1l23.65.63Z"/><polygon class="cls-6" points="170.12 36.5 169.46 36.48 169.14 32.19 170.12 36.5"/><path class="cls-7" d="M173.92,182.14a4,4,0,0,1-1.66,3.51l-19,13.65a3.11,3.11,0,0,1-1,.49,3.92,3.92,0,0,1-2.2.19L96.3,189.33a3.49,3.49,0,0,1-2.8-3.25c-1.06-22.31,4.09-113.89,5.79-142.94.33-5.61.52-8.89.52-8.89l21.21.58,2.13.05v0c0,.06,0,.12,0,.17a7,7,0,1,0,14.09.31.34.34,0,0,0,0-.1l23.65.63,3.38.1,0,.3.6,9.06Z"/><path class="cls-8" d="M173.92,182.14a4,4,0,0,1-1.66,3.51l-19,13.65a3.11,3.11,0,0,1-1,.49c-.51-23.07,6.34-128.77,8.66-163.88l3.38.1Z"/><path class="cls-9" d="M153.4,174.52s15.17,9.94,17,9.78"/><line class="cls-10" x1="123.24" y1="36.31" x2="137.1" y2="36.5"/><path class="cls-11" d="M143,131l-.54,33.16c-.1,5.72-7.25,8-18.6,7.16l-4.92-.67-2.48-.34c-9.8-2-13.09-5.9-13-10.61l.85-31.17c.07-5.45,4.56-7.86,10.12-8.68a35.89,35.89,0,0,1,5.64-.36l6.7.71C132.75,120.69,143,123.79,143,131Z"/><path class="cls-3" d="M118.93,170.68l-2.48-.34c-9.8-2-13.09-5.9-13-10.61l.85-31.17c.07-5.45,4.56-7.86,10.12-8.68Z"/><path class="cls-12" d="M164.32,36.67l5.87.12-1-4.61-75-2.68,1.2,4.75,3.59.4S92.23,159.46,93.5,186.08a3.49,3.49,0,0,0,2.8,3.25L150,200a3.92,3.92,0,0,0,2.2-.19,3.11,3.11,0,0,0,1-.49l19-13.65a4,4,0,0,0,1.66-3.51Z"/><text class="cls-13" transform="translate(99.15 241.07)"><tspan class="cls-14">T</tspan><tspan x="12.75" y="0">in </tspan><tspan class="cls-14" x="39" y="0">T</tspan><tspan x="51.74" y="0">ie</tspan></text></svg>