<svg id="Layer_1" data-name="Layer 1" xmlns="http://www.w3.org/2000/svg" viewBox="0 0 261.03 260.72"><defs><style>.cls-1{fill:#f9c78d;}.cls-2{fill:#f7931e;}.cls-10,.cls-15,.cls-19,.cls-2,.cls-5,.cls-8{opacity:0.5;}.cls-10,.cls-14,.cls-15,.cls-16,.cls-19,.cls-2,.cls-20,.cls-24,.cls-5,.cls-7,.cls-8{isolation:isolate;}.cls-13,.cls-17,.cls-18,.cls-3{fill:#fff;}.cls-14,.cls-17,.cls-3{stroke:#666;}.cls-11,.cls-12,.cls-13,.cls-14,.cls-16,.cls-17,.cls-20,.cls-21,.cls-22,.cls-3,.cls-6,.cls-7,.cls-9{stroke-miterlimit:10;}.cls-3{stroke-width:0.62px;}.cls-12,.cls-4{fill:#f2f2f2;}.cls-5{fill:#b3b3b3;}.cls-14,.cls-16,.cls-20,.cls-21,.cls-6,.cls-7,.cls-9{fill:none;}.cls-12,.cls-21,.cls-6,.cls-9{stroke:#333;}.cls-6{stroke-width:0.65px;}.cls-11,.cls-16,.cls-20,.cls-22,.cls-7{stroke:#000;}.cls-7{stroke-width:0.26px;stroke-dasharray:2.58;}.cls-16,.cls-20,.cls-7{opacity:0.66;}.cls-23,.cls-8{fill:#666;}.cls-9{stroke-width:1.85px;}.cls-11{stroke-width:0.33px;}.cls-12{stroke-width:0.52px;}.cls-13{stroke:#999;stroke-width:0.35px;}.cls-14,.cls-17{stroke-linecap:round;stroke-width:0.37px;}.cls-14,.cls-16{stroke-dasharray:1.66;}.cls-14{opacity:0.6;}.cls-15{fill:#ccc;}.cls-16{stroke-width:0.17px;}.cls-19{fill:#e6e6e6;}.cls-20{stroke-width:0.25px;stroke-dasharray:2.49;}.cls-21{stroke-width:0.45px;}.cls-22{stroke-width:0.32px;}.cls-25{fill:#4d4d4d;}</style></defs><title>Coffee Bags</title><rect class="cls-1" width="261.03" height="260.72" rx="3" ry="3"/><path class="cls-2" d="M218.55,194a1.13,1.13,0,0,0,0-.26,13.59,13.59,0,0,1-.87-3.19v-.19c-.14-1.65-.83-55.58-.83-57.3,0-.55.06-4.88.14-10.58V106.66c0-1.46,0-2.88.06-4.24v-12c0-1.22.19-5.44.37-9.15.15-3,.28-5.75.28-6.14V73h0v-.53a4.54,4.54,0,0,0-.12-.53v-.13h0c0-.08-.1-.32-.2-.7l-.1-.35c-1.09-4-4.7-17.7-5.48-20.7h.14a6.48,6.48,0,0,0,1-.11h0l.26-.06h.05a.62.62,0,0,0,.19-.07h0a.18.18,0,0,0,.1-.11,2.66,2.66,0,0,0,0-.69c-.13-.32-3.32-7.61-4.11-8.86a.7.7,0,0,0-.13-.17,2.36,2.36,0,0,0-1.87-1,6.47,6.47,0,0,0-1.58.16l-2.07.38c-8.71,1.53-40.37,6.81-40.74,6.93a3,3,0,0,0-2.48,1.66l-.09.2c-.47,1.06-2.16,4.89-4,9.51-8.12.56-19.54,1.87-24.19,2.75h-.09c-6,1.16-22.46,1.84-28.5,2.06l-2.27.08v.16h-.06s.08,3.11.22,8.15l.77.53-.69.41v.13h0v8.63c-11.26,1.3-36.72,4.81-38.31,5h-.06c-1.39.2-3,.59-3.18,1.78s.1,8.21.1,8.21l1.22.81-1.09.68s.41,12.79.1,13.79-6.46,11.7-7.85,15.47a8.84,8.84,0,0,0-.27,1.62h0c-1.13,11-1.13,68.73-1.13,70.57s-1.26,3.83-.67,4.22.17,1.14,3.06,1.33h0c4.79.69,30.56,4.66,32,4.75h0l1.61.1h.3l1.4.07h6.31c1.4-.09,2.23-.22,3.64-.22h.62c.63,0,1.58-.06,2.78-.14l-.21-.05h.12l.65-.07h.41c5.8-.65,15.23-2.14,16.37-2.31s2.4,0,2.86-.86h.06v-.09h0a19.54,19.54,0,0,0,.28-4.32c2.55.21,5.54.39,9,.53l1.92.07h.09c5.28.19,11.68.29,19.53.26h4.44l1.28-.29.88.1L162,202v-.16h0s.18-2.77.24-6.83c12.12,3.23,32.23,8.61,32.87,8.81l.42.12.28.05h0a3.35,3.35,0,0,0,1,0h.5l.48-.08h.27l.44-.13h.1l.54-.18.2-.07.59-.21.33-.12.56-.21.51-.19.46-.18.75-.29.28-.11c3.81-1.49,8.31-3.36,8.31-3.36l3.22-1.15s3.1-1.89,3.32-2.17h0l.08-.1h0l.11-.12.1-.12.06-.06.09-.11.06-.09h0v-.11h0v-.07h0s.05-.11.07-.17h0a.43.43,0,0,0,0-.16Z"/><path class="cls-3" d="M213.77,188.54a19.11,19.11,0,0,1-3.59.76l.41.69s-15.11,6.76-16.7,7-1.73.28-2.63,0-40.11-10.75-41.83-11.17-2.9-.75-3-1,1.59-3.65,1.46-4.28a42.07,42.07,0,0,1-.28-4.89c0-1.38-1.1-101.31-1.17-103.37a21.69,21.69,0,0,1,.69-6c.41-1.38,9-23.52,9.73-25a3,3,0,0,1,2.49-1.65c.37-.12,32-5.4,40.74-6.93l2.06-.38c2.63-.55,3,.41,3.45.83s3.73,8.07,3.87,8.41a2,2,0,0,1,0,.69c-.05.32-1.6.41-1.6.41s4.42,16.84,5.64,21.3a7.07,7.07,0,0,0,.3,1,4.87,4.87,0,0,1,.21,1.2c.06.74,0,1.53,0,2.07,0,.86-.65,13.07-.65,15.28,0,1.68-.32,24.55-.48,36.13,0,3.63-.08,6.14-.08,6.55,0,1.73.7,55.65.83,57.31a12.43,12.43,0,0,0,.9,3.38C214.81,187.58,214,188.27,213.77,188.54Z"/><path class="cls-4" d="M193.89,197c1.59-.28,16.71-7,16.71-7l-.42-.69a19.11,19.11,0,0,0,3.59-.76c.21-.27,1-1,.83-1.65a12.43,12.43,0,0,1-.9-3.38c-.14-1.66-.83-55.58-.83-57.31s.56-40.48.56-42.68.65-14.42.65-15.28a12,12,0,0,0-.24-3.27c-.05-.16-.27-1-.59-2.14,0,0-2.75,8.55-7.6,8.51S194.3,55.73,191,62.07s-35.21,10.14-41.22,9.1a14.63,14.63,0,0,1-3.3-.94c0,.67,0,1.33,0,2,.07,2.07,1.17,102,1.17,103.37a42.07,42.07,0,0,0,.28,4.89c.14.62-1.54,4-1.46,4.28s1.25.62,3,1,40.94,10.9,41.83,11.18A4.17,4.17,0,0,0,193.89,197Z"/><path class="cls-4" d="M193.89,197c1.59-.28,16.71-7,16.71-7l-.42-.69a19.11,19.11,0,0,0,3.59-.76c.21-.27,1-1,.83-1.65a12.43,12.43,0,0,1-.9-3.38c-.14-1.66-.83-55.58-.83-57.31s.56-40.48.56-42.68.65-14.42.65-15.28a12,12,0,0,0-.24-3.27c-.05-.16-.27-1-.59-2.14,0,0-2.75,8.55-7.6,8.51S194.3,55.73,191,62.07s-35.21,10.14-41.22,9.1a14.63,14.63,0,0,1-3.3-.94c0,.67,0,1.33,0,2,.07,2.07,1.17,102,1.17,103.37a42.07,42.07,0,0,0,.28,4.89c.14.62-1.54,4-1.46,4.28s1.25.62,3,1,40.94,10.9,41.83,11.18A4.17,4.17,0,0,0,193.89,197Z"/><path class="cls-5" d="M212.21,62.73c-3.51-3.1-9.8-8.56-11.65-9.49a1.06,1.06,0,0,0-.95,0c-2.68,1.24-6.44,10.93-6.44,10.93h0V61.72a.38.38,0,0,1,0-.15,22.15,22.15,0,0,1,1.1-5.86l2.38-6.59c2.21-6,5.19-14.19,5.63-15.21A2,2,0,0,1,203,33a1.66,1.66,0,0,1,.21.16c.35.33,3.53,9.44,3.53,9.44l.31.55,1.89,7.15C210.07,54.69,211.43,59.84,212.21,62.73Z"/><path class="cls-5" d="M214.6,186.89a12.43,12.43,0,0,1-.9-3.38c-.13-1.66-.83-55.58-.83-57.31,0-.41,0-2.92.08-6.55V103.1c0-2.51.06-5,.09-7.3V83.49c0-2.21.65-14.42.65-15.28V66.14a42.41,42.41,0,0,1-6.16,7.28c-3.43,2.9-12.1-7.86-14.72-9.26S182.54,74.69,179,79s3.61,4.34,10.62,3.42a6.12,6.12,0,0,1,.35.93c1.25,4.34-1.09,57.93-9.45,74.48S152.69,177.48,151,178.72s-3.72,4.55-1.86,5.38,41.69,14,43.73,12.48c.29-.21.59-.14,1.42-.34s11.32-6.18,12.49-6.55,6.46-.83,7-1.26h0C214.18,188.09,214.78,187.49,214.6,186.89Z"/><path class="cls-6" d="M213.88,188.42c-.24.44-5.87.92-7,1.3s-11.66,6.34-12.49,6.55-1.14-.07-1.31-.38a33.42,33.42,0,0,1,0-5.48c.1-1.31,0-126.41.17-128.82a22.15,22.15,0,0,1,1.1-5.86c.49-1.38,7.11-20,7.8-21.64s1.62-1,1.89-.75,2.86,9.51,2.86,9.51"/><path class="cls-7" d="M195.68,53.24s9.19,15.66,9.67,17.31,1.17,1,1.66,10.21.62,101.71.72,103.47.31,2,0,2.9a14.94,14.94,0,0,1-2.24,3"/><path class="cls-5" d="M208.92,50.32a65.17,65.17,0,0,0-7.65-6,1,1,0,0,0-1,0c-1.14.53-2.48,2.59-3.64,4.78,2.21-6,5.19-14.19,5.63-15.21A2,2,0,0,1,203,33a1.66,1.66,0,0,1,.21.16c.35.33,3.53,9.44,3.53,9.44l.31.55Z"/><polygon class="cls-8" points="195.22 195.9 210.61 190.4 211.4 189.15 206.73 189.86 195.22 195.9"/><path class="cls-9" d="M213.77,188.54c-.2.28-3.32,2.18-3.32,2.18l-3.22,1.15s-11.75,4.88-13.34,5.15-1.73.28-2.63,0-40.11-10.75-41.83-11.17-2.9-.75-3-1,1.59-3.65,1.46-4.28a42.07,42.07,0,0,1-.28-4.89c0-1.38-1.1-101.31-1.17-103.37a21.69,21.69,0,0,1,.69-6c.41-1.38,9-23.52,9.73-25a3,3,0,0,1,2.49-1.65c.37-.12,32-5.4,40.74-6.93l2.06-.38c2.63-.55,3,.41,3.45.83s4.1,8.69,4.24,9a2.66,2.66,0,0,1,0,.69c-.05.32-2,.39-2,.39L213.49,64a7.07,7.07,0,0,0,.3,1,4.87,4.87,0,0,1,.21,1.2c.06.74,0,1.53,0,2.07,0,.86-.65,13.07-.65,15.28,0,1.68-.32,24.55-.48,36.13,0,3.63-.08,6.14-.08,6.55,0,1.73.7,55.65.83,57.31a12.43,12.43,0,0,0,.9,3.38C214.81,187.58,214,188.27,213.77,188.54Z"/><path class="cls-10" d="M167.63,49.8c-2.42,3-3.07,6.63-1.46,8.11s4.87.26,7.28-2.74,3.07-6.63,1.46-8.12S170,46.8,167.63,49.8Zm5.05,4.66c-1.78,2.2-4.17,3.1-5.35,2s-.7-3.76,1.07-6,4.17-3.1,5.35-2,.7,3.8-1.07,6Z"/><ellipse class="cls-11" cx="171.52" cy="53.4" rx="0.32" ry="0.18" transform="translate(25.63 158.22) rotate(-52.99)"/><ellipse class="cls-11" cx="168.52" cy="53.65" rx="0.32" ry="0.18" transform="translate(24.24 155.92) rotate(-52.99)"/><ellipse class="cls-11" cx="171.35" cy="50.2" rx="0.32" ry="0.18" transform="translate(28.12 156.81) rotate(-52.99)"/><path class="cls-12" d="M98,64l.87.61-.84.5c.52,19.85,1.73,65.53,2.11,75.68.48,13.06,1.44,49.57,1.44,49.57h2a1.56,1.56,0,0,0,.15.41c.6,1.19,5.44,4.59,50,4.24l1.37-.31,2.77.31s.68-73.82,1.65-80.66c.75-5.32,2.15-36.57,2.32-53.5l-1-.8,1-.84c0-4,0-7-.2-8.41l-3.1.19c-7,.45-24.18,1.61-30,2.73-6,1.15-22.45,1.84-28.5,2.06l-2.27.08S97.85,59,98,64Z"/><path class="cls-13" d="M102.47,157.4s22.8,3.62,42,1.33,11-1.33,11-1.33l2.81.07L158,175.81l-2.75.64s-30.58,5.92-52-1.33H101.1l-.23-17.88Z"/><line class="cls-14" x1="158.48" y1="69.32" x2="100.55" y2="73.16"/><line class="cls-14" x1="158.22" y1="73.76" x2="100.55" y2="76.72"/><path class="cls-5" d="M147.11,194.88h7.95l.1-7.33h0c.08-6,.18-14,.18-16.55,0-4.36.2-19,.36-27.15s.72-28.11.83-30.56.85-8.41,1.1-14,.32-13,.59-14.69c.15-1,.15-3.33.18-6a67.45,67.45,0,0,0-2.46,9.28c-2.09,9.9-2.41,13.73-6.5,23.85s-7.63,16.29-7.95,29.71.48,15.44,1,19.91-1.84,5.32-1.92,8.84,1.52,5.22,1.68,9.26-1.85,4.78-2.08,7.88C139.56,194.82,139.32,194.9,147.11,194.88Z"/><path class="cls-15" d="M100.87,89.18c.49,17.06,1.18,39,1.29,44.2.16,7.45,1.5,56.86,1.5,56.86v.4c.2.41,1,1.07,3.69,1.74,0-.73,0-1.57-.07-2.53-.1-3.1-.9-3.83-.84-7.88s.71-5.75.68-9.26-1-4.37-.78-8.84.52-6.5.39-19.91-1.54-19.59-3.18-29.71-1.77-14-2.61-23.85C100.94,90,100.9,89.57,100.87,89.18Z"/><path class="cls-6" d="M97.93,64.16l.88.61-.85.5c.52,19.85,1.74,65.53,2.11,75.68.48,13.06,1.45,49.57,1.45,49.57h2a1.56,1.56,0,0,0,.15.41c.59,1.19,5.44,4.59,50,4.24l1.38-.31,2.77.31s.68-73.83,1.64-80.66c.75-5.32,2.15-36.57,2.33-53.5l-1-.8,1-.84c0-4,0-7-.2-8.41l-3.09.19c-7.06.45-24.19,1.61-30,2.73C122.5,55,106,55.72,100,55.94L97.72,56Z"/><path class="cls-16" d="M100,55.94s.16,3.17.4,15.3,1.61,54.8,1.77,62.27,1.44,57.15,1.44,57.15l.09.27c.59,1.19,5.53,4.57,50.08,4.22l1.28-.34s.29-19.24.29-23.61.2-19,.36-27.22.72-28.19.83-30.64.85-8.43,1.1-14,.32-13,.59-14.73.05-8.11.4-12.27,0-20.39,0-20.39l-.1-.81c-7.06.45-24.19,1.61-30,2.73C122.47,55,106,55.72,100,55.94Z"/><path class="cls-17" d="M153.7,74.48l-10.85.79a1.3,1.3,0,0,1-1.3-1.32V70.86a1.29,1.29,0,0,1,1.09-1.43l11.52-.92a.89.89,0,0,1,.89.89s0,.07,0,.11l0,3.31A1.51,1.51,0,0,1,153.7,74.48Z"/><path class="cls-10" d="M123.08,93.72c-.22,4.12,1.24,7.71,3.25,8s3.81-2.8,4-6.92-1.24-7.71-3.25-8S123.29,89.59,123.08,93.72Zm6.31.94c-.16,3-1.48,5.31-3,5.08s-2.54-2.85-2.39-5.88,1.49-5.3,3-5.08S129.55,91.64,129.39,94.66Z"/><ellipse class="cls-11" cx="125.23" cy="93.12" rx="0.34" ry="0.17" transform="translate(19.91 208.28) rotate(-84.19)"/><path class="cls-11" d="M127.54,93.1c0-.18.11-.33.2-.32s.16.17.14.36-.11.33-.2.32S127.52,93.29,127.54,93.1Z"/><ellipse class="cls-11" cx="126.36" cy="97.07" rx="0.34" ry="0.17" transform="translate(16.99 212.96) rotate(-84.19)"/><path class="cls-18" d="M103.42,73.85S61,78.74,59.65,78.94s-3,.59-3.18,1.78.09,8.21.09,8.21l1.22.81-1.09.68s.1,12.78-.21,13.78S50,115.9,48.62,119.66s-1.39,70.21-1.39,72.19-1.28,3.82-.68,4.22a4.88,4.88,0,0,0,3.07,1.33c4.75.69,30.57,4.67,32,4.76,10.18.67,10.1,0,13.5,0s18.79-2.37,20.27-2.59,3.44.24,3-2.37c-.25-1.38-1-18.44-1-25.58s-.2-38.77-1-41.64S106.2,101.42,105.6,97.75s.3-11.5.3-11.5l-.79-.89,1.09-.4s.3-8.53.3-9.42S106.81,73.58,103.42,73.85Z"/><path class="cls-5" d="M118.42,198.55,117,197.38a16.58,16.58,0,0,1-2.87-7.79c-.28-2.37,0-53.82-.77-57.79s-13.1-25.09-13.1-25.09a31.41,31.41,0,0,0,1.89-7.93c0-1.19,2.88-12.44,2.88-12.44l-.32-.36a1.3,1.3,0,0,1,.7-.44l.48.55s-.89,7.84-.3,11.5,9.93,29.36,10.72,32.23,1,34.5,1,41.64.84,24.19,1,25.59A7.52,7.52,0,0,1,118.42,198.55Z"/><path class="cls-19" d="M97.11,201.74l1.13.28c-1.4.1-2.5.15-3.1.14-3.41,0-3.33.67-13.52,0-1.39-.09-27.22-4.44-32-4.76-2.88-.19-2.45-.93-3-1.33s.67-2.24.67-4.22,0-59.62,1.12-70.57c2.43,1.21,6.78,2,14.32,1.76,20.9-.72,32.22-6.74,35.08-10.1-2.38,5.55-5.07,12.51-5.75,25.59-.8,15.17-1.69,34.81-1.59,41.65s3,15.27,1.09,17.55-1.8,3.68,0,3.81C92.47,201.63,97.11,201.74,97.11,201.74Z"/><path class="cls-20" d="M92.18,192.25l7.74-12.1s17.07,17.9,18.45,18.6"/><path class="cls-5" d="M95,121.1s11.2,8.69,13.41,10.56c5.49,4.66,5.36,20.55,5.36,20.55s.3-13.45,0-18-6.11-21.73-6.11-21.73l-5.51-11.15Z"/><path class="cls-20" d="M100.27,106.87S112.58,128,113.37,132s.69,55.4.77,57.78,1.83,7.52,4.36,9"/><path class="cls-19" d="M57.59,92.2s-.9,11.9,1,12.29,3.17,1.39,15.29.8,25.11-3.67,26.4-5.36,4.61-11,4.12-12.14S57.59,92.2,57.59,92.2Z"/><path class="cls-20" d="M99.89,180.54s-.6-26.47,0-30.44,1.49-11.89.89-14.67-5.28-15.7-5.28-15.7"/><path class="cls-5" d="M92.26,197.55s1.52.89,6.19.89a94.36,94.36,0,0,0,12.68-.89c1.22-.3,3-2.66,3.48-2.08s3.89,3.17,3.89,3.17-24.27,3.23-26.16,3c-.73-.11-2.88-.43-2.13-1.81a27.14,27.14,0,0,1,1.58-2.51Z"/><path class="cls-6" d="M103.42,73.85S61,78.74,59.65,78.94s-3,.59-3.18,1.78.09,8.21.09,8.21l1.22.81-1.09.68s.1,12.78-.21,13.78S50,115.9,48.62,119.66s-1.39,70.21-1.39,72.19-1.28,3.82-.68,4.22a4.88,4.88,0,0,0,3.07,1.33c4.75.69,30.57,4.67,32,4.76,10.18.67,10.1,0,13.5,0s18.79-2.37,20.27-2.59,3.44.24,3-2.37c-.25-1.38-1-18.44-1-25.58s-.2-38.77-1-41.64S106.2,101.42,105.6,97.75s.3-11.5.3-11.5l-.79-.89,1.09-.4s.3-8.53.3-9.42S106.81,73.58,103.42,73.85Z"/><path class="cls-21" d="M105.64,86.14s-3.48,11.24-3.48,12.43-.8,5.76-3.38,11.8-6,13-6.85,28.16-1.69,34.81-1.59,41.65,3,15.27,1.1,17.55-1.8,3.68,0,3.81c1,.09,7.51.33,7.51.33"/><path class="cls-10" d="M67.28,111.06c-2.07,3.09-2.39,6.65-.71,7.94s4.71-.17,6.77-3.26,2.39-6.64.72-7.94S69.35,108,67.28,111.06Zm5.26,4.06c-1.52,2.27-3.75,3.34-5,2.39s-1-3.56.53-5.82,3.74-3.34,5-2.4S74.06,112.85,72.54,115.12Z"/><ellipse class="cls-22" cx="71.35" cy="114.19" rx="0.3" ry="0.17" transform="matrix(0.53, -0.85, 0.85, 0.53, -63.3, 114.3)"/><ellipse class="cls-22" cx="68.7" cy="114.68" rx="0.3" ry="0.17" transform="translate(-64.96 112.29) rotate(-58.06)"/><ellipse class="cls-22" cx="70.89" cy="111.13" rx="0.3" ry="0.17" transform="matrix(0.53, -0.85, 0.85, 0.53, -60.92, 112.47)"/><path class="cls-23" d="M103.54,76.92l.36,3.63h.16l-.36-3.63Zm-.93.11.35,3.61h.16L102.76,77Zm-.94.1.36,3.61h.16l-.37-3.61Zm-.93.1.35,3.6h.15l-.34-3.61Zm-.95.1.37,3.59h.15l-.31-3.6Zm-.93.1L99.23,81h.15L99,77.42Zm-.93.1.35,3.55h.16l-.36-3.54Zm-.94.1.36,3.53h.16l-.35-3.52Zm-.92.1.34,3.5h.16l-.34-3.5Zm-.94.1.34,3.49h.15l-.33-3.49Zm-.94.1.35,3.47h.15l-.34-3.46Zm-.93.1.33,3.44h.16L93.41,78Zm-.93.1.33,3.43h.16l-.34-3.43Zm-1,.1.34,3.41h.15l-.32-3.4Zm-.93.11.34,3.37h.15l-.33-3.39Zm-.93.1.32,3.36H90l-.34-3.38Zm-.94.1.33,3.33H89l-.34-3.35Zm-.93.1L88,82h.15l-.33-3.33Zm-1,.1L87,82h.16l-.33-3.32Zm-.93.1L86,82.11h.16l-.33-3.29Zm-.93.1.31,3.25h.17L85,78.91ZM83.9,79l.32,3.25h.16L84.06,79Zm-.93.1.32,3.22h.15l-.32-3.22Zm-.93.1.31,3.2h.15l-.31-3.2Zm-.94.1.32,3.19h.15l-.3-3.18Zm-.93.1.3,3.16h.17l-.32-3.16Zm-.93.1.3,3.14h.17l-.32-3.14Zm-.95.1.32,3.13h.15l-.3-3.12Zm-.93.1.31,3.1h.16l-.31-3.1Zm-.93.1.31,3.08h.15l-.3-3.08Zm-.94.11L75.78,83H76l-.31-3.06Zm-.93.1.29,3H75l-.3-3Zm-1,.1.31,3H74l-.29-3Zm-.93.1.3,3h.15l-.29-3Zm-.93.1.3,3h.15l-.3-3Zm-.94.1.29,3h.17l-.3-3Zm-.93.1.29,2.93h.15L70,80.53Zm-.94.1.3,2.91h.15l-.29-2.92Zm-.93.1.3,2.9h.15l-.29-2.91Zm-.94.1.29,2.87h.16l-.29-2.88Zm-.92.1.28,2.85h.15l-.28-2.86Zm-.93.1.26,2.84h.15L65.37,81Zm-1,.1L64.55,84h.15l-.27-2.82Zm-.93.11L63.61,84h.16l-.28-2.8Zm-.94.1.27,2.77h.16l-.28-2.78Zm-.93.08.26,2.76h.17l-.28-2.76Zm-.95.1.28,2.74H61l-.26-2.74Zm-.93.11.28,2.72h.15l-.26-2.72Zm-.93.1.28,2.69H59l-.28-2.7Zm-.94.1.38,2.7h.16l-.27-2.67Z"/><path class="cls-9" d="M214.15,188.11l.09-.1.07-.09a.36.36,0,0,1,.07-.1v-.06h0v-.14a.87.87,0,0,0,.07-.17v-.06a.41.41,0,0,0,0-.22h0a1,1,0,0,0,0-.25,13.69,13.69,0,0,1-.88-3.2v-.18c-.14-1.66-.83-55.58-.83-57.31,0-.55,0-4.87.13-10.57V99.83c0-1.46,0-2.88.06-4.24v-12c0-1.21.2-5.43.38-9.14.14-3,.28-5.75.28-6.14V66.17h0l-.06-.5a4.26,4.26,0,0,0-.15-.69h0a6.09,6.09,0,0,0-.2-.7,1.81,1.81,0,0,0-.09-.35c-1.09-4-4.7-17.7-5.49-20.7.45,0,1.77-.12,1.81-.39a2.66,2.66,0,0,0,0-.69c-.13-.32-3.31-7.62-4.11-8.87a.61.61,0,0,0-.12-.16c-.49-.42-.83-1.38-3.45-.83l-2.07.38c-8.71,1.53-40.37,6.81-40.74,6.93a3,3,0,0,0-2.48,1.65c-.3.66-2.11,4.73-4.06,9.72-8.17.57-19.69,1.88-24.28,2.76-6,1.15-22.46,1.84-28.5,2.06l-2.28.08V56h-.06s.08,3.12.21,8.15l.78.54-.69.41v.13H97.5c.07,2.65,0,5.21,0,8.63-11.37,1.31-37.28,4.88-38.36,5-1.39.19-3,.59-3.18,1.78s.1,8.21.1,8.21l1.22.81-1.1.68s.1,12.78-.21,13.78-6,11.78-7.39,15.54a7.5,7.5,0,0,0-.27,1.63h0c-1.12,11-1.12,68.72-1.12,70.57s-1.26,3.83-.67,4.22.17,1.14,3.06,1.33h0c4.79.7,30.56,4.67,31.94,4.76,3.2.21,5.38.28,7,.29,3.38,0,4.18-.29,6.29-.29h.6c.64,0,2.59-.19,2.59-.19l.86-.09h.31c5.81-.66,15.23-2.14,16.38-2.31s2.39,0,2.86-.86v-.06h0a19.13,19.13,0,0,0,.28-4.34c7.41.62,18.11,1,34.91.87h.09l1.29-.29,3,.34V195h.05s.2-2.94.25-7.23c12.07,3.21,32.22,9,32.87,9.22l.37.1a3,3,0,0,0,1.47,0l.78-.12.25-.07c2.22-.58,13.1-5.09,13.1-5.09l3.21-1.15s3.1-1.89,3.32-2.17h0l.08-.09h0l.11-.12.1-.11Z"/><g class="cls-24"><path class="cls-25" d="M64,233.72c0-4.43,3.4-7.6,8-7.6a7.56,7.56,0,0,1,6,2.6l-2.18,2A4.73,4.73,0,0,0,72.17,229a4.7,4.7,0,1,0,0,9.4,4.66,4.66,0,0,0,3.69-1.74l2.18,2A7.53,7.53,0,0,1,72,241.32C67.42,241.32,64,238.15,64,233.72Z"/></g><g class="cls-24"><path class="cls-25" d="M78.72,235.42c0-3.4,2.63-5.81,6.22-5.81s6.19,2.41,6.19,5.81-2.6,5.82-6.19,5.82S78.72,238.82,78.72,235.42Zm9.09,0a2.89,2.89,0,1,0-2.87,3.13A2.85,2.85,0,0,0,87.81,235.42Z"/><path class="cls-25" d="M96.51,230h2.9v2.52H96.59v8.52H93.32V229.52c0-2.54,1.55-4.2,4.36-4.2a4.59,4.59,0,0,1,2.5.61l-.86,2.37a2.31,2.31,0,0,0-1.32-.39c-1,0-1.49.52-1.49,1.63Z"/></g><g class="cls-24"><path class="cls-25" d="M103.7,230h2.9v2.52h-2.81v8.52h-3.28V229.52c0-2.54,1.56-4.2,4.37-4.2a4.61,4.61,0,0,1,2.5.61l-.86,2.37a2.32,2.32,0,0,0-1.33-.39c-1,0-1.49.52-1.49,1.63Z"/></g><g class="cls-24"><path class="cls-25" d="M116.29,237.52l1.74,1.89a5.91,5.91,0,0,1-4.66,1.83c-3.91,0-6.45-2.46-6.45-5.82a5.74,5.74,0,0,1,6-5.81,5.54,5.54,0,0,1,5.84,5.71l-8.36,1.61a3,3,0,0,0,3,1.68A3.82,3.82,0,0,0,116.29,237.52Zm-6.16-2.43,5.51-1.07a2.63,2.63,0,0,0-2.67-1.94A2.78,2.78,0,0,0,110.13,235.09Z"/><path class="cls-25" d="M129.54,237.52l1.74,1.89a5.9,5.9,0,0,1-4.66,1.83c-3.91,0-6.45-2.46-6.45-5.82a5.74,5.74,0,0,1,6-5.81,5.53,5.53,0,0,1,5.84,5.71l-8.36,1.61a3,3,0,0,0,3,1.68A3.82,3.82,0,0,0,129.54,237.52Zm-6.15-2.43,5.5-1.07a2.63,2.63,0,0,0-2.67-1.94A2.77,2.77,0,0,0,123.39,235.09Z"/><path class="cls-25" d="M153.92,237.06c0,2.54-2,4-5.88,4h-7.6v-14.7h7.18c3.67,0,5.56,1.54,5.56,3.82a3.53,3.53,0,0,1-2,3.24A3.62,3.62,0,0,1,153.92,237.06Zm-10.1-8.13v3.47h3.38c1.66,0,2.56-.59,2.56-1.74s-.9-1.73-2.56-1.73Zm6.67,7.77c0-1.24-.94-1.82-2.7-1.82h-4v3.63h4C149.55,238.51,150.49,238,150.49,236.7Z"/><path class="cls-25" d="M167.74,229.77v11.3h-3.13v-1.3a4.35,4.35,0,0,1-3.53,1.47,5.82,5.82,0,0,1,0-11.63,4.36,4.36,0,0,1,3.38,1.36v-1.2Zm-3.22,5.65a2.89,2.89,0,1,0-2.87,3.13A2.86,2.86,0,0,0,164.52,235.42Z"/><path class="cls-25" d="M182.41,229.77v9.41c0,4.2-2.26,6.13-6.34,6.13a9.28,9.28,0,0,1-5.54-1.55l1.3-2.35a6.81,6.81,0,0,0,4,1.28c2.31,0,3.32-1.05,3.32-3.09v-.48a4.66,4.66,0,0,1-3.57,1.4,5.46,5.46,0,1,1,0-10.91,4.55,4.55,0,0,1,3.74,1.61v-1.45Zm-3.23,5.3a3,3,0,1,0-3,2.77A2.75,2.75,0,0,0,179.18,235.07Z"/><path class="cls-25" d="M184.37,240l1.09-2.35a7.74,7.74,0,0,0,3.93,1.09c1.51,0,2.08-.4,2.08-1,0-1.85-6.83,0-6.83-4.47,0-2.14,1.93-3.65,5.23-3.65a9.31,9.31,0,0,1,4.35,1l-1.09,2.33a6.52,6.52,0,0,0-3.26-.84c-1.47,0-2.1.47-2.1,1,0,1.94,6.82.07,6.82,4.52,0,2.1-2,3.59-5.33,3.59A9.72,9.72,0,0,1,184.37,240Z"/></g></svg>