<svg id="Layer_1" data-name="Layer 1" xmlns="http://www.w3.org/2000/svg" viewBox="0 0 261.03 260.72"><defs><style>.cls-1{fill:#cbe5f8;}.cls-2{fill:#3fa9f5;opacity:0.25;}.cls-11,.cls-14,.cls-2,.cls-6{isolation:isolate;}.cls-3{fill:gray;stroke-width:1.58px;}.cls-10,.cls-12,.cls-13,.cls-3,.cls-5,.cls-8,.cls-9{stroke:#333;}.cls-10,.cls-11,.cls-12,.cls-13,.cls-3,.cls-5,.cls-6,.cls-8,.cls-9{stroke-miterlimit:10;}.cls-10,.cls-4,.cls-5{fill:#f2f2f2;}.cls-5,.cls-6,.cls-8{stroke-width:0.56px;}.cls-11,.cls-12,.cls-13,.cls-6,.cls-8{fill:none;}.cls-11,.cls-6{stroke:#000;opacity:0.66;}.cls-6{stroke-dasharray:2.13;}.cls-7{fill:#ccc;}.cls-9{fill:#b3b3b3;stroke-width:1.76px;}.cls-10,.cls-11,.cls-12{stroke-width:0.62px;}.cls-11{stroke-dasharray:2.38;}.cls-13{stroke-linecap:round;stroke-width:1.56px;}.cls-15{fill:#4d4d4d;}</style></defs><title>Flat Bottom</title><rect class="cls-1" width="261.03" height="260.72" rx="3" ry="3"/><path class="cls-2" d="M190.49,193.35h0a1.23,1.23,0,0,0-.23-.4l-.83-.93a1.12,1.12,0,0,1-.29-.92c1-7.28,11.46-88.69,7.3-129.46v-.1h0l-.14-.3h0A7,7,0,0,0,193,58h0c-.22-.1-.45-.19-.68-.27h0a7.27,7.27,0,0,0-.8-.22c-3.17-.63-40.67-6.34-54.3-8.42a5.12,5.12,0,0,0-5.82,4.16c-.08.46-.17,1-.27,1.5l-.11.62c-.09.52-.19,1.07-.29,1.63l-.09.5c-.1.56-.2,1.14-.31,1.73a3,3,0,0,1-.07.43c-.14.75-.27,1.52-.42,2.32h0v.26l1.7,2-2.23,1v.2h0A14.08,14.08,0,0,0,128,69.17L127.7,71a190.24,190.24,0,0,0-.84-22.77v-.09h0a6.3,6.3,0,0,0-3-3.31h0a6.07,6.07,0,0,0-.59-.24h0a5.45,5.45,0,0,0-.69-.2h0l-.85-.16-.67-.12-4.22-.73-4-.67-1.82-.3-4.61-.76-2.11-.34L102.44,41l-3.77-.62L96.59,40l-3.8-.62-5.52-.89-3.47-.57-8.51-1.38a4.41,4.41,0,0,0-4.8,2.93,4.69,4.69,0,0,0-.24.91c-.08.42-.15.88-.23,1.35a4.15,4.15,0,0,1-.1.58c-.13.74-.26,1.55-.4,2.39-.06.34-.12.68-.17,1s-.07.41-.11.62c-.11.68-.23,1.37-.35,2.09h0v.24l1.48,1.81-1.93,1v.19h0c-.29,1.79-.6,3.69-.9,5.65v.22a4.53,4.53,0,0,1-.11.71c-.22,1.43-.45,2.89-.67,4.37l-.12.76-.27,1.77c-.06.42-.12.83-.19,1.25s-.16,1.13-.25,1.7-.13.93-.2,1.39-.15,1-.23,1.57-.17,1.22-.26,1.83-.19,1.33-.28,2-.19,1.34-.28,2c-.06.43-.11.86-.17,1.28-.08.58-.16,1.16-.23,1.73s-.11.85-.16,1.27c-.08.59-.15,1.16-.23,1.74a9,9,0,0,1-.14,1.16q-.14,1.13-.27,2.22l-.09.77c-.09.8-.18,1.6-.26,2.37,0,.33-.07.64-.1,1,0,.54-.11,1.07-.16,1.59l-.09,1c0,.5-.09,1-.13,1.48a3.41,3.41,0,0,1-.07.85c0,.6-.09,1.17-.12,1.72v.79c0,.57-.06,1.13-.08,1.65s0,1,0,1.47v1.52h0v1q0,2.22-.09,4.74v52.4a19.61,19.61,0,0,1-.24,3.9,15.1,15.1,0,0,1-.54,2.28,15.45,15.45,0,0,1-.68,1.75A2.46,2.46,0,0,0,62,171.83l.09,0,43.83,17a2,2,0,0,0,.72.14,2,2,0,0,0,.93-.22,2.28,2.28,0,0,0,.94-.77l2.23-3.33h0l4.88-7.27,6.06-6.7a1,1,0,0,0,.17-.28.21.21,0,0,0,0-.11c.07,7,.18,11.89.21,13a17.92,17.92,0,0,1-1.68,8.59,2.58,2.58,0,0,0,1.13,3.47,1.59,1.59,0,0,0,.27.12L172.08,214a2.58,2.58,0,0,0,3-.92l2.57-3.6h0l5.63-7.87,7-7.25a1.27,1.27,0,0,0,.2-.31.86.86,0,0,0,.06-.23v-.07h0A1.07,1.07,0,0,0,190.49,193.35Zm-68.91-34.84c0,4.1,0,7.9.07,11.25a1,1,0,0,0-.18-.31l-.73-.86a1.1,1.1,0,0,1-.24-.85c.15-1.23.47-3.82,1-8.9v-.26Z"/><path class="cls-3" d="M114.94,160.32a1,1,0,0,1,0,1.36l-6,6.69L101.74,179a2.16,2.16,0,0,1-2.58.85l-43.84-17a2.43,2.43,0,0,1-1.27-3.19l.06-.13a17.65,17.65,0,0,0,1.46-7.92c-.09-3.22-.4-44.7.14-61.21.34-10.35,3.71-32.73,6.17-48l1.94-1-1.48-1.8c.54-3.3,1-6.14,1.38-8.32a4.48,4.48,0,0,1,5-3.83c11.84,1.92,44.39,7.19,47.15,7.77a6.21,6.21,0,0,1,4.39,3.89c3.61,37.64-5.51,112.8-6.34,119.52a1.08,1.08,0,0,0,.25.85Z"/><path class="cls-4" d="M115.17,161.12a1,1,0,0,1-.25.56l-6,6.69L104,175.64l-.14-.33.35-8.65,5.62-7.94A5.2,5.2,0,0,0,115.17,161.12Z"/><path class="cls-5" d="M120.26,42c-.32,2.11-.72,4.7-1.18,7.64l-1.48.78,1.17,1.21c-2.18,13.82-5.47,33.94-8.19,47.36-4.51,22.2-6.92,65.64-7.1,73.68a23.3,23.3,0,0,1-.43,3L101.74,179a2.16,2.16,0,0,1-2.58.85l-43.84-17a2.43,2.43,0,0,1-1.27-3.19l.06-.13a17.65,17.65,0,0,0,1.46-7.92c-.09-3.22-.4-44.7.14-61.21.34-10.3,3.69-32.55,6.14-47.79l2-1.16L62.4,39.4c.53-3.18,1-5.95,1.35-8.07a4.48,4.48,0,0,1,5-3.83c11.84,1.92,44.39,7.19,47.15,7.77a5.79,5.79,0,0,1,2.37,1.13A6.34,6.34,0,0,1,120.26,42Z"/><path class="cls-6" d="M113.75,161.1s-3.78.29-3.78-2,10.35-84.62,7.79-97.83"/><line class="cls-6" x1="109.09" y1="159.96" x2="104.56" y2="165.84"/><path class="cls-7" d="M109.81,103.18c-.82,4.81-1.55,10.36-2.19,16.2-1.34,12.23-2.28,25.74-2.88,36.46l-2.14,14.65A2.6,2.6,0,0,1,99.94,173a2.39,2.39,0,0,1-.79-.14L60.54,158.07a5.73,5.73,0,0,1-3.57-5.4L55.4,120.22c0-5.28,0-10.65.05-15.58,0-5.56.14-10.58.26-14.31,0-1.19.12-2.52.24-4l.15,4.21c.25,6.71,4.35,12.47,10,14l28.28,7.8c6.54,1.8,12.94-2.3,15.27-9.13A.45.45,0,0,1,109.81,103.18Z"/><path class="cls-8" d="M120.26,42c-.32,2.11-.72,4.7-1.18,7.64l-1.48.78,1.17,1.21c-2.18,13.82-5.47,33.94-8.19,47.36-4.51,22.2-6.76,64-6.94,72.06,0,.61-.46,4.07-.59,4.58L101.74,179a2.16,2.16,0,0,1-2.58.85l-43.84-17a2.43,2.43,0,0,1-1.27-3.19l.06-.13a17.65,17.65,0,0,0,1.46-7.92c-.09-3.22-.4-44.7.14-61.21.34-10.3,3.69-32.55,6.14-47.79l2-1.16L62.4,39.4c.53-3.18,1-5.95,1.35-8.07a4.48,4.48,0,0,1,5-3.83c11.84,1.92,44.39,7.19,47.15,7.77a5.79,5.79,0,0,1,2.37,1.13A6.34,6.34,0,0,1,120.26,42Z"/><path class="cls-9" d="M183.74,183.79a1.07,1.07,0,0,1,0,1.47l-7,7.25L168.53,204a2.55,2.55,0,0,1-3,.92L115,186.48a2.59,2.59,0,0,1-1.52-3.33l.12-.27a18,18,0,0,0,1.69-8.58c-.1-3.48-.46-48.41.16-66.3.4-11.2,4.27-35.45,7.11-51.95l2.26-1-1.71-2c.62-3.57,1.17-6.66,1.6-9a5.12,5.12,0,0,1,5.81-4.15c13.64,2.08,51.13,7.78,54.31,8.42a6.91,6.91,0,0,1,5,4.2c4.16,40.78-6.34,122.18-7.29,129.46a1.15,1.15,0,0,0,.28.92Z"/><path class="cls-4" d="M184,184.65a1.09,1.09,0,0,1-.29.61l-7,7.25-5.63,7.88L171,200l.4-9.37,6.47-8.61A6.09,6.09,0,0,0,184,184.65Z"/><path class="cls-10" d="M189.86,55.65c-.37,2.28-.83,5.09-1.35,8.28l-1.71.84,1.34,1.31c-2.51,15-6.3,36.77-9.43,51.29-5.2,24-8,71.1-8.18,79.81a23.26,23.26,0,0,1-.49,3.21L168.53,204a2.55,2.55,0,0,1-3,.92L115,186.48a2.59,2.59,0,0,1-1.52-3.33l.12-.27a18,18,0,0,0,1.69-8.58c-.1-3.48-.46-48.41.16-66.3.4-11.15,4.24-35.25,7.07-51.75l2.3-1.25-1.67-2.23c.61-3.44,1.14-6.44,1.56-8.73a5.12,5.12,0,0,1,5.81-4.15c13.64,2.08,51.13,7.78,54.31,8.42a6.78,6.78,0,0,1,2.74,1.22A6.65,6.65,0,0,1,189.86,55.65Z"/><path class="cls-11" d="M182.36,184.64S178,185,178,182.46s11.93-91.65,9-106"/><line class="cls-11" x1="176.99" y1="183.4" x2="171.78" y2="189.77"/><path class="cls-7" d="M177.82,121.9c-.95,5.21-1.78,11.22-2.51,17.55-1.55,13.25-2.63,27.88-3.33,39.49l-2.46,15.86a3,3,0,0,1-4,2.6l-44.47-16a6.25,6.25,0,0,1-4.11-5.85l-1.81-35.15c0-5.72,0-11.53.06-16.88.06-6,.16-11.45.3-15.5,0-1.28.13-2.72.27-4.31l.18,4.55c.28,7.28,5,13.51,11.54,15.2l32.58,8.44c7.53,2,14.9-2.48,17.58-9.88Z"/><path class="cls-12" d="M189.86,55.65c-.37,2.28-.83,5.09-1.35,8.28l-1.71.84,1.34,1.31c-2.51,15-6.3,36.77-9.43,51.29-5.2,24-7.78,69.34-8,78,0,.66-.52,4.41-.67,5L168.53,204a2.55,2.55,0,0,1-3,.92L115,186.48a2.59,2.59,0,0,1-1.52-3.33l.12-.27a18,18,0,0,0,1.69-8.58c-.1-3.48-.46-48.41.16-66.3.4-11.15,4.24-35.25,7.07-51.75l2.3-1.25-1.67-2.23c.61-3.44,1.14-6.44,1.56-8.73a5.12,5.12,0,0,1,5.81-4.15c13.64,2.08,51.13,7.78,54.31,8.42a6.78,6.78,0,0,1,2.74,1.22A6.65,6.65,0,0,1,189.86,55.65Z"/><path class="cls-13" d="M183.74,183.79l-.84-.93a1.15,1.15,0,0,1-.28-.92c.95-7.28,11.45-88.68,7.29-129.46a7,7,0,0,0-3.51-3.69h0c-.22-.1-.45-.19-.68-.27h0c-.25-.08-.51-.15-.79-.21-3.18-.64-40.67-6.34-54.31-8.42A5.11,5.11,0,0,0,124.74,44c-.12.64-.25,1.35-.38,2.09l-1.18,6.64h0V53l1.67,2s-2.25,1.19-2.27,1.25A14,14,0,0,0,121.45,60l-.3,1.81a192.1,192.1,0,0,0-.84-22.76,6.37,6.37,0,0,0-3-3.42h0c-.18-.09-.38-.17-.59-.25h0a6,6,0,0,0-.69-.2c-2.76-.58-35.31-5.85-47.15-7.77a4.48,4.48,0,0,0-5,3.83c-.1.59-.21,1.24-.32,1.93-.3,1.77-.65,3.84-1,6.14h0v.24L64,41.35l-1.94,1v.18h0c-.28,1.76-.58,3.61-.88,5.53l-.06.38a1.23,1.23,0,0,1-.08.53c-2.12,13.5-4.46,29.89-5,39.31,0,.72-.08,1.4-.1,2,0,.92-.06,1.93-.08,3h0v1c-.06,3-.11,6.55-.15,10.32,0,4.93,0,10.3,0,15.58v.09c0,15,.12,29.39.17,31.23a17.65,17.65,0,0,1-1.46,7.92,2.43,2.43,0,0,0,1.08,3.26l.13.06,43.84,17a2.16,2.16,0,0,0,2.58-.85l2.24-3.32h0l4.89-7.27,6-6.69a1,1,0,0,0,.17-.28.79.79,0,0,0,.06-.22v-.06a1,1,0,0,0-.23-.8l-.72-.86a1.08,1.08,0,0,1-.25-.85c.16-1.25.49-3.92,1.08-9.22,0,13.09.25,23.23.3,24.89a18,18,0,0,1-1.69,8.58,2.59,2.59,0,0,0,1.13,3.48,1.59,1.59,0,0,0,.27.12l50.5,18.44a2.55,2.55,0,0,0,3-.92l2.58-3.6h0l5.63-7.88,7-7.25a1.21,1.21,0,0,0,.2-.3,1.57,1.57,0,0,0,.08-.31A1.08,1.08,0,0,0,183.74,183.79Z"/><g class="cls-14"><path class="cls-15" d="M70.51,232.08V233h6v2.73h-6v5.35h-3.4v-9c0-3.78,2.5-6,6.74-6a8.37,8.37,0,0,1,4.3,1l-1.05,2.69a5.52,5.52,0,0,0-3-.82C71.73,229,70.51,230.05,70.51,232.08Z"/></g><g class="cls-14"><path class="cls-15" d="M79.81,237.33V225.49h3.28v11.65a1.3,1.3,0,0,0,1.4,1.49,2.1,2.1,0,0,0,.93-.21l.14,2.54a5.27,5.27,0,0,1-1.7.28C81.32,241.24,79.81,239.85,79.81,237.33Z"/></g><g class="cls-14"><path class="cls-15" d="M98.13,229.77v11.3H95v-1.3a4.35,4.35,0,0,1-3.53,1.47,5.82,5.82,0,0,1,0-11.63A4.34,4.34,0,0,1,94.85,231v-1.2Zm-3.22,5.65A2.89,2.89,0,1,0,92,238.55,2.86,2.86,0,0,0,94.91,235.42Z"/><path class="cls-15" d="M108,240.52a4.58,4.58,0,0,1-2.64.72c-2.69,0-4.22-1.37-4.22-4.05v-9.91h3.27V230h2.8v2.52h-2.8v4.59a1.3,1.3,0,0,0,1.39,1.49,2.25,2.25,0,0,0,1.34-.42Z"/><path class="cls-15" d="M129.46,237.06c0,2.54-2,4-5.88,4H116v-14.7h7.18c3.67,0,5.56,1.54,5.56,3.82a3.53,3.53,0,0,1-2,3.24A3.62,3.62,0,0,1,129.46,237.06Zm-10.1-8.13v3.47h3.38c1.66,0,2.56-.59,2.56-1.74s-.9-1.73-2.56-1.73ZM126,236.7c0-1.24-.94-1.82-2.7-1.82h-4v3.63h4C125.09,238.51,126,238,126,236.7Z"/><path class="cls-15" d="M131,235.42c0-3.4,2.63-5.81,6.22-5.81s6.19,2.41,6.19,5.81-2.6,5.82-6.19,5.82S131,238.82,131,235.42Zm9.09,0a2.89,2.89,0,1,0-2.87,3.13A2.85,2.85,0,0,0,140.06,235.42Z"/><path class="cls-15" d="M152.37,240.52a4.61,4.61,0,0,1-2.65.72c-2.68,0-4.22-1.37-4.22-4.05v-9.91h3.28V230h2.79v2.52h-2.79v4.59c0,1,.5,1.49,1.38,1.49a2.28,2.28,0,0,0,1.35-.42Z"/></g><g class="cls-14"><path class="cls-15" d="M160.11,240.52a4.58,4.58,0,0,1-2.64.72c-2.69,0-4.22-1.37-4.22-4.05v-9.91h3.27V230h2.8v2.52h-2.8v4.59a1.3,1.3,0,0,0,1.39,1.49,2.25,2.25,0,0,0,1.34-.42Z"/></g><g class="cls-14"><path class="cls-15" d="M160.55,235.42c0-3.4,2.63-5.81,6.22-5.81S173,232,173,235.42s-2.6,5.82-6.19,5.82S160.55,238.82,160.55,235.42Zm9.09,0a2.89,2.89,0,1,0-2.87,3.13A2.85,2.85,0,0,0,169.64,235.42Z"/><path class="cls-15" d="M194.23,234.6v6.47H191v-6c0-1.83-.82-2.67-2.14-2.67-1.47,0-2.5.95-2.5,3v5.67H183v-6c0-1.83-.78-2.67-2.14-2.67s-2.48.95-2.48,3v5.67h-3.27v-11.3h3.13v1.31a4.56,4.56,0,0,1,3.54-1.47,4.21,4.21,0,0,1,3.72,1.84,5.08,5.08,0,0,1,4.07-1.84C192.3,229.61,194.23,231.16,194.23,234.6Z"/></g></svg>