<svg id="Layer_1" data-name="Layer 1" xmlns="http://www.w3.org/2000/svg" viewBox="0 0 261.03 260.72"><defs><style>.cls-1{fill:#e4bebf;}.cls-2{opacity:0.25;}.cls-3{fill:#c1272d;}.cls-16,.cls-17,.cls-18,.cls-4{fill:#fff;}.cls-10,.cls-11,.cls-12,.cls-13,.cls-14,.cls-15,.cls-16,.cls-17,.cls-19,.cls-4,.cls-6,.cls-7,.cls-9{stroke:#000;stroke-miterlimit:10;}.cls-13,.cls-19,.cls-4{stroke-width:1.3px;}.cls-15,.cls-5{fill:#b3b3b3;}.cls-11,.cls-5,.cls-8,.cls-9{opacity:0.66;}.cls-11,.cls-20,.cls-5,.cls-8,.cls-9{isolation:isolate;}.cls-6{fill:gray;}.cls-10,.cls-11,.cls-12,.cls-15,.cls-16,.cls-6,.cls-7,.cls-9{stroke-width:0.65px;}.cls-14,.cls-7{fill:#999;}.cls-10,.cls-8{fill:#ccc;}.cls-11,.cls-12,.cls-19,.cls-9{fill:none;}.cls-11{stroke-dasharray:2.34;}.cls-13,.cls-21{fill:#4d4d4d;}.cls-14{stroke-width:0.54px;}.cls-17{stroke-width:0.56px;}</style></defs><title>Heat Sealers</title><rect class="cls-1" width="261.03" height="260.72" rx="3" ry="3"/><g class="cls-2"><path class="cls-3" d="M168.8,38.14h0l1.34,8L185,43.76,183.83,35c4.74-1.63,7.84-3.5,7.7-4.86h0a.43.43,0,0,0,0-.16c-1.25-5.07-9.13-7.7-17.73-5.88S159,31.6,160,36.78C160.24,38.09,163.79,38.57,168.8,38.14Z"/><path class="cls-3" d="M209.92,177a16.08,16.08,0,0,0-.37-2.49,8.14,8.14,0,0,0-.29-1,5,5,0,0,0-.77-1.5,1.29,1.29,0,0,0-1-.55h0a.66.66,0,0,0-.2.06v-.06h-3L202,147.93h0l-.1-1-.76-1h0v-.29a5.3,5.3,0,0,0-.1-.8,5.56,5.56,0,0,0-4.2-4.35l-20.21-4.65-1,.76-4.74-1L166.29,138,64.52,114.53v-.42h0A3.37,3.37,0,0,0,63.8,112a1.15,1.15,0,0,0-.1-.13,3.34,3.34,0,0,0-2.18-1.1L58,110.41l.11-.87L167.3,73.31h0l-.87-4.4-2.51-1-.1-1.36L187,57.49h0a3.87,3.87,0,0,0,.64-.33l.11-.08a3.4,3.4,0,0,0,.47-.38v-.05a4.15,4.15,0,0,0,.43-.51h0a3.88,3.88,0,0,0,.35-.63v-.07h0a4.35,4.35,0,0,0,.2-.61h0v-.15h0a3.15,3.15,0,0,0,.06-.61h0v-.15a3.31,3.31,0,0,0-.09-.77h0l-.41-1.8-.91-4a4.38,4.38,0,0,0-.3-.86l-.12-.2a4.17,4.17,0,0,0-.37-.56,1.07,1.07,0,0,0-.14-.16,4.1,4.1,0,0,0-.52-.5l-.11-.08a3.75,3.75,0,0,0-.74-.45l-.14-.08-.21-.06a5.6,5.6,0,0,0-.54-.17h-.06a3.53,3.53,0,0,0-.72-.08,4.54,4.54,0,0,0-.82.07l-4.41.82-8.11,1.5-8.39,2.82-32,10.75-93,35.3a2.71,2.71,0,0,0-.37.21.12.12,0,0,0-.11.07,1.83,1.83,0,0,0-.7,1.4h0v1.43l-1.23.75h0v10.9l.94.61-3,.8a2.57,2.57,0,0,0-1.9,2.42l-.68,27.36-.35-.13.35.15v.12l-1.06.65v1.08h0a1.57,1.57,0,0,0,1,1.45l148.51,63.19a7.47,7.47,0,0,0,8.62-2l6.28-7.39,3.37-.16,4-4.7L205,189h0l1-1.16h0l-.15-1.51h0l-.09-1h1.62v-.06a.66.66,0,0,0,.2.06c1.34,0,2.42-3.12,2.42-7h0A7.76,7.76,0,0,0,209.92,177Z"/></g><path class="cls-4" d="M40.34,105.43l-3,.81a2.55,2.55,0,0,0-1.9,2.41l-.69,27.5-1.06.65v1.08a1.58,1.58,0,0,0,1,1.45L183.2,202.52a7.45,7.45,0,0,0,8.61-2l6.29-7.39,3.37-.16,8.92-10.38-4-41-.76-1v-.31a5.56,5.56,0,0,0-4.3-5.15l-20.21-4.65-1,.77-4.74-1-4.61,2.39L68.94,109.24v-.42a3.3,3.3,0,0,0-3-3.39l-3.53-.32.11-.87L171.72,68l-.87-4.4-2.5-1-.11-1.36,23.23-9.07a3.8,3.8,0,0,0,2.31-4.37L192.46,42a4.13,4.13,0,0,0-4.78-3.14L175.15,41.2,134.8,54.81l-93,35.3a1.85,1.85,0,0,0-1.19,1.68v1.46L39.32,94l.08,10.83Z"/><path class="cls-5" d="M193.16,50.85h-.71c.17-.86-2.41-.53-5,0s-50.18,18.37-60.31,22-80.3,28-80.3,28l-7.44.41L39.32,94l1.22-.75V91.79a1.84,1.84,0,0,1,1.19-1.68l93-35.3,40.35-13.57,12.52-2.32A4.14,4.14,0,0,1,192.46,42l1.32,5.79A3.68,3.68,0,0,1,193.16,50.85Z"/><polygon class="cls-6" points="56.73 101.93 56.73 103.97 62.53 104.24 171.72 68.01 170.85 63.61 166.12 62.41 56.73 101.93"/><path class="cls-7" d="M57.9,109.24l-1.63,1.62L54.74,113a2.1,2.1,0,0,0,.48,2.92,2.22,2.22,0,0,0,.66.31l100.73,28.59a4.24,4.24,0,0,0,4.84-2l2.28-4.06,1.74-2.93Z"/><polygon class="cls-8" points="57.14 103.4 166.77 65.75 166.12 62.41 57.14 101.78 57.14 103.4"/><path class="cls-9" d="M170.53,133.35v2.23l18.7,4.51c1.15.27,6.86.54,7.56,0v-2.66l-1.41-2.18-20.29-4.89-4.32,2.25Z"/><path class="cls-10" d="M205.06,139.87l-11.78,8.25a4.16,4.16,0,0,0-1.78,3.29L190,194.49a.52.52,0,0,0,.5.54.47.47,0,0,0,.3-.08l3.18-2.07,6,.05a3.28,3.28,0,0,0,2.47-1.12l7-8.09a3.6,3.6,0,0,0,.84-2.67l-3.73-38.44a3.46,3.46,0,0,0-.71-1.79Z"/><path class="cls-11" d="M205.52,141.45l-11.28,8.81a1.5,1.5,0,0,0-.54,1.44l7.5,38.14"/><path class="cls-12" d="M59.54,109.64a2.44,2.44,0,0,1,3-1.66l.17.06c2.61.65,108,24.57,108,24.57l-.24,3-6.8,3.2,1.74-2.93Z"/><polygon class="cls-12" points="56.73 101.93 56.73 103.97 62.53 104.24 171.72 68.01 170.85 63.61 166.12 62.41 56.73 101.93"/><path class="cls-12" d="M45.18,95.8l3.17,9.76a1.24,1.24,0,0,0,1.5.82l1.31-.35.6,1.08-2,.66a4.42,4.42,0,0,1-3-.09l-5.54-2.16a2.83,2.83,0,0,1-1.8-2.62l-.1-8.9,1.22-.74,2.47.56A3,3,0,0,1,45.18,95.8Z"/><path class="cls-12" d="M39.32,94l3,.93a2.66,2.66,0,0,1,1.79,1.85l2.76,9a2.94,2.94,0,0,0,3.73,1.74l.6-.3"/><path class="cls-12" d="M46.82,100.84s70.2-24.41,80.31-28,57.7-21.4,60.31-21.94,5.18-.87,5,0"/><path class="cls-13" d="M196,24.82h0a.43.43,0,0,0,0-.16c-1.25-5.07-9.14-7.7-17.74-5.88s-14.81,7.5-13.79,12.68c.29,1.36,3.84,1.84,8.85,1.42h0l1.34,8,14.85-2.36-1.15-8.78C193,28.05,196.1,26.18,196,24.82Z"/><path class="cls-14" d="M195.51,24.84a.06.06,0,0,0,0-.06v-.09a.77.77,0,0,0-.17-.29c-1.28-1.48-8.1-1.45-16,.15-7.48,1.53-13.5,4-14.57,5.78a1,1,0,0,0-.16.73,1.11,1.11,0,0,0,.54.66c.95.92,4.1,1.21,8.3.86l1.3,7.61,14.42-2.25L188,29.55c3.51-1.18,6.09-2.5,7.05-3.64l.13-.15a1.2,1.2,0,0,0,.36-.9Z"/><path class="cls-8" d="M182,197.56,35.42,136.29l.71-27.73a1.27,1.27,0,0,1,1.27-1.27,1.43,1.43,0,0,1,.29,0l6.13,1.52a3.78,3.78,0,0,1,2.92,3.9l-.23,4.12a3.17,3.17,0,0,0,2.25,3.19l110.7,33.11a2,2,0,0,0,2.5-1.33,2.33,2.33,0,0,0,.08-.46l.59-9.17a1.48,1.48,0,0,1,1.58-1.38l.28.05,20.42,5.55a2.39,2.39,0,0,1,1.76,2.45l-3,49A7.81,7.81,0,0,1,182,197.56Z"/><path class="cls-15" d="M212,166.13a.66.66,0,0,0-.2.06v-.06h-6.49v.05c-.06,0-.11-.05-.16-.05-1.33,0-2.42,3.13-2.42,7s1.09,7,2.42,7h6.65V180a.66.66,0,0,0,.2.06c1.34,0,2.42-3.12,2.42-7S213.31,166.13,212,166.13Z"/><circle class="cls-16" cx="65.63" cy="115.37" r="1.96"/><ellipse class="cls-17" cx="65.44" cy="114.9" rx="1.96" ry="1.45" transform="translate(-39.86 34.92) rotate(-23.12)"/><circle class="cls-16" cx="97.88" cy="123.88" r="1.96"/><ellipse class="cls-17" cx="97.69" cy="123.4" rx="1.96" ry="1.45" transform="translate(-40.61 48.27) rotate(-23.12)"/><circle class="cls-16" cx="139.94" cy="135.41" r="1.96"/><ellipse class="cls-17" cx="139.74" cy="134.93" rx="1.96" ry="1.45" transform="translate(-41.76 65.71) rotate(-23.12)"/><path d="M51.24,99.81,51.16,106l1.33,1.89v8l1.86-1V113.4l3.55-4.18,1.64.4s.69-1.63,1.75-1.65a14.72,14.72,0,0,1,2.81.37V105.9l-1.68-.81.11-.87L56.74,104V97.71Z"/><path class="cls-8" d="M170.77,132.61,191,137.09l5.75.34v2.66a19.62,19.62,0,0,1-7.56,0c-4.75-.76-18.7-4.51-18.7-4.51Z"/><path class="cls-9" d="M170.53,133.35v2.23l18.7,4.51c1.15.27,6.86.54,7.56,0v-2.66l-1.41-2.18-20.29-4.89-4.32,2.25Z"/><line class="cls-12" x1="47.65" y1="103.4" x2="51.54" y2="102.45"/><path class="cls-12" d="M34.45,135.89l145.74,60.75a11.57,11.57,0,0,0,13-2.92l.75-.84"/><ellipse class="cls-18" cx="211.97" cy="173.11" rx="2.42" ry="6.98"/><path class="cls-12" d="M165.73,137.84s2.78-3.4,4.52-3.24"/><path class="cls-12" d="M212,166.13a.66.66,0,0,0-.2.06v-.06h-6.49v.05c-.06,0-.11-.05-.16-.05-1.33,0-2.42,3.13-2.42,7s1.09,7,2.42,7h6.65V180a.66.66,0,0,0,.2.06c1.34,0,2.42-3.12,2.42-7S213.31,166.13,212,166.13Z"/><path class="cls-19" d="M173.23,32.85h0l1.34,8,14.85-2.36-1.15-8.78c4.74-1.63,7.84-3.5,7.7-4.86h0a.43.43,0,0,0,0-.16c-1.25-5.07-9.14-7.7-17.74-5.88s-14.81,7.5-13.79,12.68C164.67,32.79,168.22,33.27,173.23,32.85Z"/><path class="cls-19" d="M214.39,173.11a18.89,18.89,0,0,0-.19-2.71,8.09,8.09,0,0,0-1.29-3.72,1.24,1.24,0,0,0-.94-.55h0a.66.66,0,0,0-.2.06v-.06h-3l-2.28-23.52h0l-.09-1-.76-1v-.31a5.56,5.56,0,0,0-4.3-5.15l-20.21-4.65-1,.77-4.74-1-.29.14h0l-4.32,2.25L68.94,109.24v-.42a3.3,3.3,0,0,0-3-3.39l-3.53-.32.11-.87L171.72,68l-.87-4.4-2.5-1-.11-1.36,23.23-9.07a3.79,3.79,0,0,0,2.07-2V50.1a4.48,4.48,0,0,0,.2-.62v-.15a3.15,3.15,0,0,0,.06-.61v-.15a4,4,0,0,0-.09-.77L193.3,46l-.91-4a4.11,4.11,0,0,0-2.31-2.81l-.14-.07-.2-.07a3.68,3.68,0,0,0-.54-.16h-.07a3.53,3.53,0,0,0-.72-.08,4.43,4.43,0,0,0-.81.07l-4.26.79-8.26,1.53-8.64,2.91L134.8,54.8l-93,35.3a1.87,1.87,0,0,0-1.19,1.68h0v1.45L39.32,94v10.83l.94.61-3,.81a2.55,2.55,0,0,0-1.9,2.41L34.8,136l-.35-.12.35.14v.12l-1.06.65v1.08a1.58,1.58,0,0,0,1,1.45l148.46,63.2a7.45,7.45,0,0,0,8.61-2l6.29-7.39,3.37-.16,4-4.69,3.9-4.53h0l1-1.16-.15-1.51h0l-.09-1h1.62V180a.66.66,0,0,0,.2.06c1.34,0,2.42-3.12,2.42-7Z"/><g class="cls-20"><path class="cls-21" d="M76.32,227.69v14.7h-3.4v-6H66.24v6h-3.4v-14.7h3.4v5.8h6.68v-5.8Z"/><path class="cls-21" d="M88.1,238.84l1.75,1.89a5.91,5.91,0,0,1-4.66,1.83c-3.91,0-6.45-2.46-6.45-5.82a5.74,5.74,0,0,1,6.05-5.81,5.52,5.52,0,0,1,5.83,5.71l-8.35,1.61a3,3,0,0,0,3,1.68A3.78,3.78,0,0,0,88.1,238.84ZM82,236.41l5.5-1.08a2.61,2.61,0,0,0-2.66-1.93A2.78,2.78,0,0,0,82,236.41Z"/><path class="cls-21" d="M104.29,231.09v11.3h-3.12v-1.3a4.35,4.35,0,0,1-3.53,1.47,5.82,5.82,0,0,1,0-11.63,4.36,4.36,0,0,1,3.38,1.36v-1.2Zm-3.21,5.65a2.89,2.89,0,1,0-2.87,3.13A2.86,2.86,0,0,0,101.08,236.74Z"/><path class="cls-21" d="M114.12,241.84a4.6,4.6,0,0,1-2.64.72c-2.69,0-4.22-1.37-4.22-4.06v-9.91h3.27v2.76h2.8v2.52h-2.8v4.59a1.3,1.3,0,0,0,1.39,1.49,2.27,2.27,0,0,0,1.34-.42Z"/><path class="cls-21" d="M121,240.94l1.16-2.56a8.63,8.63,0,0,0,4.85,1.53c2,0,2.83-.67,2.83-1.57,0-2.75-8.54-.86-8.54-6.32,0-2.5,2-4.58,6.19-4.58a9.84,9.84,0,0,1,5.1,1.3l-1.05,2.59a8.26,8.26,0,0,0-4.07-1.16c-2,0-2.79.76-2.79,1.68,0,2.71,8.54.84,8.54,6.23,0,2.46-2,4.56-6.23,4.56A10.45,10.45,0,0,1,121,240.94Z"/><path class="cls-21" d="M143.84,238.84l1.74,1.89a5.9,5.9,0,0,1-4.66,1.83c-3.91,0-6.45-2.46-6.45-5.82a5.74,5.74,0,0,1,6.05-5.81,5.54,5.54,0,0,1,5.84,5.71L138,238.25a3,3,0,0,0,3,1.68A3.82,3.82,0,0,0,143.84,238.84Zm-6.16-2.43,5.51-1.08a2.63,2.63,0,0,0-2.67-1.93A2.78,2.78,0,0,0,137.68,236.41Z"/><path class="cls-21" d="M160,231.09v11.3H156.9v-1.3a4.35,4.35,0,0,1-3.53,1.47,5.82,5.82,0,0,1,0-11.63,4.34,4.34,0,0,1,3.38,1.36v-1.2Zm-3.22,5.65a2.89,2.89,0,1,0-2.87,3.13A2.86,2.86,0,0,0,156.81,236.74Z"/></g><g class="cls-20"><path class="cls-21" d="M162,238.65V226.81h3.28v11.65a1.3,1.3,0,0,0,1.4,1.49,2.1,2.1,0,0,0,.93-.21l.14,2.54a5.27,5.27,0,0,1-1.7.28C163.49,242.56,162,241.17,162,238.65Z"/></g><g class="cls-20"><path class="cls-21" d="M177.36,238.84l1.74,1.89a5.91,5.91,0,0,1-4.66,1.83c-3.91,0-6.45-2.46-6.45-5.82a5.74,5.74,0,0,1,6-5.81,5.54,5.54,0,0,1,5.84,5.71l-8.36,1.61a3,3,0,0,0,3,1.68A3.82,3.82,0,0,0,177.36,238.84Zm-6.16-2.43,5.51-1.08A2.63,2.63,0,0,0,174,233.4,2.78,2.78,0,0,0,171.2,236.41Z"/></g><g class="cls-20"><path class="cls-21" d="M188.88,230.93v3c-.27,0-.48,0-.73,0-1.81,0-3,1-3,3.15v5.33h-3.28v-11.3H185v1.49A4.56,4.56,0,0,1,188.88,230.93Z"/></g><g class="cls-20"><path class="cls-21" d="M189.53,241.34l1.09-2.35a7.74,7.74,0,0,0,3.93,1.09c1.51,0,2.08-.4,2.08-1,0-1.85-6.83,0-6.83-4.47,0-2.14,1.93-3.65,5.23-3.65a9.31,9.31,0,0,1,4.35,1l-1.09,2.33a6.52,6.52,0,0,0-3.26-.84c-1.47,0-2.1.47-2.1,1,0,1.93,6.82.07,6.82,4.52,0,2.1-1.95,3.59-5.33,3.59A9.72,9.72,0,0,1,189.53,241.34Z"/></g></svg>