<svg id="Layer_1" data-name="Layer 1" xmlns="http://www.w3.org/2000/svg" viewBox="0 0 261.03 260.72"><defs><style>.cls-1{fill:#e4bebf;}.cls-2{opacity:0.25;}.cls-3{fill:#c1272d;}.cls-16,.cls-17,.cls-18,.cls-4{fill:#fff;}.cls-10,.cls-11,.cls-12,.cls-13,.cls-14,.cls-15,.cls-16,.cls-17,.cls-19,.cls-4,.cls-6,.cls-7,.cls-9{stroke:#000;stroke-miterlimit:10;}.cls-13,.cls-19,.cls-4{stroke-width:1.3px;}.cls-15,.cls-5{fill:#b3b3b3;}.cls-11,.cls-5,.cls-8,.cls-9{opacity:0.66;}.cls-6{fill:gray;}.cls-10,.cls-11,.cls-12,.cls-15,.cls-16,.cls-6,.cls-7,.cls-9{stroke-width:0.65px;}.cls-14,.cls-7{fill:#999;}.cls-10,.cls-8{fill:#ccc;}.cls-11,.cls-12,.cls-19,.cls-9{fill:none;}.cls-11{stroke-dasharray:2.34;}.cls-13,.cls-20{fill:#4d4d4d;}.cls-14{stroke-width:0.54px;}.cls-17{stroke-width:0.56px;}.cls-20{font-size:21px;font-family:MontserratAlternates-SemiBold, Montserrat Alternates;font-weight:700;}.cls-21{letter-spacing:-0.01em;}.cls-22{letter-spacing:0em;}.cls-23{letter-spacing:0em;}</style></defs><title>Heat Sealers</title><rect class="cls-1" width="261.03" height="260.72" rx="3" ry="3"/><g class="cls-2"><path class="cls-3" d="M168.8,39.14h0l1.34,8L185,44.76,183.83,36c4.74-1.63,7.84-3.5,7.7-4.86a0,0,0,0,0,0,0,.42.42,0,0,0,0-.16c-1.25-5.07-9.13-7.7-17.73-5.88s-14.82,7.5-13.8,12.68C160.24,39.09,163.79,39.57,168.8,39.14Z" transform="translate(0 -1)"/><path class="cls-3" d="M209.92,178a16,16,0,0,0-.37-2.49c-.09-.37-.18-.72-.29-1a4.85,4.85,0,0,0-.77-1.5,1.28,1.28,0,0,0-1-.55h0a.76.76,0,0,0-.2.06v-.06h-3l-2.28-23.53h0l-.1-1-.76-1v0l0-.29a5.3,5.3,0,0,0-.1-.8,5.56,5.56,0,0,0-4.2-4.35l-20.21-4.65-1,.76-4.74-1-4.61,2.38L64.52,115.53v-.42h0A3.36,3.36,0,0,0,63.8,113s-.06-.09-.1-.13a3.31,3.31,0,0,0-2.18-1.1L58,111.41l.11-.87L167.3,74.31h0l-.87-4.4-2.51-1-.1-1.36L187,58.49h0a3.51,3.51,0,0,0,.64-.33l.11-.08a3.54,3.54,0,0,0,.47-.38l0-.05a4.15,4.15,0,0,0,.43-.51h0a3.88,3.88,0,0,0,.35-.63l0-.07h0a4,4,0,0,0,.2-.61h0l0-.15h0a3.08,3.08,0,0,0,.06-.61h0a.76.76,0,0,0,0-.15,3.37,3.37,0,0,0-.09-.77h0l-.41-1.8-.91-4a4.85,4.85,0,0,0-.3-.86l-.12-.2a4.17,4.17,0,0,0-.37-.56,1.07,1.07,0,0,0-.14-.16,4.1,4.1,0,0,0-.52-.5l-.11-.08a3.75,3.75,0,0,0-.74-.45l-.14-.08-.21-.06a4.84,4.84,0,0,0-.54-.17h-.06a3.53,3.53,0,0,0-.72-.08,4.62,4.62,0,0,0-.82.07l-4.41.82-8.11,1.5-8.39,2.82-32,10.75-93,35.3a2,2,0,0,0-.37.21s-.08,0-.11.07a1.8,1.8,0,0,0-.7,1.4h0v.34l0,1v.09l-1.23.75h0V101l0,2.72,0,7.45.94.61-3,.8a2.57,2.57,0,0,0-1.9,2.42l-.68,27.36-.35-.13.35.15v.12l-1.06.65v1.08h0a1.57,1.57,0,0,0,1,1.45l148.51,63.19a7.47,7.47,0,0,0,8.62-2l6.28-7.39,3.37-.16,4-4.7L205,190h0l1-1.16h0l-.15-1.51h0l-.09-1h1.62v-.06a.76.76,0,0,0,.2.06c1.34,0,2.42-3.12,2.42-7h0C210,178.93,210,178.46,209.92,178Z" transform="translate(0 -1)"/></g><path class="cls-4" d="M40.34,106.43l-3,.81a2.56,2.56,0,0,0-1.9,2.41l-.69,27.5-1.06.65v1.08a1.58,1.58,0,0,0,1,1.45L183.2,203.52a7.46,7.46,0,0,0,8.61-2l6.29-7.39,3.37-.16,8.92-10.38-4-40.95-.76-1,0-.31a5.56,5.56,0,0,0-4.3-5.15l-20.21-4.65-1,.77-4.74-1-4.61,2.39L68.94,110.24l0-.42a3.3,3.3,0,0,0-3-3.39l-3.53-.32.11-.87L171.72,69l-.87-4.4-2.5-1-.11-1.36,23.23-9.07a3.8,3.8,0,0,0,2.31-4.37l-1.32-5.78a4.14,4.14,0,0,0-4.78-3.14l-12.53,2.32L134.8,55.81l-93,35.3a1.85,1.85,0,0,0-1.19,1.68l0,1.46L39.32,95l.08,10.83Z" transform="translate(0 -1)"/><path class="cls-5" d="M193.16,51.85l-.71,0c.17-.86-2.41-.53-5,0s-50.18,18.37-60.31,22-80.3,28-80.3,28l-7.44.41L39.32,95l1.22-.75,0-1.46a1.84,1.84,0,0,1,1.19-1.68l93-35.3,40.35-13.57,12.52-2.32A4.15,4.15,0,0,1,192.46,43l1.32,5.79A3.69,3.69,0,0,1,193.16,51.85Z" transform="translate(0 -1)"/><polygon class="cls-6" points="56.73 101.93 56.73 103.97 62.53 104.24 171.72 68.01 170.85 63.61 166.12 62.41 56.73 101.93"/><path class="cls-7" d="M57.9,110.24l-1.63,1.62L54.74,114a2.09,2.09,0,0,0,1.14,3.23l100.73,28.59a4.24,4.24,0,0,0,4.84-2l2.28-4.06,1.74-2.93Z" transform="translate(0 -1)"/><polygon class="cls-8" points="57.14 103.4 166.77 65.75 166.12 62.41 57.14 101.78 57.14 103.4"/><path class="cls-9" d="M170.53,134.35v2.23l18.7,4.51c1.15.27,6.86.54,7.56,0v-2.66l-1.41-2.18-20.29-4.89-4.32,2.25Z" transform="translate(0 -1)"/><path class="cls-10" d="M205.06,140.87l-11.78,8.25a4.17,4.17,0,0,0-1.78,3.29L190,195.49a.52.52,0,0,0,.8.46l3.18-2.07,6,.05a3.28,3.28,0,0,0,2.47-1.12l7-8.09a3.6,3.6,0,0,0,.84-2.67l-3.73-38.44a3.43,3.43,0,0,0-.71-1.79Z" transform="translate(0 -1)"/><path class="cls-11" d="M205.52,142.45l-11.28,8.81a1.48,1.48,0,0,0-.54,1.44l7.5,38.14" transform="translate(0 -1)"/><path class="cls-12" d="M59.54,110.64a2.44,2.44,0,0,1,3.2-1.6c2.61.65,108,24.57,108,24.57l-.24,3-6.8,3.2,1.74-2.93Z" transform="translate(0 -1)"/><polygon class="cls-12" points="56.73 101.93 56.73 103.97 62.53 104.24 171.72 68.01 170.85 63.61 166.12 62.41 56.73 101.93"/><path class="cls-12" d="M45.18,96.8l3.17,9.76a1.24,1.24,0,0,0,1.5.82l1.31-.35.6,1.08-2,.66a4.45,4.45,0,0,1-3-.09l-5.54-2.16a2.83,2.83,0,0,1-1.8-2.62L39.32,95l1.22-.74,2.47.56A3,3,0,0,1,45.18,96.8Z" transform="translate(0 -1)"/><path class="cls-12" d="M39.32,95l3,.93a2.65,2.65,0,0,1,1.79,1.85l2.76,9a2.94,2.94,0,0,0,3.73,1.74l.6-.3" transform="translate(0 -1)"/><path class="cls-12" d="M46.82,101.84s70.2-24.41,80.31-28,57.7-21.4,60.31-21.94,5.18-.87,5,0" transform="translate(0 -1)"/><path class="cls-13" d="M196,25.82s0,0,0,0a.41.41,0,0,0,0-.16c-1.25-5.07-9.14-7.7-17.74-5.88s-14.81,7.5-13.79,12.68c.29,1.36,3.84,1.84,8.85,1.42h0l1.34,8,14.85-2.36-1.15-8.78C193,29.05,196.1,27.18,196,25.82Z" transform="translate(0 -1)"/><path class="cls-14" d="M195.51,25.84a.11.11,0,0,0,0-.06s0-.07,0-.09a.79.79,0,0,0-.17-.29c-1.28-1.48-8.1-1.45-16,.15-7.48,1.53-13.5,4-14.57,5.78a1,1,0,0,0-.16.73,1.08,1.08,0,0,0,.54.66c.95.92,4.1,1.21,8.3.86l1.3,7.61,14.42-2.25L188,30.55c3.51-1.18,6.09-2.5,7.05-3.64l.13-.15a1.18,1.18,0,0,0,.36-.9S195.52,25.84,195.51,25.84Z" transform="translate(0 -1)"/><path class="cls-8" d="M182,198.56,35.42,137.29l.71-27.73a1.27,1.27,0,0,1,1.56-1.24l6.13,1.52a3.78,3.78,0,0,1,2.92,3.9l-.23,4.12a3.16,3.16,0,0,0,2.25,3.19l110.7,33.11a2,2,0,0,0,2.58-1.79l.59-9.17a1.48,1.48,0,0,1,1.86-1.33l20.42,5.55a2.39,2.39,0,0,1,1.76,2.45l-3,49A7.73,7.73,0,0,1,182,198.56Z" transform="translate(0 -1)"/><path class="cls-15" d="M212,167.13a1.17,1.17,0,0,0-.2.06v-.06h-6.49v.05c-.06,0-.11-.05-.16-.05-1.33,0-2.42,3.13-2.42,7s1.09,7,2.42,7a1.24,1.24,0,0,0,.16,0v0h6.49V181a.66.66,0,0,0,.2.06c1.34,0,2.42-3.12,2.42-7S213.31,167.13,212,167.13Z" transform="translate(0 -1)"/><circle class="cls-16" cx="65.63" cy="115.37" r="1.96"/><ellipse class="cls-17" cx="65.43" cy="115.91" rx="1.96" ry="1.45" transform="translate(-40.25 33.99) rotate(-23.12)"/><circle class="cls-16" cx="97.88" cy="123.88" r="1.96"/><ellipse class="cls-17" cx="97.68" cy="124.41" rx="1.96" ry="1.45" transform="translate(-41 47.34) rotate(-23.12)"/><circle class="cls-16" cx="139.94" cy="135.41" r="1.96"/><ellipse class="cls-17" cx="139.74" cy="135.94" rx="1.96" ry="1.45" transform="translate(-42.15 64.78) rotate(-23.12)"/><path d="M51.24,100.81,51.16,107l1.33,1.89v8l1.86-1v-1.49l3.55-4.18,1.64.4s.69-1.63,1.75-1.65a14.74,14.74,0,0,1,2.81.37v-2.44l-1.68-.81.11-.87L56.74,105V98.71Z" transform="translate(0 -1)"/><path class="cls-8" d="M170.77,133.61,191,138.09l5.75.34v2.66a19.7,19.7,0,0,1-7.56,0c-4.75-.76-18.7-4.51-18.7-4.51Z" transform="translate(0 -1)"/><path class="cls-9" d="M170.53,134.35v2.23l18.7,4.51c1.15.27,6.86.54,7.56,0v-2.66l-1.41-2.18-20.29-4.89-4.32,2.25Z" transform="translate(0 -1)"/><line class="cls-12" x1="47.65" y1="103.4" x2="51.54" y2="102.45"/><path class="cls-12" d="M34.45,136.89l145.74,60.75a11.57,11.57,0,0,0,13-2.92l.75-.84" transform="translate(0 -1)"/><ellipse class="cls-18" cx="211.97" cy="173.11" rx="2.42" ry="6.98"/><path class="cls-12" d="M165.73,138.84s2.78-3.4,4.52-3.24" transform="translate(0 -1)"/><path class="cls-12" d="M212,167.13a1.17,1.17,0,0,0-.2.06v-.06h-6.49v.05c-.06,0-.11-.05-.16-.05-1.33,0-2.42,3.13-2.42,7s1.09,7,2.42,7a1.24,1.24,0,0,0,.16,0v0h6.49V181a.66.66,0,0,0,.2.06c1.34,0,2.42-3.12,2.42-7S213.31,167.13,212,167.13Z" transform="translate(0 -1)"/><path class="cls-19" d="M173.23,33.85h0l1.34,8,14.85-2.36-1.15-8.78c4.74-1.63,7.84-3.5,7.7-4.86,0,0,0,0,0,0a.41.41,0,0,0,0-.16c-1.25-5.07-9.14-7.7-17.74-5.88s-14.81,7.5-13.79,12.68C164.67,33.79,168.22,34.27,173.23,33.85Z" transform="translate(0 -1)"/><path class="cls-19" d="M214.39,174.11a19.1,19.1,0,0,0-.19-2.71,8.07,8.07,0,0,0-1.29-3.72,1.26,1.26,0,0,0-.94-.55h0a1.17,1.17,0,0,0-.2.06v-.06h-3l-2.28-23.52h0l-.09-1-.76-1,0-.31a5.56,5.56,0,0,0-4.3-5.15l-20.21-4.65-1,.77-4.74-1-.29.14h0l-4.32,2.25L68.94,110.24l0-.42a3.3,3.3,0,0,0-3-3.39l-3.53-.32.11-.87L171.72,69l-.87-4.4-2.5-1-.11-1.36,23.23-9.07a3.79,3.79,0,0,0,2.07-2l0-.07a4.08,4.08,0,0,0,.2-.62l0-.15a3.08,3.08,0,0,0,.06-.61s0-.1,0-.15a4,4,0,0,0-.09-.77l-.41-1.8-.91-4a4.11,4.11,0,0,0-2.31-2.81l-.14-.07-.2-.07a3.68,3.68,0,0,0-.54-.16h-.07a3.38,3.38,0,0,0-.72-.08,4.43,4.43,0,0,0-.81.07l-4.26.79-8.26,1.53-8.64,2.91L134.8,55.8l-93,35.3a1.88,1.88,0,0,0-1.19,1.68h0v.34l0,1.11L39.32,95l0,3.38,0,7.45.94.61-3,.81a2.56,2.56,0,0,0-1.9,2.41L34.8,137l-.35-.12.35.14v.12l-1.06.65v1.08a1.58,1.58,0,0,0,1,1.45L183.2,203.52a7.46,7.46,0,0,0,8.61-2l6.29-7.39,3.37-.16,4-4.69,3.9-4.53h0l1-1.16-.15-1.51h0l-.09-1h1.62V181a.66.66,0,0,0,.2.06c1.34,0,2.42-3.12,2.42-7Z" transform="translate(0 -1)"/><text class="cls-20" transform="translate(61.1 242.39)">Heat Sea<tspan class="cls-21" x="99.37" y="0">l</tspan><tspan x="106.22" y="0">e</tspan><tspan class="cls-22" x="119.26" y="0">r</tspan><tspan class="cls-23" x="128.01" y="0">s</tspan></text></svg>