<svg id="Layer_1" data-name="Layer 1" xmlns="http://www.w3.org/2000/svg" viewBox="0 0 261.03 260.72"><defs><style>.cls-1{fill:#b6dd9a;}.cls-2{fill:#7ac943;}.cls-2,.cls-7{opacity:0.5;}.cls-14,.cls-2,.cls-4,.cls-5,.cls-6,.cls-7,.cls-9{isolation:isolate;}.cls-3{fill:#fff;stroke-width:0.76px;}.cls-3,.cls-8{stroke:#333;}.cls-10,.cls-11,.cls-12,.cls-13,.cls-3,.cls-4,.cls-5,.cls-8,.cls-9{stroke-miterlimit:10;}.cls-4,.cls-5,.cls-8,.cls-9{fill:none;}.cls-4,.cls-5{stroke:#666;stroke-linecap:round;opacity:0.6;}.cls-10,.cls-4{stroke-width:0.52px;}.cls-5{stroke-width:1.18px;}.cls-6{fill:#e6e6e6;}.cls-6,.cls-9{opacity:0.66;}.cls-7{fill:#ccc;}.cls-8{stroke-width:1.76px;}.cls-10,.cls-11,.cls-12,.cls-13,.cls-9{stroke:#000;}.cls-9{stroke-width:0.23px;stroke-dasharray:2.34;}.cls-11{stroke-width:0.42px;}.cls-12{stroke-width:0.57px;}.cls-13{stroke-width:0.61px;}.cls-15{fill:#4d4d4d;}</style></defs><title>Heavy Duty</title><rect class="cls-1" width="261.03" height="260.72" rx="3" ry="3"/><path class="cls-2" d="M188.56,35.39l-4.57-.1c-5.39-.15-40.27-1.17-51.19-2.38l-.7-.07c-10.43-1.28-38.59-2.59-50.33-3.1v.14l-3.36-.14-5.61-.22a56.67,56.67,0,0,0-.37,8.34V40l1.17.62-1.14.58v.7h0c.32,19.67,2.85,56,4.21,62.15,1.75,7.94,3,93.69,3,93.69h6.12c80.71,14.17,90.46-3.53,91.19-5.13.12-.25,4.71-.25,4.71-.25s1.75-42.4,2.62-57.57c.68-11.79,2.88-64.85,3.83-87.9h0v-.7l-.68-.25.73-.33c.24-5.85.39-9.46.39-9.46h0C188.55,35.64,188.56,35.39,188.56,35.39Zm-4.12-.09h0Z"/><path class="cls-3" d="M195.13,34.75l-1.59.7,1.54.58c-1,23.06-3.15,76.11-3.83,87.9-.87,15.18-2.62,57.58-2.62,57.58s-4.59,0-4.7.25c-.74,1.59-10.49,19.3-91.2,5.12H86.61s-1.24-85.74-3-93.68C82.25,87,79.72,50.72,79.4,31.05l1.83-.93-1.86-1a65.07,65.07,0,0,1,.37-9.77l5.6.22c12.79.52,43.82,1.87,54.42,3.17,10.91,1.34,40.69,2.14,51.64,2.39l4.12.09S195.37,28.9,195.13,34.75Z"/><line class="cls-4" x1="88.79" y1="33.67" x2="187.02" y2="38.13"/><line class="cls-4" x1="89.24" y1="38.82" x2="187.02" y2="42.26"/><line class="cls-5" x1="88.55" y1="36.22" x2="187.29" y2="40.03"/><path class="cls-6" d="M107.83,180.44c-7.61-.83-13.43-2-13.43-2v-1.12h0c-.14-7-.31-16.21-.31-19.22,0-5.07-.34-22-.61-31.54s-1.22-32.65-1.4-35.49-1.46-9.77-1.86-16.2-.55-15.09-1-17.07a53.57,53.57,0,0,1-.3-6.94A61.15,61.15,0,0,1,93.1,61.62c3.54,11.5,4.09,16,11,27.71s12.93,18.92,13.47,34.5S116.79,141.77,116,147s3.13,6.18,3.27,10.27-2.59,6.06-2.86,10.76,3.29,8.13,3.56,9.54C121.21,184,118,181.56,107.83,180.44Z"/><path class="cls-7" d="M188.4,63.1c-.84,19.82-2,45-2.17,51-.28,8.66-3.79,60.59-3.79,60.59l-.05.47a19.78,19.78,0,0,1-6.94,3.58c0-.85.07-3.11.12-4.23.16-3.6.22-10.33.27-14.41s1.64-5.07,1.31-10.27a190,190,0,0,1-.65-23.13c.22-15.58,2.62-22.75,5.4-34.5s4.9-16.2,6.32-27.71Z"/><path class="cls-8" d="M195.13,34l-1.59.71,1.54.58c-1,23.05-3.15,76.11-3.83,87.9-.87,15.17-2.62,57.58-2.62,57.58s-4.85-.33-4.78,0c.25,1.14-13.41,19-91.12,5.33H86.61s-1.24-85.75-3-93.69c-1.36-6.07-3.89-42.41-4.21-62l1.83-.92-1.86-1a64.93,64.93,0,0,1,.37-9.76l5.6.22c12.79.52,43.81,2,54.42,3.17,12.4,1.37,55.72,2.5,51.64,2.39-2.58-.07,4.12.09,4.12.09Z"/><path class="cls-9" d="M189.82,24.44s-.28,5.66-.68,19.75-2.73,63.65-3,72.33-3.7,58.19-3.7,58.19l-.05.47c-1,1.39-18.64,13.49-86.93,3.55h-1s-.3-15.28-.3-20.37-.34-22.07-.61-31.61S92.29,94,92.11,91.16s-1.46-9.8-1.86-16.24-.55-15.13-1-17.11-.08-9.43-.69-14.26,0-23.69,0-23.69l.18-.93c12,.52,41,1.87,50.92,3.17C149.86,23.44,179.57,24.19,189.82,24.44Z"/><path class="cls-5" d="M90,184s-1.24-82.82-3-90.76c-1.35-6.18-3.89-42.48-4.21-62.15v-1.9c0-3.16,0-5.79.14-7.66"/><path class="cls-5" d="M193.26,26.33l-.44,9.47c-.94,23.05-3.15,76.11-3.82,87.9-.88,15.17-2.62,54.92-2.62,54.92"/><path class="cls-5" d="M92.61,184s-1.24-82.82-3-90.76c-1.36-6.18-3.9-42.48-4.22-62.15v-1.9c0-3.41,0-6.2.17-8.09"/><path class="cls-5" d="M191.3,26.21l-.44,9.59c-1,23.05-3.15,76.11-3.83,87.9-.87,15.17-2.62,54.92-2.62,54.92"/><path class="cls-5" d="M89.4,180.6s40.7,5.74,63.54,4.57S184.41,176,184.41,176l2.11.29"/><path class="cls-5" d="M89.4,183l3.2.49s41.17,6.51,60.91,4.64,28.12-7.41,30.9-9.94h2"/><path class="cls-10" d="M134,118.61l-1.76.13c-1,.07-1.78-.95-1.78-2.26v-41c0-1.32.8-2.32,1.78-2.25l1.76.14a2.33,2.33,0,0,1,1.78,2.48v40.29A2.31,2.31,0,0,1,134,118.61Z"/><path class="cls-11" d="M126.91,110.94l-1.76.08c-1,0-1.78-1-1.78-2.36V83.25c0-1.34.8-2.4,1.78-2.35l1.76.09c1,.05,1.77,1.17,1.77,2.49v25A2.29,2.29,0,0,1,126.91,110.94Z"/><path class="cls-10" d="M163,116.54l-1.76.13a1.84,1.84,0,0,1-1.79-1.89s0-.07,0-.11V77.52a1.83,1.83,0,0,1,1.65-2h.13l1.76.14a2.18,2.18,0,0,1,1.78,2.26v36.4A2.14,2.14,0,0,1,163,116.54Z"/><path class="cls-11" d="M169.81,109l-1.76.08a1.87,1.87,0,0,1-1.78-2v-22a1.84,1.84,0,0,1,1.69-2h.09l1.76.09a2.08,2.08,0,0,1,1.78,2.16v21.49A2,2,0,0,1,169.81,109Z"/><polygon class="cls-12" points="157.3 93.44 137.92 93.19 137.92 98.82 157.3 98.7 157.3 93.44"/><polygon class="cls-13" points="173.53 93.65 173.53 98.61 176.65 98.59 176.65 93.69 173.53 93.65"/><polygon class="cls-13" points="121.43 92.97 117.46 92.92 117.46 98.94 121.43 98.92 121.43 92.97"/><g class="cls-14"><path class="cls-15" d="M80.93,227.69v14.7h-3.4v-6H70.85v6h-3.4v-14.7h3.4v5.8h6.68v-5.8Z"/><path class="cls-15" d="M92.71,238.84l1.75,1.89a5.91,5.91,0,0,1-4.66,1.83c-3.91,0-6.45-2.46-6.45-5.82a5.74,5.74,0,0,1,6.05-5.81,5.52,5.52,0,0,1,5.83,5.71l-8.35,1.61a3,3,0,0,0,3,1.68A3.78,3.78,0,0,0,92.71,238.84Zm-6.15-2.43,5.5-1.08a2.61,2.61,0,0,0-2.66-1.93A2.78,2.78,0,0,0,86.56,236.41Z"/><path class="cls-15" d="M108.9,231.09v11.3h-3.12v-1.3a4.35,4.35,0,0,1-3.53,1.47,5.82,5.82,0,0,1,0-11.63,4.36,4.36,0,0,1,3.38,1.36v-1.2Zm-3.21,5.65a2.89,2.89,0,1,0-2.87,3.13A2.86,2.86,0,0,0,105.69,236.74Z"/><path class="cls-15" d="M123.14,231.09l-4.76,11.3H115l-4.75-11.3h3.38l3.13,7.69,3.23-7.69Z"/><path class="cls-15" d="M135.87,231.09v9.41c0,4.2-2.21,6.13-6.15,6.13a8.92,8.92,0,0,1-5.4-1.55l1.3-2.35a6.34,6.34,0,0,0,3.82,1.26c2.21,0,3.15-1,3.15-3.07v-.38a4.62,4.62,0,0,1-3.34,1.3c-2.83,0-4.82-1.57-4.82-5.08v-5.67h3.27v5.19c0,1.91.84,2.75,2.29,2.75s2.6-1,2.6-3v-4.9Z"/><path class="cls-15" d="M145.09,227.69h6.68c4.8,0,8.1,2.9,8.1,7.35s-3.3,7.35-8.1,7.35h-6.68Zm6.51,11.91c2.92,0,4.83-1.75,4.83-4.56s-1.91-4.55-4.83-4.55h-3.11v9.11Z"/><path class="cls-15" d="M173.58,231.09v11.3h-3.1v-1.34a4.59,4.59,0,0,1-3.51,1.51c-2.83,0-4.83-1.6-4.83-5.08v-6.39h3.28V237c0,1.89.84,2.73,2.29,2.73s2.6-1,2.6-3v-5.59Z"/><path class="cls-15" d="M183.43,241.84a4.6,4.6,0,0,1-2.64.72c-2.69,0-4.22-1.37-4.22-4.06v-9.91h3.27v2.76h2.8v2.52h-2.8v4.59a1.3,1.3,0,0,0,1.39,1.49,2.27,2.27,0,0,0,1.34-.42Z"/><path class="cls-15" d="M196.66,231.09v9.41c0,4.2-2.2,6.13-6.15,6.13a8.94,8.94,0,0,1-5.4-1.55l1.31-2.35a6.3,6.3,0,0,0,3.82,1.26c2.2,0,3.15-1,3.15-3.07v-.38a4.63,4.63,0,0,1-3.34,1.3c-2.84,0-4.83-1.57-4.83-5.08v-5.67h3.28v5.19c0,1.91.83,2.75,2.28,2.75s2.61-1,2.61-3v-4.9Z"/></g></svg>