<svg id="Layer_1" data-name="Layer 1" xmlns="http://www.w3.org/2000/svg" viewBox="0 0 261.03 260.72"><defs><style>.cls-1{fill:#b6dd9a;}.cls-2{fill:#7ac943;}.cls-2,.cls-7{opacity:0.5;}.cls-3{fill:#fff;stroke-width:0.76px;}.cls-3,.cls-8{stroke:#333;}.cls-10,.cls-11,.cls-12,.cls-13,.cls-3,.cls-4,.cls-5,.cls-8,.cls-9{stroke-miterlimit:10;}.cls-4,.cls-5,.cls-8,.cls-9{fill:none;}.cls-4,.cls-5{stroke:#666;stroke-linecap:round;opacity:0.6;}.cls-4{stroke-width:0.52px;}.cls-5{stroke-width:1.18px;}.cls-6{fill:#e6e6e6;}.cls-6,.cls-9{opacity:0.66;}.cls-7{fill:#ccc;}.cls-8{stroke-width:1.76px;}.cls-10,.cls-11,.cls-12,.cls-13,.cls-9{stroke:#000;}.cls-9{stroke-width:0.23px;stroke-dasharray:2.34;}.cls-10{stroke-width:0.52px;}.cls-11{stroke-width:0.42px;}.cls-12{stroke-width:0.57px;}.cls-13{stroke-width:0.61px;}.cls-14{font-size:21px;fill:#4d4d4d;font-family:MontserratAlternates-SemiBold, Montserrat Alternates;font-weight:700;}</style></defs><title>Heavy Duty</title><rect class="cls-1" width="261.03" height="260.72" rx="3" ry="3"/><path class="cls-2" d="M188.56,35.39l-4.57-.1c-5.39-.15-40.27-1.17-51.19-2.38l-.7-.07c-10.43-1.28-38.59-2.59-50.33-3.1l0,.14-3.36-.14-5.61-.22a56.78,56.78,0,0,0-.37,8.34c0,.69,0,1.39,0,2.13l1.17.62-1.14.58c0,.23,0,.47,0,.7h0c.32,19.67,2.85,56,4.21,62.15,1.75,7.94,3,93.69,3,93.69l5,0h1.12c80.71,14.17,90.46-3.53,91.19-5.13.12-.25,4.71-.25,4.71-.25s1.75-42.4,2.62-57.57c.68-11.79,2.88-64.85,3.83-87.9h0l0-.7-.68-.25.73-.33c.24-5.85.39-9.46.39-9.46h0C188.55,35.64,188.56,35.39,188.56,35.39Zm-4.12-.09c.39,0,.34,0-.08,0Z"/><path class="cls-3" d="M195.13,34.75l-1.59.7,1.54.58c-1,23.06-3.15,76.11-3.83,87.9-.87,15.18-2.62,57.58-2.62,57.58s-4.59,0-4.7.25c-.74,1.59-10.49,19.3-91.2,5.12H91.61l-5,0s-1.24-85.74-3-93.68c-1.36-6.18-3.89-42.48-4.21-62.15l1.83-.93-1.86-1a65,65,0,0,1,.37-9.77l5.6.22c12.79.52,43.82,1.87,54.42,3.17,10.91,1.34,40.69,2.14,51.64,2.39l4.12.09S195.37,28.9,195.13,34.75Z"/><line class="cls-4" x1="88.79" y1="33.67" x2="187.02" y2="38.13"/><line class="cls-4" x1="89.24" y1="38.82" x2="187.02" y2="42.26"/><line class="cls-5" x1="88.55" y1="36.22" x2="187.29" y2="40.03"/><path class="cls-6" d="M107.83,180.44c-7.61-.83-13.43-2-13.43-2l0-1.12v0c-.14-7-.31-16.21-.31-19.22,0-5.07-.34-22-.61-31.54s-1.22-32.65-1.4-35.49-1.46-9.77-1.86-16.2-.55-15.09-1-17.07a52.17,52.17,0,0,1-.3-6.94A60.64,60.64,0,0,1,93.1,61.62c3.54,11.5,4.09,16,11,27.71s12.93,18.92,13.47,34.5S116.79,141.77,116,147s3.13,6.18,3.27,10.27-2.59,6.06-2.86,10.76,3.29,8.13,3.56,9.54C121.21,184,118,181.56,107.83,180.44Z"/><path class="cls-7" d="M188.4,63.1c-.84,19.82-2,45-2.17,51-.28,8.66-3.79,60.59-3.79,60.59l-.05.47a19.89,19.89,0,0,1-6.94,3.58c0-.85.07-3.11.12-4.23.16-3.6.22-10.33.27-14.41s1.64-5.07,1.31-10.27a190.44,190.44,0,0,1-.65-23.13c.22-15.58,2.62-22.75,5.4-34.5s4.9-16.2,6.32-27.71Q188.31,63.79,188.4,63.1Z"/><path class="cls-8" d="M195.13,34l-1.59.71,1.54.58c-1,23.05-3.15,76.11-3.83,87.9-.87,15.17-2.62,57.58-2.62,57.58s-4.85-.33-4.78,0c.25,1.14-13.41,19.05-91.12,5.33H91.61l-5,0s-1.24-85.75-3-93.69C82.25,86.34,79.72,50,79.4,30.37l1.83-.92-1.86-1a64.88,64.88,0,0,1,.37-9.76l5.6.22c12.79.52,43.81,2,54.42,3.17,12.4,1.37,55.72,2.5,51.64,2.39-2.58-.07,4.12.09,4.12.09S195.37,28.19,195.13,34Z"/><path class="cls-9" d="M189.82,24.44s-.28,5.66-.68,19.75-2.73,63.65-3,72.33-3.7,58.19-3.7,58.19l-.05.47c-1,1.39-18.64,13.49-86.93,3.55h-1s-.3-15.28-.3-20.37-.34-22.07-.61-31.61S92.29,94,92.11,91.16s-1.46-9.8-1.86-16.24-.55-15.13-1-17.11-.08-9.43-.69-14.26,0-23.69,0-23.69l.18-.93c12,.52,41,1.87,50.92,3.17C149.86,23.44,179.57,24.19,189.82,24.44Z"/><path class="cls-5" d="M90,184s-1.24-82.82-3-90.76c-1.35-6.18-3.89-42.48-4.21-62.15l0-1.9c0-3.16,0-5.79.14-7.66"/><path class="cls-5" d="M193.26,26.33l-.44,9.47c-.94,23.05-3.15,76.11-3.82,87.9-.88,15.17-2.62,54.92-2.62,54.92"/><path class="cls-5" d="M92.61,184s-1.24-82.82-3-90.76c-1.36-6.18-3.9-42.48-4.22-62.15l0-1.9c0-3.41,0-6.2.17-8.09"/><path class="cls-5" d="M191.3,26.21l-.44,9.59c-1,23.05-3.15,76.11-3.83,87.9-.87,15.17-2.62,54.92-2.62,54.92"/><path class="cls-5" d="M89.4,180.6s40.7,5.74,63.54,4.57S184.41,176,184.41,176l2.11.29"/><path class="cls-5" d="M89.4,183l3.2.49s41.17,6.51,60.91,4.64,28.12-7.41,30.9-9.94h2"/><path class="cls-10" d="M134,118.61l-1.76.13c-1,.07-1.78-.95-1.78-2.26v-41c0-1.32.8-2.32,1.78-2.25l1.76.14a2.33,2.33,0,0,1,1.78,2.48v40.29A2.31,2.31,0,0,1,134,118.61Z"/><path class="cls-11" d="M126.91,110.94l-1.76.08c-1,0-1.78-1-1.78-2.36V83.25c0-1.34.8-2.4,1.78-2.35l1.76.09c1,.05,1.77,1.17,1.77,2.49v25A2.29,2.29,0,0,1,126.91,110.94Z"/><path class="cls-10" d="M163,116.54l-1.76.13a1.84,1.84,0,0,1-1.78-2V77.52a1.83,1.83,0,0,1,1.78-2l1.76.14a2.17,2.17,0,0,1,1.78,2.26v36.4A2.14,2.14,0,0,1,163,116.54Z"/><path class="cls-11" d="M169.81,109l-1.76.08a1.87,1.87,0,0,1-1.78-2V85.14a1.85,1.85,0,0,1,1.78-2l1.76.09a2.08,2.08,0,0,1,1.78,2.16v21.49A2,2,0,0,1,169.81,109Z"/><polygon class="cls-12" points="157.3 93.44 137.92 93.19 137.92 98.82 157.3 98.7 157.3 93.44"/><polygon class="cls-13" points="173.53 93.65 173.53 98.61 176.65 98.59 176.65 93.69 173.53 93.65"/><polygon class="cls-13" points="121.43 92.97 117.46 92.92 117.46 98.94 121.43 98.92 121.43 92.97"/><text class="cls-14" transform="translate(65.71 242.39)">Heavy Duty </text></svg>