<svg id="Layer_1" data-name="Layer 1" xmlns="http://www.w3.org/2000/svg" xmlns:xlink="http://www.w3.org/1999/xlink" viewBox="0 0 261.12 260.72"><defs><clipPath id="clip-path" transform="translate(0.01 -0.14)"><ellipse cx="68.62" cy="137.81" rx="13.36" ry="21.47" transform="translate(-52.49 42.77) rotate(-25.41)" fill="none"/></clipPath><clipPath id="clip-path-2" transform="translate(0.01 -0.14)"><ellipse cx="112.18" cy="163.01" rx="13.36" ry="21.47" transform="translate(-62.1 69.3) rotate(-27.2)" fill="none"/></clipPath><clipPath id="clip-path-3" transform="translate(0.01 -0.14)"><ellipse cx="97.48" cy="106.73" rx="13.36" ry="21.47" transform="translate(-36.36 52.15) rotate(-25.41)" fill="none"/></clipPath></defs><title>Nature Flex Cello Fixed</title><path d="M261,3.14V257.86a3,3,0,0,1-3,3H3a3,3,0,0,1-3-3V3.14a3,3,0,0,1,3-3H258a3,3,0,0,1,2.33,1.1,3,3,0,0,1,.6,1.25v0L261,3A.76.76,0,0,1,261,3.14Z" transform="translate(0.01 -0.14)" fill="#99d570"/><path d="M261,19.47v116l-123.5,64.92c-5.51,3.29-13.07,2.95-20.64-1.74-9.41-5.83-40.34-20.77-47.7-25.76C56.72,164.45,49.48,146.81,53,133.49c1.48-5.62,4.64-9.58,8.73-11.64l21.57-9.2a30,30,0,0,1,.63-11.14c1.48-5.63,4.64-9.58,8.74-11.64Z" transform="translate(0.01 -0.14)" fill="#009245"/><path d="M232.15,34.22V91.59L83.22,163.12a14.86,14.86,0,0,1-9.12,1.71,23,23,0,0,1-10.4-4.22C51.88,152.34,45,135,48.32,122c1.41-5.52,4.41-9.4,8.3-11.42L232,33.34l.06.23A2.81,2.81,0,0,1,232.15,34.22Z" transform="translate(0.01 -0.14)" fill="#f2f2f2"/><path d="M83.12,162.91h0c-5.53,3.11-12.56,2.19-19.28-2.5C52.11,152.21,45.25,135,48.55,122c1.35-5.3,4.17-9.2,8.16-11.27l175.37-77.2a2.15,2.15,0,0,0-.14-.45L56.51,110.35c-4.12,2.14-7,6.14-8.41,11.57-3.34,13.13,3.6,30.57,15.47,38.87A22,22,0,0,0,76,165.2a14.7,14.7,0,0,0,7.28-1.87L232.15,91.85v-.52Z" transform="translate(0.01 -0.14)" fill="#333"/><path d="M232.15,40.51v10.6L73.27,133.2c-4.06,2.44-7,6.74-8,12.61a30.24,30.24,0,0,0,.41,11.53c-7.37-9.05-11-21.86-8.42-32.08,1.41-5.52,4.41-9.4,8.3-11.42Z" transform="translate(0.01 -0.14)" fill="#7ac943" opacity="0.2"/><path d="M232.15,40.51V91.59L83.22,163.12a14.86,14.86,0,0,1-9.12,1.71c-.48-.29-1-.61-1.44-.94-11.82-8.27-18.7-25.56-15.38-38.63,1.41-5.52,4.41-9.4,8.3-11.42Z" transform="translate(0.01 -0.14)" fill="#7ac943" opacity="0.2"/><ellipse cx="69.72" cy="136.95" rx="20.24" ry="29.47" transform="translate(-52.03 43.05) rotate(-25.42)" fill="#f2f2f2" stroke="#333" stroke-miterlimit="10" stroke-width="0.92"/><path d="M51.88,125.52c.9-4.18,2.92-7.14,5.62-8.75h0l.09,0,.12-.07,1.75-1a10.14,10.14,0,0,1,1-.58h0c4-1.91,9.22-1.1,14.44,2.82,9.26,7,15,21.09,12.74,31.55-.84,3.9-2.65,6.73-5.07,8.4v0l-.63.36-.13.08-2.23,1.28h0c-4,2.27-9.53,1.58-15-2.53C55.36,150.11,49.65,136,51.88,125.52Z" transform="translate(0.01 -0.14)" fill="#8c6239" stroke="#333" stroke-miterlimit="10" stroke-width="0.46"/><ellipse cx="68.95" cy="137.88" rx="15.29" ry="24.12" transform="translate(-52.48 42.78) rotate(-25.41)" fill="#c69c6d"/><g clip-path="url(#clip-path)"><ellipse cx="68.95" cy="137.88" rx="15.29" ry="24.12" transform="translate(-52.48 42.78) rotate(-25.41)" fill="#7ac943" opacity="0.5"/><ellipse cx="70.77" cy="136.55" rx="13.36" ry="21.47" transform="translate(-51.73 43.43) rotate(-25.41)" fill="none" stroke="#333" stroke-miterlimit="10" stroke-width="0.46" stroke-dasharray="0.37 1.84"/><ellipse cx="68.62" cy="137.81" rx="13.36" ry="21.47" transform="translate(-52.48 42.63) rotate(-25.41)" fill="none" stroke="#333" stroke-miterlimit="10" stroke-width="0.46" stroke-dasharray="0.37 1.84"/><ellipse cx="72.92" cy="135.29" rx="13.36" ry="21.47" transform="translate(-50.98 44.23) rotate(-25.41)" fill="none" stroke="#333" stroke-miterlimit="10" stroke-width="0.46" stroke-dasharray="0.37 1.84"/><ellipse cx="75.08" cy="134.03" rx="13.36" ry="21.47" transform="translate(-50.23 45.03) rotate(-25.41)" fill="none" stroke="#333" stroke-miterlimit="10" stroke-width="0.46" stroke-dasharray="0.37 1.84"/><ellipse cx="77.23" cy="132.76" rx="13.36" ry="21.47" transform="translate(-49.48 45.84) rotate(-25.41)" fill="none" stroke="#333" stroke-miterlimit="10" stroke-width="0.46" stroke-dasharray="0.37 1.84"/><ellipse cx="79.38" cy="131.5" rx="13.36" ry="21.47" transform="translate(-48.73 46.64) rotate(-25.41)" fill="none" stroke="#333" stroke-miterlimit="10" stroke-width="0.46" stroke-dasharray="0.37 1.84"/><ellipse cx="81.53" cy="130.24" rx="13.36" ry="21.47" transform="translate(-47.98 47.44) rotate(-25.41)" fill="none" stroke="#333" stroke-miterlimit="10" stroke-width="0.46" stroke-dasharray="0.37 1.84"/><ellipse cx="83.69" cy="128.98" rx="13.36" ry="21.47" transform="translate(-47.23 48.24) rotate(-25.41)" fill="none" stroke="#333" stroke-miterlimit="10" stroke-width="0.46" stroke-dasharray="0.37 1.84"/><ellipse cx="85.84" cy="127.72" rx="13.36" ry="21.47" transform="translate(-46.48 49.04) rotate(-25.41)" fill="none" stroke="#333" stroke-miterlimit="10" stroke-width="0.46" stroke-dasharray="0.37 1.84"/><ellipse cx="87.99" cy="126.46" rx="13.36" ry="21.47" transform="translate(-45.74 49.84) rotate(-25.41)" fill="none" stroke="#333" stroke-miterlimit="10" stroke-width="0.46" stroke-dasharray="0.37 1.84"/><ellipse cx="90.14" cy="125.19" rx="13.36" ry="21.47" transform="translate(-44.99 50.64) rotate(-25.41)" fill="none" stroke="#333" stroke-miterlimit="10" stroke-width="0.46" stroke-dasharray="0.37 1.84"/></g><ellipse cx="68.62" cy="137.81" rx="13.36" ry="21.47" transform="translate(-52.48 42.63) rotate(-25.41)" fill="none" stroke="#333" stroke-miterlimit="10" stroke-width="0.46"/><path d="M94.73,170.18,208,117.37a20.91,20.91,0,0,1,6.49-1.38c5-.31,8.82.94,8.59,2.78-.09.72-.8,1.43-1.92,2L102.77,178.25A36.86,36.86,0,0,0,94.73,170.18Z" transform="translate(0.01 -0.14)" fill="#f2f2f2"/><path d="M261,58.86v59.69l-133.44,69.3a14.89,14.89,0,0,1-9.07,2A23,23,0,0,1,108,186c-12.08-7.89-19.49-25-16.58-38.13,1.23-5.56,4.11-9.53,7.94-11.67Z" transform="translate(0.01 -0.14)" fill="#f2f2f2"/><path d="M127.57,188.61h0c-5.43,3.28-12.48,2.58-19.34-1.89-12-7.84-19.37-24.83-16.48-37.89,1.19-5.34,3.88-9.32,7.81-11.52l161.56-77a1.9,1.9,0,0,0-.15-.44L99.33,136.91c-4,2.27-6.83,6.36-8,11.83C88.36,162,95.84,179.18,108,187.1a22,22,0,0,0,12.6,4,14.67,14.67,0,0,0,7.22-2.09L261,119.83l0-.52Z" transform="translate(0.01 -0.14)" fill="#333"/><path d="M261,66.19V77.88L116.69,158.26c-4,2.56-6.76,7-7.59,12.85a30.36,30.36,0,0,0,.77,11.51c-7.65-8.81-11.69-21.5-9.41-31.8,1.23-5.56,4.11-9.53,7.93-11.67Z" transform="translate(0.01 -0.14)" fill="#7ac943" opacity="0.2"/><path d="M261,66.19v52.36l-133.44,69.3a14.89,14.89,0,0,1-9.07,2q-.73-.42-1.47-.9c-12.07-7.89-19.48-25-16.57-38.13,1.23-5.56,4.11-9.53,7.93-11.67Z" transform="translate(0.01 -0.14)" fill="#7ac943" opacity="0.2"/><ellipse cx="113.26" cy="162.11" rx="20.24" ry="29.47" transform="translate(-61.59 69.59) rotate(-27.21)" fill="#f2f2f2" stroke="#333" stroke-miterlimit="10" stroke-width="0.92"/><path d="M95.07,151.25c.76-4.2,2.69-7.23,5.34-8.92h0l.09-.05.11-.07,1.72-1.05a9.12,9.12,0,0,1,1-.6h0c3.91-2,9.17-1.39,14.51,2.37,9.48,6.66,15.63,20.6,13.72,31.13-.71,3.92-2.43,6.81-4.8,8.56l0,0-.62.39-.14.08-2.18,1.35h0c-4,2.39-9.47,1.87-15.06-2.06C99.31,175.72,93.17,161.78,95.07,151.25Z" transform="translate(0.01 -0.14)" fill="#8c6239" stroke="#333" stroke-miterlimit="10" stroke-width="0.46"/><ellipse cx="112.52" cy="163.07" rx="15.29" ry="24.12" transform="translate(-62.08 69.32) rotate(-27.2)" fill="#c69c6d"/><g clip-path="url(#clip-path-2)"><ellipse cx="112.52" cy="163.07" rx="15.29" ry="24.12" transform="translate(-62.08 69.32) rotate(-27.2)" fill="#7ac943" opacity="0.5"/><ellipse cx="114.29" cy="161.68" rx="13.36" ry="21.47" transform="translate(-61.25 69.97) rotate(-27.2)" fill="none" stroke="#333" stroke-miterlimit="10" stroke-width="0.46" stroke-dasharray="0.37 1.84"/><ellipse cx="112.18" cy="163.01" rx="13.36" ry="21.47" transform="translate(-62.09 69.16) rotate(-27.2)" fill="none" stroke="#333" stroke-miterlimit="10" stroke-width="0.46" stroke-dasharray="0.37 1.84"/><ellipse cx="116.4" cy="160.36" rx="13.36" ry="21.47" transform="translate(-60.41 70.79) rotate(-27.2)" fill="none" stroke="#333" stroke-miterlimit="10" stroke-width="0.46" stroke-dasharray="0.37 1.84"/><ellipse cx="118.52" cy="159.03" rx="13.36" ry="21.47" transform="translate(-59.57 71.61) rotate(-27.2)" fill="none" stroke="#333" stroke-miterlimit="10" stroke-width="0.46" stroke-dasharray="0.37 1.84"/><ellipse cx="120.63" cy="157.7" rx="13.36" ry="21.47" transform="translate(-58.73 72.43) rotate(-27.2)" fill="none" stroke="#333" stroke-miterlimit="10" stroke-width="0.46" stroke-dasharray="0.37 1.84"/><ellipse cx="122.74" cy="156.37" rx="13.36" ry="21.47" transform="translate(-57.89 73.25) rotate(-27.2)" fill="none" stroke="#333" stroke-miterlimit="10" stroke-width="0.46" stroke-dasharray="0.37 1.84"/><ellipse cx="124.85" cy="155.04" rx="13.36" ry="21.47" transform="translate(-57.05 74.07) rotate(-27.2)" fill="none" stroke="#333" stroke-miterlimit="10" stroke-width="0.46" stroke-dasharray="0.37 1.84"/><ellipse cx="126.96" cy="153.71" rx="13.36" ry="21.47" transform="translate(-56.21 74.89) rotate(-27.2)" fill="none" stroke="#333" stroke-miterlimit="10" stroke-width="0.46" stroke-dasharray="0.37 1.84"/><ellipse cx="129.08" cy="152.39" rx="13.36" ry="21.47" transform="translate(-55.37 75.7) rotate(-27.2)" fill="none" stroke="#333" stroke-miterlimit="10" stroke-width="0.46" stroke-dasharray="0.37 1.84"/><ellipse cx="131.19" cy="151.06" rx="13.36" ry="21.47" transform="translate(-54.53 76.52) rotate(-27.2)" fill="none" stroke="#333" stroke-miterlimit="10" stroke-width="0.46" stroke-dasharray="0.37 1.84"/><ellipse cx="133.3" cy="149.73" rx="13.36" ry="21.47" transform="translate(-53.69 77.34) rotate(-27.2)" fill="none" stroke="#333" stroke-miterlimit="10" stroke-width="0.46" stroke-dasharray="0.37 1.84"/></g><ellipse cx="112.18" cy="163.01" rx="13.36" ry="21.47" transform="translate(-62.09 69.16) rotate(-27.2)" fill="none" stroke="#333" stroke-miterlimit="10" stroke-width="0.46"/><path d="M123.12,137.91,236.37,85.1a20.91,20.91,0,0,1,6.49-1.38c5-.31,8.82.94,8.59,2.78-.09.72-.8,1.43-1.92,2L131.16,146A36.86,36.86,0,0,0,123.12,137.91Z" transform="translate(0.01 -0.14)" fill="#f2f2f2"/><path d="M261,73.72v3.1c-1.08-.29-1.68-.75-1.63-1.35S260,74.31,261,73.72Z" transform="translate(0.01 -0.14)" fill="#f2f2f2"/><path d="M95.07,151.25c.76-4.2,2.69-7.23,5.34-8.92h0l.09-.05.11-.07,1.72-1.05a9.12,9.12,0,0,1,1-.6h0c3.91-2,9.17-1.39,14.51,2.37,9.48,6.66,15.63,20.6,13.72,31.13-.71,3.92-2.43,6.81-4.8,8.56l0,0-.62.39-.14.08-2.18,1.35h0c-4,2.39-9.47,1.87-15.06-2.06C99.31,175.72,93.17,161.78,95.07,151.25Z" transform="translate(0.01 -0.14)" fill="none" stroke="#333" stroke-miterlimit="10" stroke-width="0.46"/><path d="M164.72,142a77.42,77.42,0,0,0-19.61-9.11,1.83,1.83,0,0,0-1.84.34,1,1,0,0,0,.08,1.49,40.59,40.59,0,0,1,10.22,20.39l2.58-1.34a40.47,40.47,0,0,0-7.21-16.75A68.93,68.93,0,0,1,166.4,147.2,1.15,1.15,0,0,0,168,147a2,2,0,0,0,.62-1.84,40.59,40.59,0,0,0-10.71-19.7l-2.61,1.3A40.59,40.59,0,0,1,164.72,142Z" transform="translate(0.01 -0.14)" fill="#7ac943" opacity="0.5"/><path d="M174.28,126.49a7.38,7.38,0,0,0-6.66,3.76c.88.52,1.72,1.06,2.55,1.6q1.71-2.53,3.9-2.52a5.12,5.12,0,0,1,3.69,1.85c0,.09.09.18.13.28a6.37,6.37,0,0,0-4.75.49,7.26,7.26,0,0,0-3.37,8.74c1.09,3.28,4.07,4.77,7.26,3.12A8.76,8.76,0,0,0,180.7,140c.09.43.18.86.25,1.3l2.59-1.33a40.36,40.36,0,0,0-3.21-10.18C179.83,128.67,177.3,126.6,174.28,126.49Zm2.17,14.41a2.76,2.76,0,0,1-4.1-1.54,4.06,4.06,0,0,1,2-4.74,3,3,0,0,1,4.35,1.45A4.33,4.33,0,0,1,176.45,140.9Z" transform="translate(0.01 -0.14)" fill="#7ac943" opacity="0.5"/><path d="M179.23,118.47l-2.58,1.33a40.73,40.73,0,0,1,7.76,14.28c.82,2.67,3.15,3.91,5.6,2.65l3.56-1.83c-.17-1-.38-2-.62-2.91l-3.56,1.84a1.63,1.63,0,0,1-2.39-1.08,41.39,41.39,0,0,0-3.67-8.44l5.39-2.78c-.49-.85-1-1.69-1.56-2.5l-5.4,2.78A40.68,40.68,0,0,0,179.23,118.47Z" transform="translate(0.01 -0.14)" fill="#7ac943" opacity="0.5"/><path d="M203.07,122a5.16,5.16,0,0,1-2.49,6,3.47,3.47,0,0,1-5-2.16,40.34,40.34,0,0,0-4.53-8.84l-2.58,1.33a40.59,40.59,0,0,1,4.52,8.85c1.38,3.74,4.7,5.53,8.2,3.73s5.84-6.52,4.46-10.26a40.16,40.16,0,0,0-4.52-8.85l-2.58,1.34A40.74,40.74,0,0,1,203.07,122Z" transform="translate(0.01 -0.14)" fill="#7ac943" opacity="0.5"/><path d="M206.13,109.86l-.29-.42-2.58,1.33a40.44,40.44,0,0,1,6.35,15.64l2.59-1.33a40.81,40.81,0,0,0-3.64-11,2.54,2.54,0,0,1,1.05-3.44l2.75-1.42c-.49-.85-1-1.68-1.57-2.49-.92.47-1.84.94-2.75,1.42A5,5,0,0,0,206.13,109.86Z" transform="translate(0.01 -0.14)" fill="#7ac943" opacity="0.5"/><path d="M224.65,115.73a4.67,4.67,0,0,1-4.64,0q4-5.78,7.57-11.34a1.45,1.45,0,0,0-.57-2.08,9.47,9.47,0,0,0-8.43.06c-4.31,2.21-5.4,7.24-3.56,11.78s5.93,6.76,10.23,4.53,7.21-8,5.33-12.55L228,107.41C229.25,110.43,227.51,114.25,224.65,115.73Zm-7-3a6.15,6.15,0,0,1,2.56-8,6,6,0,0,1,4-.53c-1.92,3.08-3.94,6.22-6.09,9.41A7,7,0,0,1,217.61,112.77Z" transform="translate(0.01 -0.14)" fill="#7ac943" opacity="0.5"/><path d="M224.66,94a40.53,40.53,0,0,1,9.51,19.73l2.59-1.33a40.66,40.66,0,0,0-3.31-10.32l5.62-2.89c-.42-.89-.88-1.76-1.36-2.61l-5.61,2.9a40.88,40.88,0,0,0-4.66-6.59l8-4.11c-.64-.74-1.32-1.47-2-2.17l-8.23,4.24A1.91,1.91,0,0,0,224.66,94Z" transform="translate(0.01 -0.14)" fill="#7ac943" opacity="0.5"/><path d="M245.5,107.91l2.59-1.33A40.63,40.63,0,0,0,236.73,84.9l-2.58,1.33A40.54,40.54,0,0,1,245.5,107.91Z" transform="translate(0.01 -0.14)" fill="#7ac943" opacity="0.5"/><path d="M260,90.94c1.24,3-.5,6.84-3.36,8.31a4.65,4.65,0,0,1-4.64,0q4-5.78,7.58-11.34a1.44,1.44,0,0,0-.58-2.08,9.47,9.47,0,0,0-8.43.07c-4.31,2.21-5.4,7.24-3.55,11.78s5.93,6.75,10.23,4.53a10.91,10.91,0,0,0,3.8-3.37v-8.4Zm-10.4,5.36a6.17,6.17,0,0,1,2.56-8,6,6,0,0,1,4-.52q-2.88,4.61-6.1,9.4A7.55,7.55,0,0,1,249.56,96.3Z" transform="translate(0.01 -0.14)" fill="#7ac943" opacity="0.5"/><path d="M261,81.27v4a6.48,6.48,0,0,1-1.85-1.91c-.36-.57-.73-1.13-1.13-1.68l2.39-1.23Z" transform="translate(0.01 -0.14)" fill="#7ac943" opacity="0.5"/><path d="M51.88,125.52c.9-4.18,2.92-7.14,5.62-8.75h0l.09,0,.12-.07,1.75-1a10.14,10.14,0,0,1,1-.58h0c4-1.91,9.22-1.1,14.44,2.82,9.26,7,15,21.09,12.74,31.55-.84,3.9-2.65,6.73-5.07,8.4v0l-.63.36-.13.08-2.23,1.28h0c-4,2.27-9.53,1.58-15-2.53C55.36,150.11,49.65,136,51.88,125.52Z" transform="translate(0.01 -0.14)" fill="none" stroke="#333" stroke-miterlimit="10" stroke-width="0.46"/><path d="M261,3.14V60.51L112.08,132a14.86,14.86,0,0,1-9.12,1.71,23,23,0,0,1-10.4-4.22C80.74,121.26,73.86,104,77.18,90.9c1.41-5.52,4.41-9.4,8.3-11.42L260.88,2.26l.06.23A2.81,2.81,0,0,1,261,3.14Z" transform="translate(0.01 -0.14)" fill="#f2f2f2"/><path d="M112,131.83h0c-5.53,3.11-12.56,2.19-19.28-2.5C81,121.13,74.11,103.92,77.41,91c1.35-5.3,4.17-9.2,8.16-11.27L260.94,2.49A2.15,2.15,0,0,0,260.8,2L85.37,79.27c-4.12,2.14-7,6.14-8.41,11.57-3.34,13.13,3.6,30.57,15.47,38.87a22,22,0,0,0,12.47,4.41,14.7,14.7,0,0,0,7.28-1.87L261,60.77v-.52Z" transform="translate(0.01 -0.14)" fill="#333"/><path d="M261,9.43V20L102.13,102.12c-4.06,2.44-7,6.74-8,12.61a30.24,30.24,0,0,0,.41,11.53c-7.37-9.05-11-21.86-8.42-32.08,1.41-5.52,4.41-9.4,8.3-11.42Z" transform="translate(0.01 -0.14)" fill="#7ac943" opacity="0.2"/><path d="M261,9.43V60.51L112.08,132a14.86,14.86,0,0,1-9.12,1.71c-.48-.29-1-.61-1.44-.94-11.82-8.27-18.7-25.56-15.38-38.63,1.41-5.52,4.41-9.4,8.3-11.42Z" transform="translate(0.01 -0.14)" fill="#7ac943" opacity="0.2"/><ellipse cx="98.58" cy="105.87" rx="20.24" ry="29.47" transform="translate(-35.89 52.43) rotate(-25.42)" fill="#f2f2f2" stroke="#333" stroke-miterlimit="10" stroke-width="0.92"/><path d="M80.74,94.44c.9-4.18,2.92-7.14,5.62-8.75h0l.09,0,.12-.07,1.75-1a10,10,0,0,1,1-.57h0c4-1.91,9.22-1.1,14.44,2.82,9.26,7,15,21.09,12.74,31.55-.83,3.89-2.65,6.73-5.07,8.4v0l-.63.36-.13.08-2.23,1.28h0c-4,2.27-9.53,1.58-15-2.53C84.22,119,78.51,104.91,80.74,94.44Z" transform="translate(0.01 -0.14)" fill="#8c6239" stroke="#333" stroke-miterlimit="10" stroke-width="0.46"/><ellipse cx="97.81" cy="106.8" rx="15.29" ry="24.12" transform="translate(-36.35 52.16) rotate(-25.41)" fill="#c69c6d"/><g clip-path="url(#clip-path-3)"><ellipse cx="97.81" cy="106.8" rx="15.29" ry="24.12" transform="translate(-36.35 52.16) rotate(-25.41)" fill="#7ac943" opacity="0.5"/><ellipse cx="99.63" cy="105.47" rx="13.36" ry="21.47" transform="translate(-35.61 52.81) rotate(-25.41)" fill="none" stroke="#333" stroke-miterlimit="10" stroke-width="0.46" stroke-dasharray="0.37 1.84"/><ellipse cx="97.48" cy="106.73" rx="13.36" ry="21.47" transform="translate(-36.35 52.01) rotate(-25.41)" fill="none" stroke="#333" stroke-miterlimit="10" stroke-width="0.46" stroke-dasharray="0.37 1.84"/><ellipse cx="101.78" cy="104.21" rx="13.36" ry="21.47" transform="translate(-34.86 53.61) rotate(-25.41)" fill="none" stroke="#333" stroke-miterlimit="10" stroke-width="0.46" stroke-dasharray="0.37 1.84"/><ellipse cx="103.94" cy="102.95" rx="13.36" ry="21.47" transform="translate(-34.11 54.41) rotate(-25.41)" fill="none" stroke="#333" stroke-miterlimit="10" stroke-width="0.46" stroke-dasharray="0.37 1.84"/><ellipse cx="106.09" cy="101.68" rx="13.36" ry="21.47" transform="translate(-33.36 55.21) rotate(-25.41)" fill="none" stroke="#333" stroke-miterlimit="10" stroke-width="0.46" stroke-dasharray="0.37 1.84"/><ellipse cx="108.24" cy="100.42" rx="13.36" ry="21.47" transform="translate(-32.61 56.01) rotate(-25.41)" fill="none" stroke="#333" stroke-miterlimit="10" stroke-width="0.46" stroke-dasharray="0.37 1.84"/><ellipse cx="110.39" cy="99.16" rx="13.36" ry="21.47" transform="translate(-31.86 56.81) rotate(-25.41)" fill="none" stroke="#333" stroke-miterlimit="10" stroke-width="0.46" stroke-dasharray="0.37 1.84"/><ellipse cx="112.55" cy="97.9" rx="13.36" ry="21.47" transform="translate(-31.11 57.62) rotate(-25.41)" fill="none" stroke="#333" stroke-miterlimit="10" stroke-width="0.46" stroke-dasharray="0.37 1.84"/><ellipse cx="114.7" cy="96.64" rx="13.36" ry="21.47" transform="translate(-30.36 58.42) rotate(-25.41)" fill="none" stroke="#333" stroke-miterlimit="10" stroke-width="0.46" stroke-dasharray="0.37 1.84"/><ellipse cx="116.85" cy="95.37" rx="13.36" ry="21.47" transform="translate(-29.61 59.22) rotate(-25.41)" fill="none" stroke="#333" stroke-miterlimit="10" stroke-width="0.46" stroke-dasharray="0.37 1.84"/><ellipse cx="119" cy="94.11" rx="13.36" ry="21.47" transform="translate(-28.86 60.02) rotate(-25.41)" fill="none" stroke="#333" stroke-miterlimit="10" stroke-width="0.46" stroke-dasharray="0.37 1.84"/></g><ellipse cx="97.48" cy="106.73" rx="13.36" ry="21.47" transform="translate(-36.35 52.01) rotate(-25.41)" fill="none" stroke="#333" stroke-miterlimit="10" stroke-width="0.46"/><path d="M109.19,82,224,32.73a21.12,21.12,0,0,1,6.53-1.17c5-.15,8.79,1.21,8.5,3.05-.12.71-.84,1.4-2,2L117,90.3A36.79,36.79,0,0,0,109.19,82Z" transform="translate(0.01 -0.14)" fill="#f2f2f2"/><path d="M261,16.71V25c-.83.16-1.69.3-2.58.41-6.31.83-11.28.15-11.09-1.53.08-.66.93-1.37,2.33-2Z" transform="translate(0.01 -0.14)" fill="#f2f2f2"/><path d="M80.74,94.44c.9-4.18,2.92-7.14,5.62-8.75h0l.09,0,.12-.07,1.75-1a10,10,0,0,1,1-.57h0c4-1.91,9.22-1.1,14.44,2.82,9.26,7,15,21.09,12.74,31.55-.83,3.89-2.65,6.73-5.07,8.4v0l-.63.36-.13.08-2.23,1.28h0c-4,2.27-9.53,1.58-15-2.53C84.22,119,78.51,104.91,80.74,94.44Z" transform="translate(0.01 -0.14)" fill="none" stroke="#333" stroke-miterlimit="10" stroke-width="0.46"/><path d="M150.65,87.41a77.82,77.82,0,0,0-19.31-9.72,1.87,1.87,0,0,0-1.86.28,1,1,0,0,0,0,1.49,40.62,40.62,0,0,1,9.58,20.7l2.63-1.25a40.73,40.73,0,0,0-6.69-17,69.08,69.08,0,0,1,17.13,10.69,1.16,1.16,0,0,0,1.56-.13,2,2,0,0,0,.67-1.82,40.45,40.45,0,0,0-10.08-20l-2.65,1.22A40.74,40.74,0,0,1,150.65,87.41Z" transform="translate(0.01 -0.14)" fill="#7ac943" opacity="0.5"/><path d="M160.69,72.17a7.36,7.36,0,0,0-6.77,3.54c.85.55,1.68,1.11,2.49,1.69q1.78-2.49,4-2.41A5.15,5.15,0,0,1,164,77l.12.28a6.4,6.4,0,0,0-4.76.35,7.25,7.25,0,0,0-3.64,8.63c1,3.31,3.92,4.89,7.16,3.35a8.75,8.75,0,0,0,3.78-3.67c.08.43.15.87.21,1.31L169.52,86a40.4,40.4,0,0,0-2.89-10.28C166.17,74.51,163.7,72.37,160.69,72.17Zm1.71,14.47a2.75,2.75,0,0,1-4-1.68,4.05,4.05,0,0,1,2.18-4.67,3,3,0,0,1,4.29,1.59A4.32,4.32,0,0,1,162.4,86.64Z" transform="translate(0.01 -0.14)" fill="#7ac943" opacity="0.5"/><path d="M165.89,64.3l-2.63,1.25a40.71,40.71,0,0,1,7.32,14.52c.73,2.69,3,4,5.51,2.83l3.61-1.73c-.13-1-.31-2-.52-2.92L175.57,80a1.64,1.64,0,0,1-2.37-1.15,41,41,0,0,0-3.4-8.55l5.48-2.62c-.46-.86-1-1.71-1.48-2.54l-5.49,2.62A38.58,38.58,0,0,0,165.89,64.3Z" transform="translate(0.01 -0.14)" fill="#7ac943" opacity="0.5"/><path d="M189.6,68.62a5.14,5.14,0,0,1-2.68,5.94c-2.1,1-4.18-.08-4.93-2.31a40.38,40.38,0,0,0-4.24-9l-2.62,1.25a40.83,40.83,0,0,1,4.24,9c1.26,3.78,4.52,5.68,8.08,4s6-6.33,4.78-10.11a40.55,40.55,0,0,0-4.24-9l-2.63,1.25A40.1,40.1,0,0,1,189.6,68.62Z" transform="translate(0.01 -0.14)" fill="#7ac943" opacity="0.5"/><path d="M193,56.54l-.27-.43-2.63,1.25a39.41,39.41,0,0,1,2.58,4.73A41,41,0,0,1,196,73.19l2.62-1.25a40.6,40.6,0,0,0-3.29-11.1,2.54,2.54,0,0,1,1.15-3.4l2.8-1.34c-.46-.86-1-1.71-1.49-2.54L195,54.9A4.88,4.88,0,0,0,193,56.54Z" transform="translate(0.01 -0.14)" fill="#7ac943" opacity="0.5"/><path d="M211.37,63a4.65,4.65,0,0,1-4.64-.2c2.82-3.76,5.45-7.46,7.93-11.09a1.46,1.46,0,0,0-.51-2.1,9.48,9.48,0,0,0-8.43-.2c-4.38,2.08-5.62,7.07-3.92,11.67s5.71,6.93,10.08,4.84,7.46-7.79,5.72-12.38L215,54.77C216.13,57.83,214.27,61.6,211.37,63Zm-7-3.17a6.15,6.15,0,0,1,2.81-7.89,6.07,6.07,0,0,1,4-.41q-3,4.53-6.38,9.22A7,7,0,0,1,204.42,59.81Z" transform="translate(0.01 -0.14)" fill="#7ac943" opacity="0.5"/><path d="M212.06,41.28a40.72,40.72,0,0,1,8.89,20l2.63-1.25a40.88,40.88,0,0,0-3-10.41l5.7-2.72c-.4-.9-.82-1.78-1.28-2.65L219.32,47a40.42,40.42,0,0,0-4.45-6.73L223,36.41c-.62-.77-1.28-1.51-2-2.24l-8.35,4A1.89,1.89,0,0,0,212.06,41.28Z" transform="translate(0.01 -0.14)" fill="#7ac943" opacity="0.5"/><path d="M232.46,55.82l2.62-1.25a40.61,40.61,0,0,0-10.67-22l-2.62,1.25A40.61,40.61,0,0,1,232.46,55.82Z" transform="translate(0.01 -0.14)" fill="#7ac943" opacity="0.5"/><path d="M247.43,39.31c1.16,3-.7,6.82-3.61,8.2a4.66,4.66,0,0,1-4.63-.19q4.22-5.66,7.92-11.1a1.49,1.49,0,0,0,.22-1.16,1.43,1.43,0,0,0-.73-.93,9.44,9.44,0,0,0-8.43-.21C233.8,36,232.55,41,234.25,45.59s5.72,6.93,10.09,4.84,7.45-7.79,5.72-12.37Zm-10.55,5a6.15,6.15,0,0,1,2.81-7.89,6,6,0,0,1,4-.4c-2,3-4.13,6.09-6.38,9.21A7,7,0,0,1,236.88,44.34Z" transform="translate(0.01 -0.14)" fill="#7ac943" opacity="0.5"/><path d="M261,31l-1.44,2.21,1.44.22v2.9l-3.18-.52c-.89,1.33-1.81,2.66-2.76,4a4.73,4.73,0,0,0-.89,3.5c.14.67.25,1.34.35,2l-2.43,1.15c-.09-.67-.21-1.34-.34-2a8.48,8.48,0,0,1,1.36-6.26c.64-.95,1.28-1.9,1.9-2.84L251.87,35a6.88,6.88,0,0,1-5-3.3c-.35-.58-.7-1.15-1.08-1.72l2.43-1.15c.37.56.73,1.13,1.07,1.71a3.84,3.84,0,0,0,2.89,1.76q2.28.27,4.5.57,1.59-2.49,3.09-4.93a3,3,0,0,0,.13-3.2q-.35-.57-.72-1.14l1.82-.86Z" transform="translate(0.01 -0.14)" fill="#7ac943" opacity="0.5"/><text transform="translate(36.78 239.62)" font-size="21" fill="#4d4d4d" font-family="MontserratAlternates-SemiBold, Montserrat Alternates" font-weight="700">Natu<tspan x="53.91" y="0" letter-spacing="-0.01em">r</tspan><tspan x="62.52" y="0">eF</tspan><tspan x="88.37" y="0" letter-spacing="-0.01em">l</tspan><tspan x="95.21" y="0" letter-spacing="-0.01em">e</tspan><tspan x="107.94" y="0" letter-spacing="0em">x </tspan><tspan x="125.77" y="0" letter-spacing="-0.02em">C</tspan><tspan x="140.61" y="0">el</tspan><tspan x="160.71" y="0" letter-spacing="-0.01em">l</tspan><tspan x="167.56" y="0">o</tspan></text><path d="M261,117.67v2.18L127.43,189.18a15.34,15.34,0,0,1-7.61,2.2h-.54a23.31,23.31,0,0,1-12.6-4.18c-8.39-5.48-14.82-15.34-17-25.94l-6.65,3.2a15.5,15.5,0,0,1-7.68,2,23,23,0,0,1-13-4.58c-12.16-8.5-19.26-26.38-15.83-39.85,1.44-5.69,4.51-9.9,8.88-12.17l19.27-8.48a30.52,30.52,0,0,1,.71-10.43c1.44-5.69,4.52-9.9,8.88-12.17L260.34,1.24a3,3,0,0,1,.6,1.25v0L261,3l-1.58.68-.2.08h0L85.08,80.42c-3.83,2-6.58,5.79-7.89,11a29.43,29.43,0,0,0-.6,10.45l.08.68-20.46,9c-3.82,2-6.57,5.79-7.88,11-3.26,12.79,3.52,29.79,15.1,37.89,6.51,4.55,13.49,5.46,18.77,2.49l8.89-4.27.21,1.2c1.79,10.4,8.22,20.57,16.39,25.91a21.25,21.25,0,0,0,12.07,3.87,13.76,13.76,0,0,0,6.77-2Z" transform="translate(0.01 -0.14)" fill="#333"/></svg>