<svg id="Layer_1" data-name="Layer 1" xmlns="http://www.w3.org/2000/svg" xmlns:xlink="http://www.w3.org/1999/xlink" viewBox="0 0 261.12 260.72"><defs><style>.cls-1,.cls-12,.cls-13{fill:none;}.cls-2{fill:#99d570;}.cls-3{fill:#009245;}.cls-4,.cls-7{fill:#f2f2f2;}.cls-5{fill:#333;}.cls-11,.cls-6{fill:#7ac943;}.cls-6{opacity:0.2;}.cls-11,.cls-16,.cls-6{isolation:isolate;}.cls-12,.cls-13,.cls-7,.cls-8{stroke:#333;stroke-miterlimit:10;}.cls-7{stroke-width:0.92px;}.cls-8{fill:#8c6239;}.cls-12,.cls-13,.cls-8{stroke-width:0.46px;}.cls-9{fill:#c69c6d;}.cls-10{clip-path:url(#clip-path);}.cls-11{opacity:0.5;}.cls-12{stroke-dasharray:0.37 1.84;}.cls-14{clip-path:url(#clip-path-2);}.cls-15{clip-path:url(#clip-path-3);}.cls-17{fill:#4d4d4d;}</style><clipPath id="clip-path" transform="translate(-0.01 0)"><ellipse class="cls-1" cx="68.64" cy="137.66" rx="13.36" ry="21.47" transform="matrix(0.9, -0.43, 0.43, 0.9, -52.43, 42.77)"/></clipPath><clipPath id="clip-path-2" transform="translate(-0.01 0)"><ellipse class="cls-1" cx="112.2" cy="162.87" rx="13.36" ry="21.47" transform="translate(-62.04 69.3) rotate(-27.2)"/></clipPath><clipPath id="clip-path-3" transform="translate(-0.01 0)"><ellipse class="cls-1" cx="97.5" cy="106.59" rx="13.36" ry="21.47" transform="translate(-36.3 52.15) rotate(-25.41)"/></clipPath></defs><title>Nature Flex Cello Fixed</title><path class="cls-2" d="M261,3V257.72a3,3,0,0,1-3,3H3a3,3,0,0,1-3-3V3A3,3,0,0,1,3,0H258a3,3,0,0,1,2.93,2.35h0l.07.51Z" transform="translate(-0.01 0)"/><path class="cls-3" d="M261,19.33v116l-123.5,64.92c-5.51,3.29-13.07,2.95-20.64-1.74-9.41-5.83-40.34-20.77-47.7-25.76-12.44-8.44-19.68-26.08-16.16-39.4,1.48-5.62,4.64-9.58,8.73-11.64l21.57-9.2a30.07,30.07,0,0,1,.63-11.14c1.48-5.63,4.64-9.58,8.74-11.64Z" transform="translate(-0.01 0)"/><path class="cls-4" d="M232.16,34.08V91.45L83.23,163a14.84,14.84,0,0,1-9.12,1.71,23.07,23.07,0,0,1-10.4-4.22C51.89,152.2,45,134.86,48.33,121.86c1.41-5.52,4.41-9.4,8.3-11.42L232,33.2l.06.23A2.37,2.37,0,0,1,232.16,34.08Z" transform="translate(-0.01 0)"/><path class="cls-5" d="M83.13,162.77h0c-5.53,3.11-12.56,2.19-19.28-2.5-11.73-8.2-18.59-25.41-15.29-38.41,1.35-5.3,4.17-9.2,8.16-11.27l175.37-77.2a2.35,2.35,0,0,0-.14-.45L56.52,110.21c-4.12,2.14-7,6.14-8.41,11.57-3.34,13.13,3.6,30.57,15.47,38.87A21.92,21.92,0,0,0,76,165.06a14.7,14.7,0,0,0,7.28-1.87L232.16,91.71v-.52Z" transform="translate(-0.01 0)"/><path class="cls-6" d="M232.16,40.37V51L73.28,133.06c-4.06,2.44-7,6.74-8,12.61a30.24,30.24,0,0,0,.41,11.53c-7.37-9-11-21.86-8.42-32.08,1.41-5.52,4.41-9.4,8.3-11.42Z" transform="translate(-0.01 0)"/><path class="cls-6" d="M232.16,40.37V91.45L83.23,163a14.84,14.84,0,0,1-9.12,1.71c-.48-.29-1-.61-1.44-.94-11.82-8.27-18.7-25.56-15.38-38.63,1.41-5.52,4.41-9.4,8.3-11.42Z" transform="translate(-0.01 0)"/><ellipse class="cls-7" cx="69.73" cy="136.81" rx="20.24" ry="29.47" transform="translate(-51.99 43.18) rotate(-25.42)"/><path class="cls-8" d="M51.89,125.38c.9-4.18,2.92-7.14,5.62-8.75h.09l.12-.07,1.75-1a10,10,0,0,1,1-.58h0c4-1.91,9.22-1.1,14.44,2.82,9.26,7,15,21.09,12.74,31.55-.84,3.9-2.65,6.73-5.07,8.4h0l-.63.36-.13.08-2.23,1.28h0c-4,2.27-9.53,1.58-15-2.53C55.37,150,49.66,135.86,51.89,125.38Z" transform="translate(-0.01 0)"/><ellipse class="cls-9" cx="68.96" cy="137.74" rx="15.29" ry="24.12" transform="translate(-52.44 42.92) rotate(-25.41)"/><g class="cls-10"><ellipse class="cls-11" cx="68.96" cy="137.74" rx="15.29" ry="24.12" transform="translate(-52.44 42.92) rotate(-25.41)"/><ellipse class="cls-12" cx="70.79" cy="136.4" rx="13.36" ry="21.47" transform="translate(-51.69 43.57) rotate(-25.41)"/><ellipse class="cls-12" cx="68.64" cy="137.66" rx="13.36" ry="21.47" transform="translate(-52.44 42.77) rotate(-25.41)"/><ellipse class="cls-12" cx="72.94" cy="135.14" rx="13.36" ry="21.47" transform="translate(-50.94 44.37) rotate(-25.41)"/><ellipse class="cls-12" cx="75.1" cy="133.88" rx="13.36" ry="21.47" transform="translate(-50.19 45.18) rotate(-25.41)"/><ellipse class="cls-12" cx="77.25" cy="132.62" rx="13.36" ry="21.47" transform="translate(-49.44 45.97) rotate(-25.41)"/><ellipse class="cls-12" cx="79.4" cy="131.36" rx="13.36" ry="21.47" transform="translate(-48.69 46.78) rotate(-25.41)"/><ellipse class="cls-12" cx="81.55" cy="130.1" rx="13.36" ry="21.47" transform="matrix(0.9, -0.43, 0.43, 0.9, -47.94, 47.58)"/><ellipse class="cls-12" cx="83.71" cy="128.83" rx="13.36" ry="21.47" transform="translate(-47.19 48.38) rotate(-25.41)"/><ellipse class="cls-12" cx="85.86" cy="127.57" rx="13.36" ry="21.47" transform="translate(-46.44 49.18) rotate(-25.41)"/><ellipse class="cls-12" cx="88" cy="126.31" rx="13.36" ry="21.47" transform="matrix(0.9, -0.43, 0.43, 0.9, -45.7, 49.98)"/><ellipse class="cls-12" cx="90.15" cy="125.04" rx="13.36" ry="21.47" transform="translate(-44.94 50.78) rotate(-25.41)"/></g><ellipse class="cls-13" cx="68.64" cy="137.66" rx="13.36" ry="21.47" transform="matrix(0.9, -0.43, 0.43, 0.9, -52.44, 42.77)"/><path class="cls-4" d="M94.74,170,208,117.23a21,21,0,0,1,6.49-1.38c5-.31,8.82.94,8.59,2.78-.09.72-.8,1.43-1.92,2L102.78,178.11A37.07,37.07,0,0,0,94.74,170Z" transform="translate(-0.01 0)"/><path class="cls-4" d="M261,58.72v59.69l-133.44,69.3a14.84,14.84,0,0,1-9.07,2A23,23,0,0,1,108,185.86c-12.08-7.89-19.49-25-16.58-38.13,1.23-5.56,4.11-9.53,7.94-11.67Z" transform="translate(-0.01 0)"/><path class="cls-5" d="M127.58,188.47h0c-5.43,3.28-12.48,2.58-19.34-1.89-12-7.84-19.37-24.83-16.48-37.89,1.19-5.34,3.88-9.32,7.81-11.52l161.56-77a1.76,1.76,0,0,0-.15-.44l-161.64,77c-4,2.27-6.83,6.36-8,11.83C88.37,161.86,95.85,179,108,187a22,22,0,0,0,12.6,4,14.69,14.69,0,0,0,7.22-2.09L261,119.69v-.52Z" transform="translate(-0.01 0)"/><path class="cls-6" d="M261,66.05V77.74L116.7,158.12c-4,2.56-6.76,7-7.59,12.85a30.38,30.38,0,0,0,.77,11.51c-7.65-8.81-11.69-21.5-9.41-31.8,1.23-5.56,4.11-9.53,7.93-11.67Z" transform="translate(-0.01 0)"/><path class="cls-6" d="M261,66.05v52.36l-133.44,69.3a14.84,14.84,0,0,1-9.07,2q-.73-.42-1.47-.9c-12.07-7.89-19.48-25-16.57-38.13,1.23-5.56,4.11-9.53,7.93-11.67Z" transform="translate(-0.01 0)"/><ellipse class="cls-7" cx="113.26" cy="161.97" rx="20.24" ry="29.47" transform="translate(-61.54 69.71) rotate(-27.21)"/><path class="cls-8" d="M95.08,151.11c.76-4.2,2.69-7.23,5.34-8.92h0l.09-.05.11-.07,1.72-1a9.12,9.12,0,0,1,1-.6h0c3.91-2,9.17-1.39,14.51,2.37,9.48,6.66,15.63,20.6,13.72,31.13-.71,3.92-2.43,6.81-4.8,8.56h0l-.62.39L126,183l-2.18,1.35h0c-4,2.39-9.47,1.87-15.06-2.06C99.32,175.58,93.18,161.64,95.08,151.11Z" transform="translate(-0.01 0)"/><ellipse class="cls-9" cx="112.54" cy="162.92" rx="15.29" ry="24.12" transform="translate(-62.04 69.46) rotate(-27.2)"/><g class="cls-14"><ellipse class="cls-11" cx="112.54" cy="162.92" rx="15.29" ry="24.12" transform="translate(-62.04 69.46) rotate(-27.2)"/><ellipse class="cls-12" cx="114.3" cy="161.53" rx="13.36" ry="21.47" transform="translate(-61.2 70.11) rotate(-27.2)"/><ellipse class="cls-12" cx="112.2" cy="162.87" rx="13.36" ry="21.47" transform="translate(-62.05 69.3) rotate(-27.2)"/><ellipse class="cls-12" cx="116.42" cy="160.21" rx="13.36" ry="21.47" transform="translate(-60.37 70.93) rotate(-27.2)"/><ellipse class="cls-12" cx="118.54" cy="158.88" rx="13.36" ry="21.47" transform="translate(-59.52 71.75) rotate(-27.2)"/><ellipse class="cls-12" cx="120.64" cy="157.55" rx="13.36" ry="21.47" transform="translate(-58.69 72.57) rotate(-27.2)"/><ellipse class="cls-12" cx="122.75" cy="156.22" rx="13.36" ry="21.47" transform="translate(-57.85 73.39) rotate(-27.2)"/><ellipse class="cls-12" cx="124.86" cy="154.9" rx="13.36" ry="21.47" transform="translate(-57.01 74.2) rotate(-27.2)"/><ellipse class="cls-12" cx="126.97" cy="153.57" rx="13.36" ry="21.47" transform="translate(-56.17 75.02) rotate(-27.2)"/><ellipse class="cls-12" cx="129.09" cy="152.24" rx="13.36" ry="21.47" transform="translate(-55.32 75.84) rotate(-27.2)"/><ellipse class="cls-12" cx="131.2" cy="150.91" rx="13.36" ry="21.47" transform="translate(-54.48 76.66) rotate(-27.2)"/><ellipse class="cls-12" cx="133.31" cy="149.58" rx="13.36" ry="21.47" transform="translate(-53.64 77.48) rotate(-27.2)"/></g><ellipse class="cls-13" cx="112.2" cy="162.87" rx="13.36" ry="21.47" transform="translate(-62.05 69.3) rotate(-27.2)"/><path class="cls-4" d="M123.13,137.77,236.38,85a21,21,0,0,1,6.49-1.38c5-.31,8.82.94,8.59,2.78-.09.72-.8,1.43-1.92,2l-118.37,57.5A36.73,36.73,0,0,0,123.13,137.77Z" transform="translate(-0.01 0)"/><path class="cls-4" d="M261,73.58v3.1c-1.08-.29-1.68-.75-1.63-1.35S260,74.17,261,73.58Z" transform="translate(-0.01 0)"/><path class="cls-13" d="M95.08,151.11c.76-4.2,2.69-7.23,5.34-8.92h0l.09-.05.11-.07,1.72-1a9.12,9.12,0,0,1,1-.6h0c3.91-2,9.17-1.39,14.51,2.37,9.48,6.66,15.63,20.6,13.72,31.13-.71,3.92-2.43,6.81-4.8,8.56h0l-.62.39L126,183l-2.18,1.35h0c-4,2.39-9.47,1.87-15.06-2.06C99.32,175.58,93.18,161.64,95.08,151.11Z" transform="translate(-0.01 0)"/><path class="cls-11" d="M164.73,141.86a77.27,77.27,0,0,0-19.61-9.11,1.84,1.84,0,0,0-1.84.34,1,1,0,0,0,0,1.41l.08.08A40.59,40.59,0,0,1,153.58,155l2.58-1.34A40.44,40.44,0,0,0,149,136.88a69.11,69.11,0,0,1,17.46,10.18,1.15,1.15,0,0,0,1.6-.2,2,2,0,0,0,.62-1.84,40.59,40.59,0,0,0-10.71-19.7l-2.61,1.3A40.54,40.54,0,0,1,164.73,141.86Z" transform="translate(-0.01 0)"/><path class="cls-11" d="M174.29,126.35a7.38,7.38,0,0,0-6.66,3.76c.88.52,1.72,1.06,2.55,1.6q1.71-2.53,3.9-2.52a5.1,5.1,0,0,1,3.69,1.85c0,.09.09.18.13.28a6.38,6.38,0,0,0-4.75.49,7.26,7.26,0,0,0-3.37,8.74c1.09,3.28,4.07,4.77,7.26,3.12a8.72,8.72,0,0,0,3.67-3.81c.09.43.18.86.25,1.3l2.59-1.33a40.07,40.07,0,0,0-3.21-10.18C179.84,128.53,177.31,126.46,174.29,126.35Zm2.17,14.41a2.76,2.76,0,0,1-3.8-.88,2.8,2.8,0,0,1-.3-.66,4.06,4.06,0,0,1,2-4.74,3,3,0,0,1,4.12,1,2.38,2.38,0,0,1,.23.45A4.32,4.32,0,0,1,176.46,140.76Z" transform="translate(-0.01 0)"/><path class="cls-11" d="M179.24,118.33l-2.58,1.33a40.73,40.73,0,0,1,7.76,14.28c.82,2.67,3.15,3.91,5.6,2.65l3.56-1.83c-.17-1-.38-2-.62-2.91l-3.56,1.84a1.63,1.63,0,0,1-2.22-.63,1.44,1.44,0,0,1-.17-.45,41.88,41.88,0,0,0-3.67-8.44l5.39-2.78c-.49-.85-1-1.69-1.56-2.5l-5.4,2.78A41.23,41.23,0,0,0,179.24,118.33Z" transform="translate(-0.01 0)"/><path class="cls-11" d="M203.08,121.86a5.16,5.16,0,0,1-2.49,6,3.48,3.48,0,0,1-5-2.16,40.34,40.34,0,0,0-4.53-8.84l-2.58,1.33A40.82,40.82,0,0,1,193,127c1.38,3.74,4.7,5.53,8.2,3.73s5.84-6.52,4.46-10.26a39.73,39.73,0,0,0-4.52-8.85L198.56,113A40.89,40.89,0,0,1,203.08,121.86Z" transform="translate(-0.01 0)"/><path class="cls-11" d="M206.14,109.72l-.29-.42-2.58,1.33a40.47,40.47,0,0,1,6.35,15.64l2.59-1.33a40.64,40.64,0,0,0-3.64-11,2.55,2.55,0,0,1,1-3.44h0l2.75-1.42c-.49-.85-1-1.68-1.57-2.49-.92.47-1.84.94-2.75,1.42A5,5,0,0,0,206.14,109.72Z" transform="translate(-0.01 0)"/><path class="cls-11" d="M224.66,115.59a4.68,4.68,0,0,1-4.64,0q4-5.78,7.57-11.34a1.44,1.44,0,0,0-.44-2,.57.57,0,0,0-.13-.08,9.47,9.47,0,0,0-8.43.06c-4.31,2.21-5.4,7.24-3.56,11.78s5.93,6.76,10.23,4.53,7.21-8,5.33-12.55L228,107.27C229.26,110.29,227.52,114.11,224.66,115.59Zm-7-3a6.15,6.15,0,0,1,2.56-8,6,6,0,0,1,4-.53c-1.92,3.08-3.94,6.22-6.09,9.41a7.23,7.23,0,0,1-.51-.84Z" transform="translate(-0.01 0)"/><path class="cls-11" d="M224.67,93.86a40.57,40.57,0,0,1,9.51,19.73l2.59-1.33a40.77,40.77,0,0,0-3.31-10.32l5.62-2.89c-.42-.89-.88-1.76-1.36-2.61l-5.61,2.9a40.44,40.44,0,0,0-4.66-6.59l8-4.11c-.64-.74-1.32-1.47-2-2.17l-8.23,4.24a1.91,1.91,0,0,0-.55,3.15Z" transform="translate(-0.01 0)"/><path class="cls-11" d="M245.51,107.77l2.59-1.33a40.63,40.63,0,0,0-11.36-21.68l-2.58,1.33A40.54,40.54,0,0,1,245.51,107.77Z" transform="translate(-0.01 0)"/><path class="cls-11" d="M260,90.8c1.24,3-.5,6.84-3.36,8.31a4.63,4.63,0,0,1-4.64,0q4-5.77,7.58-11.34a1.44,1.44,0,0,0-.42-2l-.16-.09a9.47,9.47,0,0,0-8.43.07C246.27,88,245.18,93,247,97.54s5.93,6.75,10.23,4.53a10.89,10.89,0,0,0,3.8-3.37V90.3Zm-10.4,5.36a6.17,6.17,0,0,1,2.56-8,6,6,0,0,1,4-.52q-2.88,4.6-6.1,9.4a7.65,7.65,0,0,1-.5-.88Z" transform="translate(-0.01 0)"/><path class="cls-11" d="M261,81.13v4a6.48,6.48,0,0,1-1.85-1.91c-.36-.57-.73-1.13-1.13-1.68l2.39-1.23Z" transform="translate(-0.01 0)"/><path class="cls-13" d="M51.89,125.38c.9-4.18,2.92-7.14,5.62-8.75h.09l.12-.07,1.75-1a10,10,0,0,1,1-.58h0c4-1.91,9.22-1.1,14.44,2.82,9.26,7,15,21.09,12.74,31.55-.84,3.9-2.65,6.73-5.07,8.4h0l-.63.36-.13.08-2.23,1.28h0c-4,2.27-9.53,1.58-15-2.53C55.37,150,49.66,135.86,51.89,125.38Z" transform="translate(-0.01 0)"/><path class="cls-4" d="M261,3V60.37L112.09,131.86a14.84,14.84,0,0,1-9.12,1.71,23.07,23.07,0,0,1-10.4-4.22c-11.82-8.23-18.7-25.49-15.38-38.59,1.41-5.52,4.41-9.4,8.3-11.42L260.89,2.12l.06.23A2.35,2.35,0,0,1,261,3Z" transform="translate(-0.01 0)"/><path class="cls-5" d="M112,131.69h0c-5.53,3.11-12.56,2.19-19.28-2.5C81,121,74.12,103.78,77.42,90.86c1.35-5.3,4.17-9.2,8.16-11.27L261,2.35a2.11,2.11,0,0,0-.14-.49L85.38,79.13c-4.12,2.14-7,6.14-8.41,11.57-3.34,13.13,3.6,30.57,15.47,38.87A22.07,22.07,0,0,0,104.91,134a14.7,14.7,0,0,0,7.28-1.87L261,60.63v-.52Z" transform="translate(-0.01 0)"/><path class="cls-6" d="M261,9.29V19.86L102.14,102c-4.06,2.44-7,6.74-8,12.61a30.24,30.24,0,0,0,.41,11.53c-7.37-9.05-11-21.86-8.42-32.08,1.41-5.52,4.41-9.4,8.3-11.42Z" transform="translate(-0.01 0)"/><path class="cls-6" d="M261,9.29V60.37L112.09,131.86a14.84,14.84,0,0,1-9.12,1.71c-.48-.29-1-.61-1.44-.94C89.71,124.36,82.83,107.07,86.15,94c1.41-5.52,4.41-9.4,8.3-11.42Z" transform="translate(-0.01 0)"/><ellipse class="cls-7" cx="98.59" cy="105.73" rx="20.24" ry="29.47" transform="translate(-35.85 52.56) rotate(-25.42)"/><path class="cls-8" d="M80.75,94.3c.9-4.18,2.92-7.14,5.62-8.75h.09l.12-.07,1.75-1a9.9,9.9,0,0,1,1-.57h0c4-1.91,9.22-1.1,14.44,2.82,9.26,7,15,21.09,12.74,31.55-.83,3.89-2.65,6.73-5.07,8.4h0l-.63.36-.13.08-2.23,1.28h0c-4,2.27-9.53,1.58-15-2.53C84.23,118.86,78.52,104.77,80.75,94.3Z" transform="translate(-0.01 0)"/><ellipse class="cls-9" cx="97.83" cy="106.66" rx="15.29" ry="24.12" transform="translate(-36.31 52.29) rotate(-25.41)"/><g class="cls-15"><ellipse class="cls-11" cx="97.83" cy="106.66" rx="15.29" ry="24.12" transform="translate(-36.31 52.29) rotate(-25.41)"/><ellipse class="cls-12" cx="99.64" cy="105.33" rx="13.36" ry="21.47" transform="matrix(0.9, -0.43, 0.43, 0.9, -35.57, 52.94)"/><ellipse class="cls-12" cx="97.5" cy="106.59" rx="13.36" ry="21.47" transform="translate(-36.31 52.15) rotate(-25.41)"/><ellipse class="cls-12" cx="101.79" cy="104.07" rx="13.36" ry="21.47" transform="translate(-34.82 53.74) rotate(-25.41)"/><ellipse class="cls-12" cx="103.95" cy="102.8" rx="13.36" ry="21.47" transform="translate(-34.06 54.55) rotate(-25.41)"/><ellipse class="cls-12" cx="106.1" cy="101.53" rx="13.36" ry="21.47" transform="translate(-33.31 55.35) rotate(-25.41)"/><ellipse class="cls-12" cx="108.25" cy="100.27" rx="13.36" ry="21.47" transform="translate(-32.56 56.15) rotate(-25.41)"/><ellipse class="cls-12" cx="110.4" cy="99.01" rx="13.36" ry="21.47" transform="translate(-31.81 56.95) rotate(-25.41)"/><ellipse class="cls-12" cx="112.56" cy="97.75" rx="13.36" ry="21.47" transform="translate(-31.07 57.76) rotate(-25.41)"/><ellipse class="cls-12" cx="114.71" cy="96.49" rx="13.36" ry="21.47" transform="matrix(0.9, -0.43, 0.43, 0.9, -30.32, 58.56)"/><ellipse class="cls-12" cx="116.86" cy="95.22" rx="13.36" ry="21.47" transform="translate(-29.57 59.36) rotate(-25.41)"/><ellipse class="cls-12" cx="119.01" cy="93.96" rx="13.36" ry="21.47" transform="translate(-28.82 60.16) rotate(-25.41)"/></g><ellipse class="cls-13" cx="97.5" cy="106.59" rx="13.36" ry="21.47" transform="translate(-36.31 52.15) rotate(-25.41)"/><path class="cls-4" d="M109.2,81.86,224,32.59a21.08,21.08,0,0,1,6.53-1.17c5-.15,8.79,1.21,8.5,3-.12.71-.84,1.4-2,2L117,90.16A36.66,36.66,0,0,0,109.2,81.86Z" transform="translate(-0.01 0)"/><path class="cls-4" d="M261,16.57v8.29c-.83.16-1.69.3-2.58.41-6.31.83-11.28.15-11.09-1.53.08-.66.93-1.37,2.33-2Z" transform="translate(-0.01 0)"/><path class="cls-13" d="M80.75,94.3c.9-4.18,2.92-7.14,5.62-8.75h.09l.12-.07,1.75-1a9.9,9.9,0,0,1,1-.57h0c4-1.91,9.22-1.1,14.44,2.82,9.26,7,15,21.09,12.74,31.55-.83,3.89-2.65,6.73-5.07,8.4h0l-.63.36-.13.08-2.23,1.28h0c-4,2.27-9.53,1.58-15-2.53C84.23,118.86,78.52,104.77,80.75,94.3Z" transform="translate(-0.01 0)"/><path class="cls-11" d="M150.66,87.27a78,78,0,0,0-19.31-9.72,1.86,1.86,0,0,0-1.86.28,1,1,0,0,0-.08,1.41.6.6,0,0,0,.08.08,40.65,40.65,0,0,1,9.58,20.7l2.63-1.25a40.67,40.67,0,0,0-6.69-17,69.45,69.45,0,0,1,17.13,10.69,1.16,1.16,0,0,0,1.56-.13,2,2,0,0,0,.67-1.82,40.44,40.44,0,0,0-10.08-20l-2.65,1.22A40.6,40.6,0,0,1,150.66,87.27Z" transform="translate(-0.01 0)"/><path class="cls-11" d="M160.7,72a7.35,7.35,0,0,0-6.77,3.54c.85.55,1.68,1.11,2.49,1.69q1.79-2.49,4-2.41a5.16,5.16,0,0,1,3.59,2l.12.28a6.39,6.39,0,0,0-4.76.35,7.24,7.24,0,0,0-3.64,8.63c1,3.31,3.92,4.89,7.16,3.35a8.76,8.76,0,0,0,3.78-3.67c.08.43.15.87.21,1.31l2.65-1.25a40.34,40.34,0,0,0-2.89-10.28C166.18,74.37,163.71,72.23,160.7,72Zm1.71,14.47a2.75,2.75,0,0,1-3.74-1,2.89,2.89,0,0,1-.26-.63,4,4,0,0,1,2.18-4.67,3,3,0,0,1,4.09,1.14,4.43,4.43,0,0,1,.2.45,4.31,4.31,0,0,1-2.47,4.76Z" transform="translate(-0.01 0)"/><path class="cls-11" d="M165.9,64.16l-2.63,1.25a40.79,40.79,0,0,1,7.32,14.52c.73,2.69,3,4,5.51,2.83L179.71,81c-.13-1-.31-2-.52-2.92l-3.61,1.75a1.63,1.63,0,0,1-2.21-.7,1.42,1.42,0,0,1-.16-.45,41,41,0,0,0-3.4-8.55l5.48-2.62c-.46-.86-1-1.71-1.48-2.54l-5.49,2.62A37.61,37.61,0,0,0,165.9,64.16Z" transform="translate(-0.01 0)"/><path class="cls-11" d="M189.61,68.48a5.14,5.14,0,0,1-2.68,5.94c-2.1,1-4.18-.08-4.93-2.31a40.46,40.46,0,0,0-4.24-9l-2.62,1.25a41.12,41.12,0,0,1,4.24,9c1.26,3.78,4.52,5.68,8.08,4s6-6.33,4.78-10.11a40.46,40.46,0,0,0-4.24-9l-2.63,1.25A40.31,40.31,0,0,1,189.61,68.48Z" transform="translate(-0.01 0)"/><path class="cls-11" d="M193,56.4l-.27-.43-2.63,1.25A39.41,39.41,0,0,1,192.69,62,41,41,0,0,1,196,73.05l2.62-1.25a40.56,40.56,0,0,0-3.29-11.1,2.53,2.53,0,0,1,1.15-3.4l2.8-1.34c-.46-.86-1-1.71-1.49-2.54L195,54.76A4.91,4.91,0,0,0,193,56.4Z" transform="translate(-0.01 0)"/><path class="cls-11" d="M211.38,62.86a4.64,4.64,0,0,1-4.64-.2c2.82-3.76,5.45-7.46,7.93-11.09a1.46,1.46,0,0,0-.39-2l-.12-.07a9.47,9.47,0,0,0-8.43-.2c-4.38,2.08-5.62,7.07-3.92,11.67s5.71,6.93,10.08,4.84,7.46-7.79,5.72-12.38L215,54.63C216.14,57.69,214.28,61.46,211.38,62.86Zm-7-3.17a6.15,6.15,0,0,1,2.81-7.89,6.07,6.07,0,0,1,4-.41q-3,4.53-6.38,9.22a6.37,6.37,0,0,1-.38-.94Z" transform="translate(-0.01 0)"/><path class="cls-11" d="M212.07,41.14a40.73,40.73,0,0,1,8.89,20l2.63-1.25a40.58,40.58,0,0,0-3-10.41l5.7-2.72c-.4-.9-.82-1.78-1.28-2.65l-5.68,2.75a40.85,40.85,0,0,0-4.45-6.73L223,36.27A29.71,29.71,0,0,0,221,34l-8.35,4a1.88,1.88,0,0,0-.59,3.11Z" transform="translate(-0.01 0)"/><path class="cls-11" d="M232.47,55.68l2.62-1.25a40.59,40.59,0,0,0-10.67-22l-2.62,1.25A40.59,40.59,0,0,1,232.47,55.68Z" transform="translate(-0.01 0)"/><path class="cls-11" d="M247.44,39.17c1.16,3-.7,6.82-3.61,8.2a4.67,4.67,0,0,1-4.63-.19q4.22-5.66,7.92-11.1a1.49,1.49,0,0,0,.22-1.16,1.43,1.43,0,0,0-.73-.93,9.44,9.44,0,0,0-8.43-.21c-4.37,2.08-5.62,7.08-3.92,11.67s5.72,6.93,10.09,4.84,7.45-7.79,5.72-12.37Zm-10.55,5a6.15,6.15,0,0,1,2.81-7.89,6,6,0,0,1,4-.4c-2,3-4.13,6.09-6.38,9.21a7.29,7.29,0,0,1-.43-.89Z" transform="translate(-0.01 0)"/><path class="cls-11" d="M261,30.86l-1.44,2.21,1.44.22v2.9l-3.18-.52q-1.33,2-2.76,4a4.71,4.71,0,0,0-.89,3.5c.14.67.25,1.34.35,2l-2.43,1.15c-.09-.67-.21-1.34-.34-2a8.52,8.52,0,0,1,1.36-6.26c.64-1,1.28-1.9,1.9-2.84l-3.14-.36a6.89,6.89,0,0,1-5-3.3c-.35-.58-.7-1.15-1.08-1.72l2.43-1.15c.37.56.73,1.13,1.07,1.71a3.86,3.86,0,0,0,2.89,1.76q2.28.27,4.5.57,1.59-2.49,3.09-4.93a3,3,0,0,0,.13-3.2q-.35-.57-.72-1.14L261,22.6Z" transform="translate(-0.01 0)"/><g class="cls-16"><path class="cls-17" d="M51.88,231v8.61H48.47v-8.5c0-2.42-1.21-3.55-3.12-3.55s-3.43,1.19-3.43,3.78v8.27h-3.4v-14.7h3.3v1.79a5.28,5.28,0,0,1,4.49-2C49.8,224.67,51.88,226.92,51.88,231Z" transform="translate(-0.01 0)"/><path class="cls-17" d="M66.47,228.32v11.3H63.34v-1.3a4.32,4.32,0,0,1-3.52,1.47,5.82,5.82,0,0,1,0-11.63,4.36,4.36,0,0,1,3.38,1.36v-1.2ZM63.26,234a2.89,2.89,0,1,0-2.88,3.13A2.87,2.87,0,0,0,63.26,234Z" transform="translate(-0.01 0)"/><path class="cls-17" d="M76.3,239.07a4.61,4.61,0,0,1-2.65.72c-2.68,0-4.22-1.37-4.22-4v-9.91h3.28v2.75H75.5v2.52H72.71v4.59a1.3,1.3,0,0,0,1.39,1.49,2.27,2.27,0,0,0,1.34-.42Z" transform="translate(-0.01 0)"/><path class="cls-17" d="M89.53,228.32v11.3H86.42v-1.34a4.59,4.59,0,0,1-3.5,1.51c-2.84,0-4.83-1.6-4.83-5.08v-6.39h3.27v5.9c0,1.89.84,2.73,2.29,2.73s2.6-1,2.6-3v-5.59Z" transform="translate(-0.01 0)"/></g><g class="cls-16"><path class="cls-17" d="M99.21,228.16v3c-.27,0-.48,0-.73,0-1.81,0-3,1-3,3.15v5.33H92.2v-11.3h3.13v1.5A4.54,4.54,0,0,1,99.21,228.16Z" transform="translate(-0.01 0)"/></g><g class="cls-16"><path class="cls-17" d="M109.34,236.07l1.74,1.89a5.91,5.91,0,0,1-4.66,1.83c-3.91,0-6.45-2.46-6.45-5.82a5.74,5.74,0,0,1,6-5.81,5.54,5.54,0,0,1,5.84,5.71l-8.36,1.61a3,3,0,0,0,3,1.68A3.82,3.82,0,0,0,109.34,236.07Zm-6.16-2.43,5.51-1.07a2.63,2.63,0,0,0-2.67-1.94A2.78,2.78,0,0,0,103.18,233.64Z" transform="translate(-0.01 0)"/><path class="cls-17" d="M117.57,230.63v.91h6.05v2.73h-6.05v5.35h-3.4v-9c0-3.78,2.5-6,6.74-6a8.37,8.37,0,0,1,4.3,1l-1,2.69a5.52,5.52,0,0,0-3-.82C118.79,227.57,117.57,228.6,117.57,230.63Z" transform="translate(-0.01 0)"/></g><g class="cls-16"><path class="cls-17" d="M126.66,235.88V224h3.28v11.65a1.3,1.3,0,0,0,1.4,1.49,2.1,2.1,0,0,0,.93-.21l.15,2.54a5.37,5.37,0,0,1-1.71.28C128.17,239.79,126.66,238.4,126.66,235.88Z" transform="translate(-0.01 0)"/></g><g class="cls-16"><path class="cls-17" d="M142,236.07l1.74,1.89a5.91,5.91,0,0,1-4.66,1.83c-3.91,0-6.45-2.46-6.45-5.82a5.74,5.74,0,0,1,6.05-5.81,5.54,5.54,0,0,1,5.84,5.71l-8.36,1.61a3,3,0,0,0,3,1.68A3.82,3.82,0,0,0,142,236.07Zm-6.16-2.43,5.51-1.07a2.63,2.63,0,0,0-2.67-1.94A2.78,2.78,0,0,0,135.87,233.64Z" transform="translate(-0.01 0)"/></g><g class="cls-16"><path class="cls-17" d="M153.41,239.62l-2.48-3.46-2.56,3.46H144.8l4.35-5.69-4.2-5.61h3.68l2.39,3.3,2.46-3.3H157l-4.2,5.53,4.37,5.77Z" transform="translate(-0.01 0)"/></g><g class="cls-16"><path class="cls-17" d="M163.37,232.27c0-4.43,3.4-7.6,8-7.6a7.56,7.56,0,0,1,6,2.6l-2.18,2a4.73,4.73,0,0,0-3.69-1.72,4.7,4.7,0,1,0,0,9.4,4.66,4.66,0,0,0,3.69-1.74l2.18,2a7.53,7.53,0,0,1-6.06,2.62C166.77,239.87,163.37,236.7,163.37,232.27Z" transform="translate(-0.01 0)"/></g><g class="cls-16"><path class="cls-17" d="M187.43,236.07l1.74,1.89a5.91,5.91,0,0,1-4.66,1.83c-3.91,0-6.45-2.46-6.45-5.82a5.74,5.74,0,0,1,6.05-5.81,5.54,5.54,0,0,1,5.84,5.71l-8.36,1.61a3,3,0,0,0,3,1.68A3.82,3.82,0,0,0,187.43,236.07Zm-6.16-2.43,5.51-1.07a2.63,2.63,0,0,0-2.67-1.94A2.78,2.78,0,0,0,181.27,233.64Z" transform="translate(-0.01 0)"/><path class="cls-17" d="M192.15,235.88V224h3.28v11.65a1.3,1.3,0,0,0,1.4,1.49,2.1,2.1,0,0,0,.93-.21l.15,2.54a5.36,5.36,0,0,1-1.7.28C193.66,239.79,192.15,238.4,192.15,235.88Z" transform="translate(-0.01 0)"/></g><g class="cls-16"><path class="cls-17" d="M199,235.88V224h3.28v11.65a1.3,1.3,0,0,0,1.4,1.49,2.1,2.1,0,0,0,.93-.21l.14,2.54a5.27,5.27,0,0,1-1.7.28C200.51,239.79,199,238.4,199,235.88Z" transform="translate(-0.01 0)"/></g><g class="cls-16"><path class="cls-17" d="M205,234c0-3.4,2.63-5.81,6.22-5.81s6.19,2.41,6.19,5.81-2.6,5.82-6.19,5.82S205,237.37,205,234Zm9.09,0a2.89,2.89,0,1,0-2.87,3.13A2.85,2.85,0,0,0,214.1,234Z" transform="translate(-0.01 0)"/></g><path class="cls-5" d="M261,117.53v2.18L127.44,189a15.25,15.25,0,0,1-7.61,2.2h-.54a23.25,23.25,0,0,1-12.6-4.18c-8.39-5.48-14.82-15.34-17-25.94L83,164.32a15.52,15.52,0,0,1-7.68,2,23,23,0,0,1-13-4.58c-12.16-8.5-19.26-26.38-15.83-39.85C48,116.2,51,112,55.41,109.72l19.27-8.48a30.77,30.77,0,0,1,.71-10.43c1.44-5.69,4.52-9.9,8.88-12.17L260.35,1.1a3,3,0,0,1,.6,1.25h0l.06.51-1.58.68-.2.08h0L85.09,80.28c-3.83,2-6.58,5.79-7.89,11a29.41,29.41,0,0,0-.6,10.45l.08.68-20.46,9c-3.82,2-6.57,5.79-7.88,11-3.26,12.79,3.52,29.79,15.1,37.89,6.51,4.55,13.49,5.46,18.77,2.49l8.89-4.27.21,1.2c1.79,10.4,8.22,20.57,16.39,25.91a21.24,21.24,0,0,0,12.07,3.87,13.83,13.83,0,0,0,6.77-2Z" transform="translate(-0.01 0)"/></svg>