<svg id="Layer_1" data-name="Layer 1" xmlns="http://www.w3.org/2000/svg" viewBox="0 0 261.03 260.72"><defs><style>.cls-1{fill:#dc8f92;}.cls-2{fill:#c1272d;opacity:0.5;}.cls-10,.cls-2,.cls-4,.cls-5,.cls-6{isolation:isolate;}.cls-3,.cls-6{fill:#fff;}.cls-3,.cls-8,.cls-9{stroke:#333;}.cls-3,.cls-5,.cls-7,.cls-8,.cls-9{stroke-miterlimit:10;}.cls-3{stroke-width:1.62px;}.cls-4{fill:#999;}.cls-4,.cls-5{opacity:0.66;}.cls-5{fill:#e6e6e6;stroke:#000;stroke-dasharray:2.58;}.cls-5,.cls-7,.cls-8{stroke-width:0.26px;}.cls-6{opacity:0.75;}.cls-7,.cls-8,.cls-9{fill:none;}.cls-7{stroke:#666;}.cls-7,.cls-8{stroke-dasharray:0.21 1.03;}.cls-9{stroke-width:0.81px;}.cls-11{fill:#4d4d4d;}</style></defs><title>perforated bag</title><rect class="cls-1" width="261.03" height="260.72" rx="3" ry="3"/><path class="cls-2" d="M234.27,103.69c-2.48-1.76-69.61-34-70.7-34.51s-2.41-.36-4.09,1.07S45.48,155.84,45.29,156s-.56.4-1,.77-1.25,1.11-.88,1.54a7,7,0,0,0,1,.72s9.25,6.2,12.81,12.62,7.48,12.12,10.14,14.62,13.06,4,15.28,5.3,8.72,9.52,12.13,13.4a20.53,20.53,0,0,0,11.48,6c1.5.17,7.64,1.23,12.08,2,2.23,1.73,9.44,5,11.34,5.73l.29-.28h0S229,112.5,233.36,108.6l.13-.11a3.39,3.39,0,0,0,.42-.33C235.08,107.21,236.47,105.25,234.27,103.69Z"/><path class="cls-3" d="M41.45,146.5a5.9,5.9,0,0,0,1,.72s9.26,6.2,12.82,12.62S62.75,172,65.41,174.46s13.06,4,15.27,5.3,8.73,9.52,12.14,13.4,8.74,4.25,11.16,4.53c1.51.17,7.65,1.23,12.09,2a27.94,27.94,0,0,0,6.31,3.91S233.82,99.28,234.92,98.5s3.21-3.06.73-4.83S162.6,58,161.51,57.43s-2.42-.36-4.1,1.08-114.29,85.83-114.48,86S40.89,145.85,41.45,146.5Z"/><path class="cls-4" d="M115.24,199.08c-4.24-.75-9.36-1.63-10.72-1.8-2.43-.27-7.75-.63-11.17-4.52s-9.92-12.14-12.12-13.4-12.61-2.8-15.27-5.29-6.6-8.2-10.15-14.63c-2.19-3.95-6.55-7.82-9.56-10.21a67,67,0,0,0,9,4.11c5.68,1.95,18.64,5.9,25.38,10.94S98.44,182.66,99.71,184C100.66,185,108.19,193.57,115.24,199.08Z"/><path class="cls-5" d="M100.92,106.18c5.07-3.85,51.43-39.13,54.14-41.61s7.46-1.61,8.65-1.17,21,9.74,22.92,10.89S219,91,223.13,94s.75,7.56.08,8.12S116.45,199.9,116.45,199.9l-6.08-5.52c-4.91-4.63-9.05-9.33-9.75-10.06-1.27-1.35-12.34-14.69-19.07-19.73s-19.68-9-25.34-11a73.26,73.26,0,0,1-10.82-5.12C48.39,146.2,96,109.9,100.92,106.18Z"/><path class="cls-6" d="M195.87,121.05s-50.22,41.74-54.13,44.83-20,15.18-23.06,15.6-5.33-.54-1.1-4.4,5.91-5.29,8.27-10.47,5.47-11.47,17.15-16.84S199.22,113.34,195.87,121.05Z"/><path class="cls-6" d="M206,93.73c2.28,1,8,5.32,4.44,10.28s-5.95,7.51-4.47,7,11.87-8,13.05-9.71,1.89-4-1.83-6.67-16.19-11-20.95-12-14.12-1.27-17.67-3.09-8.55-6.52-6-2.4,4.46,6,12.41,9.37S206,93.73,206,93.73Z"/><path class="cls-6" d="M182.94,100.57c-2.54.63-27,1.06-32.32-6.81s-.39-12.29,1.62-13.52a11.69,11.69,0,0,1,10.79.23c3.89,2.26,11.85,5.88,14.15,8.28S192.15,98.28,182.94,100.57Z"/><path class="cls-6" d="M88.81,153.15c.8-1.89,4.67-7.87,12.6-13.92s18.22-14.74,23-18.19,18.15-11.7,19-14.63.67-6.88-3-7.82-18.49-2.15-23.82,6.29-10.25,16-16.08,19.44S77,131.2,72.61,134.25,60,145.3,59.45,147s-1.24,2.52,1.84,5,11.07,2.42,14.19,4.36,7.36,8,10.3,5.51S88.81,153.15,88.81,153.15Z"/><line class="cls-7" x1="116.99" y1="195.54" x2="225.12" y2="96.04"/><line class="cls-7" x1="110.32" y1="197.73" x2="221.52" y2="95.61"/><line class="cls-7" x1="106.29" y1="197.72" x2="218.48" y2="94.68"/><line class="cls-7" x1="102.62" y1="197.76" x2="218.32" y2="91.3"/><line class="cls-7" x1="99.02" y1="197.32" x2="214.72" y2="90.87"/><line class="cls-7" x1="96.47" y1="195.76" x2="210.57" y2="90.91"/><line class="cls-7" x1="92.47" y1="192" x2="204.2" y2="89.3"/><line class="cls-7" x1="90.15" y1="190.46" x2="201.88" y2="87.77"/><line class="cls-7" x1="93.69" y1="194.59" x2="207.8" y2="89.75"/><line class="cls-7" x1="88.71" y1="188.31" x2="200.72" y2="85.24"/><line class="cls-7" x1="87" y1="186.14" x2="195.14" y2="86.64"/><line class="cls-7" x1="85.47" y1="183.83" x2="194.08" y2="83.89"/><line class="cls-7" x1="83.6" y1="182.02" x2="193.92" y2="80.5"/><line class="cls-7" x1="82.18" y1="179.57" x2="190.32" y2="80.07"/><line class="cls-7" x1="75.26" y1="178.45" x2="183.4" y2="78.95"/><line class="cls-7" x1="75.26" y1="178.45" x2="183.4" y2="78.95"/><line class="cls-7" x1="79.15" y1="178.65" x2="187.28" y2="79.15"/><line class="cls-7" x1="72.36" y1="177.37" x2="180.49" y2="77.87"/><line class="cls-7" x1="69.35" y1="176.47" x2="177.48" y2="76.97"/><line class="cls-7" x1="75.26" y1="178.45" x2="183.4" y2="78.95"/><line class="cls-7" x1="66.44" y1="175.4" x2="174.58" y2="75.9"/><line class="cls-7" x1="65.52" y1="172.71" x2="173.66" y2="73.21"/><line class="cls-7" x1="62.48" y1="171.79" x2="170.62" y2="72.28"/><line class="cls-7" x1="62.32" y1="168.4" x2="170.46" y2="68.9"/><line class="cls-7" x1="59.94" y1="166.85" x2="166.85" y2="68.47"/><path class="cls-8" d="M159.93,67.35"/><path class="cls-7" d="M56.66,162.37"/><line class="cls-7" x1="58.16" y1="164.77" x2="163.82" y2="67.55"/><line class="cls-7" x1="55.16" y1="159.97" x2="156.34" y2="66.9"/><line class="cls-7" x1="54" y1="157.4" x2="154.02" y2="65.37"/><line class="cls-7" x1="58.75" y1="160.42" x2="159.93" y2="67.35"/><line class="cls-7" x1="52.33" y1="155.44" x2="111.41" y2="100.83"/><line class="cls-7" x1="48.46" y1="151.51" x2="80.01" y2="122.4"/><line class="cls-7" x1="50.55" y1="153.62" x2="103.05" y2="105.43"/><line class="cls-7" x1="45.92" y1="149.73" x2="57.43" y2="139.16"/><path class="cls-9" d="M122.69,203.35S233.83,99.28,234.93,98.49s3.2-3,.72-4.82-73-35.78-74.08-36.3-2.41-.36-4.09,1.07S43.48,144,43.3,144.19s-2,1.34-1.49,2,8.78,5.43,14.45,7.38,18.63,5.91,25.37,10.94,17.81,18.38,19.08,19.72S114.76,200.14,122.69,203.35Z"/><g class="cls-10"><path class="cls-11" d="M58.17,230.27c0,3.27-2.46,5.31-6.39,5.31h-3v4h-3.4v-14.7h6.36C55.71,224.93,58.17,227,58.17,230.27Zm-3.45,0c0-1.62-1-2.57-3.12-2.57H48.82v5.11H51.6C53.67,232.81,54.72,231.86,54.72,230.27Z"/></g><g class="cls-10"><path class="cls-11" d="M68.71,236.08,70.45,238a5.91,5.91,0,0,1-4.66,1.83c-3.91,0-6.45-2.46-6.45-5.82a5.74,5.74,0,0,1,6-5.81,5.54,5.54,0,0,1,5.84,5.71l-8.36,1.61a3,3,0,0,0,3,1.68A3.82,3.82,0,0,0,68.71,236.08Zm-6.16-2.43,5.51-1.07a2.63,2.63,0,0,0-2.67-1.94A2.78,2.78,0,0,0,62.55,233.65Z"/></g><g class="cls-10"><path class="cls-11" d="M80.24,228.17v3c-.27,0-.48,0-.73,0-1.81,0-3,1-3,3.15v5.33H73.23v-11.3h3.13v1.5A4.54,4.54,0,0,1,80.24,228.17Z"/></g><g class="cls-10"><path class="cls-11" d="M85.13,228.59H88v2.52H85.22v8.52H81.94V228.08c0-2.54,1.56-4.2,4.37-4.2a4.61,4.61,0,0,1,2.5.61L88,226.86a2.32,2.32,0,0,0-1.33-.39c-1,0-1.49.52-1.49,1.63Z"/></g><g class="cls-10"><path class="cls-11" d="M88.35,234c0-3.4,2.63-5.81,6.22-5.81s6.19,2.41,6.19,5.81-2.6,5.82-6.19,5.82S88.35,237.38,88.35,234Zm9.09,0a2.89,2.89,0,1,0-2.87,3.13A2.85,2.85,0,0,0,97.44,234Z"/></g><g class="cls-10"><path class="cls-11" d="M109.74,228.17v3c-.27,0-.48,0-.73,0-1.81,0-3,1-3,3.15v5.33h-3.28v-11.3h3.13v1.5A4.54,4.54,0,0,1,109.74,228.17Z"/></g><g class="cls-10"><path class="cls-11" d="M122.81,228.33v11.3h-3.13v-1.3a4.35,4.35,0,0,1-3.53,1.47,5.82,5.82,0,0,1,0-11.63,4.34,4.34,0,0,1,3.38,1.36v-1.2ZM119.59,234a2.89,2.89,0,1,0-2.87,3.13A2.86,2.86,0,0,0,119.59,234Z"/></g><g class="cls-10"><path class="cls-11" d="M132.55,239.08a4.58,4.58,0,0,1-2.64.72c-2.69,0-4.22-1.37-4.22-4.05v-9.92H129v2.76h2.8v2.52H129v4.59a1.3,1.3,0,0,0,1.39,1.49,2.25,2.25,0,0,0,1.34-.42Z"/></g><g class="cls-10"><path class="cls-11" d="M142.36,236.08,144.1,238a5.91,5.91,0,0,1-4.66,1.83c-3.91,0-6.45-2.46-6.45-5.82a5.74,5.74,0,0,1,6-5.81,5.54,5.54,0,0,1,5.84,5.71l-8.36,1.61a3,3,0,0,0,3,1.68A3.82,3.82,0,0,0,142.36,236.08Zm-6.16-2.43,5.51-1.07a2.63,2.63,0,0,0-2.67-1.94A2.78,2.78,0,0,0,136.2,233.65Z"/><path class="cls-11" d="M158.59,224.05v15.58h-3.13v-1.3a4.35,4.35,0,0,1-3.53,1.47,5.82,5.82,0,0,1,0-11.63,4.34,4.34,0,0,1,3.38,1.36v-5.48ZM155.38,234a2.9,2.9,0,1,0-2.88,3.13A2.87,2.87,0,0,0,155.38,234Z"/><path class="cls-11" d="M181.27,235.62c0,2.54-2,4-5.88,4h-7.6v-14.7H175c3.67,0,5.56,1.54,5.56,3.82a3.53,3.53,0,0,1-1.95,3.24A3.62,3.62,0,0,1,181.27,235.62Zm-10.1-8.13V231h3.38c1.66,0,2.56-.59,2.56-1.74s-.9-1.73-2.56-1.73Zm6.68,7.77c0-1.24-.95-1.82-2.71-1.82h-4v3.63h4C176.9,237.07,177.85,236.52,177.85,235.26Z"/><path class="cls-11" d="M195.09,228.33v11.3H192v-1.3a4.35,4.35,0,0,1-3.53,1.47,5.82,5.82,0,0,1,0-11.63,4.34,4.34,0,0,1,3.38,1.36v-1.2ZM191.87,234a2.89,2.89,0,1,0-2.87,3.13A2.86,2.86,0,0,0,191.87,234Z"/><path class="cls-11" d="M209.76,228.33v9.41c0,4.2-2.26,6.13-6.34,6.13a9.28,9.28,0,0,1-5.54-1.55l1.3-2.35a6.81,6.81,0,0,0,4,1.28c2.31,0,3.32-1.05,3.32-3.09v-.48a4.66,4.66,0,0,1-3.57,1.4,5.46,5.46,0,1,1,0-10.91,4.53,4.53,0,0,1,3.74,1.61v-1.45Zm-3.23,5.3a3,3,0,1,0-3,2.77A2.75,2.75,0,0,0,206.53,233.63Z"/><path class="cls-11" d="M211.72,238.58l1.09-2.35a7.74,7.74,0,0,0,3.93,1.09c1.51,0,2.08-.4,2.08-1,0-1.85-6.83,0-6.83-4.47,0-2.14,1.93-3.65,5.23-3.65a9.31,9.31,0,0,1,4.35,1l-1.09,2.33a6.52,6.52,0,0,0-3.26-.84c-1.47,0-2.1.47-2.1,1.05,0,1.94,6.83.07,6.83,4.52,0,2.1-2,3.59-5.34,3.59A9.72,9.72,0,0,1,211.72,238.58Z"/></g></svg>