<svg id="Layer_1" data-name="Layer 1" xmlns="http://www.w3.org/2000/svg" xmlns:xlink="http://www.w3.org/1999/xlink" viewBox="0 0 261.1 260.72"><defs><style>.cls-1,.cls-10,.cls-14{fill:none;}.cls-2{fill:#9acff5;}.cls-3,.cls-6{fill:#f2f2f2;}.cls-4{fill:#333;}.cls-13,.cls-5,.cls-8{fill:#a3a3a3;}.cls-5{opacity:0.2;}.cls-13,.cls-16,.cls-5{isolation:isolate;}.cls-10,.cls-11,.cls-14,.cls-6,.cls-7{stroke:#333;stroke-miterlimit:10;}.cls-6{stroke-width:0.92px;}.cls-7{fill:#6a6a6a;}.cls-10,.cls-11,.cls-14,.cls-7{stroke-width:0.46px;}.cls-9{clip-path:url(#clip-path);}.cls-10{stroke-dasharray:0.37 1.84;}.cls-11{fill:#b3b3b3;}.cls-12{clip-path:url(#clip-path-2);}.cls-13{opacity:0.5;}.cls-15{clip-path:url(#clip-path-3);}.cls-17{fill:#4d4d4d;}</style><clipPath id="clip-path" transform="translate(0 0)"><ellipse class="cls-1" cx="192.5" cy="138.38" rx="21.47" ry="13.36" transform="translate(-15.09 252.88) rotate(-64.59)"/></clipPath><clipPath id="clip-path-2" transform="translate(0 0)"><ellipse class="cls-1" cx="148.94" cy="163.59" rx="21.47" ry="13.36" transform="translate(-64.64 221.28) rotate(-62.8)"/></clipPath><clipPath id="clip-path-3" transform="translate(0 0)"><ellipse class="cls-1" cx="163.65" cy="107.3" rx="21.47" ry="13.36" transform="translate(-3.49 209.07) rotate(-64.59)"/></clipPath></defs><title>Polyproylene Cello</title><g id="Layer_1-2" data-name="Layer 1"><path class="cls-2" d="M.1,3V257.72a3,3,0,0,0,3,3h255a3,3,0,0,0,3-3V3a3,3,0,0,0-3-3H3.1A3,3,0,0,0,.77,1.1a3,3,0,0,0-.6,1.25h0v.46A.62.62,0,0,0,.1,3Z" transform="translate(0 0)"/><path class="cls-2" d="M.1,20V136l123.5,64.92c5.51,3.29,13.07,3,20.64-1.74,9.41-5.83,40.34-20.77,47.7-25.76,12.45-8.42,19.69-26.06,16.19-39.38-1.48-5.62-4.64-9.58-8.73-11.64l-21.57-9.2a30.07,30.07,0,0,0-.63-11.14c-1.48-5.63-4.64-9.58-8.74-11.64Z" transform="translate(0 0)"/><path class="cls-3" d="M29,34.78V92.15l148.93,71.53a14.84,14.84,0,0,0,9.12,1.71,23.12,23.12,0,0,0,10.4-4.22c11.82-8.27,18.7-25.57,15.38-38.63-1.41-5.52-4.41-9.4-8.3-11.42L29.09,33.9l-.06.23A2.35,2.35,0,0,0,29,34.78Z" transform="translate(0 0)"/><path class="cls-4" d="M29,91.89v.52l148.83,71.48a14.7,14.7,0,0,0,7.28,1.87,22.07,22.07,0,0,0,12.47-4.41c11.87-8.3,18.81-25.74,15.47-38.87-1.38-5.43-4.29-9.43-8.41-11.57L29.17,33.68a2.35,2.35,0,0,0-.14.45l175.37,77.2c4,2.07,6.81,6,8.16,11.27,3.3,13-3.56,30.17-15.28,38.38-6.72,4.69-13.75,5.61-19.28,2.5h0Z" transform="translate(0 0)"/><path class="cls-5" d="M29,41.07v10.6l158.88,82.09c4.06,2.44,7,6.74,8,12.61a30.24,30.24,0,0,1-.41,11.53c7.37-9.05,11-21.86,8.42-32.08-1.41-5.52-4.41-9.4-8.3-11.42Z" transform="translate(0 0)"/><path class="cls-5" d="M29,41.07V92.15l148.93,71.53a14.84,14.84,0,0,0,9.12,1.71c.48-.29,1-.61,1.44-.94,11.82-8.27,18.7-25.56,15.38-38.63-1.41-5.52-4.41-9.4-8.3-11.42Z" transform="translate(0 0)"/><ellipse class="cls-6" cx="191.39" cy="137.51" rx="29.47" ry="20.24" transform="translate(-14.96 251.34) rotate(-64.58)"/><path class="cls-7" d="M209.23,126.08c-.89-4.18-2.92-7.14-5.62-8.75h-.09l-.11-.07-1.75-1c-.33-.2-.67-.4-1-.57h0c-4-1.91-9.21-1.1-14.43,2.82-9.27,7-15,21.09-12.74,31.55.83,3.9,2.64,6.73,5.07,8.4h0l.63.36.14.08,2.22,1.28h0c4,2.27,9.52,1.58,15-2.53C205.76,150.67,211.46,136.55,209.23,126.08Z" transform="translate(0 0)"/><ellipse class="cls-8" cx="192.16" cy="138.44" rx="24.12" ry="15.29" transform="translate(-15.34 252.61) rotate(-64.59)"/><g class="cls-9"><ellipse class="cls-10" cx="190.35" cy="137.13" rx="21.47" ry="13.36" transform="translate(-15.19 250.22) rotate(-64.59)"/><ellipse class="cls-10" cx="192.5" cy="138.38" rx="21.47" ry="13.36" transform="translate(-15.09 252.88) rotate(-64.59)"/><ellipse class="cls-10" cx="188.2" cy="135.86" rx="21.47" ry="13.36" transform="translate(-15.27 247.55) rotate(-64.59)"/><ellipse class="cls-10" cx="186.05" cy="134.6" rx="21.47" ry="13.36" transform="translate(-15.36 244.89) rotate(-64.59)"/><ellipse class="cls-10" cx="183.89" cy="133.33" rx="21.47" ry="13.36" transform="translate(-15.44 242.22) rotate(-64.59)"/><ellipse class="cls-10" cx="181.73" cy="132.08" rx="21.47" ry="13.36" transform="translate(-15.55 239.56) rotate(-64.59)"/><ellipse class="cls-10" cx="179.58" cy="130.81" rx="21.47" ry="13.36" transform="translate(-15.63 236.89) rotate(-64.59)"/><ellipse class="cls-10" cx="177.43" cy="129.55" rx="21.47" ry="13.36" transform="translate(-15.72 234.23) rotate(-64.59)"/><ellipse class="cls-10" cx="175.28" cy="128.28" rx="21.47" ry="13.36" transform="translate(-15.8 231.56) rotate(-64.59)"/><ellipse class="cls-10" cx="173.13" cy="127.03" rx="21.47" ry="13.36" transform="translate(-15.9 228.9) rotate(-64.59)"/><ellipse class="cls-10" cx="170.98" cy="125.76" rx="21.47" ry="13.36" transform="translate(-15.98 226.23) rotate(-64.59)"/></g><ellipse class="cls-11" cx="192.5" cy="138.38" rx="21.47" ry="13.36" transform="translate(-15.09 252.88) rotate(-64.59)"/><path class="cls-3" d="M166.39,170.74,53.14,117.93a21,21,0,0,0-6.5-1.38c-5-.31-8.82.94-8.58,2.78.09.72.79,1.43,1.91,2l118.37,57.44A36.72,36.72,0,0,1,166.39,170.74Z" transform="translate(0 0)"/><path class="cls-3" d="M.1,59.42v59.69l133.44,69.3a14.84,14.84,0,0,0,9.07,2,23,23,0,0,0,10.52-3.9c12.08-7.89,19.49-25,16.58-38.13-1.23-5.56-4.11-9.53-7.94-11.67Z" transform="translate(0 0)"/><path class="cls-4" d="M.12,119.87v.52l133.22,69.2a14.72,14.72,0,0,0,7.22,2.09,22,22,0,0,0,12.6-4c12.12-7.92,19.6-25.14,16.67-38.36-1.21-5.47-4-9.56-8-11.83L.15,60.39a3.26,3.26,0,0,0-.15.44l161.57,77.05c3.92,2.2,6.62,6.18,7.8,11.52,2.89,13.06-4.5,30-16.47,37.89-6.86,4.47-13.92,5.17-19.35,1.89h0Z" transform="translate(0 0)"/><path class="cls-5" d="M.1,66.75V78.44l144.33,80.38c4,2.56,6.75,7,7.58,12.85a30.18,30.18,0,0,1-.77,11.51c7.65-8.81,11.7-21.5,9.42-31.8-1.24-5.56-4.12-9.53-7.94-11.67Z" transform="translate(0 0)"/><path class="cls-5" d="M.1,66.75v52.36l133.44,69.3a14.84,14.84,0,0,0,9.07,2q.73-.42,1.47-.9c12.07-7.89,19.48-25,16.57-38.13-1.23-5.56-4.11-9.53-7.93-11.67Z" transform="translate(0 0)"/><ellipse class="cls-6" cx="147.86" cy="162.66" rx="29.47" ry="20.24" transform="translate(-64.41 219.78) rotate(-62.79)"/><path class="cls-7" d="M166,151.81c-.76-4.2-2.69-7.23-5.34-8.92h0l-.08-.06-.12-.06-1.72-1.05a10.18,10.18,0,0,0-1-.6h0c-3.92-2-9.18-1.39-14.52,2.37-9.48,6.66-15.62,20.6-13.72,31.13.71,3.92,2.43,6.81,4.81,8.56h0l.62.39.13.08,2.19,1.35h0c4,2.39,9.47,1.87,15.06-2.06C161.81,176.28,168,162.34,166,151.81Z" transform="translate(0 0)"/><ellipse class="cls-8" cx="148.6" cy="163.63" rx="24.12" ry="15.29" transform="translate(-64.86 221) rotate(-62.8)"/><g class="cls-12"><ellipse class="cls-13" cx="148.6" cy="163.63" rx="24.12" ry="15.29" transform="translate(-64.86 221) rotate(-62.8)"/><ellipse class="cls-10" cx="146.82" cy="162.26" rx="21.47" ry="13.36" transform="translate(-64.6 218.67) rotate(-62.8)"/><ellipse class="cls-10" cx="148.94" cy="163.59" rx="21.47" ry="13.36" transform="translate(-64.64 221.28) rotate(-62.8)"/><ellipse class="cls-10" cx="144.72" cy="160.93" rx="21.47" ry="13.36" transform="translate(-64.56 216.09) rotate(-62.8)"/><ellipse class="cls-10" cx="142.6" cy="159.6" rx="21.47" ry="13.36" transform="translate(-64.53 213.48) rotate(-62.8)"/><ellipse class="cls-10" cx="140.49" cy="158.27" rx="21.47" ry="13.36" transform="translate(-64.49 210.87) rotate(-62.8)"/><ellipse class="cls-10" cx="138.37" cy="156.94" rx="21.47" ry="13.36" transform="translate(-64.46 208.28) rotate(-62.8)"/><ellipse class="cls-10" cx="136.26" cy="155.61" rx="21.47" ry="13.36" transform="translate(-64.43 205.67) rotate(-62.8)"/><ellipse class="cls-10" cx="134.15" cy="154.28" rx="21.47" ry="13.36" transform="translate(-64.39 203.07) rotate(-62.8)"/><ellipse class="cls-10" cx="132.03" cy="152.95" rx="21.47" ry="13.36" transform="translate(-64.36 200.47) rotate(-62.8)"/><ellipse class="cls-10" cx="129.93" cy="151.62" rx="21.47" ry="13.36" transform="translate(-64.31 197.88) rotate(-62.8)"/><ellipse class="cls-10" cx="127.81" cy="150.3" rx="21.47" ry="13.36" transform="translate(-64.29 195.28) rotate(-62.8)"/></g><ellipse class="cls-11" cx="148.94" cy="163.59" rx="21.47" ry="13.36" transform="translate(-64.64 221.28) rotate(-62.8)"/><path class="cls-3" d="M138,138.47,24.75,85.66a21,21,0,0,0-6.5-1.38c-5-.31-8.82.93-8.58,2.78.09.72.79,1.43,1.91,2L130,146.54A36.67,36.67,0,0,1,138,138.47Z" transform="translate(0 0)"/><path class="cls-3" d="M.1,74.28v3.1c1.08-.29,1.68-.75,1.63-1.35S1.09,74.87.1,74.28Z" transform="translate(0 0)"/><path class="cls-14" d="M166,151.81c-.76-4.2-2.69-7.23-5.34-8.92h0l-.08-.06-.12-.06-1.72-1.05a10.18,10.18,0,0,0-1-.6h0c-3.92-2-9.18-1.39-14.52,2.37-9.48,6.66-15.62,20.6-13.72,31.13.71,3.92,2.43,6.81,4.81,8.56h0l.62.39.13.08,2.19,1.35h0c4,2.39,9.47,1.87,15.06-2.06C161.81,176.28,168,162.34,166,151.81Z" transform="translate(0 0)"/><path class="cls-14" d="M209.23,126.08c-.89-4.18-2.92-7.14-5.62-8.75h-.09l-.11-.07-1.75-1c-.33-.2-.67-.4-1-.57h0c-4-1.91-9.21-1.1-14.43,2.82-9.27,7-15,21.09-12.74,31.55.83,3.9,2.64,6.73,5.07,8.4h0l.63.36.14.08,2.22,1.28h0c4,2.27,9.52,1.58,15-2.53C205.76,150.67,211.46,136.55,209.23,126.08Z" transform="translate(0 0)"/><path class="cls-3" d="M.1,3.7V61.07L149,132.6a14.84,14.84,0,0,0,9.12,1.71,23.12,23.12,0,0,0,10.4-4.22c11.82-8.27,18.7-25.57,15.38-38.63-1.41-5.52-4.41-9.4-8.3-11.42L.23,2.82l-.06.23A2.81,2.81,0,0,0,.1,3.7Z" transform="translate(0 0)"/><path class="cls-4" d="M.1,60.81v.52l148.83,71.48a14.7,14.7,0,0,0,7.28,1.87,22.07,22.07,0,0,0,12.47-4.41c11.87-8.3,18.81-25.74,15.47-38.87-1.38-5.43-4.29-9.43-8.41-11.57L.31,2.6a2.35,2.35,0,0,0-.14.45l175.37,77.2c4,2.07,6.81,6,8.16,11.27,3.3,13-3.56,30.17-15.28,38.38-6.72,4.69-13.75,5.61-19.28,2.5h0Z" transform="translate(0 0)"/><path class="cls-5" d="M.1,10V20.6L159,102.68c4.06,2.44,7,6.74,8,12.61a30.24,30.24,0,0,1-.41,11.53c7.37-9,11-21.86,8.42-32.08-1.41-5.52-4.41-9.4-8.3-11.42Z" transform="translate(0 0)"/><path class="cls-5" d="M.1,10V61.07L149,132.6a14.84,14.84,0,0,0,9.12,1.71c.48-.29,1-.61,1.44-.94,11.82-8.27,18.7-25.56,15.38-38.63-1.41-5.52-4.41-9.4-8.3-11.42Z" transform="translate(0 0)"/><ellipse class="cls-6" cx="162.53" cy="106.43" rx="29.47" ry="20.24" transform="translate(-3.36 207.54) rotate(-64.58)"/><path class="cls-7" d="M180.37,95c-.89-4.18-2.92-7.14-5.62-8.75h-.09l-.11-.07-1.75-1a9.9,9.9,0,0,0-1-.57h0c-4-1.91-9.21-1.1-14.43,2.82-9.27,7-15,21.09-12.74,31.55.83,3.89,2.64,6.73,5.07,8.4h0l.63.36.14.08,2.22,1.28h0c4,2.27,9.52,1.58,15-2.53C176.9,119.59,182.6,105.47,180.37,95Z" transform="translate(0 0)"/><ellipse class="cls-8" cx="163.3" cy="107.36" rx="24.12" ry="15.29" transform="translate(-3.75 208.8) rotate(-64.59)"/><g class="cls-15"><ellipse class="cls-13" cx="163.3" cy="107.36" rx="24.12" ry="15.29" transform="translate(-3.75 208.8) rotate(-64.59)"/><ellipse class="cls-10" cx="161.49" cy="106.04" rx="21.47" ry="13.36" transform="translate(-3.58 206.41) rotate(-64.59)"/><ellipse class="cls-10" cx="163.65" cy="107.3" rx="21.47" ry="13.36" transform="translate(-3.49 209.07) rotate(-64.59)"/><ellipse class="cls-10" cx="159.34" cy="104.78" rx="21.47" ry="13.36" transform="translate(-3.67 203.75) rotate(-64.59)"/><ellipse class="cls-10" cx="157.18" cy="103.51" rx="21.47" ry="13.36" transform="translate(-3.76 201.07) rotate(-64.59)"/><ellipse class="cls-10" cx="155.03" cy="102.25" rx="21.47" ry="13.36" transform="translate(-3.85 198.41) rotate(-64.59)"/><ellipse class="cls-10" cx="152.88" cy="100.99" rx="21.47" ry="13.36" transform="translate(-3.94 195.74) rotate(-64.59)"/><ellipse class="cls-10" cx="150.73" cy="99.73" rx="21.47" ry="13.36" transform="translate(-4.03 193.08) rotate(-64.59)"/><ellipse class="cls-10" cx="148.58" cy="98.46" rx="21.47" ry="13.36" transform="translate(-4.11 190.41) rotate(-64.59)"/><ellipse class="cls-10" cx="146.42" cy="97.2" rx="21.47" ry="13.36" transform="translate(-4.2 187.75) rotate(-64.59)"/><ellipse class="cls-10" cx="144.26" cy="95.94" rx="21.47" ry="13.36" transform="translate(-4.3 185.08) rotate(-64.59)"/><ellipse class="cls-10" cx="142.11" cy="94.68" rx="21.47" ry="13.36" transform="translate(-4.39 182.42) rotate(-64.59)"/></g><ellipse class="cls-11" cx="163.65" cy="107.3" rx="21.47" ry="13.36" transform="translate(-3.49 209.07) rotate(-64.59)"/><path class="cls-3" d="M151.92,82.54,37.08,33.29a21.09,21.09,0,0,0-6.54-1.17c-5-.15-8.79,1.21-8.49,3,.11.72.84,1.41,2,2L144.13,90.86A36.88,36.88,0,0,1,151.92,82.54Z" transform="translate(0 0)"/><path class="cls-3" d="M.1,17.27v8.24c.83.16,1.69.3,2.58.41,6.31.83,11.28.15,11.09-1.53-.08-.66-.93-1.37-2.33-2Z" transform="translate(0 0)"/><path class="cls-14" d="M180.37,95c-.89-4.18-2.92-7.14-5.62-8.75h-.09l-.11-.07-1.75-1a9.9,9.9,0,0,0-1-.57h0c-4-1.91-9.21-1.1-14.43,2.82-9.27,7-15,21.09-12.74,31.55.83,3.89,2.64,6.73,5.07,8.4h0l.63.36.14.08,2.22,1.28h0c4,2.27,9.52,1.58,15-2.53C176.9,119.59,182.6,105.47,180.37,95Z" transform="translate(0 0)"/><g class="cls-16"><path class="cls-17" d="M30,231c0,3.27-2.46,5.31-6.39,5.31h-3v4h-3.4v-14.7h6.36C27.51,225.62,30,227.66,30,231Zm-3.45,0c0-1.62-1.05-2.57-3.12-2.57H20.62v5.11H23.4C25.47,233.5,26.52,232.55,26.52,231Z" transform="translate(0 0)"/></g><g class="cls-16"><path class="cls-17" d="M31.14,234.67c0-3.4,2.63-5.81,6.22-5.81s6.19,2.41,6.19,5.81-2.6,5.82-6.19,5.82S31.14,238.07,31.14,234.67Zm9.09,0a2.89,2.89,0,1,0-2.87,3.13A2.85,2.85,0,0,0,40.23,234.67Z" transform="translate(0 0)"/><path class="cls-17" d="M45.74,236.58V224.74H49v11.65a1.31,1.31,0,0,0,1.41,1.49,2,2,0,0,0,.92-.21l.15,2.54a5.31,5.31,0,0,1-1.7.28C47.25,240.49,45.74,239.1,45.74,236.58Z" transform="translate(0 0)"/><path class="cls-17" d="M64.49,229v9.41c0,4.2-2.21,6.13-6.15,6.13a8.92,8.92,0,0,1-5.4-1.55l1.3-2.35a6.34,6.34,0,0,0,3.82,1.26c2.21,0,3.15-1,3.15-3.07v-.38a4.62,4.62,0,0,1-3.34,1.3c-2.83,0-4.83-1.57-4.83-5.08V229h3.28v5.19c0,1.91.84,2.75,2.29,2.75s2.6-1,2.6-3V229Z" transform="translate(0 0)"/><path class="cls-17" d="M79.84,234.67a5.49,5.49,0,0,1-5.63,5.82,4.36,4.36,0,0,1-3.4-1.37v5.27H67.53V229h3.13v1.31a4.39,4.39,0,0,1,3.55-1.47A5.48,5.48,0,0,1,79.84,234.67Zm-3.32,0a2.89,2.89,0,1,0-2.88,3.13A2.85,2.85,0,0,0,76.52,234.67Z" transform="translate(0 0)"/></g><g class="cls-16"><path class="cls-17" d="M88.3,228.86v3c-.27,0-.48,0-.73,0-1.81,0-3,1-3,3.15v5.33H81.29V229h3.13v1.5A4.54,4.54,0,0,1,88.3,228.86Z" transform="translate(0 0)"/></g><g class="cls-16"><path class="cls-17" d="M89.06,234.67c0-3.4,2.63-5.81,6.22-5.81s6.19,2.41,6.19,5.81-2.6,5.82-6.19,5.82S89.06,238.07,89.06,234.67Zm9.09,0a2.89,2.89,0,1,0-2.87,3.13A2.85,2.85,0,0,0,98.15,234.67Z" transform="translate(0 0)"/><path class="cls-17" d="M116,234.67a5.49,5.49,0,0,1-5.63,5.82,4.37,4.37,0,0,1-3.4-1.37v5.27h-3.27V229h3.13v1.31a4.35,4.35,0,0,1,3.54-1.47A5.48,5.48,0,0,1,116,234.67Zm-3.32,0a2.89,2.89,0,1,0-2.87,3.13A2.85,2.85,0,0,0,112.64,234.67Z" transform="translate(0 0)"/><path class="cls-17" d="M129.53,229v9.41c0,4.2-2.21,6.13-6.16,6.13A8.91,8.91,0,0,1,118,243l1.3-2.35a6.32,6.32,0,0,0,3.82,1.26c2.21,0,3.15-1,3.15-3.07v-.38a4.63,4.63,0,0,1-3.34,1.3c-2.83,0-4.83-1.57-4.83-5.08V229h3.28v5.19c0,1.91.84,2.75,2.29,2.75s2.6-1,2.6-3V229Z" transform="translate(0 0)"/></g><g class="cls-16"><path class="cls-17" d="M132.15,236.58V224.74h3.28v11.65a1.3,1.3,0,0,0,1.4,1.49,2.1,2.1,0,0,0,.93-.21l.14,2.54a5.27,5.27,0,0,1-1.7.28C133.66,240.49,132.15,239.1,132.15,236.58Z" transform="translate(0 0)"/></g><g class="cls-16"><path class="cls-17" d="M147.53,236.77l1.74,1.89a5.91,5.91,0,0,1-4.66,1.83c-3.91,0-6.45-2.46-6.45-5.82a5.74,5.74,0,0,1,6.05-5.81,5.54,5.54,0,0,1,5.84,5.71l-8.36,1.61a3,3,0,0,0,3,1.68A3.82,3.82,0,0,0,147.53,236.77Zm-6.16-2.43,5.51-1.07a2.63,2.63,0,0,0-2.67-1.94A2.78,2.78,0,0,0,141.37,234.34Z" transform="translate(0 0)"/></g><g class="cls-16"><path class="cls-17" d="M163.59,233.85v6.47h-3.28v-6c0-1.83-.84-2.67-2.28-2.67s-2.71,1-2.71,3.05v5.58H152V229h3.13v1.33a4.94,4.94,0,0,1,3.74-1.49C161.57,228.86,163.59,230.41,163.59,233.85Z" transform="translate(0 0)"/></g><g class="cls-16"><path class="cls-17" d="M175.06,236.77l1.74,1.89a5.91,5.91,0,0,1-4.66,1.83c-3.91,0-6.45-2.46-6.45-5.82a5.74,5.74,0,0,1,6.05-5.81,5.54,5.54,0,0,1,5.84,5.71l-8.36,1.61a3,3,0,0,0,3,1.68A3.82,3.82,0,0,0,175.06,236.77Zm-6.16-2.43,5.51-1.07a2.63,2.63,0,0,0-2.67-1.94A2.78,2.78,0,0,0,168.9,234.34Z" transform="translate(0 0)"/></g><g class="cls-16"><path class="cls-17" d="M184.68,233c0-4.43,3.4-7.6,8-7.6a7.56,7.56,0,0,1,6,2.6l-2.18,2a4.75,4.75,0,0,0-3.69-1.72,4.7,4.7,0,1,0,0,9.4,4.67,4.67,0,0,0,3.69-1.74l2.18,2a7.53,7.53,0,0,1-6.06,2.62C188.08,240.57,184.68,237.4,184.68,233Z" transform="translate(0 0)"/></g><g class="cls-16"><path class="cls-17" d="M208.74,236.77l1.74,1.89a5.91,5.91,0,0,1-4.66,1.83c-3.91,0-6.45-2.46-6.45-5.82a5.74,5.74,0,0,1,6-5.81,5.54,5.54,0,0,1,5.84,5.71l-8.36,1.61a3,3,0,0,0,3,1.68A3.82,3.82,0,0,0,208.74,236.77Zm-6.16-2.43,5.5-1.07a2.61,2.61,0,0,0-2.66-1.94A2.78,2.78,0,0,0,202.58,234.34Z" transform="translate(0 0)"/><path class="cls-17" d="M213.46,236.58V224.74h3.28v11.65a1.3,1.3,0,0,0,1.4,1.49,2.1,2.1,0,0,0,.93-.21l.15,2.54a5.37,5.37,0,0,1-1.71.28C215,240.49,213.46,239.1,213.46,236.58Z" transform="translate(0 0)"/></g><g class="cls-16"><path class="cls-17" d="M220.31,236.58V224.74h3.28v11.65a1.3,1.3,0,0,0,1.4,1.49,2.1,2.1,0,0,0,.93-.21l.14,2.54a5.27,5.27,0,0,1-1.7.28C221.82,240.49,220.31,239.1,220.31,236.58Z" transform="translate(0 0)"/></g><g class="cls-16"><path class="cls-17" d="M226.32,234.67c0-3.4,2.63-5.81,6.22-5.81s6.19,2.41,6.19,5.81-2.6,5.82-6.19,5.82S226.32,238.07,226.32,234.67Zm9.09,0a2.89,2.89,0,1,0-2.87,3.13A2.85,2.85,0,0,0,235.41,234.67Z" transform="translate(0 0)"/></g><path class="cls-4" d="M.1,118.23v2.18l133.58,69.33a15.25,15.25,0,0,0,7.61,2.2h.54a23.25,23.25,0,0,0,12.6-4.18c8.39-5.48,14.82-15.34,17-25.94l6.65,3.2a15.52,15.52,0,0,0,7.68,2,23,23,0,0,0,13-4.58c12.16-8.5,19.26-26.38,15.83-39.85-1.44-5.69-4.51-9.9-8.88-12.17l-19.27-8.48a30.77,30.77,0,0,0-.71-10.43c-1.44-5.69-4.52-9.9-8.88-12.17L.77,1.8a3,3,0,0,0-.6,1.25h0v.46l1.58.68.2.08H2L176,81c3.83,2,6.58,5.79,7.89,11a29.41,29.41,0,0,1,.6,10.45l-.08.68,20.46,9c3.82,2,6.57,5.79,7.88,11,3.26,12.79-3.52,29.79-15.1,37.89-6.51,4.55-13.49,5.46-18.77,2.49L170,159.12l-.21,1.2c-1.79,10.4-8.22,20.57-16.39,25.91a21.24,21.24,0,0,1-12.07,3.87,13.83,13.83,0,0,1-6.77-2Z" transform="translate(0 0)"/></g></svg>