<svg xmlns="http://www.w3.org/2000/svg" xmlns:xlink="http://www.w3.org/1999/xlink" viewBox="0 0 261.12 260.72"><defs><clipPath id="clip-path"><ellipse cx="192.5" cy="138.37" rx="21.47" ry="13.36" transform="translate(-15.08 252.88) rotate(-64.59)" fill="none"/></clipPath><clipPath id="clip-path-2"><ellipse cx="148.93" cy="163.57" rx="21.47" ry="13.36" transform="translate(-64.62 221.28) rotate(-62.8)" fill="none"/></clipPath><clipPath id="clip-path-3"><ellipse cx="163.64" cy="107.29" rx="21.47" ry="13.36" transform="translate(-3.48 209.07) rotate(-64.59)" fill="none"/></clipPath></defs><title>Polyproylene Cello</title><g style="isolation:isolate"><g id="Layer_1" data-name="Layer 1"><path d="M.1,3V257.72a3,3,0,0,0,3,3h255a3,3,0,0,0,3-3V3a3,3,0,0,0-3-3H3.1A3,3,0,0,0,.77,1.1a3,3,0,0,0-.6,1.25v0l0,.46A.76.76,0,0,0,.1,3Z" fill="#9acff5"/><path d="M.1,20V136l123.5,64.92c5.51,3.29,13.07,2.95,20.64-1.74,9.41-5.83,40.34-20.77,47.7-25.76,12.45-8.42,19.69-26.06,16.19-39.38-1.48-5.62-4.64-9.58-8.73-11.64l-21.57-9.2a30,30,0,0,0-.63-11.14c-1.48-5.63-4.64-9.58-8.74-11.64Z" fill="#9acff5" style="mix-blend-mode:multiply"/><path d="M29,34.78V92.15l148.93,71.53a14.86,14.86,0,0,0,9.12,1.71,23,23,0,0,0,10.4-4.22c11.82-8.27,18.7-25.57,15.38-38.63-1.41-5.52-4.41-9.4-8.3-11.42L29.09,33.9l-.06.23A2.81,2.81,0,0,0,29,34.78Z" fill="#f2f2f2"/><path d="M29,91.89v.52l148.83,71.48a14.7,14.7,0,0,0,7.28,1.87,22,22,0,0,0,12.47-4.41c11.87-8.3,18.81-25.74,15.47-38.87-1.38-5.43-4.29-9.43-8.41-11.57L29.17,33.68a2.15,2.15,0,0,0-.14.45l175.37,77.2c4,2.07,6.81,6,8.16,11.27,3.3,13-3.56,30.17-15.28,38.38-6.72,4.69-13.75,5.61-19.28,2.5h0Z" fill="#333"/><path d="M29,41.07v10.6l158.88,82.09c4.06,2.44,7,6.74,8,12.61a30.24,30.24,0,0,1-.41,11.53c7.37-9.05,11-21.86,8.42-32.08-1.41-5.52-4.41-9.4-8.3-11.42Z" fill="#a3a3a3" opacity="0.2"/><path d="M29,41.07V92.15l148.93,71.53a14.86,14.86,0,0,0,9.12,1.71c.48-.29,1-.61,1.44-.94,11.82-8.27,18.7-25.56,15.38-38.63-1.41-5.52-4.41-9.4-8.3-11.42Z" fill="#a3a3a3" opacity="0.2"/><ellipse cx="191.39" cy="137.51" rx="29.47" ry="20.24" transform="translate(-14.96 251.34) rotate(-64.58)" fill="#f2f2f2" stroke="#333" stroke-miterlimit="10" stroke-width="0.92"/><path d="M209.23,126.08c-.89-4.18-2.92-7.14-5.62-8.75h0l-.09,0-.11-.07-1.75-1c-.33-.2-.67-.4-1-.57h0c-4-1.91-9.21-1.1-14.43,2.82-9.27,7-15,21.09-12.74,31.55.83,3.9,2.64,6.73,5.07,8.4l0,0,.63.36.14.08,2.22,1.28h0c4,2.27,9.52,1.58,15-2.53C205.76,150.67,211.46,136.55,209.23,126.08Z" fill="#6a6a6a" stroke="#333" stroke-miterlimit="10" stroke-width="0.46"/><ellipse cx="192.16" cy="138.44" rx="24.12" ry="15.29" transform="translate(-15.34 252.61) rotate(-64.59)" fill="#a3a3a3"/><g clip-path="url(#clip-path)"><ellipse cx="190.34" cy="137.11" rx="21.47" ry="13.36" transform="translate(-15.17 250.22) rotate(-64.59)" fill="none" stroke="#333" stroke-miterlimit="10" stroke-width="0.46" stroke-dasharray="0.37 1.84"/><ellipse cx="192.5" cy="138.37" rx="21.47" ry="13.36" transform="translate(-15.08 252.88) rotate(-64.59)" fill="none" stroke="#333" stroke-miterlimit="10" stroke-width="0.46" stroke-dasharray="0.37 1.84"/><ellipse cx="188.19" cy="135.85" rx="21.47" ry="13.36" transform="translate(-15.26 247.55) rotate(-64.59)" fill="none" stroke="#333" stroke-miterlimit="10" stroke-width="0.46" stroke-dasharray="0.37 1.84"/><ellipse cx="186.04" cy="134.59" rx="21.47" ry="13.36" transform="translate(-15.35 244.89) rotate(-64.59)" fill="none" stroke="#333" stroke-miterlimit="10" stroke-width="0.46" stroke-dasharray="0.37 1.84"/><ellipse cx="183.89" cy="133.32" rx="21.47" ry="13.36" transform="translate(-15.44 242.22) rotate(-64.59)" fill="none" stroke="#333" stroke-miterlimit="10" stroke-width="0.46" stroke-dasharray="0.37 1.84"/><ellipse cx="181.73" cy="132.06" rx="21.47" ry="13.36" transform="translate(-15.53 239.56) rotate(-64.59)" fill="none" stroke="#333" stroke-miterlimit="10" stroke-width="0.46" stroke-dasharray="0.37 1.84"/><ellipse cx="179.58" cy="130.8" rx="21.47" ry="13.36" transform="translate(-15.62 236.89) rotate(-64.59)" fill="none" stroke="#333" stroke-miterlimit="10" stroke-width="0.46" stroke-dasharray="0.37 1.84"/><ellipse cx="177.43" cy="129.54" rx="21.47" ry="13.36" transform="translate(-15.71 234.23) rotate(-64.59)" fill="none" stroke="#333" stroke-miterlimit="10" stroke-width="0.46" stroke-dasharray="0.37 1.84"/><ellipse cx="175.28" cy="128.28" rx="21.47" ry="13.36" transform="translate(-15.8 231.56) rotate(-64.59)" fill="none" stroke="#333" stroke-miterlimit="10" stroke-width="0.46" stroke-dasharray="0.37 1.84"/><ellipse cx="173.12" cy="127.01" rx="21.47" ry="13.36" transform="translate(-15.88 228.9) rotate(-64.59)" fill="none" stroke="#333" stroke-miterlimit="10" stroke-width="0.46" stroke-dasharray="0.37 1.84"/><ellipse cx="170.97" cy="125.75" rx="21.47" ry="13.36" transform="translate(-15.97 226.23) rotate(-64.59)" fill="none" stroke="#333" stroke-miterlimit="10" stroke-width="0.46" stroke-dasharray="0.37 1.84"/></g><ellipse cx="192.5" cy="138.37" rx="21.47" ry="13.36" transform="translate(-15.08 252.88) rotate(-64.59)" fill="#b3b3b3" stroke="#333" stroke-miterlimit="10" stroke-width="0.46" style="mix-blend-mode:multiply"/><path d="M166.39,170.74,53.14,117.93a21,21,0,0,0-6.5-1.38c-5-.31-8.82.94-8.58,2.78.09.72.79,1.43,1.91,2l118.37,57.44A36.68,36.68,0,0,1,166.39,170.74Z" fill="#f2f2f2"/><path d="M.1,59.42v59.69l133.44,69.3a14.89,14.89,0,0,0,9.07,2,23,23,0,0,0,10.52-3.9c12.08-7.89,19.49-25,16.58-38.13-1.23-5.56-4.11-9.53-7.94-11.67Z" fill="#f2f2f2"/><path d="M.12,119.87v.52l133.22,69.2a14.78,14.78,0,0,0,7.22,2.09,22,22,0,0,0,12.6-4c12.12-7.92,19.6-25.14,16.67-38.36-1.21-5.47-4-9.56-8-11.83L.15,60.39a2.52,2.52,0,0,0-.15.44l161.57,77.05c3.92,2.2,6.62,6.18,7.8,11.52,2.89,13.06-4.5,30-16.47,37.89-6.86,4.47-13.92,5.17-19.35,1.89h0Z" fill="#333"/><path d="M.1,66.75V78.44l144.33,80.38c4,2.56,6.75,7,7.58,12.85a30.16,30.16,0,0,1-.77,11.51c7.65-8.81,11.7-21.5,9.42-31.8-1.24-5.56-4.12-9.53-7.94-11.67Z" fill="#a3a3a3" opacity="0.2"/><path d="M.1,66.75v52.36l133.44,69.3a14.89,14.89,0,0,0,9.07,2q.73-.42,1.47-.9c12.07-7.89,19.48-25,16.57-38.13-1.23-5.56-4.11-9.53-7.93-11.67Z" fill="#a3a3a3" opacity="0.2"/><ellipse cx="147.86" cy="162.67" rx="29.47" ry="20.24" transform="translate(-64.42 219.78) rotate(-62.79)" fill="#f2f2f2" stroke="#333" stroke-miterlimit="10" stroke-width="0.92"/><path d="M166,151.81c-.76-4.2-2.69-7.23-5.34-8.92h0l-.08-.06-.12-.06-1.72-1.05a10,10,0,0,0-1-.6h0c-3.92-2-9.18-1.39-14.52,2.37-9.48,6.66-15.62,20.6-13.72,31.13.71,3.92,2.43,6.81,4.81,8.56l0,0,.62.39.13.08,2.19,1.35h0c4,2.39,9.47,1.87,15.06-2.06C161.81,176.28,168,162.34,166,151.81Z" fill="#6a6a6a" stroke="#333" stroke-miterlimit="10" stroke-width="0.46"/><ellipse cx="148.6" cy="163.63" rx="24.12" ry="15.29" transform="translate(-64.86 221) rotate(-62.8)" fill="#a3a3a3"/><g clip-path="url(#clip-path-2)"><ellipse cx="148.6" cy="163.63" rx="24.12" ry="15.29" transform="translate(-64.86 221) rotate(-62.8)" fill="#a3a3a3" opacity="0.5"/><ellipse cx="146.82" cy="162.24" rx="21.47" ry="13.36" transform="translate(-64.59 218.68) rotate(-62.8)" fill="none" stroke="#333" stroke-miterlimit="10" stroke-width="0.46" stroke-dasharray="0.37 1.84"/><ellipse cx="148.93" cy="163.57" rx="21.47" ry="13.36" transform="translate(-64.62 221.28) rotate(-62.8)" fill="none" stroke="#333" stroke-miterlimit="10" stroke-width="0.46" stroke-dasharray="0.37 1.84"/><ellipse cx="144.71" cy="160.92" rx="21.47" ry="13.36" transform="translate(-64.55 216.08) rotate(-62.8)" fill="none" stroke="#333" stroke-miterlimit="10" stroke-width="0.46" stroke-dasharray="0.37 1.84"/><ellipse cx="142.6" cy="159.59" rx="21.47" ry="13.36" transform="translate(-64.52 213.48) rotate(-62.8)" fill="none" stroke="#333" stroke-miterlimit="10" stroke-width="0.46" stroke-dasharray="0.37 1.84"/><ellipse cx="140.49" cy="158.26" rx="21.47" ry="13.36" transform="translate(-64.49 210.88) rotate(-62.8)" fill="none" stroke="#333" stroke-miterlimit="10" stroke-width="0.46" stroke-dasharray="0.37 1.84"/><ellipse cx="138.37" cy="156.93" rx="21.47" ry="13.36" transform="translate(-64.45 208.28) rotate(-62.8)" fill="none" stroke="#333" stroke-miterlimit="10" stroke-width="0.46" stroke-dasharray="0.37 1.84"/><ellipse cx="136.26" cy="155.6" rx="21.47" ry="13.36" transform="translate(-64.42 205.68) rotate(-62.8)" fill="none" stroke="#333" stroke-miterlimit="10" stroke-width="0.46" stroke-dasharray="0.37 1.84"/><ellipse cx="134.15" cy="154.27" rx="21.47" ry="13.36" transform="translate(-64.38 203.08) rotate(-62.8)" fill="none" stroke="#333" stroke-miterlimit="10" stroke-width="0.46" stroke-dasharray="0.37 1.84"/><ellipse cx="132.04" cy="152.94" rx="21.47" ry="13.36" transform="translate(-64.35 200.48) rotate(-62.8)" fill="none" stroke="#333" stroke-miterlimit="10" stroke-width="0.46" stroke-dasharray="0.37 1.84"/><ellipse cx="129.93" cy="151.62" rx="21.47" ry="13.36" transform="translate(-64.31 197.88) rotate(-62.8)" fill="none" stroke="#333" stroke-miterlimit="10" stroke-width="0.46" stroke-dasharray="0.37 1.84"/><ellipse cx="127.81" cy="150.29" rx="21.47" ry="13.36" transform="translate(-64.28 195.28) rotate(-62.8)" fill="none" stroke="#333" stroke-miterlimit="10" stroke-width="0.46" stroke-dasharray="0.37 1.84"/></g><ellipse cx="148.93" cy="163.57" rx="21.47" ry="13.36" transform="translate(-64.62 221.28) rotate(-62.8)" fill="#b3b3b3" stroke="#333" stroke-miterlimit="10" stroke-width="0.46" style="mix-blend-mode:multiply"/><path d="M138,138.47,24.75,85.66a21,21,0,0,0-6.5-1.38c-5-.31-8.82.93-8.58,2.78.09.72.79,1.43,1.91,2L130,146.54A36.68,36.68,0,0,1,138,138.47Z" fill="#f2f2f2"/><path d="M.1,74.28v3.1c1.08-.29,1.68-.75,1.63-1.35S1.09,74.87.1,74.28Z" fill="#f2f2f2"/><path d="M166,151.81c-.76-4.2-2.69-7.23-5.34-8.92h0l-.08-.06-.12-.06-1.72-1.05a10,10,0,0,0-1-.6h0c-3.92-2-9.18-1.39-14.52,2.37-9.48,6.66-15.62,20.6-13.72,31.13.71,3.92,2.43,6.81,4.81,8.56l0,0,.62.39.13.08,2.19,1.35h0c4,2.39,9.47,1.87,15.06-2.06C161.81,176.28,168,162.34,166,151.81Z" fill="none" stroke="#333" stroke-miterlimit="10" stroke-width="0.46"/><path d="M209.23,126.08c-.89-4.18-2.92-7.14-5.62-8.75h0l-.09,0-.11-.07-1.75-1c-.33-.2-.67-.4-1-.57h0c-4-1.91-9.21-1.1-14.43,2.82-9.27,7-15,21.09-12.74,31.55.83,3.9,2.64,6.73,5.07,8.4l0,0,.63.36.14.08,2.22,1.28h0c4,2.27,9.52,1.58,15-2.53C205.76,150.67,211.46,136.55,209.23,126.08Z" fill="none" stroke="#333" stroke-miterlimit="10" stroke-width="0.46"/><path d="M.1,3.7V61.07L149,132.6a14.86,14.86,0,0,0,9.12,1.71,23,23,0,0,0,10.4-4.22c11.82-8.27,18.7-25.57,15.38-38.63-1.41-5.52-4.41-9.4-8.3-11.42L.23,2.82l-.06.23A2.81,2.81,0,0,0,.1,3.7Z" fill="#f2f2f2"/><path d="M.1,60.81v.52l148.83,71.48a14.7,14.7,0,0,0,7.28,1.87,22,22,0,0,0,12.47-4.41c11.87-8.3,18.81-25.74,15.47-38.87-1.38-5.43-4.29-9.43-8.41-11.57L.31,2.6a2.15,2.15,0,0,0-.14.45l175.37,77.2c4,2.07,6.81,6,8.16,11.27,3.3,13-3.56,30.17-15.28,38.38-6.72,4.69-13.75,5.61-19.28,2.5h0Z" fill="#333"/><path d="M.1,10v10.6L159,102.68c4.06,2.44,7,6.74,8,12.61a30.24,30.24,0,0,1-.41,11.53c7.37-9,11-21.86,8.42-32.08-1.41-5.52-4.41-9.4-8.3-11.42Z" fill="#a3a3a3" opacity="0.2"/><path d="M.1,10V61.07L149,132.6a14.86,14.86,0,0,0,9.12,1.71c.48-.29,1-.61,1.44-.94,11.82-8.27,18.7-25.56,15.38-38.63-1.41-5.52-4.41-9.4-8.3-11.42Z" fill="#a3a3a3" opacity="0.2"/><ellipse cx="162.53" cy="106.43" rx="29.47" ry="20.24" transform="translate(-3.36 207.54) rotate(-64.58)" fill="#f2f2f2" stroke="#333" stroke-miterlimit="10" stroke-width="0.92"/><path d="M180.37,95c-.89-4.18-2.92-7.14-5.62-8.75h0l-.09,0-.11-.07-1.75-1a10.2,10.2,0,0,0-1-.57h0c-4-1.91-9.21-1.1-14.43,2.82-9.27,7-15,21.09-12.74,31.55.83,3.89,2.64,6.73,5.07,8.4l0,0,.63.36.14.08,2.22,1.28h0c4,2.27,9.52,1.58,15-2.53C176.9,119.59,182.6,105.47,180.37,95Z" fill="#6a6a6a" stroke="#333" stroke-miterlimit="10" stroke-width="0.46"/><ellipse cx="163.3" cy="107.36" rx="24.12" ry="15.29" transform="translate(-3.74 208.8) rotate(-64.59)" fill="#a3a3a3"/><g clip-path="url(#clip-path-3)"><ellipse cx="163.3" cy="107.36" rx="24.12" ry="15.29" transform="translate(-3.74 208.8) rotate(-64.59)" fill="#a3a3a3" opacity="0.5"/><ellipse cx="161.48" cy="106.03" rx="21.47" ry="13.36" transform="translate(-3.57 206.4) rotate(-64.59)" fill="none" stroke="#333" stroke-miterlimit="10" stroke-width="0.46" stroke-dasharray="0.37 1.84"/><ellipse cx="163.64" cy="107.29" rx="21.47" ry="13.36" transform="translate(-3.48 209.07) rotate(-64.59)" fill="none" stroke="#333" stroke-miterlimit="10" stroke-width="0.46" stroke-dasharray="0.37 1.84"/><ellipse cx="159.33" cy="104.77" rx="21.47" ry="13.36" transform="translate(-3.66 203.74) rotate(-64.59)" fill="none" stroke="#333" stroke-miterlimit="10" stroke-width="0.46" stroke-dasharray="0.37 1.84"/><ellipse cx="157.18" cy="103.5" rx="21.47" ry="13.36" transform="translate(-3.75 201.07) rotate(-64.59)" fill="none" stroke="#333" stroke-miterlimit="10" stroke-width="0.46" stroke-dasharray="0.37 1.84"/><ellipse cx="155.03" cy="102.24" rx="21.47" ry="13.36" transform="translate(-3.84 198.41) rotate(-64.59)" fill="none" stroke="#333" stroke-miterlimit="10" stroke-width="0.46" stroke-dasharray="0.37 1.84"/><ellipse cx="152.87" cy="100.98" rx="21.47" ry="13.36" transform="translate(-3.93 195.74) rotate(-64.59)" fill="none" stroke="#333" stroke-miterlimit="10" stroke-width="0.46" stroke-dasharray="0.37 1.84"/><ellipse cx="150.72" cy="99.72" rx="21.47" ry="13.36" transform="translate(-4.02 193.08) rotate(-64.59)" fill="none" stroke="#333" stroke-miterlimit="10" stroke-width="0.46" stroke-dasharray="0.37 1.84"/><ellipse cx="148.57" cy="98.46" rx="21.47" ry="13.36" transform="translate(-4.11 190.41) rotate(-64.59)" fill="none" stroke="#333" stroke-miterlimit="10" stroke-width="0.46" stroke-dasharray="0.37 1.84"/><ellipse cx="146.42" cy="97.2" rx="21.47" ry="13.36" transform="translate(-4.2 187.75) rotate(-64.59)" fill="none" stroke="#333" stroke-miterlimit="10" stroke-width="0.46" stroke-dasharray="0.37 1.84"/><ellipse cx="144.26" cy="95.93" rx="21.47" ry="13.36" transform="translate(-4.29 185.08) rotate(-64.59)" fill="none" stroke="#333" stroke-miterlimit="10" stroke-width="0.46" stroke-dasharray="0.37 1.84"/><ellipse cx="142.11" cy="94.67" rx="21.47" ry="13.36" transform="translate(-4.38 182.42) rotate(-64.59)" fill="none" stroke="#333" stroke-miterlimit="10" stroke-width="0.46" stroke-dasharray="0.37 1.84"/></g><ellipse cx="163.64" cy="107.29" rx="21.47" ry="13.36" transform="translate(-3.48 209.07) rotate(-64.59)" fill="#b3b3b3" stroke="#333" stroke-miterlimit="10" stroke-width="0.46" style="mix-blend-mode:multiply"/><path d="M151.92,82.54,37.08,33.29a21.19,21.19,0,0,0-6.54-1.17c-5-.15-8.79,1.21-8.49,3,.11.72.84,1.41,2,2L144.13,90.86A36.79,36.79,0,0,1,151.92,82.54Z" fill="#f2f2f2"/><path d="M.1,17.27v8.24c.83.16,1.69.3,2.58.41,6.31.83,11.28.15,11.09-1.53-.08-.66-.93-1.37-2.33-2Z" fill="#f2f2f2"/><path d="M180.37,95c-.89-4.18-2.92-7.14-5.62-8.75h0l-.09,0-.11-.07-1.75-1a10.2,10.2,0,0,0-1-.57h0c-4-1.91-9.21-1.1-14.43,2.82-9.27,7-15,21.09-12.74,31.55.83,3.89,2.64,6.73,5.07,8.4l0,0,.63.36.14.08,2.22,1.28h0c4,2.27,9.52,1.58,15-2.53C176.9,119.59,182.6,105.47,180.37,95Z" fill="none" stroke="#333" stroke-miterlimit="10" stroke-width="0.46"/><text transform="translate(15.48 240.32)" font-size="21" fill="#4d4d4d" font-family="MontserratAlternates-SemiBold, Montserrat Alternates" font-weight="700"><tspan letter-spacing="-0.01em">P</tspan><tspan x="14.99" y="0">olyp</tspan><tspan x="64.3" y="0" letter-spacing="-0.01em">r</tspan><tspan x="72.91" y="0" letter-spacing="0em">opy</tspan><tspan x="115.16" y="0" letter-spacing="-0.01em">l</tspan><tspan x="122.01" y="0" letter-spacing="0em">e</tspan><tspan x="135.05" y="0" letter-spacing="0.01em">n</tspan><tspan x="149.54" y="0" letter-spacing="0em">e </tspan><tspan x="168.38" y="0" letter-spacing="-0.02em">C</tspan><tspan x="183.22" y="0" letter-spacing="0em">el</tspan><tspan x="203.32" y="0" letter-spacing="-0.01em">l</tspan><tspan x="210.17" y="0">o</tspan></text><path d="M.1,118.23v2.18l133.58,69.33a15.34,15.34,0,0,0,7.61,2.2h.54a23.31,23.31,0,0,0,12.6-4.18c8.39-5.48,14.82-15.34,17-25.94l6.65,3.2a15.5,15.5,0,0,0,7.68,2,23,23,0,0,0,13-4.58c12.16-8.5,19.26-26.38,15.83-39.85-1.44-5.69-4.51-9.9-8.88-12.17l-19.27-8.48a30.52,30.52,0,0,0-.71-10.43c-1.44-5.69-4.52-9.9-8.88-12.17L.77,1.8a3,3,0,0,0-.6,1.25v0l0,.46,1.58.68.2.08h0L176,81c3.83,2,6.58,5.79,7.89,11a29.43,29.43,0,0,1,.6,10.45l-.08.68,20.46,9c3.82,2,6.57,5.79,7.88,11,3.26,12.79-3.52,29.79-15.1,37.89-6.51,4.55-13.49,5.46-18.77,2.49L170,159.12l-.21,1.2c-1.79,10.4-8.22,20.57-16.39,25.91a21.25,21.25,0,0,1-12.07,3.87,13.76,13.76,0,0,1-6.77-2Z" fill="#333"/></g></g></svg>