<svg id="Layer_1" data-name="Layer 1" xmlns="http://www.w3.org/2000/svg" viewBox="0 0 261.03 260.72"><defs><style>.cls-1{fill:#bae4e1;}.cls-2{fill:#00a99d;opacity:0.25;}.cls-2,.cls-5,.cls-9{isolation:isolate;}.cls-3,.cls-8{fill:none;}.cls-4{fill:#b3b3b3;}.cls-4,.cls-5,.cls-8{stroke:#000;stroke-miterlimit:10;}.cls-4,.cls-8{stroke-width:1.27px;}.cls-5{fill:#e6e6e6;stroke-width:0.64px;}.cls-5,.cls-6{opacity:0.66;}.cls-7{fill:#666;}.cls-10{fill:#4d4d4d;}</style></defs><title>Scoops</title><rect class="cls-1" width="261.03" height="260.72" rx="3" ry="3"/><path class="cls-2" d="M243.6,60.22c-.8-3.78-7.71-5.52-15.43-3.88a25,25,0,0,0-8.32,3.3h0l-15.61,9.14-46.7,27.33-7.81,5-.22.13a3.27,3.27,0,0,1-1.75.45h-.27l-2.62-.25a107.17,107.17,0,0,0-35.71,1.84c-32.16,6.84-55.6,25-52.75,40.72.13.62.28,1.24.45,1.84V146c7.45,26.8,37.67,42.92,69,36.26s52.41-33.66,48.3-61.18v-.17c-.1-.62-.2-1.23-.33-1.85-.05-.28-.1-.54-.16-.82-.28-1.3-.63-2.58-1-3.84l67-40.41q.73-.41,1.38-.84h0a11.06,11.06,0,0,0,3.22-3.1,4.44,4.44,0,0,0,.75-3.28l-1.37-6.41h0A.4.4,0,0,0,243.6,60.22Z"/><path class="cls-3" d="M237.44,55c-.8-3.78-7.71-5.52-15.43-3.88a24.81,24.81,0,0,0-8.32,3.31h0L143.37,95.52a3.32,3.32,0,0,1-2,.44l-3.15-.29,2.61,12.27,22.74-1.48-1-1a.9.9,0,0,1-.06-1.26,1,1,0,0,1,.2-.16l69.42-41.9a14,14,0,0,0,1.4-.84h0C236.32,59.42,237.9,57.09,237.44,55Z"/><rect class="cls-3" x="151.29" y="57.42" width="91.66" height="56.35" transform="translate(-13.48 42.82) rotate(-11.99)"/><path class="cls-4" d="M236,48.36c-.81-3.78-7.72-5.52-15.43-3.88a25.35,25.35,0,0,0-8.33,3.3h0l-15.61,9.14L150,84.25l-7.81,5-.23.14a3.33,3.33,0,0,1-1.74.45h-.28l-2.62-.25a106.64,106.64,0,0,0-35.71,1.84c-32.15,6.83-55.57,25-52.73,40.73.13.62.29,1.23.46,1.83a.61.61,0,0,0,0,.18c7.44,26.8,37.66,42.92,69,36.26s52.42-33.67,48.31-61.18v-.17q-.13-.93-.33-1.86a4,4,0,0,0-.16-.81c-.28-1.31-.62-2.58-1-3.84l66.91-40.39c.49-.28.95-.56,1.39-.84h0a11.32,11.32,0,0,0,3.22-3.1,4.39,4.39,0,0,0,.74-3.28l-1.36-6.41h0A1.18,1.18,0,0,0,236,48.36Z"/><path class="cls-5" d="M236,48.36a4.44,4.44,0,0,1-.75,3.28A11,11,0,0,1,232,54.73h0q-.64.42-1.38.84L162.87,96.5l-1.62,1a.89.89,0,0,0-.27,1.24l.06.09c.37.33.73.67,1.06,1h0a16.26,16.26,0,0,1,4.19,7.36,3.15,3.15,0,0,1,.11.44,13.52,13.52,0,0,1,.22,1.42v.17c1.54,15.49-21.53,32.92-52.9,39.58s-59.55.1-64.44-14.66a.61.61,0,0,1-.05-.18,12.77,12.77,0,0,1-.38-1.38,3.54,3.54,0,0,0-.08-.45c-2.77-15.71,20.65-33.87,52.8-40.7a106.83,106.83,0,0,1,35.83-1.82l2.51.23a3.4,3.4,0,0,0,2-.45l11.3-6.69,59-34.92h0a24.58,24.58,0,0,1,8.32-3.3C228.32,42.84,235.24,44.58,236,48.36Z"/><g class="cls-6"><ellipse class="cls-7" cx="107.21" cy="119.76" rx="54.8" ry="25.52" transform="translate(-22.52 24.86) rotate(-11.98)"/><path d="M124.59,92.32h-2.23V93h2.22v-.62Zm-4.47.1h-1.3l-1,.06v.62Q118.93,93,120,93v-.63Zm-4.46.3-1.59.15h-.64l.07.62,2.21-.22v-.62Zm-4.45.49h-.74l-1.48.21.1.62c.73-.11,1.47-.21,2.2-.3l-.08-.62Zm-4.42.66h-.74l-.82.15H105l-.45.08.12.61q1.1-.21,2.19-.39l-.1-.61Zm-4.4.82h-.12l-.38.08h-.17l-1.52.34.14.61,1.68-.37.5-.11-.13-.61Zm-4.36,1-.45.11h-.89l-.54.15h-.28l.16.61L98.19,96,98,95.4Zm-4.32,1.15-2.15.64.19.6,2.13-.64Zm-4.27,1.33-1,.32h-.5l-.56.2.21.58,2.1-.72L89.5,98Zm-4.22,1.5-.28.1H83.79l-.53.21.23.58,2.07-.81-.22-.58Zm-4.14,1.68c-.7.3-1.38.6-2,.91l.26.57,2-.91-.24-.57ZM77,103.22l-.56.28-1.17.6h-.06l-.2.1.29.56c.65-.34,1.31-.68,2-1L77,103.2Zm-4,2.08-1.48.85h0l-.43.26.32.53,1.92-1.11-.31-.54Zm-3.83,2.3-.41.27h-.09l-1.36.92.36.52c.59-.42,1.21-.83,1.84-1.24l-.34-.52Zm-3.67,2.55h0L64,111.29H63.9l-.11.08.4.49c.55-.46,1.14-.92,1.73-1.37l-.37-.5ZM62.09,113l-.09.08h-.1l-1.08,1h-.1l-.1.1.44.44c.51-.5,1-1,1.6-1.51l-.42-.47Zm-3.15,3.17c-.5.57-1,1.15-1.42,1.73l.5.38c.43-.56.89-1.13,1.39-1.69Zm-2.7,3.56-.07.1H56.1c-.27.44-.52.89-.76,1.33h0c0,.09-.09.17-.13.26l.55.28c.32-.62.68-1.26,1.08-1.88l-.52-.34Zm-2,4h-.06a15.06,15.06,0,0,0-.51,1.86l.61.13a14.81,14.81,0,0,1,.59-2.07l-.58-.21Zm-.9,4.36v1.07h0v.05h0a3.59,3.59,0,0,0,.09.81l.62-.08a11.55,11.55,0,0,1-.1-2.12h-.63Zm1.21,4.21-.59.2v.11h0l.06.14h0v.05h0v0h0v.05h.1l.07.14h0v.06h.08l.09.16.55-.3a12.45,12.45,0,0,1-.86-1.94Zm2,3.72-.49.39c.21.27.43.53.66.79h.11q.33.38.69.72l.44-.45a14.55,14.55,0,0,1-1.44-1.6Zm3.08,3-.39.49.09.07h.1c.41.31.83.61,1.28.9h.13l.24.15.33-.53a19.77,19.77,0,0,1-1.75-1.1Zm3.68,2.33-.29.56.77.39h.31l.75.34.25-.57a20.72,20.72,0,0,1-2-1Zm4,1.77-.21.59c.68.25,1.39.49,2.11.72l.19-.59C68.69,143.61,68,143.37,67.31,143.12Zm4.21,1.33-.16.6c.71.19,1.44.36,2.18.53l.13-.61C72.94,144.8,72.22,144.63,71.52,144.45Zm4.32,1-.11.62c.72.13,1.46.25,2.21.36l.09-.62C77.29,145.7,76.55,145.58,75.84,145.45Zm4.38.65-.07.62c.74.08,1.48.16,2.23.22v-.62c-.74-.06-1.48-.14-2.21-.22Zm4.43.38v.62c.74,0,1.48.08,2.23.1v-.62l-2.21-.1Zm6.66.13H89.08v.63h2.24v-.63Zm4.44-.17c-.75.05-1.49.08-2.22.11v.63h0l2.22-.11Zm4.43-.36c-.74.08-1.48.14-2.21.2v.63h.3l1.52-.14h.49l-.06-.62Zm4.41-.54-2.2.29.08.62.67-.08h.26l1.28-.17-.09-.62Zm4.4-.72c-.74.14-1.47.26-2.2.38l.1.62,2.21-.38h0Zm4.36-.88-1,.22-1.18.24.12.62h.49l.66-.14h.15l.28-.06h.21l.4-.09-.13-.61Zm4.32-1c-.71.19-1.43.37-2.15.54l.14.61,2.17-.55-.16-.6Zm4.28-1.21c-.7.22-1.41.42-2.13.63l.17.6.44-.13h.21l1.5-.44-.19-.6Zm4.23-1.37-2.1.71.19.59h.18l1.9-.64-.21-.59Zm4.17-1.55c-.68.27-1.38.53-2.07.79l.21.59,1.12-.42h1l-.23-.58Zm4.09-1.74-2,.89.24.58c.69-.3,1.37-.59,2-.9l-.26-.57Zm4-1.92-2,1,.28.57,1.16-.57H138l.78-.4-.29-.55Zm3.89-2.14c-.63.37-1.27.73-1.93,1.09l.3.55c.66-.36,1.31-.73,2-1.1Zm3.75-2.36c-.6.4-1.22.81-1.85,1.21l.33.53c.64-.41,1.26-.81,1.87-1.23l-.35-.51Zm3.57-2.62c-.57.45-1.16.9-1.76,1.34l.37.5c.51-.37,1-.74,1.48-1.12h.08a1.84,1.84,0,0,1,.22-.17l-.39-.49Zm3.35-3c-.52.5-1.06,1-1.63,1.49l.41.47c.39-.33.77-.67,1.13-1h.16l.32-.31Zm3-3.24c-.44.56-.92,1.12-1.43,1.67l.46.42.35-.39h.06a6.4,6.4,0,0,0,.42-.49h.1l.35-.44-.49-.39Zm2.44-3.61c-.34.61-.72,1.24-1.14,1.86l.52.35c.15-.22.29-.43.42-.65h.28v-.07l-.55-.3Zm1.62-4a19.6,19.6,0,0,1-.68,2l.57.24c.07-.17.14-.34.2-.51h0a14.92,14.92,0,0,0,.46-1.48l-.6-.16Zm1-4.28h-.62a12.63,12.63,0,0,1,0,2.13l.62.06h0c0-.36.05-.72.05-1.07h0v-.61Zm-1.17-4.29-.56.27a10.91,10.91,0,0,1,.74,2l.61-.17h0a11,11,0,0,0-.77-2ZM157.32,102l-.45.43a14.47,14.47,0,0,1,1.36,1.66l.51-.36A14.67,14.67,0,0,0,157.32,102Zm-3.42-2.86-.35.52a19.67,19.67,0,0,1,1.74,1.3l.4-.49C155.13,100,154.53,99.57,153.9,99.14Zm-3.9-2.2-.26.56c.67.32,1.33.65,2,1L152,98c-.64-.36-1.31-.69-2-1Zm-4.16-1.64-.2.6c.71.23,1.41.48,2.08.74l.22-.58C147.27,95.79,146.56,95.54,145.84,95.3Zm-4.31-1.2-.14.61c.73.17,1.45.35,2.14.54l.17-.6C143,94.46,142.27,94.27,141.53,94.1Zm-4.39-.85-.09.61,2.18.38.12-.61c-.72-.14-1.46-.27-2.21-.38Zm-4.43-.56-.06.62c.74.07,1.48.15,2.2.24l.08-.62Q133.83,92.8,132.71,92.69Zm-4.47-.3V93a20.36,20.36,0,0,1,2.22.12v-.62c-.74-.05-1.48-.09-2.24-.12Zm-3.64-.07h0v.62H126v-.62h-1.4Z"/></g><path class="cls-8" d="M236,48.36c-.81-3.78-7.72-5.52-15.43-3.88a25.35,25.35,0,0,0-8.33,3.3h0l-15.61,9.14L150,84.25l-7.81,5-.23.14a3.33,3.33,0,0,1-1.74.45h-.28l-2.62-.25a106.64,106.64,0,0,0-35.71,1.84c-32.15,6.83-55.57,25-52.73,40.73.13.62.29,1.23.46,1.83a.61.61,0,0,0,0,.18c7.44,26.8,37.66,42.92,69,36.26s52.42-33.67,48.31-61.18v-.17q-.13-.93-.33-1.86a4,4,0,0,0-.16-.81c-.28-1.31-.62-2.58-1-3.84l66.91-40.39c.49-.28.95-.56,1.39-.84h0a11.32,11.32,0,0,0,3.22-3.1,4.39,4.39,0,0,0,.74-3.28l-1.36-6.41h0A1.18,1.18,0,0,0,236,48.36Z"/><g class="cls-6"><path d="M124.59,92.32h-2.23V93h2.22v-.62Zm-4.47.1h-1.3l-1,.06v.62Q118.93,93,120,93v-.63Zm-4.46.3-1.59.15h-.64l.07.62,2.21-.22v-.62Zm-4.45.49h-.74l-1.48.21.1.62c.73-.11,1.47-.21,2.2-.3l-.08-.62Zm-4.42.66h-.74l-.82.15H105l-.45.08.12.61q1.1-.21,2.19-.39l-.1-.61Zm-4.4.82h-.12l-.38.08h-.17l-1.52.34.14.61,1.68-.37.5-.11-.13-.61Zm-4.36,1-.45.11h-.89l-.54.15h-.28l.16.61L98.19,96,98,95.4Zm-4.32,1.15-2.15.64.19.6,2.13-.64Zm-4.27,1.33-1,.32h-.5l-.56.2.21.58,2.1-.72L89.5,98Zm-4.22,1.5-.28.1H83.79l-.53.21.23.58,2.07-.81-.22-.58Zm-4.14,1.68c-.7.3-1.38.6-2,.91l.26.57,2-.91-.24-.57ZM77,103.22l-.56.28-1.17.6h-.06l-.2.1.29.56c.65-.34,1.31-.68,2-1L77,103.2Zm-4,2.08-1.48.85h0l-.43.26.32.53,1.92-1.11-.31-.54Zm-3.83,2.3-.41.27h-.09l-1.36.92.36.52c.59-.42,1.21-.83,1.84-1.24l-.34-.52Zm-3.67,2.55h0L64,111.29H63.9l-.11.08.4.49c.55-.46,1.14-.92,1.73-1.37l-.37-.5ZM62.09,113l-.09.08h-.1l-1.08,1h-.1l-.1.1.44.44c.51-.5,1-1,1.6-1.51l-.42-.47Zm-3.15,3.17c-.5.57-1,1.15-1.42,1.73l.5.38c.43-.56.89-1.13,1.39-1.69Zm-2.7,3.56-.07.1H56.1c-.27.44-.52.89-.76,1.33h0c0,.09-.09.17-.13.26l.55.28c.32-.62.68-1.26,1.08-1.88l-.52-.34Zm-2,4h-.06a15.06,15.06,0,0,0-.51,1.86l.61.13a14.81,14.81,0,0,1,.59-2.07l-.58-.21Zm-.9,4.36v1.07h0v.05h0a3.59,3.59,0,0,0,.09.81l.62-.08a11.55,11.55,0,0,1-.1-2.12h-.63Zm1.21,4.21-.59.2v.11h0l.06.14h0v.05h0v0h0v.05h.1l.07.14h0v.06h.08l.09.16.55-.3a12.45,12.45,0,0,1-.86-1.94Zm2,3.72-.49.39c.21.27.43.53.66.79h.11q.33.38.69.72l.44-.45a14.55,14.55,0,0,1-1.44-1.6Zm3.08,3-.39.49.09.07h.1c.41.31.83.61,1.28.9h.13l.24.15.33-.53a19.77,19.77,0,0,1-1.75-1.1Zm3.68,2.33-.29.56.77.39h.31l.75.34.25-.57a20.72,20.72,0,0,1-2-1Zm4,1.77-.21.59c.68.25,1.39.49,2.11.72l.19-.59C68.69,143.61,68,143.37,67.31,143.12Zm4.21,1.33-.16.6c.71.19,1.44.36,2.18.53l.13-.61C72.94,144.8,72.22,144.63,71.52,144.45Zm4.32,1-.11.62c.72.13,1.46.25,2.21.36l.09-.62C77.29,145.7,76.55,145.58,75.84,145.45Zm4.38.65-.07.62c.74.08,1.48.16,2.23.22v-.62c-.74-.06-1.48-.14-2.21-.22Zm4.43.38v.62c.74,0,1.48.08,2.23.1v-.62l-2.21-.1Zm6.66.13H89.08v.63h2.24v-.63Zm4.44-.17c-.75.05-1.49.08-2.22.11v.63h0l2.22-.11Zm4.43-.36c-.74.08-1.48.14-2.21.2v.63h.3l1.52-.14h.49l-.06-.62Zm4.41-.54-2.2.29.08.62.67-.08h.26l1.28-.17-.09-.62Zm4.4-.72c-.74.14-1.47.26-2.2.38l.1.62,2.21-.38h0Zm4.36-.88-1,.22-1.18.24.12.62h.49l.66-.14h.15l.28-.06h.21l.4-.09-.13-.61Zm4.32-1c-.71.19-1.43.37-2.15.54l.14.61,2.17-.55-.16-.6Zm4.28-1.21c-.7.22-1.41.42-2.13.63l.17.6.44-.13h.21l1.5-.44-.19-.6Zm4.23-1.37-2.1.71.19.59h.18l1.9-.64-.21-.59Zm4.17-1.55c-.68.27-1.38.53-2.07.79l.21.59,1.12-.42h1l-.23-.58Zm4.09-1.74-2,.89.24.58c.69-.3,1.37-.59,2-.9l-.26-.57Zm4-1.92-2,1,.28.57,1.16-.57H138l.78-.4-.29-.55Zm3.89-2.14c-.63.37-1.27.73-1.93,1.09l.3.55c.66-.36,1.31-.73,2-1.1Zm3.75-2.36c-.6.4-1.22.81-1.85,1.21l.33.53c.64-.41,1.26-.81,1.87-1.23l-.35-.51Zm3.57-2.62c-.57.45-1.16.9-1.76,1.34l.37.5c.51-.37,1-.74,1.48-1.12h.08a1.84,1.84,0,0,1,.22-.17l-.39-.49Zm3.35-3c-.52.5-1.06,1-1.63,1.49l.41.47c.39-.33.77-.67,1.13-1h.16l.32-.31Zm3-3.24c-.44.56-.92,1.12-1.43,1.67l.46.42.35-.39h.06a6.4,6.4,0,0,0,.42-.49h.1l.35-.44-.49-.39Zm2.44-3.61c-.34.61-.72,1.24-1.14,1.86l.52.35c.15-.22.29-.43.42-.65h.28v-.07l-.55-.3Zm1.62-4a19.6,19.6,0,0,1-.68,2l.57.24c.07-.17.14-.34.2-.51h0a14.92,14.92,0,0,0,.46-1.48l-.6-.16Zm1-4.28h-.62a12.63,12.63,0,0,1,0,2.13l.62.06h0c0-.36.05-.72.05-1.07h0v-.61Zm-1.17-4.29-.56.27a10.91,10.91,0,0,1,.74,2l.61-.17h0a11,11,0,0,0-.77-2ZM157.32,102l-.45.43a14.47,14.47,0,0,1,1.36,1.66l.51-.36A14.67,14.67,0,0,0,157.32,102Zm-3.42-2.86-.35.52a19.67,19.67,0,0,1,1.74,1.3l.4-.49C155.13,100,154.53,99.57,153.9,99.14Zm-3.9-2.2-.26.56c.67.32,1.33.65,2,1L152,98c-.64-.36-1.31-.69-2-1Zm-4.16-1.64-.2.6c.71.23,1.41.48,2.08.74l.22-.58C147.27,95.79,146.56,95.54,145.84,95.3Zm-4.31-1.2-.14.61c.73.17,1.45.35,2.14.54l.17-.6C143,94.46,142.27,94.27,141.53,94.1Zm-4.39-.85-.09.61,2.18.38.12-.61c-.72-.14-1.46-.27-2.21-.38Zm-4.43-.56-.06.62c.74.07,1.48.15,2.2.24l.08-.62Q133.83,92.8,132.71,92.69Zm-4.47-.3V93a20.36,20.36,0,0,1,2.22.12v-.62c-.74-.05-1.48-.09-2.24-.12Zm-3.64-.07h0v.62H126v-.62h-1.4Z"/></g><g class="cls-9"><path class="cls-10" d="M92.33,240.94l1.15-2.56a8.68,8.68,0,0,0,4.85,1.53c2,0,2.84-.67,2.84-1.57,0-2.75-8.55-.86-8.55-6.32,0-2.5,2-4.58,6.2-4.58a9.89,9.89,0,0,1,5.1,1.3l-1,2.59a8.29,8.29,0,0,0-4.08-1.16c-2,0-2.79.76-2.79,1.68,0,2.71,8.55.84,8.55,6.23,0,2.46-2,4.56-6.24,4.56A10.44,10.44,0,0,1,92.33,240.94Z"/></g><g class="cls-9"><path class="cls-10" d="M105.62,236.74c0-3.4,2.63-5.81,6.3-5.81A5.18,5.18,0,0,1,117,233.8l-2.54,1.37a2.82,2.82,0,0,0-2.54-1.56,3.13,3.13,0,0,0,0,6.26,2.78,2.78,0,0,0,2.54-1.55L117,239.7a5.24,5.24,0,0,1-5.06,2.86C108.25,242.56,105.62,240.14,105.62,236.74Z"/></g><g class="cls-9"><path class="cls-10" d="M117.65,236.74c0-3.4,2.63-5.81,6.22-5.81s6.19,2.41,6.19,5.81-2.6,5.82-6.19,5.82S117.65,240.14,117.65,236.74Zm9.09,0a2.89,2.89,0,1,0-2.87,3.13A2.85,2.85,0,0,0,126.74,236.74Z"/><path class="cls-10" d="M131.41,236.74c0-3.4,2.62-5.81,6.21-5.81s6.2,2.41,6.2,5.81-2.61,5.82-6.2,5.82S131.41,240.14,131.41,236.74Zm9.09,0a2.9,2.9,0,1,0-2.88,3.13A2.85,2.85,0,0,0,140.5,236.74Z"/><path class="cls-10" d="M158.3,236.74a5.48,5.48,0,0,1-5.62,5.82,4.36,4.36,0,0,1-3.4-1.37v5.27H146V231.09h3.13v1.31a4.39,4.39,0,0,1,3.55-1.47A5.48,5.48,0,0,1,158.3,236.74Zm-3.31,0a2.89,2.89,0,1,0-2.88,3.13A2.85,2.85,0,0,0,155,236.74Z"/><path class="cls-10" d="M159.4,241.34l1.09-2.35a7.74,7.74,0,0,0,3.93,1.09c1.51,0,2.08-.4,2.08-1,0-1.85-6.83,0-6.83-4.47,0-2.14,1.93-3.65,5.23-3.65a9.31,9.31,0,0,1,4.35,1l-1.1,2.33a6.46,6.46,0,0,0-3.25-.84c-1.47,0-2.1.47-2.1,1,0,1.93,6.83.07,6.83,4.52,0,2.1-2,3.59-5.34,3.59A9.72,9.72,0,0,1,159.4,241.34Z"/></g></svg>