<svg id="Layer_1" data-name="Layer 1" xmlns="http://www.w3.org/2000/svg" viewBox="0 0 261.03 260.72"><defs><style>.cls-1{fill:#7bcfc9;}.cls-2{fill:#00a99d;}.cls-14,.cls-2,.cls-8{opacity:0.5;}.cls-13,.cls-14,.cls-15,.cls-17,.cls-18,.cls-2,.cls-4,.cls-5,.cls-6,.cls-7,.cls-8{isolation:isolate;}.cls-12,.cls-16,.cls-3{fill:#fff;}.cls-11,.cls-3,.cls-9{stroke:#333;}.cls-10,.cls-11,.cls-12,.cls-13,.cls-15,.cls-16,.cls-3,.cls-4,.cls-5,.cls-6,.cls-9{stroke-miterlimit:10;}.cls-3{stroke-width:0.7px;}.cls-10,.cls-13,.cls-15,.cls-4,.cls-5,.cls-6,.cls-9{fill:none;}.cls-13,.cls-16,.cls-4,.cls-5{stroke:#666;stroke-linecap:round;}.cls-4{stroke-width:0.5px;}.cls-13,.cls-4,.cls-5{opacity:0.6;}.cls-5{stroke-width:1.13px;}.cls-10,.cls-15,.cls-6{stroke:#000;}.cls-6{stroke-width:0.22px;stroke-dasharray:2.23;}.cls-15,.cls-6,.cls-7{opacity:0.66;}.cls-7{fill:#e6e6e6;}.cls-11,.cls-8{fill:#ccc;}.cls-9{stroke-width:1.62px;}.cls-10{stroke-width:0.31px;stroke-dasharray:0.25 1.23;}.cls-11{stroke-width:0.51px;}.cls-12{stroke:#999;stroke-width:0.34px;}.cls-13,.cls-16{stroke-width:0.36px;}.cls-13,.cls-15{stroke-dasharray:1.61;}.cls-14{fill:#999;}.cls-15{stroke-width:0.16px;}.cls-17{fill:#666;opacity:0.33;}.cls-19{fill:#4d4d4d;}</style></defs><title>Stand Up Pouch</title><rect class="cls-1" width="261.03" height="260.72" rx="3" ry="3"/><path class="cls-2" d="M207.52,38.83h0a44,44,0,0,0-.3-5.62l-4.72.22c-10.76.51-36.88,1.83-45.8,3.11-9.19,1.32-34.25,2.1-43.47,2.35l-3.47.09s0,.71.07,2h-.07l.11,1v.47h-.12l.16,1.88h0c0,1.15.09,2.47.14,3.92l1.33.69-1.29.57c.23,6.35.53,15,.87,24.45-1.12.12-2.11.25-2.89.38-6.2,1-23.1,1.63-29.33,1.82l-2.33.07v.14h-.06v5.19h.16c0,.64,0,1.3.06,2l.8.48-.71.36v.11H76.6c.54,17.55,1.79,57.92,2.17,66.9.5,11.54,1.49,43.81,1.49,43.81h2.08a1.2,1.2,0,0,0,.15.37c.62,1,5.6,4.06,51.45,3.75H134l1.32-.26,2.85.28v-.15h.06v-2.84c11.42.83,29.47,1.41,58,1.24h5.16s1-84.2,2.51-92c1.14-6.07,3.28-41.72,3.55-61l-1.55-.91,1.57-1V38.92Z"/><path class="cls-3" d="M103.85,38.8l1.36.7-1.31.58c.81,23.06,2.68,76.11,3.26,87.9.75,15.17,2.24,57.58,2.24,57.58h3.31a.38.38,0,0,0,0,.47c.92,1.39,9.59,5.31,78.49,4.9h5.24s1.05-85.75,2.54-93.68c1.16-6.18,3.33-42.48,3.6-62.15L201,34.17l1.58-1a75.89,75.89,0,0,0-.31-9.77l-4.78.22c-10.91.52-37.4,1.87-46.44,3.17C141.8,28.19,116.38,29,107,29.24l-3.51.09S103.65,32.94,103.85,38.8Z"/><line class="cls-4" x1="197.49" y1="44.79" x2="107.91" y2="49.25"/><line class="cls-4" x1="197.09" y1="49.94" x2="107.91" y2="53.39"/><line class="cls-5" x1="197.71" y1="47.34" x2="107.66" y2="51.15"/><path class="cls-6" d="M107,29.24s.26,3.69.63,17.78,2.48,63.65,2.73,72.33,2.32,66.21,2.32,66.21V186c.92,1.39,9.59,5.31,78.49,4.9h1s.44-22.74.44-27.82.31-22.07.56-31.62,1.12-32.73,1.28-35.59,1.32-9.79,1.7-16.24.49-15.13.92-17.11.07-9.42.62-14.26,0-23.68,0-23.68l-.16-.94c-10.91.52-37.4,1.87-46.44,3.17C141.8,28.19,116.38,29,107,29.24Z"/><path class="cls-7" d="M179.91,190.62h12.28l.16-8.51h0c.13-7,.28-16.21.28-19.22,0-5.07.31-22,.56-31.54s1.12-32.65,1.28-35.5,1.32-9.77,1.7-16.2.49-15.09.92-17.07a57.44,57.44,0,0,0,.27-6.94,63.29,63.29,0,0,0-3.8,10.78c-3.23,11.5-3.72,16-10.05,27.7s-11.8,18.92-12.29,34.51.74,17.93,1.49,23.13-2.86,6.18-3,10.26,2.36,6.06,2.6,10.76-2.86,5.55-3.22,9.15C168.24,190.56,167.86,190.65,179.91,190.62Z"/><path class="cls-8" d="M108.39,67.86c.76,19.81,1.83,45.33,2,51.33.25,8.66,2.32,66,2.32,66v.47c.32.47,1.53,1.24,5.71,2,0-.85-.07-1.83-.11-2.95-.14-3.6-1.39-4.45-1.29-9.15s1.09-6.68,1-10.76-1.49-5.07-1.19-10.26a207.6,207.6,0,0,0,.59-23.13c-.2-15.58-2.38-22.76-4.92-34.51s-2.73-16.2-4-27.7A10.51,10.51,0,0,0,108.39,67.86Z"/><path class="cls-9" d="M103.85,38.8l1.36.7-1.31.58c.81,23.06,2.68,76.11,3.26,87.9.75,15.17,2.24,57.58,2.24,57.58h3.31a.38.38,0,0,0,0,.47c.92,1.39,9.59,5.31,78.49,4.9h5.24s1.05-85.75,2.54-93.68c1.16-6.18,3.33-42.48,3.6-62.15L201,34.17l1.58-1a75.89,75.89,0,0,0-.31-9.77l-4.78.22c-10.91.52-37.4,1.87-46.44,3.17C141.8,28.19,116.38,29,107,29.24l-3.51.09S103.65,32.94,103.85,38.8Z"/><path class="cls-10" d="M103.52,31.39s33.1-1.24,50.7-2.83,47.92-2.74,47.92-2.74v1.86s-34.9,1.15-51.16,3.09-47.46,2.12-47.46,2.12l.16,1.92s36.93-1,48-2,42.39-3.27,51-3.62l-.13,2.12s-26.42,2-50.26,3.54c-19,1.22-48.2,1.67-48.2,1.67"/><path class="cls-11" d="M70,74.63l.91.54-.88.45c.54,17.87,1.81,59,2.2,68.13.5,11.76,1.51,44.62,1.51,44.62h2.11a1.2,1.2,0,0,0,.15.37c.62,1.07,5.68,4.14,52.16,3.82l1.43-.28,2.89.28s.71-66.46,1.72-72.61c.78-4.79,2.24-32.92,2.43-48.17l-1.06-.72,1.07-.75a63.74,63.74,0,0,0-.21-7.57l-3.23.17c-7.36.4-25.23,1.45-31.32,2.46-6.29,1-23.43,1.65-29.74,1.85l-2.37.07S69.83,70.09,70,74.63Z"/><path class="cls-12" d="M74.65,158.7s23.78,3.26,43.81,1.2,11.48-1.2,11.48-1.2l2.94.06-.26,16.52-2.87.57s-31.91,5.33-54.29-1.19H73.22L73,158.52Z"/><line class="cls-13" x1="133.08" y1="79.41" x2="72.65" y2="82.87"/><line class="cls-13" x1="132.8" y1="83.41" x2="72.65" y2="86.08"/><path class="cls-14" d="M121.22,192.44h8.29l.1-6.59h0c.08-5.42.19-12.57.19-14.9,0-3.93.21-17.06.38-24.44s.75-25.31.86-27.51.89-7.57,1.15-12.56.33-11.69.61-13.23a51.39,51.39,0,0,0,.2-5.41,54.26,54.26,0,0,0-2.56,8.34c-2.18,8.92-2.52,12.37-6.79,21.48s-8,14.66-8.29,26.74.51,13.9,1,17.92-1.93,4.8-2,8,1.59,4.7,1.76,8.34-1.94,4.3-2.18,7.09C113.34,192.39,113.09,192.46,121.22,192.44Z"/><path class="cls-14" d="M73,97.29c.52,15.36,1.24,35.14,1.35,39.78.17,6.71,1.56,51.19,1.56,51.19v.37c.22.36,1,1,3.86,1.57,0-.66,0-1.42-.08-2.29-.1-2.79-.94-3.45-.87-7.09s.74-5.18.7-8.34-1-3.93-.8-7.95.54-5.85.4-17.93S77.51,129,75.8,119.86,74,107.3,73.08,98.39C73.05,98,73,97.64,73,97.29Z"/><path class="cls-9" d="M69.91,74.77l.91.55-.88.44c.55,17.87,1.81,59,2.2,68.13.51,11.76,1.51,44.62,1.51,44.62h2.11a1.2,1.2,0,0,0,.15.37c.63,1.07,5.68,4.14,52.16,3.82l1.44-.28,2.88.28s.72-66.46,1.72-72.61c.78-4.79,2.24-32.92,2.43-48.16l-1.06-.72,1.07-.76a63.74,63.74,0,0,0-.21-7.57l-3.22.18c-7.36.4-25.23,1.44-31.33,2.45-6.28,1-23.43,1.66-29.73,1.85l-2.37.07S69.77,70.23,69.91,74.77Z"/><path class="cls-15" d="M72.06,67.36s.17,2.86.42,13.78,1.67,49.33,1.84,56.06,1.51,51.45,1.51,51.45l.08.23c.63,1.07,5.77,4.12,52.25,3.8l1.34-.3s.3-17.32.3-21.26.21-17.1.38-24.5.75-25.37.86-27.58.89-7.59,1.15-12.59.33-11.73.61-13.26.06-7.31.43-11,0-18.36,0-18.36l-.11-.72c-7.36.4-25.23,1.44-31.33,2.45C95.51,66.55,78.36,67.17,72.06,67.36Z"/><path class="cls-16" d="M128.09,84.06l-11.32.71a1.28,1.28,0,0,1-1.35-1.19V80.75a1.21,1.21,0,0,1,1.12-1.29h0l12-.82a.86.86,0,0,1,.91.79v.09l-.08,3a1.41,1.41,0,0,1-1.27,1.54Z"/><path class="cls-17" d="M69.69,72.72s20.75-.52,31.22-1.8,35.65-2.58,35.65-2.58l-.22-5.46s-23.85,1.47-36.21,2.87-30.44,1.68-30.44,1.68Z"/><g class="cls-18"><path class="cls-19" d="M46.88,238.18,48,235.62a8.68,8.68,0,0,0,4.85,1.53c2,0,2.84-.67,2.84-1.57,0-2.75-8.55-.86-8.55-6.32,0-2.5,2-4.58,6.2-4.58a9.89,9.89,0,0,1,5.1,1.3l-1,2.59a8.29,8.29,0,0,0-4.08-1.16c-2,0-2.79.76-2.79,1.68,0,2.71,8.55.84,8.55,6.24,0,2.45-2,4.55-6.24,4.55A10.44,10.44,0,0,1,46.88,238.18Z"/></g><g class="cls-18"><path class="cls-19" d="M67.81,239.08a4.58,4.58,0,0,1-2.64.72c-2.69,0-4.22-1.37-4.22-4.05v-9.92h3.27v2.76H67v2.52h-2.8v4.59a1.3,1.3,0,0,0,1.39,1.49,2.25,2.25,0,0,0,1.34-.42Z"/></g><g class="cls-18"><path class="cls-19" d="M80.56,228.33v11.3H77.43v-1.3a4.35,4.35,0,0,1-3.53,1.47,5.82,5.82,0,0,1,0-11.63,4.34,4.34,0,0,1,3.38,1.36v-1.2ZM77.34,234a2.89,2.89,0,1,0-2.87,3.13A2.86,2.86,0,0,0,77.34,234Z"/></g><g class="cls-18"><path class="cls-19" d="M95.05,233.16v6.47H91.77v-6c0-1.83-.84-2.67-2.28-2.67s-2.71,1-2.71,3v5.59H83.5v-11.3h3.13v1.33a4.92,4.92,0,0,1,3.74-1.49C93,228.17,95.05,229.72,95.05,233.16Z"/></g><g class="cls-18"><path class="cls-19" d="M109.5,224.05v15.58h-3.13v-1.3a4.35,4.35,0,0,1-3.53,1.47,5.82,5.82,0,0,1,0-11.63,4.34,4.34,0,0,1,3.38,1.36v-5.48ZM106.29,234a2.9,2.9,0,1,0-2.88,3.13A2.87,2.87,0,0,0,106.29,234Z"/><path class="cls-19" d="M131.84,224.93v14.7h-3.3v-1.79a5.19,5.19,0,0,1-4.45,2c-3.42,0-5.52-2.24-5.52-6.34v-8.61H122v8.51c0,2.41,1.24,3.54,3.09,3.54s3.38-1.19,3.38-3.77v-8.28Z"/><path class="cls-19" d="M147.4,234a5.48,5.48,0,0,1-5.62,5.82,4.38,4.38,0,0,1-3.41-1.37v5.27H135.1V228.33h3.13v1.31a4.36,4.36,0,0,1,3.55-1.47A5.48,5.48,0,0,1,147.4,234Zm-3.32,0a2.89,2.89,0,1,0-2.87,3.13A2.85,2.85,0,0,0,144.08,234Z"/></g><g class="cls-18"><path class="cls-19" d="M168.05,230.27c0,3.27-2.46,5.31-6.39,5.31h-3v4h-3.4v-14.7h6.36C165.59,224.93,168.05,227,168.05,230.27Zm-3.45,0c0-1.62-1-2.57-3.12-2.57H158.7v5.11h2.78C163.55,232.81,164.6,231.86,164.6,230.27Z"/></g><g class="cls-18"><path class="cls-19" d="M169.22,234c0-3.4,2.63-5.81,6.22-5.81s6.19,2.41,6.19,5.81-2.6,5.82-6.19,5.82S169.22,237.38,169.22,234Zm9.09,0a2.89,2.89,0,1,0-2.87,3.13A2.85,2.85,0,0,0,178.31,234Z"/><path class="cls-19" d="M195.2,228.33v11.3h-3.11v-1.34a4.59,4.59,0,0,1-3.51,1.51c-2.83,0-4.83-1.6-4.83-5.08v-6.39H187v5.9c0,1.89.84,2.73,2.29,2.73s2.6-1,2.6-3v-5.59Z"/></g><g class="cls-18"><path class="cls-19" d="M197.07,234c0-3.4,2.63-5.81,6.3-5.81a5.18,5.18,0,0,1,5.06,2.87l-2.54,1.37a2.82,2.82,0,0,0-2.54-1.56,3.13,3.13,0,0,0,0,6.26,2.78,2.78,0,0,0,2.54-1.55l2.54,1.38a5.24,5.24,0,0,1-5.06,2.86C199.7,239.8,197.07,237.38,197.07,234Z"/></g><g class="cls-18"><path class="cls-19" d="M221.55,233.16v6.47h-3.28v-6c0-1.83-.84-2.67-2.28-2.67s-2.71,1-2.71,3v5.59H210V224.05h3.28v5.46a5,5,0,0,1,3.59-1.34C219.53,228.17,221.55,229.72,221.55,233.16Z"/></g></svg>