<svg id="Layer_1" data-name="Layer 1" xmlns="http://www.w3.org/2000/svg" viewBox="0 0 261.03 260.72"><defs><style>.cls-1{fill:#7f7f80;}.cls-2{fill:gray;}.cls-3{fill:#c1272d;}.cls-4{fill:none;stroke:#fff;stroke-miterlimit:10;stroke-width:4px;}.cls-5{fill:#f2f2f2;}</style></defs><title>Stock Clearance</title><rect class="cls-1" width="261.03" height="260.72" rx="3" ry="3"/><rect class="cls-2" width="261.03" height="260.72" rx="3" ry="3"/><polygon class="cls-3" points="216.48 144.52 228 133 216.48 121.48 224.62 107.38 210.52 99.23 214.73 83.5 199 79.29 199 63 182.71 63 178.5 47.27 162.76 51.48 154.62 37.38 140.52 45.52 129 34.01 117.48 45.52 103.38 37.38 95.23 51.48 79.5 47.27 75.29 63 59 63 59 79.29 43.27 83.5 47.48 99.23 33.38 107.38 41.52 121.48 30 133 41.52 144.52 33.38 158.62 47.48 166.76 43.27 182.5 59 186.71 59 203 75.29 203 79.5 218.73 95.23 214.52 103.38 228.62 117.48 220.48 129 232 140.52 220.48 154.62 228.62 162.76 214.52 178.5 218.73 182.71 203 199 203 199 186.71 214.73 182.5 210.52 166.76 224.62 158.62 216.48 144.52"/><circle class="cls-4" cx="129" cy="133" r="83"/><path class="cls-5" d="M85.29,113.62l-8.59,2.3-1-3.77a10.52,10.52,0,0,0-1.23-3.27,1.18,1.18,0,0,0-1.29-.43,1.41,1.41,0,0,0-1,1.32,8.1,8.1,0,0,0,.36,3.07,12.15,12.15,0,0,0,1.51,3.7A8.81,8.81,0,0,0,77.49,119q7.58,3.58,10.08,6.52t4.51,10.41a27.49,27.49,0,0,1,1.26,8.24,9,9,0,0,1-2.28,5.24,10.65,10.65,0,0,1-5.47,3.34,10.45,10.45,0,0,1-6.88-.32,9.59,9.59,0,0,1-4.81-4.19,39,39,0,0,1-3.18-8.61l-.89-3.33,8.59-2.3,1.66,6.18a11.61,11.61,0,0,0,1.35,3.58,1.33,1.33,0,0,0,1.5.47,1.51,1.51,0,0,0,1.1-1.4,8.39,8.39,0,0,0-.38-3.2q-1.2-4.49-2.43-5.64a31.78,31.78,0,0,0-5.56-3.46A48.79,48.79,0,0,1,69.82,127a12.54,12.54,0,0,1-2.95-3.59,25.57,25.57,0,0,1-2.52-6.46c-1-3.89-1.46-6.83-1.25-8.82A8.89,8.89,0,0,1,65.34,103a10.42,10.42,0,0,1,5.22-3,11.31,11.31,0,0,1,6.58,0,8.21,8.21,0,0,1,4.49,3.29q1.5,2.31,3.12,8.37Z"/><path class="cls-5" d="M103.47,92.25l2.73,10.18-5.5,1.47,10.9,40.68-9.25,2.48-10.9-40.68L86,107.85,83.26,97.67Z"/><path class="cls-5" d="M134.69,115.8q2.06,7.67,2.66,10.93a16.21,16.21,0,0,1,0,6.25,10.27,10.27,0,0,1-2.51,5,10.12,10.12,0,0,1-4.89,2.83,10.34,10.34,0,0,1-5.49,0,10,10,0,0,1-4.73-3,15.81,15.81,0,0,1-3.21-5.37c-.73-2-1.8-5.69-3.21-10.92l-2.33-8.7q-2.05-7.66-2.65-10.92a16,16,0,0,1,0-6.25,10.25,10.25,0,0,1,2.5-5,10.11,10.11,0,0,1,4.9-2.83,10.24,10.24,0,0,1,5.49,0,10,10,0,0,1,4.73,3,15.79,15.79,0,0,1,3.2,5.37q1.11,3.07,3.21,10.92ZM121,101.57a23.34,23.34,0,0,0-1.5-4.46,1.18,1.18,0,0,0-1.39-.69,1.26,1.26,0,0,0-.9,1.1,16.42,16.42,0,0,0,.89,4.83l6.36,23.75a33,33,0,0,0,1.72,5.39,1.2,1.2,0,0,0,1.45.73c.63-.17.92-.68.89-1.52a37.88,37.88,0,0,0-1.26-5.76Z"/><path class="cls-5" d="M157.69,101.46l-9.25,2.48-2.36-8.84a22.93,22.93,0,0,0-1.59-4.73,1.29,1.29,0,0,0-1.56-.61,1.43,1.43,0,0,0-1.14,1.55,25.68,25.68,0,0,0,1,5.11L149.16,120a24,24,0,0,0,1.6,4.76,1.39,1.39,0,0,0,1.69.76,1.38,1.38,0,0,0,1-1.5,26.7,26.7,0,0,0-1.1-5.4l-1.72-6.4,9.25-2.48.54,2a57.12,57.12,0,0,1,2.22,11.4,11.84,11.84,0,0,1-1.9,6.72,9.66,9.66,0,0,1-5.92,4.25,10.81,10.81,0,0,1-7.26-.31,10.5,10.5,0,0,1-5.06-4.89,56.14,56.14,0,0,1-3.85-11l-4-14.86q-1.49-5.51-2-8.32a15.07,15.07,0,0,1,.15-5.71,10.5,10.5,0,0,1,2.55-5,10.15,10.15,0,0,1,4.94-2.89,10.36,10.36,0,0,1,7.35.46,10.87,10.87,0,0,1,5,4.69,49.14,49.14,0,0,1,3.65,10.27Z"/><path class="cls-5" d="M177.12,72.52,178,96.9l13.29,26.34-9.56,2.56L172.11,105,178,126.8l-9.25,2.48L155.08,78.43,164.33,76l5.29,19.76-1.17-20.87Z"/><path class="cls-5" d="M91.84,169.13l-5.39,1.45-1.37-5.08a13.37,13.37,0,0,0-.91-2.72.75.75,0,0,0-.91-.34.84.84,0,0,0-.67.89,14.58,14.58,0,0,0,.6,2.94l3.63,13.57a13.67,13.67,0,0,0,.93,2.73.84.84,0,0,0,1.59-.43,15,15,0,0,0-.63-3.11l-1-3.67,5.39-1.45.31,1.14a31.86,31.86,0,0,1,1.26,6.56,6.66,6.66,0,0,1-1.12,3.86,5.61,5.61,0,0,1-3.45,2.45,6.34,6.34,0,0,1-4.24-.16A6,6,0,0,1,83,185a31.32,31.32,0,0,1-2.22-6.29l-2.29-8.54q-.84-3.15-1.11-4.77a8.5,8.5,0,0,1,.1-3.29,5.9,5.9,0,0,1,1.5-2.87,6,6,0,0,1,2.88-1.67,6.2,6.2,0,0,1,4.28.24A6.33,6.33,0,0,1,89,160.46a28.07,28.07,0,0,1,2.1,5.9Z"/><path class="cls-5" d="M95.76,154.45,102,177.81l3.28-.88,1.57,5.85-8.68,2.32-7.82-29.2Z"/><path class="cls-5" d="M100.35,153.22l9-2.41,1.56,5.84-3.6,1,1.49,5.54,3.37-.9,1.49,5.55-3.37.9,1.72,6.43,4-1.06,1.56,5.84-9.35,2.51Z"/><path class="cls-5" d="M120.59,147.8l10.91,28.38L126,177.66l-1.69-5.18-1.93.52,1.08,5.34-5.58,1.49-5.07-29.94Zm2.17,19.55q-1.74-4.86-4.11-12,1.42,8.61,2.25,12.54Z"/><path class="cls-5" d="M124.59,146.73l3.82-1a21.91,21.91,0,0,1,5.28-1,4,4,0,0,1,2.77,1.53,13.45,13.45,0,0,1,2.31,5.21,12,12,0,0,1,.63,4.75,3,3,0,0,1-2,2,4,4,0,0,1,2.56.92,5.49,5.49,0,0,1,1.14,1.54,41.31,41.31,0,0,1,1.3,4.28l2.06,7.71-5,1.34-2.6-9.71a9.79,9.79,0,0,0-1-2.83c-.28-.33-.79-.39-1.53-.19l3.53,13.17-5.4,1.44Zm6.73,3.55,1.74,6.49a1.86,1.86,0,0,0,1.18-.69c.18-.3.1-1.09-.24-2.38l-.43-1.61a3.27,3.27,0,0,0-.84-1.72A1.63,1.63,0,0,0,131.32,150.28Z"/><path class="cls-5" d="M148.05,140.44,159,168.82l-5.51,1.48-1.7-5.17-1.93.51L150.9,171l-5.57,1.49-5.08-29.94ZM150.22,160q-1.74-4.86-4.11-12.05,1.42,8.61,2.26,12.54Z"/><path class="cls-5" d="M164.1,136.14l7.83,29.21-4.73,1.26-6.37-12.52,3.56,13.28-4.51,1.2-7.83-29.2,4.51-1.21,6.55,12.34-3.52-13.15Z"/><path class="cls-5" d="M182.27,144.9l-5.39,1.45-1.36-5.08a13.14,13.14,0,0,0-.92-2.72.75.75,0,0,0-.91-.34.83.83,0,0,0-.66.89,14.3,14.3,0,0,0,.59,2.94l3.63,13.56a13.84,13.84,0,0,0,.93,2.73.84.84,0,0,0,1.59-.42,15,15,0,0,0-.63-3.11l-1-3.67,5.39-1.45.31,1.14a32.72,32.72,0,0,1,1.27,6.55,6.75,6.75,0,0,1-1.13,3.87,5.61,5.61,0,0,1-3.45,2.45,6.31,6.31,0,0,1-4.23-.16,5.94,5.94,0,0,1-2.94-2.8,31.87,31.87,0,0,1-2.22-6.3l-2.29-8.53c-.56-2.1-.93-3.7-1.11-4.78a8.45,8.45,0,0,1,.1-3.28,5.9,5.9,0,0,1,4.38-4.54,6.14,6.14,0,0,1,4.28.24,6.28,6.28,0,0,1,2.91,2.69,28.07,28.07,0,0,1,2.1,5.9Z"/><path class="cls-5" d="M180.8,131.66l9-2.41,1.56,5.85-3.6,1,1.48,5.54,3.38-.9,1.48,5.56-3.37.9,1.72,6.42,4-1.06,1.57,5.85-9.35,2.5Z"/></svg>