<svg id="Layer_1" data-name="Layer 1" xmlns="http://www.w3.org/2000/svg" viewBox="0 0 261.03 260.72"><defs><style>.cls-1{fill:#f5aa8f;}.cls-2{fill:#f15a24;}.cls-2,.cls-3{opacity:0.5;}.cls-10,.cls-13,.cls-2,.cls-3,.cls-9{isolation:isolate;}.cls-3{fill:#b3b3b3;}.cls-4{fill:#fff;}.cls-5,.cls-6{fill:gray;}.cls-5{stroke:gray;stroke-width:1.3px;}.cls-10,.cls-11,.cls-12,.cls-5,.cls-7,.cls-8,.cls-9{stroke-miterlimit:10;}.cls-7{fill:#f2f2f2;stroke-width:0.52px;}.cls-11,.cls-12,.cls-7,.cls-8{stroke:#333;}.cls-10,.cls-12,.cls-8,.cls-9{fill:none;}.cls-11,.cls-8,.cls-9{stroke-width:0.65px;}.cls-10,.cls-9{stroke:#000;stroke-dasharray:2.49;opacity:0.66;}.cls-10{stroke-width:0.25px;}.cls-11{fill:#999;}.cls-12{stroke-width:1.85px;}.cls-14{fill:#4d4d4d;}</style></defs><title>Tin Tie</title><rect class="cls-1" width="261.03" height="260.72" rx="3" ry="3"/><path class="cls-2" d="M179.15,190.23a3.39,3.39,0,0,0,.41-.65c.05-.1.09-.19.13-.29a3.93,3.93,0,0,0,.19-.58,1.63,1.63,0,0,0,.07-.3,4.64,4.64,0,0,0,.06-.91L170.41,42l5.87.13-1-4.61-7.37-.27-66.78-2.41h-.82l1.21,4.75,3.58.4s-6.6,121.45-5.56,150.3v1.14a3.48,3.48,0,0,0,2.8,3.25l53.74,10.65a4,4,0,0,0,2.19-.18,3.35,3.35,0,0,0,1-.5l19-13.65a4.5,4.5,0,0,0,.69-.62v-.06Z"/><path class="cls-3" d="M173.92,182.14a4,4,0,0,1-1,2.88,3.45,3.45,0,0,1-.69.63l-19,13.65a3.11,3.11,0,0,1-1,.49c-.12-5,.13-14.09.6-25.48,1.68-40.55,6.25-111,8.06-138.4l3.38.1Z"/><path class="cls-4" d="M173,185a3.45,3.45,0,0,1-.69.63l-19,13.65a3.11,3.11,0,0,1-1,.49c-.12-5,.13-14.09.6-25.48C157.16,177.29,166.37,183.3,173,185Z"/><path class="cls-5" d="M169.14,32.19,95,29.5,96,34l25,.86,2.13,0h0v.17a7,7,0,1,0,14.09.31h0v-.1l23.65.63,3.38.1v.3l5.17.17Z"/><polygon class="cls-6" points="121.02 34.83 123.15 34.88 123.15 34.9 121.02 34.83"/><path class="cls-6" d="M164.27,36v.3l-27.06-.93v-.1l23.65.63Z"/><polygon class="cls-6" points="170.12 36.5 169.46 36.48 169.14 32.19 170.12 36.5"/><path class="cls-7" d="M173.92,182.14a4,4,0,0,1-1.66,3.51l-19,13.65a3.11,3.11,0,0,1-1,.49,3.93,3.93,0,0,1-2.2.19L96.3,189.33a3.48,3.48,0,0,1-2.8-3.25c-1.06-22.31,4.09-113.89,5.79-142.94.33-5.61.52-8.89.52-8.89l21.21.58,2.13.05h0v.17a7,7,0,0,0,14.09.31h0v-.1l23.65.63,3.38.1v.3l.6,9.06Z"/><path class="cls-8" d="M173.92,182.14a4,4,0,0,1-1.66,3.51l-19,13.65a3.11,3.11,0,0,1-1,.49c-.51-23.07,6.34-128.77,8.66-163.88l3.38.1Z"/><path class="cls-9" d="M153.4,174.52s15.17,9.94,17,9.78"/><line class="cls-10" x1="123.24" y1="36.31" x2="137.1" y2="36.5"/><path class="cls-11" d="M143,131l-.54,33.16c-.1,5.72-7.25,8-18.6,7.16l-4.92-.67-2.48-.34c-9.8-2-13.09-5.9-13-10.61l.85-31.17c.07-5.45,4.56-7.86,10.12-8.68a35.47,35.47,0,0,1,5.64-.36l6.7.71C132.75,120.69,143,123.79,143,131Z"/><path class="cls-3" d="M118.93,170.68l-2.48-.34c-9.8-2-13.09-5.9-13-10.61l.85-31.17c.07-5.45,4.56-7.86,10.12-8.68Z"/><path class="cls-12" d="M164.32,36.67l5.87.12-1-4.61-75-2.68,1.2,4.75,3.59.4S92.23,159.46,93.5,186.08a3.48,3.48,0,0,0,2.8,3.25L150,200a3.93,3.93,0,0,0,2.2-.19,3.11,3.11,0,0,0,1-.49l19-13.65a4,4,0,0,0,1.66-3.51Z"/><g class="cls-13"><path class="cls-14" d="M111.6,230.49a10.87,10.87,0,0,0-4-1.41v12h-3.4v-12a11.27,11.27,0,0,0-4.08,1.41L98.92,228a14,14,0,0,1,13.84,0Z"/></g><g class="cls-13"><path class="cls-14" d="M113,226.37a1.87,1.87,0,0,1,2-1.82,1.84,1.84,0,0,1,2,1.76,2,2,0,0,1-4.08.06Zm.4,3.4h3.28v11.3h-3.28Z"/><path class="cls-14" d="M131.28,234.6v6.47H128v-6c0-1.83-.83-2.67-2.28-2.67s-2.71,1-2.71,3.05v5.58h-3.28v-11.3h3.13v1.33a4.94,4.94,0,0,1,3.74-1.49C129.26,229.61,131.28,231.16,131.28,234.6Z"/></g><g class="cls-13"><path class="cls-14" d="M150.6,230.49a10.87,10.87,0,0,0-4-1.41v12h-3.4v-12a11.27,11.27,0,0,0-4.08,1.41L137.92,228a14,14,0,0,1,13.84,0Z"/></g><g class="cls-13"><path class="cls-14" d="M152,226.37a1.87,1.87,0,0,1,2-1.82,1.84,1.84,0,0,1,2,1.76,2,2,0,0,1-4.08.06Zm.4,3.4h3.28v11.3H152.4Z"/><path class="cls-14" d="M167.25,237.52l1.74,1.89a5.9,5.9,0,0,1-4.66,1.83c-3.91,0-6.45-2.46-6.45-5.82a5.74,5.74,0,0,1,6.05-5.81,5.53,5.53,0,0,1,5.84,5.71l-8.36,1.61a3,3,0,0,0,3,1.68A3.82,3.82,0,0,0,167.25,237.52Zm-6.16-2.43L166.6,234a2.63,2.63,0,0,0-2.67-1.94A2.78,2.78,0,0,0,161.09,235.09Z"/></g></svg>