<svg id="Layer_1" data-name="Layer 1" xmlns="http://www.w3.org/2000/svg" viewBox="0 0 50 50"><defs><style>.cls-1{fill:#ccc;}</style></defs><title>Address Icon</title><path class="cls-1" d="M25,0A25,25,0,1,0,50,25,25,25,0,0,0,25,0Zm0,47.62A22.62,22.62,0,1,1,47.62,25,22.65,22.65,0,0,1,25,47.62Z"/><path class="cls-1" d="M17.68,15h0Z"/><path class="cls-1" d="M25,8.26A11.71,11.71,0,0,0,13.29,20c0,8.79,8.27,18.53,10.91,21.42a1.07,1.07,0,0,0,1.59,0C28.43,38.47,36.71,28.64,36.71,20A11.71,11.71,0,0,0,25,8.26Zm0,17.68a6.18,6.18,0,1,1,6.18-6.17A6.18,6.18,0,0,1,25,25.94Z"/></svg>