<svg id="Layer_1" data-name="Layer 1" xmlns="http://www.w3.org/2000/svg" viewBox="0 0 50 50"><defs><style>.cls-1{fill:#666;}.cls-2{fill:#ccc;}</style></defs><title>Address Icon Dark</title><path class="cls-1" d="M25,0A25,25,0,1,0,50,25,25,25,0,0,0,25,0Zm0,47.62A22.62,22.62,0,1,1,47.62,25h0A22.65,22.65,0,0,1,25,47.62Z"/><path class="cls-2" d="M17.68,15Z"/><path class="cls-1" d="M25,8.26A11.71,11.71,0,0,0,13.29,20v0c0,8.79,8.27,18.53,10.91,21.42a1.07,1.07,0,0,0,1.51.08.6.6,0,0,0,.08-.08c2.64-3,10.92-12.78,10.92-21.42A11.71,11.71,0,0,0,25,8.26Zm0,17.68a6.18,6.18,0,1,1,6.18-6.18h0A6.18,6.18,0,0,1,25,25.94Z"/></svg>