<svg id="Layer_1" data-name="Layer 1" xmlns="http://www.w3.org/2000/svg" viewBox="0 0 50 50"><defs><style>.cls-1{fill:#666;}</style></defs><title>Email Icon Dark</title><path class="cls-1" d="M25,0A25,25,0,1,0,50,25,25,25,0,0,0,25,0Zm0,47.62A22.62,22.62,0,1,1,47.62,25h0A22.65,22.65,0,0,1,25,47.62Z"/><path class="cls-1" d="M37.21,18.3a10.1,10.1,0,0,0-2.62-3.49,11.85,11.85,0,0,0-4-2.19,15.58,15.58,0,0,0-4.93-.77,14.59,14.59,0,0,0-5.31,1A13.41,13.41,0,0,0,16,15.57a13.26,13.26,0,0,0-3,4.33,13.85,13.85,0,0,0-1.12,5.68,14,14,0,0,0,1,5.43,11,11,0,0,0,2.66,4,11.8,11.8,0,0,0,4.13,2.39,15.93,15.93,0,0,0,5.17.81A15.6,15.6,0,0,0,27.65,38a10.36,10.36,0,0,0,2.41-.81,2,2,0,0,0,.24-1.68,1.73,1.73,0,0,0-1.13-1.09,8.26,8.26,0,0,1-1.94.61,11,11,0,0,1-1.9.2,13.44,13.44,0,0,1-4.4-.68,8.65,8.65,0,0,1-3.21-1.93,8.32,8.32,0,0,1-2-3,11.36,11.36,0,0,1-.67-4,11.07,11.07,0,0,1,.8-4.22A10.15,10.15,0,0,1,18.09,18a10.62,10.62,0,0,1,7.54-3,13.66,13.66,0,0,1,3.66.46,8.06,8.06,0,0,1,3,1.46,7,7,0,0,1,2,2.52A8.64,8.64,0,0,1,35,23a8.17,8.17,0,0,1-.36,2.6,5.58,5.58,0,0,1-.94,1.81,3.62,3.62,0,0,1-1.29,1.07,3.28,3.28,0,0,1-1.47.35.93.93,0,0,1-1-.61,4.23,4.23,0,0,1,0-2l1.38-7.81h-2l-.89.92a5.2,5.2,0,0,0-1.27-.79,4.14,4.14,0,0,0-1.7-.31,5.26,5.26,0,0,0-2.78.8,8.09,8.09,0,0,0-2.31,2.09,10.36,10.36,0,0,0-1.57,3,10.53,10.53,0,0,0-.58,3.47,5.09,5.09,0,0,0,.27,1.73,4.35,4.35,0,0,0,.74,1.33,3.16,3.16,0,0,0,1.1.85,3,3,0,0,0,1.32.3,4.53,4.53,0,0,0,1.59-.26,4.78,4.78,0,0,0,1.32-.7,6.2,6.2,0,0,0,1.11-1,13.14,13.14,0,0,0,.94-1.18h.12a3.63,3.63,0,0,0,.11,1.5,2.23,2.23,0,0,0,.62,1,2.56,2.56,0,0,0,1,.54,6,6,0,0,0,1.34.15A7.7,7.7,0,0,0,33,31.16a8.44,8.44,0,0,0,4.44-4.67A9.08,9.08,0,0,0,38.16,23,11,11,0,0,0,37.21,18.3ZM26.77,25.89a8.28,8.28,0,0,1-1.55,2,3.82,3.82,0,0,1-.9.65,1.75,1.75,0,0,1-.86.25,1.48,1.48,0,0,1-1.34-.61,2.83,2.83,0,0,1-.39-1.56A6.35,6.35,0,0,1,22,24.75,6,6,0,0,1,22.84,23a4.79,4.79,0,0,1,1.27-1.27,2.85,2.85,0,0,1,1.6-.49,2.46,2.46,0,0,1,1,.18,3,3,0,0,1,.77.49Z"/></svg>