<svg id="Layer_1" data-name="Layer 1" xmlns="http://www.w3.org/2000/svg" viewBox="0 0 50 50"><defs><style>.cls-1{fill:#ccc;}</style></defs><title>Email Icon</title><path class="cls-1" d="M25,0A25,25,0,1,0,50,25,25,25,0,0,0,25,0Zm0,47.62A22.62,22.62,0,1,1,47.62,25,22.65,22.65,0,0,1,25,47.62Z"/><path class="cls-1" d="M37.21,18.3a10,10,0,0,0-2.62-3.49,11.77,11.77,0,0,0-4-2.19,15.44,15.44,0,0,0-4.93-.77,14.51,14.51,0,0,0-5.31,1A13.4,13.4,0,0,0,16,15.57a13.19,13.19,0,0,0-3,4.33,13.84,13.84,0,0,0-1.12,5.68,13.88,13.88,0,0,0,1,5.43A10.9,10.9,0,0,0,15.54,35a11.76,11.76,0,0,0,4.13,2.39,15.92,15.92,0,0,0,5.17.81,15.65,15.65,0,0,0,2.81-.23,9.92,9.92,0,0,0,2.41-.81,2,2,0,0,0,.24-1.68,1.75,1.75,0,0,0-1.13-1.09,8.33,8.33,0,0,1-1.94.61,10.69,10.69,0,0,1-1.9.2,13.24,13.24,0,0,1-4.4-.68,8.67,8.67,0,0,1-3.21-1.93,8.31,8.31,0,0,1-2-3,11.37,11.37,0,0,1-.67-4,11,11,0,0,1,.8-4.22,10.15,10.15,0,0,1,2.24-3.36,10.47,10.47,0,0,1,3.36-2.22,10.7,10.7,0,0,1,4.18-.81,13.79,13.79,0,0,1,3.66.46,8.13,8.13,0,0,1,3,1.46,7,7,0,0,1,2,2.52A8.61,8.61,0,0,1,35,23a8.37,8.37,0,0,1-.36,2.6,5.61,5.61,0,0,1-.94,1.81,3.7,3.7,0,0,1-1.29,1.07,3.37,3.37,0,0,1-1.47.35.93.93,0,0,1-1-.61,4.24,4.24,0,0,1,0-2l1.38-7.81h-2l-.89.92a5.09,5.09,0,0,0-1.27-.79,4.1,4.1,0,0,0-1.7-.31,5.27,5.27,0,0,0-2.78.8,8.17,8.17,0,0,0-2.31,2.09,10.32,10.32,0,0,0-1.57,3,10.53,10.53,0,0,0-.58,3.47,5.19,5.19,0,0,0,.27,1.73,4.26,4.26,0,0,0,.74,1.33,3.14,3.14,0,0,0,1.1.85,3,3,0,0,0,1.32.3,4.5,4.5,0,0,0,1.59-.26,4.91,4.91,0,0,0,1.32-.7,6.37,6.37,0,0,0,1.11-1,13.14,13.14,0,0,0,.94-1.18h.12a3.7,3.7,0,0,0,.11,1.5,2.23,2.23,0,0,0,.62,1,2.52,2.52,0,0,0,1,.54,5.67,5.67,0,0,0,1.34.15,7.69,7.69,0,0,0,3.24-.69,8.44,8.44,0,0,0,4.44-4.67A9.06,9.06,0,0,0,38.16,23,11.08,11.08,0,0,0,37.21,18.3ZM26.77,25.89a8,8,0,0,1-.72,1.1,8.39,8.39,0,0,1-.83.92,4.09,4.09,0,0,1-.9.65,1.78,1.78,0,0,1-.86.25,1.47,1.47,0,0,1-1.34-.61,2.82,2.82,0,0,1-.39-1.56A6.39,6.39,0,0,1,22,24.75,6.06,6.06,0,0,1,22.84,23a4.65,4.65,0,0,1,1.27-1.27,2.87,2.87,0,0,1,1.6-.49,2.5,2.5,0,0,1,1,.18,2.84,2.84,0,0,1,.77.49Z"/></svg>