<svg id="Layer_1" data-name="Layer 1" xmlns="http://www.w3.org/2000/svg" viewBox="0 0 150 55"><defs><style>.cls-1{fill:#92a62c;}</style></defs><title>Header Circle</title><path class="cls-1" d="M150,25.89a13.22,13.22,0,0,0-3-7.16,26.09,26.09,0,0,0-5.84-5.3,60.45,60.45,0,0,0-14.35-6.84,111.77,111.77,0,0,0-15.5-3.95A167.53,167.53,0,0,0,79.28,0a167.22,167.22,0,0,1,31.78,3.26,110.27,110.27,0,0,1,15.28,4.22,59.16,59.16,0,0,1,13.88,7,24.1,24.1,0,0,1,5.43,5.12A11.84,11.84,0,0,1,148.24,26a10.71,10.71,0,0,1-1.89,6.56,20.94,20.94,0,0,1-5.1,5.24,52.59,52.59,0,0,1-13.66,7c-1.51.55-3,1-4.59,1.5-3.46,1.05-7,1.9-10.57,2.62A163.91,163.91,0,0,1,80.9,51.8c-1.18,0-2.43,0-3.77,0-10.22-.18-24.32-1-33.52-2.68l-1-.18a116.78,116.78,0,0,1-15.11-4,62.19,62.19,0,0,1-13.71-6.42A27.3,27.3,0,0,1,8.38,34a12.11,12.11,0,0,1-3-5.5l-.14-.73,0-.73a7.06,7.06,0,0,1,.08-1.45,9.44,9.44,0,0,1,.93-2.82,16.85,16.85,0,0,1,4.23-5,.15.15,0,0,1,.06,0,2.4,2.4,0,0,0,.07-3.58A2.91,2.91,0,0,0,6.71,14a21.47,21.47,0,0,0-5.32,6.7A14.22,14.22,0,0,0,.11,25,11.1,11.1,0,0,0,0,27.19l.1,1.12c0,.37.14.73.22,1.1a16.33,16.33,0,0,0,4.21,7.5,31.64,31.64,0,0,0,6.51,5.25A66.46,66.46,0,0,0,26,48.81a118.13,118.13,0,0,0,15.81,3.81l.91.15A172,172,0,0,0,73.29,55c2.77.05,5.36,0,7.65,0A166.31,166.31,0,0,0,113,51.38a107.34,107.34,0,0,0,15.45-4.54,54.28,54.28,0,0,0,14.09-7.58A22.87,22.87,0,0,0,148,33.44a14.06,14.06,0,0,0,.93-1.76,13.75,13.75,0,0,0,.67-1.86A11.33,11.33,0,0,0,150,25.89Z" transform="translate(0)"/></svg>