<svg id="Layer_1" data-name="Layer 1" xmlns="http://www.w3.org/2000/svg" viewBox="0 0 80 70"><defs><style>.cls-1{fill:#92a62c;}</style></defs><title>PF Home Icon</title><path class="cls-1" d="M2.61,36.6A2.58,2.58,0,0,0,4.27,36L40,6.11,61,23.69l7.88,6.59L75.73,36a2.58,2.58,0,0,0,1.66.6A2.68,2.68,0,0,0,79,31.87L68.89,23.39,61,16.8,41.65.6a2.57,2.57,0,0,0-3.3,0L1,31.87A2.67,2.67,0,0,0,2.61,36.6Z" transform="translate(0 0)"/><path class="cls-1" d="M40,9.4,11,33.65v36a1.28,1.28,0,0,0,.08.35H31.43V45.5H48.57V70H68.89a1.28,1.28,0,0,0,.08-.35l0-29.88V33.65Z" transform="translate(0 0)"/></svg>