<svg id="Layer_1" data-name="Layer 1" xmlns="http://www.w3.org/2000/svg" viewBox="0 0 50 50"><defs><style>.cls-1{fill:#666;}</style></defs><title>Phone Icon Dark</title><path class="cls-1" d="M25,50A25,25,0,1,1,50,25,25,25,0,0,1,25,50ZM25,2.38A22.62,22.62,0,1,0,47.62,25h0A22.65,22.65,0,0,0,25,2.38Z"/><path class="cls-1" d="M37.61,32.67l-4.08-4.08a2.13,2.13,0,0,0-3,.05h0L28.48,30.7l-.4-.23a20.53,20.53,0,0,1-4.95-3.57A20.78,20.78,0,0,1,19.55,22l-.22-.4,1.38-1.38.68-.68a2.12,2.12,0,0,0,.05-3h0l-4.08-4.08a2.13,2.13,0,0,0-3,0l-1.14,1.16h0a6.44,6.44,0,0,0-1,1.67,7.17,7.17,0,0,0-.42,1.7c-.54,4.46,1.5,8.54,7,14.08,7.65,7.65,13.82,7.07,14.09,7a7,7,0,0,0,1.69-.43,6.7,6.7,0,0,0,1.67-.94h0l1.17-1.14A2.12,2.12,0,0,0,37.61,32.67Z"/></svg>