<svg id="Layer_1" data-name="Layer 1" xmlns="http://www.w3.org/2000/svg" viewBox="0 0 50 50"><defs><style>.cls-1{fill:#ccc;}</style></defs><title>Phone Icon</title><path class="cls-1" d="M25,50A25,25,0,1,1,50,25,25,25,0,0,1,25,50ZM25,2.38A22.62,22.62,0,1,0,47.62,25,22.65,22.65,0,0,0,25,2.38Z"/><path class="cls-1" d="M37.61,32.67l-4.08-4.08a2.12,2.12,0,0,0-3,.05L28.48,30.7l-.4-.23a20.43,20.43,0,0,1-4.95-3.57A20.72,20.72,0,0,1,19.55,22l-.22-.4,1.38-1.38.68-.68a2.12,2.12,0,0,0,.05-3l-4.08-4.08a2.13,2.13,0,0,0-3,.05l-1.14,1.16,0,0a6.52,6.52,0,0,0-.95,1.67,6.81,6.81,0,0,0-.42,1.7c-.54,4.46,1.5,8.54,7,14.08,7.65,7.65,13.82,7.07,14.09,7a6.88,6.88,0,0,0,1.69-.43,6.8,6.8,0,0,0,1.67-.94l0,0,1.17-1.14A2.13,2.13,0,0,0,37.61,32.67Z"/></svg>