<svg id="Layer_1" data-name="Layer 1" xmlns="http://www.w3.org/2000/svg" viewBox="0 0 40 40"><defs><style>.cls-1{fill:#f2f2f2;}</style></defs><title>Point down</title><path class="cls-1" d="M20,40A20,20,0,1,1,40,20,20,20,0,0,1,20,40ZM20,1.9A18.1,18.1,0,1,0,38.1,20,18.12,18.12,0,0,0,20,1.9Z"/><path class="cls-1" d="M13.11,19.55h0a1.14,1.14,0,0,1,1.6.27l5.47,7.72,5.47-7.72a1.14,1.14,0,0,1,1.6-.27h0a1.13,1.13,0,0,1,.27,1.59L20.18,31.51,12.84,21.14A1.13,1.13,0,0,1,13.11,19.55Z"/><path class="cls-1" d="M13.11,11.93h0a1.14,1.14,0,0,1,1.6.27l5.47,7.72,5.47-7.72a1.14,1.14,0,0,1,1.6-.27h0a1.13,1.13,0,0,1,.27,1.59L20.18,23.89,12.84,13.52A1.13,1.13,0,0,1,13.11,11.93Z"/></svg>